<svg width="168" height="42" fill="none" xmlns="http://www.w3.org/2000/svg"><path d="M12.628 17.842a5.655 5.655 0 01-3.344 1.122c-2.772 0-4.664-1.936-4.664-4.664 0-3.036 1.936-4.664 4.312-4.664 1.452 0 2.31.44 3.146.946l1.562-2.64c-.924-.902-2.662-1.606-4.708-1.606C3.63 6.336.88 9.878.88 14.3c0 4.796 3.3 7.964 8.074 7.964 2.09 0 4.092-.748 5.016-1.782l-1.342-2.64zM19.916 22v-5.39h1.298l3.74 5.39h4.268l-4.488-6.072c.836-.418 2.596-1.584 2.596-4.444 0-2.838-1.496-4.928-5.698-4.928-.44 0-4.378.044-5.236.044V22h3.52zm1.54-12.144c1.694 0 2.134.814 2.134 1.672 0 1.298-1.056 1.782-2.398 1.782h-1.276V9.9c.726-.022 1.012-.044 1.54-.044zM42.941 6.6h-3.806l-3.256 5.83-3.3-5.83h-4.026l5.412 9.13V22h3.52v-6.27L42.94 6.6zM48.447 22v-5.236c.55.066 1.386.066 1.716.066 3.564 0 5.698-2.42 5.698-5.17 0-2.662-1.54-5.104-6.226-5.104-1.188 0-3.85.044-4.708.044V22h3.52zm1.54-12.144c1.254 0 2.134.418 2.134 1.782 0 1.496-1.144 1.892-2.068 1.892-.506 0-1.1-.044-1.606-.11V9.9c.726-.022 1.078-.044 1.54-.044zm6.715.044h4.62V22h3.52V9.9h4.62V6.6h-12.76v3.3zm13.186 4.4c0 4.906 3.498 7.964 8.184 7.964 4.686 0 8.184-3.3 8.184-7.964 0-4.906-3.498-7.964-8.184-7.964-4.906 0-8.184 3.498-8.184 7.964zm3.74 0c0-2.816 1.892-4.664 4.444-4.664 2.486 0 4.444 1.848 4.444 4.664 0 2.596-1.518 4.664-4.444 4.664-2.464 0-4.444-2.024-4.444-4.664zM92.64 22v-5.39h1.298l3.74 5.39h4.268l-4.488-6.072c.836-.418 2.596-1.584 2.596-4.444 0-2.838-1.496-4.928-5.698-4.928-.44 0-4.378.044-5.236.044V22h3.52zm1.54-12.144c1.694 0 2.134.814 2.134 1.672 0 1.298-1.056 1.782-2.398 1.782H92.64V9.9c.726-.022 1.012-.044 1.54-.044zm13.952 13.486c0 2.266 2.266 3.234 5.148 3.234 2.882 0 5.148-1.012 5.148-3.234s-2.266-3.234-5.148-3.234h-.11a1.022 1.022 0 01-.132-.506c0-.11 0-.242.044-.374h.176c2.552 0 4.202-1.672 4.202-3.652 0-.44-.088-.88-.242-1.276l1.65-.374-.088-2.024-2.992.66c-.682-.44-1.54-.704-2.53-.704-2.618 0-4.224 1.738-4.224 3.718 0 1.452.858 2.728 2.354 3.322-.154.198-.22.462-.22.704 0 .22.066.484.176.682-1.892.396-3.212 1.408-3.212 3.058zm2.354 0c0-.726.99-1.21 2.794-1.21 1.826 0 2.772.484 2.772 1.21 0 .792-1.056 1.21-2.772 1.21-1.716 0-2.794-.44-2.794-1.21zm.924-7.766c0-.902.704-1.672 1.848-1.672 1.188 0 1.848.748 1.848 1.672 0 .99-.77 1.606-1.848 1.606-1.144 0-1.848-.682-1.848-1.606zm17.953-3.476h-2.53v6.578c-.572.748-1.386 1.21-2.222 1.21-1.386 0-1.892-.946-1.892-2.266V12.1h-2.53v6.05c0 2.838 1.54 4.092 3.476 4.092 1.54 0 2.574-.726 3.168-1.452V22h2.53v-9.9zm2.819 9.9h2.53v-6.644c.286-.572.748-1.056 1.628-1.056.528 0 .792.088 1.276.374l.902-2.376c-.33-.242-.726-.374-1.54-.374-1.188 0-1.804.506-2.266 1.144V12.1h-2.53V22zm16.732-9.9h-2.53v6.578c-.572.748-1.386 1.21-2.222 1.21-1.386 0-1.892-.946-1.892-2.266V12.1h-2.53v6.05c0 2.838 1.54 4.092 3.476 4.092 1.54 0 2.574-.726 3.168-1.452V22h2.53v-9.9z" fill="#4B4C6E"/><path d="M102.823 19.888c0 1.166.836 2.244 2.244 2.244 1.232 0 2.068-1.078 2.068-2.244 0-.99-.836-2.068-2.068-2.068-1.408 0-2.244 1.078-2.244 2.068z" fill="#F54B31"/></svg>