<svg width="141" height="18" fill="none" xmlns="http://www.w3.org/2000/svg"><path d="M48.364 17.038a.554.554 0 01-.404-.163.537.537 0 01-.166-.398V1.254c0-.172.047-.312.142-.421a.584.584 0 01.428-.164h1.83c.19 0 .332.04.427.117a.994.994 0 01.262.257l6.844 10.477V1.254c0-.172.048-.312.143-.421a.584.584 0 01.428-.164h1.996a.565.565 0 01.594.585v15.2a.565.565 0 01-.57.584h-1.854c-.27 0-.499-.124-.69-.374l-6.82-10.242v10.055a.565.565 0 01-.166.421.64.64 0 01-.428.14h-1.996z" fill="#2D2D2D"/><path fill-rule="evenodd" clip-rule="evenodd" d="M15.863 16.875c.11.109.245.163.404.163h10.646a.64.64 0 00.428-.14.565.565 0 00.167-.42v-1.544a.565.565 0 00-.167-.421.584.584 0 00-.428-.164h-8.008V3.358h7.818a.64.64 0 00.428-.14.565.565 0 00.167-.42V1.253a.565.565 0 00-.167-.421.584.584 0 00-.428-.164H16.267a.584.584 0 00-.428.164.617.617 0 00-.143.42v15.224c0 .156.056.289.167.398zm4.88-9.378v2.573h5.458a.64.64 0 00.427-.14.567.567 0 00.167-.421v-1.45a.491.491 0 00-.167-.398.584.584 0 00-.427-.163h-5.458zm-15.61 9.378a.555.555 0 00.404.163h2.187a.584.584 0 00.428-.163.537.537 0 00.166-.398V3.546h4.373a.584.584 0 00.427-.164.537.537 0 00.167-.398v-1.73a.565.565 0 00-.167-.421.584.584 0 00-.427-.164H4.967v15.808c0 .156.055.289.166.398zM2.77.669H.57a.584.584 0 00-.427.164.618.618 0 00-.143.42v1.731c0 .156.055.289.166.398a.555.555 0 00.404.163h2.2V.67zm27.876 16.206a.555.555 0 00.404.163h2.163a.507.507 0 00.404-.163.536.536 0 00.166-.398V1.254a.565.565 0 00-.166-.421.507.507 0 00-.404-.164H31.05a.584.584 0 00-.427.164.617.617 0 00-.143.42v15.224c0 .156.055.289.166.398zm4.95-6.665h5.198v6.267c0 .156.056.289.167.398.11.109.245.163.404.163h2.138a.64.64 0 00.428-.14.565.565 0 00.167-.42V1.253a.565.565 0 00-.167-.421.584.584 0 00-.428-.164h-2.138a.584.584 0 00-.428.164.617.617 0 00-.143.42v6.034h-5.197v2.923zm34.658 7.04c-1.805-.11-3.24-.641-4.303-1.591-1.204-1.076-1.838-2.674-1.901-4.794a61.683 61.683 0 01-.024-1.988c0-.888.008-1.559.024-2.01.063-2.074.713-3.664 1.949-4.771 1.087-.974 2.505-1.52 4.255-1.637v2.724c-.711.118-1.306.419-1.784.9-.634.624-.974 1.583-1.022 2.877a57.446 57.446 0 00-.024 1.894c0 .795.008 1.426.024 1.894.048 1.294.38 2.26.998 2.9.48.472 1.083.765 1.808.88v2.722zm1.98-.043c1.568-.174 2.832-.69 3.794-1.548 1.204-1.076 1.845-2.674 1.924-4.794.032-.904.048-1.567.048-1.988 0-.436-.016-1.107-.047-2.01-.064-2.074-.721-3.664-1.973-4.771C75 1.218 73.752.689 72.235.506V3.3c.502.157.935.418 1.297.783.634.624.975 1.583 1.022 2.877.032.904.048 1.535.048 1.894 0 .327-.016.959-.048 1.894-.047 1.294-.388 2.26-1.022 2.9a3.107 3.107 0 01-1.297.764v2.795z" fill="#2D2D2D"/><path d="M85.84 17.5a.52.52 0 01-.386-.146.527.527 0 01-.145-.388V1.957h-4.778a.52.52 0 01-.386-.146.527.527 0 01-.145-.388v-.364c0-.162.048-.292.145-.389A.482.482 0 0180.53.5h11.053c.177 0 .313.049.41.146.096.097.145.234.145.413v.364a.488.488 0 01-.17.388.52.52 0 01-.385.146h-4.755v15.009a.488.488 0 01-.168.388.52.52 0 01-.386.146h-.435zm9.74 0a.52.52 0 01-.385-.146.527.527 0 01-.145-.388V1.059c0-.162.048-.292.145-.389A.482.482 0 0195.58.5h9.412c.177 0 .313.049.41.146.096.097.145.234.145.413v.364a.49.49 0 01-.169.388.522.522 0 01-.386.146H96.57V8.15h7.892c.177 0 .313.049.41.146.096.097.145.234.145.413v.364a.49.49 0 01-.169.388.52.52 0 01-.386.146H96.57v6.436h8.616c.177 0 .313.048.41.146.096.097.145.234.145.412v.365a.49.49 0 01-.169.388.52.52 0 01-.386.146h-9.605zm14.307 0a.61.61 0 01-.411-.146.529.529 0 01-.144-.388V1.059c0-.179.048-.316.144-.413a.609.609 0 01.411-.146h.603c.241 0 .41.105.507.316l5.478 10.734L121.977.816c.113-.21.282-.316.507-.316h.579c.177 0 .314.049.41.146.097.097.145.234.145.413v15.907a.486.486 0 01-.169.388.519.519 0 01-.386.146h-.434a.523.523 0 01-.387-.146.529.529 0 01-.144-.388V3.803l-4.61 9.131c-.144.324-.394.486-.748.486h-.531c-.354 0-.603-.162-.748-.486l-4.609-9.131v13.163a.525.525 0 01-.145.388.519.519 0 01-.386.146h-.434zm17.068 0a.462.462 0 01-.338-.146.466.466 0 01-.145-.34l.048-.267L132.626.986c.129-.324.362-.486.7-.486h.82c.338 0 .572.162.7.486l6.106 15.761.048.267c0 .13-.048.243-.145.34a.46.46 0 01-.338.146h-.482a.543.543 0 01-.362-.121.73.73 0 01-.169-.243l-1.496-3.886h-8.543l-1.497 3.886a.634.634 0 01-.193.243.454.454 0 01-.337.121h-.483zm10.473-5.707l-3.692-9.569-3.692 9.569h7.384z" fill="#2D2D2D"/></svg>