<svg width="25" height="25" fill="none" xmlns="http://www.w3.org/2000/svg"><path d="M2.201 5.417a12.446 12.446 0 00-1.79 3.896h5.686L2.201 5.417zM8.999.5A12.455 12.455 0 005.05 2.462L9 6.41V.5zM5.344 22.746A12.438 12.438 0 009 24.5v-5.407l-3.655 3.654zM.555 16.19a12.453 12.453 0 001.856 3.686l3.685-3.685H.555z" fill="#29337A"/><path d="M2.408 5.127c-.07.096-.139.193-.206.29l3.895 3.896H.411c-.092.35-.167.708-.229 1.07h7.483L2.408 5.128zM5.055 22.54c.095.071.193.138.29.206l3.654-3.654v5.407c.352.103.708.191 1.071.263v-7.237L5.055 22.54zM.277 15.12c.078.363.17.72.278 1.07h5.542L2.41 19.878c.4.547.845 1.061 1.328 1.537l6.293-6.294H.277zM9 .5v5.91L5.05 2.463a12.57 12.57 0 00-1.525 1.34l6.544 6.545V.237C9.707.31 9.35.399 9 .5z" fill="#fff"/><path d="M9 16.153l-.038.038h.037v-.038zm1.033-1.033h.037v-.037l-.037.037zm4.81-4.737h-.036v.037l.036-.037zm-5.807-1.07L9 9.276v.037h.036zm1.034 1.034v.037h.037l-.037-.037z" fill="#D32030"/><path d="M15.877 21.732v2.802a12.428 12.428 0 003.706-1.736l-3.037-3.036c-.242.852-.33 1.293-.669 1.97zm.685-16.007l3.315-3.315a12.454 12.454 0 00-4-1.945v2.879c.39.78.422 1.373.685 2.38zm5.976 14.225a12.464 12.464 0 001.908-3.76h-5.667l3.759 3.76zm2.051-10.637a12.443 12.443 0 00-1.842-3.969l-3.97 3.969h5.812z" fill="#252F6C"/><path d="M17.293 15.332l.858.86 4.112 4.11c.093-.116.186-.232.275-.352l-3.758-3.76h5.666c.108-.35.2-.708.277-1.07h-7.35c-.012.151-.066.06-.08.211zm-.86-8.98l3.726-3.727a12.988 12.988 0 00-.282-.214l-3.314 3.314c.034.131-.162.493-.13.627zm-.556-3.238V.465c-.35-.098-.708-.181-1.07-.25v1.293c.398.431.755.974 1.07 1.606zm1.331 7.269h7.61c-.061-.362-.137-.72-.229-1.07h-5.81l3.968-3.969a12.563 12.563 0 00-1.297-1.567l-4.47 4.47c.12.81.174 1.282.228 2.136zm-.842 9.197l3.217 3.218a12.528 12.528 0 001.51-1.224l-4.232-4.231a21.68 21.68 0 01-.495 2.238zm-1.559 3.764v1.44c.363-.068.72-.151 1.07-.25v-2.802c-.315.632-.672 1.18-1.07 1.612z" fill="#E7E7E7"/><path d="M16.98 8.247l4.47-4.47a12.497 12.497 0 00-1.291-1.152l-3.512 3.513c.156.652.227 1.4.332 2.11z" fill="#D71F28"/><path d="M11.876.015zM12.5 25zm0 0c.788 0 1.558-.076 2.306-.216v-1.44C14.15 24.055 13.382 25 12.5 25z" fill="#D32030"/><path d="M24.818 10.383h-7.512c.1 1.568.088 3.18-.036 4.737h7.453a12.538 12.538 0 00.095-4.737zm-7.526 4.949c-.07.739-.311 1.314-.432 2.01l4.232 4.232c.418-.397.81-.82 1.17-1.271l-4.11-4.112-.86-.859z" fill="#D71F28"/><path d="M14.807 1.6V.216A12.56 12.56 0 0012.5 0c.882 0 1.65.889 2.307 1.6z" fill="#D32030"/><path d="M15.877 22.273c.338-.678.628-1.457.87-2.31l-.87-.87v3.18zm.979-16.842c-.263-1.007-.59-1.923-.979-2.704V6.41l.98-.979z" fill="#29337A"/><path d="M17.535 15.574c.014-.15.027-.302.039-.454h-.493l.454.454zM15.877 6.41V2.727c-.315-.632-.672-1.174-1.07-1.606v6.856l2.15-2.15a25.044 25.044 0 00-.1-.396l-.98.979zm-1.034 3.973h2.767a30.154 30.154 0 00-.261-2.506l-2.506 2.506zm-.036 13.495c.398-.431.755-.974 1.07-1.606v-3.18l.871.87c.2-.7.368-1.447.503-2.23l-2.444-2.443v8.59z" fill="#fff"/><path d="M14.807 23.879v-8.59l2.443 2.444c.12-.697.215-1.42.285-2.159l-.455-.454h.494c.123-1.557.135-3.169.036-4.737h-2.767l2.506-2.506a24.042 24.042 0 00-.393-2.05l-2.15 2.15V1.122C14.15.41 13.383 0 12.5 0a12.583 12.583 0 00-2.43.238v10.109L3.526 3.803c-.402.415-.776.857-1.118 1.324l4.186 4.186 1.07 1.07H.183A12.593 12.593 0 000 12.5c0 .9.097 1.775.277 2.62h9.755L3.74 21.413c.412.405.851.782 1.315 1.127l5.016-5.015v7.237A12.6 12.6 0 0012.5 25c.882 0 1.65-.41 2.307-1.121z" fill="#E51D35"/></svg>