<svg width="35" height="48" viewBox="0 0 35 48" fill="none" xmlns="http://www.w3.org/2000/svg">
<path d="M33.6506 21.0912C33.3366 22.1712 32.6143 24.1501 31.3703 24.932C30.4557 25.5068 29.4003 24.4398 29.9871 23.5341C30.6435 22.521 31.1311 21.4127 31.2796 20.2488C31.7752 16.3642 29.6867 12.7888 28.8136 11.4911C28.6997 11.3218 28.4378 11.3926 28.4229 11.5959C28.0552 16.6407 23.3339 20.4963 22.65 17.8527C21.9383 15.1017 26.9203 11.1083 24.7851 6.13874C22.9823 1.94267 18.9596 1.03649 17.751 0.856061C17.6612 0.842606 17.6128 0.958193 17.6858 1.01219C18.6047 1.69208 21.3293 4.05926 19.5362 7.11491C17.5361 10.5232 11.0258 11.8319 9.09745 17.8904C8.8695 18.6064 7.9596 18.8214 7.43915 18.2784L7.43299 18.272C6.53911 17.3368 7.11134 15.6815 7.49763 14.8352C7.58173 14.651 7.38401 14.4662 7.20377 14.559C5.86848 15.2463 2.66522 17.4304 3.26587 22.3563C3.30362 22.6662 3.3526 22.9591 3.41063 23.2374C1.66841 25.7014 0.644622 28.7071 0.644531 31.9514C0.64435 40.3094 7.42023 47.0782 15.799 47.0898C24.1372 47.1013 30.909 40.4044 30.9941 32.1097C31.7448 31.6322 32.4968 30.859 33.1534 29.6386C35.0365 26.1383 34.4504 22.5928 34.0626 21.0977C34.0081 20.8875 33.7111 20.8828 33.6506 21.0912Z" fill="#F24848"/>
<path d="M28.8441 21.0492C28.6955 22.2131 28.2079 23.3214 27.5516 24.3345C26.9661 25.2381 28.0179 26.3065 28.9314 25.7344C29.3435 25.4763 29.6978 25.0861 29.9996 24.6413C29.7876 24.3371 29.736 23.9215 29.9871 23.5339C30.6435 22.5208 31.1311 21.4125 31.2796 20.2486C31.7752 16.364 29.6869 12.7888 28.8137 11.4909C28.6997 11.3215 28.4378 11.3925 28.4229 11.5959C28.3443 12.6724 28.0672 13.6944 27.6737 14.611C28.4548 16.3166 29.1538 18.6224 28.8441 21.0492Z" fill="#F24848"/>
<path d="M19.8389 3.61839C20.8043 4.392 21.7143 5.46152 22.3491 6.93894C24.4842 11.9085 19.5023 15.9019 20.214 18.6528C20.5433 19.9255 21.8084 19.6911 23.0729 18.5435C22.8809 18.4054 22.7341 18.179 22.6496 17.8523C21.9378 15.1013 26.9199 11.108 24.7848 6.13842C22.982 1.94249 18.9594 1.03622 17.7507 0.855803C17.661 0.842438 17.6128 0.958114 17.6855 1.01202C18.207 1.39815 19.3102 2.3278 19.8389 3.61839Z" fill="#F24848"/>
<path d="M26.9418 32.1093C26.8639 39.7132 21.1662 45.9734 13.7939 46.9546C14.114 46.9973 14.4372 47.0296 14.763 47.0522C14.7941 47.0543 14.8253 47.0561 14.8565 47.058C14.9831 47.0661 15.11 47.0722 15.2368 47.0771C15.2748 47.0785 15.3127 47.0803 15.3508 47.0814C15.5063 47.0862 15.6622 47.0893 15.8189 47.0893C15.8193 47.0893 15.8198 47.0893 15.8202 47.0893C15.8208 47.0893 15.8214 47.0893 15.822 47.0893C15.9706 47.0893 16.1186 47.0866 16.2663 47.0822C16.3123 47.0809 16.3581 47.0788 16.404 47.0771C16.5081 47.0731 16.612 47.0683 16.7157 47.0624C16.766 47.0595 16.8162 47.0563 16.8665 47.0529C16.9722 47.0457 17.0775 47.0373 17.1826 47.028C17.2247 47.0243 17.2668 47.0209 17.3088 47.0169C17.4558 47.0026 17.6024 46.9867 17.748 46.9683C17.7489 46.9682 17.7496 46.968 17.7504 46.9679C17.8946 46.9497 18.038 46.9288 18.1809 46.9066C18.221 46.9004 18.2609 46.8934 18.3009 46.8869C18.4068 46.8696 18.5124 46.8512 18.6176 46.8317C18.661 46.8235 18.7045 46.8154 18.7478 46.8069C18.8572 46.7856 18.966 46.763 19.0745 46.7394C19.1079 46.7321 19.1415 46.7252 19.1748 46.7177C19.3184 46.6854 19.4614 46.6514 19.6034 46.615C26.105 44.9507 30.9223 39.0971 30.9939 32.1093C31.7446 31.6318 32.4966 30.8586 33.1532 29.6382C35.0362 26.138 34.4502 22.5926 34.0625 21.0975C34.0079 20.8871 33.7107 20.8834 33.6501 21.0921C33.337 22.1687 32.6185 24.1369 31.3824 24.9238C31.3825 24.9238 31.7672 28.6205 26.9418 32.1093Z" fill="#F24848"/>
<path d="M15.967 44.4797C22.8056 44.4797 28.3494 38.9497 28.3494 32.1281C28.3494 25.3066 22.8056 19.7766 15.967 19.7766C9.1283 19.7766 3.58447 25.3066 3.58447 32.1281C3.58447 38.9497 9.1283 44.4797 15.967 44.4797Z" fill="#535C69"/>
<path d="M10.298 28.8953V31.6553H7.11805V28.8953H5.49805V35.8953H7.11805V33.0253H10.298V35.8953H11.918V28.8953H10.298Z" fill="white"/>
<path d="M16.9642 36.0153C19.1642 36.0153 20.7942 34.4853 20.7942 32.3953C20.7942 30.3053 19.1642 28.7753 16.9642 28.7753C14.7542 28.7753 13.1342 30.3153 13.1342 32.3953C13.1342 34.4753 14.7542 36.0153 16.9642 36.0153ZM16.9642 34.6353C15.7142 34.6353 14.7742 33.7253 14.7742 32.3953C14.7742 31.0653 15.7142 30.1553 16.9642 30.1553C18.2142 30.1553 19.1542 31.0653 19.1542 32.3953C19.1542 33.7253 18.2142 34.6353 16.9642 34.6353Z" fill="white"/>
<path d="M23.3641 35.8953H24.9841V30.2153H27.2241V28.8953H21.1241V30.2153H23.3641V35.8953Z" fill="white"/>
</svg>
