<svg width="25" height="26" viewBox="0 0 25 26" fill="none" xmlns="http://www.w3.org/2000/svg">
<path d="M9.64577 19.6844C7.90526 19.6844 6.48926 21.1005 6.48926 22.841C6.48926 24.5815 7.90526 25.9975 9.64577 25.9975C11.3863 25.9975 12.8023 24.5815 12.8023 22.841C12.8023 21.1005 11.3862 19.6844 9.64577 19.6844ZM9.64577 24.1036C8.94944 24.1036 8.38319 23.5373 8.38319 22.841C8.38319 22.1446 8.94944 21.5784 9.64577 21.5784C10.3418 21.5784 10.9084 22.1446 10.9084 22.841C10.9084 23.5372 10.3421 24.1036 9.64577 24.1036Z" fill="#535D66"/>
<path d="M18.9885 19.6844C17.248 19.6844 15.832 21.1005 15.832 22.841C15.832 24.5815 17.248 25.9975 18.9885 25.9975C20.7291 25.9975 22.1451 24.5815 22.1451 22.841C22.1451 21.1005 20.7291 19.6844 18.9885 19.6844ZM18.9885 24.1036C18.2922 24.1036 17.726 23.5373 17.726 22.841C17.726 22.1446 18.2922 21.5784 18.9885 21.5784C19.6849 21.5784 20.2511 22.1446 20.2511 22.841C20.2511 23.5372 19.6849 24.1036 18.9885 24.1036Z" fill="#535D66"/>
<path d="M24.4646 7.16324C24.2847 6.93722 24.012 6.80563 23.7235 6.80563H7.14241L6.28163 2.45532C6.20619 2.07432 5.90571 1.77793 5.52343 1.70786L1.73562 1.01344C1.2202 0.918418 0.727771 1.25968 0.633387 1.77417C0.539003 2.28867 0.879577 2.78203 1.39412 2.87641L4.54873 3.45468L7.32772 17.5008C7.41546 17.9443 7.80466 18.264 8.25666 18.264H21.514C21.9549 18.264 22.3372 17.9601 22.4366 17.5298L24.6462 7.96563C24.7112 7.68438 24.6443 7.38892 24.4646 7.16324ZM20.7608 16.3701H9.03439L7.51707 8.69985H22.5325L20.7608 16.3701Z" fill="#535D66"/>
</svg>
