<svg width="79" height="79" viewBox="0 0 79 79" fill="none" xmlns="http://www.w3.org/2000/svg">
<circle opacity="0.6" cx="39.875" cy="39.5869" r="39" fill="#C4C4C5"/>
<path d="M32.437 30.6452C32.824 32.7646 32.0438 34.6875 30.6923 34.9393C29.3408 35.1851 27.9217 33.6677 27.5347 31.5483C27.1477 29.4289 27.9279 27.5061 29.2794 27.2542C30.6309 27.0085 32.0438 28.5258 32.437 30.6452Z" fill="white" stroke="#535C69" stroke-width="0.973505" stroke-miterlimit="10" stroke-linecap="round" stroke-linejoin="round"/>
<path d="M47.3135 30.6453C46.9265 32.7647 47.7067 34.6875 49.0582 34.9394C50.4097 35.1851 51.8288 33.6678 52.2158 31.5483C52.6028 29.4289 51.8226 27.5061 50.4711 27.2542C49.1196 27.0085 47.7067 28.5259 47.3135 30.6453Z" fill="white" stroke="#535C69" stroke-width="0.973505" stroke-miterlimit="10" stroke-linecap="round" stroke-linejoin="round"/>
<path d="M17.3228 65.5158L17.3223 55.066C18.1332 52.0374 20.4246 49.6231 23.4163 48.6648L39.8739 43.3878L56.3316 48.6648C59.3233 49.6231 61.6208 52.0374 62.4256 55.066V65.5158" stroke="#535C69" stroke-width="0.973505" stroke-miterlimit="10" stroke-linecap="round" stroke-linejoin="round"/>
<path d="M34.7256 35.8986V44.2349C34.7256 47.0792 37.0293 49.3829 39.8736 49.3829C42.7179 49.3829 45.0216 47.0792 45.0216 44.2349V35.8986H34.7256Z" fill="white" stroke="#535C69" stroke-width="0.973505" stroke-miterlimit="10" stroke-linecap="round" stroke-linejoin="round"/>
<path d="M29.8726 19.276V28.0362C29.8726 36.1022 34.3509 42.6385 39.8737 42.6385C45.3964 42.6385 49.8748 36.1022 49.8748 28.0362V19.276H29.8726Z" fill="white" stroke="#535C69" stroke-width="0.973505" stroke-miterlimit="10" stroke-linecap="round" stroke-linejoin="round"/>
<path d="M29.8723 28.6919H34.6517C37.4284 28.6919 40.113 26.9964 42.1955 23.9248L44.4071 20.6627L49.8807 27.8749L51.1216 25.4913C53.2594 21.3876 51.0049 15.9509 47.0118 15.6868C46.7046 15.6683 46.3852 15.656 46.0535 15.656H44.2474C44.2474 15.656 41.2925 12.136 33.7548 14.4397C27.5379 16.3379 26.7024 23.7835 29.8723 28.6919Z" fill="white" stroke="#535C69" stroke-width="0.973505" stroke-miterlimit="10" stroke-linecap="round" stroke-linejoin="round"/>
<path d="M44.2476 15.6554V20.6621" stroke="#535C69" stroke-width="0.973505" stroke-miterlimit="10" stroke-linecap="round" stroke-linejoin="round"/>
<path d="M36.471 30.1112C36.471 30.7071 35.9857 31.1924 35.3898 31.1924C34.7939 31.1924 34.3086 30.7071 34.3086 30.1112C34.3086 29.5153 34.7939 29.03 35.3898 29.03C35.9857 29.03 36.471 29.5153 36.471 30.1112Z" fill="#535C69"/>
<path d="M43.2788 30.1101C43.2788 30.706 43.7641 31.1913 44.36 31.1913C44.9559 31.1913 45.4412 30.706 45.4412 30.1101C45.4412 29.5142 44.9559 29.0289 44.36 29.0289C43.7641 29.0289 43.2788 29.5142 43.2788 30.1101Z" fill="#535C69"/>
<path d="M37.3691 36.715C37.9712 37.4276 38.8681 37.8822 39.8756 37.8822C40.883 37.8822 41.7799 37.4276 42.382 36.715" fill="white"/>
<path d="M37.3691 36.715C37.9712 37.4276 38.8681 37.8822 39.8756 37.8822C40.883 37.8822 41.7799 37.4276 42.382 36.715" stroke="#535C69" stroke-width="0.973505" stroke-miterlimit="10" stroke-linecap="round" stroke-linejoin="round"/>
<path d="M30.4136 46.4215L36.01 65.275" stroke="#535C69" stroke-width="0.973505" stroke-miterlimit="10" stroke-linecap="round" stroke-linejoin="round"/>
<path d="M49.3362 46.4215L43.7397 65.275" stroke="#535C69" stroke-width="0.973505" stroke-miterlimit="10" stroke-linecap="round" stroke-linejoin="round"/>
</svg>
