<svg width="28" height="26" viewBox="0 0 28 26" fill="none" xmlns="http://www.w3.org/2000/svg">
<path d="M25.1446 3.34767C23.753 1.85193 21.8031 1.00087 19.7601 0.997715C17.7155 1.00008 15.7635 1.85069 14.3698 3.34672L13.8948 3.84864L13.4198 3.34672C10.6543 0.370267 5.99944 0.199334 3.02305 2.96485C2.89116 3.08744 2.76378 3.21477 2.64118 3.34672C-0.292504 6.51105 -0.292504 11.4014 2.64118 14.5657L13.1968 25.6973C13.5619 26.0828 14.1705 26.0993 14.556 25.7341C14.5687 25.7222 14.5809 25.7099 14.5929 25.6973L25.1446 14.5657C28.0781 11.4017 28.0781 6.51167 25.1446 3.34767ZM23.7533 13.2417H23.7523L13.8948 23.6386L4.03636 13.2417C1.7952 10.8239 1.7952 7.08763 4.03636 4.66978C6.07161 2.46388 9.50982 2.32557 11.7157 4.36082C11.8228 4.45964 11.9259 4.56268 12.0247 4.66978L13.1968 5.90631C13.583 6.29009 14.2066 6.29009 14.5929 5.90631L15.765 4.67074C17.8002 2.46484 21.2384 2.32653 23.4443 4.36178C23.5514 4.46059 23.6545 4.56364 23.7533 4.67074C26.0139 7.09242 26.0305 10.8355 23.7533 13.2417Z" fill="#535D69"/>
</svg>
