<svg width="17" height="22" viewBox="0 0 17 22" fill="none" xmlns="http://www.w3.org/2000/svg">
<path d="M13.7131 2.61032L13.7131 2.61035C14.9583 3.85528 15.6776 5.67264 15.8025 7.56426C15.9274 9.45557 15.4544 11.3688 14.3823 12.7978L14.3766 12.8054L14.3711 12.8132L8.61858 21.1217L2.85679 12.8008L2.85138 12.793L2.84567 12.7853C1.77846 11.3629 1.30751 9.45306 1.43349 7.56302C1.55948 5.67276 2.27891 3.85531 3.52405 2.61035L3.52408 2.61032C4.88556 1.24884 6.69294 0.5 8.6186 0.5C10.5439 0.5 12.3516 1.24885 13.7131 2.61032ZM5.37728 7.63373C5.37728 9.46032 6.86312 10.9462 8.68971 10.9462C10.5163 10.9462 12.0021 9.46032 12.0021 7.63373C12.0021 5.80714 10.5163 4.3213 8.68971 4.3213C6.86312 4.3213 5.37728 5.80714 5.37728 7.63373Z" fill="#F24848" stroke="white"/>
</svg>
