<svg width="285" height="63" viewBox="0 0 285 63" fill="none" xmlns="http://www.w3.org/2000/svg">
<path d="M81.271 43.9983H92.4997C100.864 43.9983 106.547 38.8167 106.547 31.0211C106.547 23.2254 100.864 18.0438 92.4997 18.0438H81.271V43.9983ZM86.0767 39.8904V22.0584H92.3149C98.0448 22.0584 101.742 25.6061 101.742 30.9744C101.742 36.3427 98.0448 39.8904 92.3149 39.8904H86.0767Z" fill="white"/>
<path d="M120.039 44.2307C126.139 44.2307 130.529 39.9827 130.529 34.0543C130.529 28.1258 126.139 23.9246 120.039 23.9246C114.032 23.9246 109.596 28.1258 109.596 34.0543C109.596 39.9827 113.986 44.2307 120.039 44.2307ZM120.039 40.2628C116.712 40.2628 114.217 37.8354 114.217 34.0543C114.217 30.2731 116.712 27.8457 120.039 27.8457C123.366 27.8457 125.862 30.2731 125.862 34.0543C125.862 37.8354 123.366 40.2628 120.039 40.2628Z" fill="white"/>
<path d="M159.689 23.9246C156.547 23.9246 153.913 25.1849 152.342 27.2389C151.002 24.9982 148.599 23.9246 145.734 23.9246C143.054 23.9246 140.789 24.9049 139.311 26.6787V24.158H134.921V43.9973H139.496V33.9142C139.496 29.9931 141.575 27.9858 144.625 27.9858C147.397 27.9858 149.015 29.713 149.015 33.214V43.9973H153.589V33.9142C153.589 29.9931 155.669 27.9858 158.718 27.9858C161.491 27.9858 163.108 29.713 163.108 33.214V43.9973H167.683V32.6072C167.729 26.632 164.402 23.9246 159.689 23.9246Z" fill="white"/>
<path d="M182.609 44.2307C188.708 44.2307 193.098 39.9827 193.098 34.0543C193.098 28.1258 188.708 23.9246 182.609 23.9246C176.602 23.9246 172.166 28.1258 172.166 34.0543C172.166 39.9827 176.555 44.2307 182.609 44.2307ZM182.609 40.2628C179.282 40.2628 176.786 37.8354 176.786 34.0543C176.786 30.2731 179.282 27.8457 182.609 27.8457C185.936 27.8457 188.431 30.2731 188.431 34.0543C188.431 37.8354 185.936 40.2628 182.609 40.2628Z" fill="white"/>
<path d="M200.356 43.9962H205.115V22.0563H213.664V17.9484H191.807V22.0563H200.356V43.9962Z" fill="white"/>
<path d="M233.254 34.1943C233.254 27.9858 229.049 23.9246 223.319 23.9246C217.497 23.9246 213.153 28.1725 213.153 34.0543C213.153 39.936 217.405 44.2307 224.012 44.2307C227.386 44.2307 230.158 43.1103 231.914 41.0097L229.465 38.1622C228.079 39.6093 226.323 40.3095 224.151 40.3095C220.732 40.3095 218.329 38.4423 217.774 35.5481H233.162C233.208 35.1279 233.254 34.5678 233.254 34.1943ZM223.319 27.659C226.323 27.659 228.495 29.6196 228.864 32.4671H217.728C218.19 29.5729 220.362 27.659 223.319 27.659Z" fill="white"/>
<path d="M242.031 27.0522V24.158H237.642V43.9973H242.216V34.381C242.216 30.3198 244.434 28.2659 247.9 28.2659C248.223 28.2659 248.547 28.3125 248.963 28.3592V23.9246C245.774 23.9246 243.371 24.9515 242.031 27.0522Z" fill="white"/>
<path d="M257.331 27.0522V24.158H252.941V43.9973H257.516V34.381C257.516 30.3198 259.734 28.2659 263.199 28.2659C263.523 28.2659 263.846 28.3125 264.262 28.3592V23.9246C261.027 23.9246 258.625 24.9515 257.331 27.0522Z" fill="white"/>
<path d="M275.579 23.9246C272.437 23.9246 269.387 24.7648 267.261 26.3986L269.064 29.7596C270.542 28.546 272.806 27.7991 275.024 27.7991C278.305 27.7991 279.923 29.3862 279.923 32.0937V32.3738H274.84C268.879 32.3738 266.661 34.9879 266.661 38.2555C266.661 41.7099 269.479 44.184 273.962 44.184C276.919 44.184 279.045 43.2037 280.154 41.5232V43.9506H284.497V32.3738C284.497 26.632 281.263 23.9246 275.579 23.9246ZM274.978 40.8697C272.622 40.8697 271.235 39.796 271.235 38.1155C271.235 36.6684 272.067 35.5014 275.209 35.5014H279.923V37.7887C279.137 39.8427 277.196 40.8697 274.978 40.8697Z" fill="white"/>
<path d="M47.2023 19.0212L44.3836 22.569L47.6644 25.1364L29.7353 47.7765L7.093 29.8045L25.0682 7.16432L39.624 18.7411L42.3966 15.2401L24.3289 0.862427L0.808594 30.5047L30.4285 54.0784L53.9488 24.3895L47.2023 19.0212Z" fill="#F35E5F"/>
<path d="M33.8564 41.1948L30.6218 38.5807L48.5971 15.9872L71.1932 33.9593L53.2641 56.5527L38.6621 44.9759L35.8896 48.477L53.9573 62.8546L77.4776 33.2124L47.8577 9.6853L24.3374 39.3275L31.0839 44.6958" fill="white"/>
</svg>
