<svg width="180" height="90" viewBox="0 0 180 90" fill="none" xmlns="http://www.w3.org/2000/svg">
<g clip-path="url(#clip0)">
<path d="M0.696777 78.727H10.5824C17.9459 78.727 22.9497 74.2222 22.9497 67.4447C22.9497 60.6673 17.9459 56.1624 10.5824 56.1624H0.696777V78.727ZM4.92768 75.1962V59.6932H10.4197C15.4643 59.6932 18.7188 62.7776 18.7188 67.4447C18.7188 72.1118 15.4643 75.1962 10.4197 75.1962H4.92768Z" fill="#535C69"/>
<path d="M34.8283 78.9705C40.1983 78.9705 44.0631 75.2774 44.0631 70.1232C44.0631 64.9691 40.1983 61.3166 34.8283 61.3166C29.5397 61.3166 25.6343 64.9691 25.6343 70.1232C25.6343 75.2774 29.499 78.9705 34.8283 78.9705ZM34.8283 75.5208C31.8993 75.5208 29.7024 73.4106 29.7024 70.1232C29.7024 66.836 31.8993 64.7256 34.8283 64.7256C37.7574 64.7256 39.9543 66.836 39.9543 70.1232C39.9543 73.4106 37.7574 75.5208 34.8283 75.5208Z" fill="#535C69"/>
<path d="M69.7332 61.3166C66.9669 61.3166 64.648 62.4124 63.2648 64.198C62.0851 62.25 59.9696 61.3166 57.4473 61.3166C55.0878 61.3166 53.0943 62.1689 51.7925 63.711V61.5195H47.9277V78.7676H51.9553V70.0015C51.9553 66.5924 53.7859 64.8474 56.4709 64.8474C58.9119 64.8474 60.3357 66.349 60.3357 69.3927V78.7676H64.3632V70.0015C64.3632 66.5924 66.1939 64.8474 68.8789 64.8474C71.3198 64.8474 72.7437 66.349 72.7437 69.3927V78.7676H76.7712V68.9057C76.8119 63.6705 73.8828 61.3166 69.7332 61.3166Z" fill="#535C69"/>
<path d="M89.9117 78.9705C95.2817 78.9705 99.1464 75.2774 99.1464 70.1232C99.1464 64.9691 95.2817 61.3166 89.9117 61.3166C84.623 61.3166 80.7173 64.9691 80.7173 70.1232C80.7173 75.2774 84.5823 78.9705 89.9117 78.9705ZM89.9117 75.5208C86.9823 75.5208 84.7857 73.4106 84.7857 70.1232C84.7857 66.836 86.9823 64.7256 89.9117 64.7256C92.8403 64.7256 95.0377 66.836 95.0377 70.1232C95.0377 73.4106 92.8403 75.5208 89.9117 75.5208Z" fill="#535C69"/>
<path d="M105.533 78.727H109.723V59.6934H117.249V56.1219H98.0066V59.6934H105.533V78.727Z" fill="#535C69"/>
<path d="M134.499 70.2045C134.499 64.8069 130.796 61.2761 125.752 61.2761C120.626 61.2761 116.802 64.9693 116.802 70.0827C116.802 75.1963 120.545 78.93 126.362 78.93C129.332 78.93 131.773 77.956 133.319 76.1297L131.163 73.6541C129.942 74.9122 128.396 75.521 126.484 75.521C123.473 75.521 121.358 73.8977 120.87 71.3814H134.418C134.458 71.0161 134.499 70.5292 134.499 70.2045ZM125.752 64.5228C128.396 64.5228 130.308 66.2273 130.633 68.7029H120.83C121.236 66.2273 123.148 64.5228 125.752 64.5228Z" fill="#535C69"/>
<path d="M142.228 64.0357V61.5195H138.364V78.7676H142.391V70.4074C142.391 66.8766 144.343 65.0909 147.395 65.0909C147.679 65.0909 147.964 65.1314 148.33 65.172V61.3166C145.524 61.3166 143.408 62.2095 142.228 64.0357Z" fill="#535C69"/>
<path d="M155.694 64.0357V61.5195H151.829V78.7676H155.857V70.4074C155.857 66.8766 157.81 65.0909 160.86 65.0909C161.145 65.0909 161.43 65.1314 161.796 65.172V61.3166C158.948 61.3166 156.833 62.2095 155.694 64.0357Z" fill="#535C69"/>
<path d="M171.763 61.3166C168.997 61.3166 166.311 62.0471 164.44 63.4675L166.027 66.3895C167.329 65.3344 169.322 64.6851 171.275 64.6851C174.163 64.6851 175.587 66.0649 175.587 68.4188V68.6622H171.112C165.864 68.6622 163.911 70.9349 163.911 73.7758C163.911 76.7789 166.393 78.9299 170.339 78.9299C172.943 78.9299 174.814 78.0777 175.791 76.6166V78.7269H179.615V68.6217C179.615 63.6705 176.726 61.3166 171.763 61.3166ZM171.193 76.0484C169.119 76.0484 167.898 75.115 167.898 73.654C167.898 72.3959 168.631 71.3813 171.397 71.3813H175.587V73.3699C174.895 75.115 173.187 76.0484 171.193 76.0484Z" fill="#535C69"/>
<path d="M97.2342 16.0253L94.7928 19.1097L97.6408 21.3417L81.8563 41.0249L61.9629 25.4001L77.7474 5.71707L90.6028 15.7818L93.0434 12.738L77.1372 0.238281L56.4302 26.0089L82.5076 46.5036L103.214 20.6925L97.2342 16.0253Z" fill="#F35E5F"/>
<path d="M85.5175 35.3027L82.6703 33.0301L98.4541 13.3876L118.389 29.0122L102.564 48.6547L89.7489 38.59L87.3075 41.6338L103.214 54.1335L123.922 28.363L97.8442 7.90875L77.1372 33.6793L83.0769 38.3465" fill="#535C69"/>
</g>
<defs>
<clipPath id="clip0">
<rect width="179" height="89" fill="white" transform="translate(0.630859 0.238281)"/>
</clipPath>
</defs>
</svg>
