<svg width="344" height="75" viewBox="0 0 344 75" fill="none" xmlns="http://www.w3.org/2000/svg">
<path d="M98.0454 52.2039H111.616C121.725 52.2039 128.594 46.0047 128.594 36.6781C128.594 27.3515 121.725 21.1523 111.616 21.1523H98.0454V52.2039ZM103.854 47.2892V25.9553H111.393C118.318 25.9553 122.786 30.1997 122.786 36.6222C122.786 43.0448 118.318 47.2892 111.393 47.2892H103.854Z" fill="#535C69"/>
<path d="M144.902 52.4799C152.274 52.4799 157.579 47.3978 157.579 40.3051C157.579 33.2124 152.274 28.186 144.902 28.186C137.642 28.186 132.28 33.2124 132.28 40.3051C132.28 47.3978 137.586 52.4799 144.902 52.4799ZM144.902 47.7328C140.881 47.7328 137.865 44.8287 137.865 40.3051C137.865 35.7814 140.881 32.8773 144.902 32.8773C148.923 32.8773 151.939 35.7814 151.939 40.3051C151.939 44.8287 148.923 47.7328 144.902 47.7328Z" fill="#535C69"/>
<path d="M192.819 28.186C189.022 28.186 185.838 29.6939 183.939 32.1512C182.32 29.4705 179.416 28.186 175.953 28.186C172.714 28.186 169.977 29.3588 168.19 31.4811V28.4653H162.885V52.2007H168.414V40.1375C168.414 35.4463 170.927 33.0448 174.613 33.0448C177.964 33.0448 179.918 35.1112 179.918 39.2998V52.2007H185.447V40.1375C185.447 35.4463 187.961 33.0448 191.646 33.0448C194.997 33.0448 196.952 35.1112 196.952 39.2998V52.2007H202.481V38.5738C202.537 31.4252 198.516 28.186 192.819 28.186Z" fill="#535C69"/>
<path d="M220.521 52.4799C227.893 52.4799 233.198 47.3978 233.198 40.3051C233.198 33.2124 227.893 28.186 220.521 28.186C213.26 28.186 207.899 33.2124 207.899 40.3051C207.899 47.3978 213.204 52.4799 220.521 52.4799ZM220.521 47.7328C216.5 47.7328 213.484 44.8287 213.484 40.3051C213.484 35.7814 216.5 32.8773 220.521 32.8773C224.542 32.8773 227.557 35.7814 227.557 40.3051C227.557 44.8287 224.542 47.7328 220.521 47.7328Z" fill="#535C69"/>
<path d="M241.965 52.1996H247.718V25.951H258.049V21.0364H231.633V25.951H241.965V52.1996Z" fill="#535C69"/>
<path d="M281.73 40.4726C281.73 33.0448 276.648 28.186 269.723 28.186C262.686 28.186 257.437 33.2682 257.437 40.3051C257.437 47.3419 262.575 52.4799 270.561 52.4799C274.638 52.4799 277.989 51.1396 280.111 48.6264L277.151 45.2197C275.475 46.951 273.353 47.7887 270.728 47.7887C266.596 47.7887 263.692 45.5548 263.021 42.0922H281.619C281.675 41.5896 281.73 40.9194 281.73 40.4726ZM269.723 32.6539C273.353 32.6539 275.978 34.9995 276.425 38.4062H262.965C263.524 34.9436 266.149 32.6539 269.723 32.6539Z" fill="#535C69"/>
<path d="M292.34 31.9279V28.4653H287.035V52.2007H292.564V40.696C292.564 35.8372 295.244 33.3799 299.433 33.3799C299.824 33.3799 300.215 33.4357 300.717 33.4916V28.186C296.864 28.186 293.96 29.4147 292.34 31.9279Z" fill="#535C69"/>
<path d="M310.827 31.9279V28.4653H305.521V52.2007H311.05V40.696C311.05 35.8372 313.731 33.3799 317.919 33.3799C318.31 33.3799 318.701 33.4357 319.204 33.4916V28.186C315.294 28.186 312.39 29.4147 310.827 31.9279Z" fill="#535C69"/>
<path d="M332.886 28.186C329.088 28.186 325.402 29.1913 322.833 31.146L325.012 35.167C326.799 33.715 329.535 32.8214 332.216 32.8214C336.181 32.8214 338.136 34.7203 338.136 37.9594V38.2945H331.993C324.788 38.2945 322.107 41.422 322.107 45.3314C322.107 49.4641 325.514 52.4241 330.931 52.4241C334.506 52.4241 337.075 51.2513 338.415 49.2407V52.1448H343.665V38.2945C343.665 31.4252 339.755 28.186 332.886 28.186ZM332.16 48.4589C329.312 48.4589 327.636 47.1744 327.636 45.1638C327.636 43.4325 328.642 42.0363 332.439 42.0363H338.136V44.7729C337.186 47.2302 334.841 48.4589 332.16 48.4589Z" fill="#535C69"/>
<path d="M56.8849 22.3201L53.4782 26.5645L57.4434 29.6362L35.7743 56.7225L8.40881 35.221L30.1337 8.1347L47.7258 21.985L51.0767 17.7964L29.2401 0.595215L0.813477 36.0587L36.6121 64.262L65.0387 28.7426L56.8849 22.3201Z" fill="#F35E5F"/>
<path d="M40.7459 48.848L36.8365 45.7206L58.5614 18.6901L85.8711 40.1916L64.2021 67.222L46.5541 53.3717L43.2032 57.5603L65.0398 74.7615L93.4664 39.298L57.6679 11.1506L29.2412 46.6141L37.395 53.0367" fill="#535C69"/>
<path d="M99.5953 58.9032L99.4998 60.8981C99.4255 62.373 99.3406 63.8692 98.4175 63.8692C98.3432 63.8692 98.2477 63.848 98.1522 63.8267L98.0991 64.474C98.3007 64.5271 98.4705 64.5589 98.6403 64.5589C99.8393 64.5589 100.083 62.9036 100.179 60.9511L100.253 59.5717H102.927V64.4846H103.681V58.9032H99.5953Z" fill="#535C69"/>
<path d="M111.902 58.9032L109.801 63.6464L107.7 58.9032H106.915L109.409 64.474L109.165 65.0152C108.846 65.7155 108.507 65.949 108.008 65.949C107.605 65.949 107.265 65.8004 106.99 65.5245L106.639 66.0869C106.979 66.4265 107.478 66.5963 107.998 66.5963C108.793 66.5963 109.388 66.2461 109.855 65.1531L112.645 58.9032H111.902Z" fill="#535C69"/>
<path d="M119.358 58.9032V61.556C118.732 61.8212 118.138 61.9698 117.597 61.9698C116.663 61.9698 116.079 61.5454 116.079 60.6965V58.9032H115.326V60.7389C115.326 62.0016 116.153 62.5852 117.459 62.5852C118.085 62.5852 118.732 62.4367 119.358 62.1608V64.4846H120.111V58.9032H119.358Z" fill="#535C69"/>
<path d="M131.281 58.9032V63.8267H128.575V58.9032H127.822V63.8267H125.084V58.9032H124.331V64.4846H132.034V58.9032H131.281Z" fill="#535C69"/>
<path d="M136.265 64.4846H136.944L140.658 60.0492V64.4846H141.412V58.9032H140.743L137.019 63.3386V58.9032H136.265V64.4846Z" fill="#535C69"/>
<path d="M150.542 61.6939C150.542 60.0174 149.407 58.8607 147.836 58.8607C146.266 58.8607 145.109 60.0386 145.109 61.6939C145.109 63.3492 146.298 64.5377 148.038 64.5377C148.919 64.5377 149.693 64.2194 150.192 63.6251L149.768 63.137C149.343 63.6251 148.738 63.8692 148.059 63.8692C146.839 63.8692 145.948 63.0946 145.863 61.9274H150.532C150.532 61.8425 150.542 61.7576 150.542 61.6939ZM147.836 59.508C148.929 59.508 149.725 60.272 149.821 61.365H145.863C145.958 60.272 146.754 59.508 147.836 59.508Z" fill="#535C69"/>
<path d="M162.022 58.8607C161.099 58.8607 160.324 59.264 159.868 60.0067V58.9032H159.147V66.5432H159.9V63.4341C160.367 64.1557 161.131 64.5377 162.022 64.5377C163.614 64.5377 164.802 63.3917 164.802 61.6939C164.802 60.0067 163.614 58.8607 162.022 58.8607ZM161.969 63.8692C160.781 63.8692 159.889 62.9991 159.889 61.6939C159.889 60.3994 160.781 59.5186 161.969 59.5186C163.147 59.5186 164.049 60.3994 164.049 61.6939C164.049 62.9991 163.147 63.8692 161.969 63.8692Z" fill="#535C69"/>
<path d="M173.393 61.6939C173.393 60.0174 172.257 58.8607 170.687 58.8607C169.116 58.8607 167.96 60.0386 167.96 61.6939C167.96 63.3492 169.148 64.5377 170.888 64.5377C171.769 64.5377 172.544 64.2194 173.042 63.6251L172.618 63.137C172.193 63.6251 171.589 63.8692 170.91 63.8692C169.689 63.8692 168.798 63.0946 168.713 61.9274H173.382C173.382 61.8425 173.393 61.7576 173.393 61.6939ZM170.687 59.508C171.78 59.508 172.575 60.272 172.671 61.365H168.713C168.809 60.272 169.604 59.508 170.687 59.508Z" fill="#535C69"/>
<path d="M184.09 58.9032V63.8267H181.384V58.9032H180.631V63.8267H177.893V58.9032H177.14V64.4846H184.844V58.9032H184.09Z" fill="#535C69"/>
<path d="M193.966 61.6939C193.966 60.0174 192.831 58.8607 191.26 58.8607C189.69 58.8607 188.533 60.0386 188.533 61.6939C188.533 63.3492 189.722 64.5377 191.462 64.5377C192.343 64.5377 193.117 64.2194 193.616 63.6251L193.192 63.137C192.767 63.6251 192.162 63.8692 191.483 63.8692C190.263 63.8692 189.372 63.0946 189.287 61.9274H193.956C193.956 61.8425 193.966 61.7576 193.966 61.6939ZM191.26 59.508C192.353 59.508 193.149 60.272 193.245 61.365H189.287C189.382 60.272 190.178 59.508 191.26 59.508Z" fill="#535C69"/>
<path d="M197.714 64.4846H198.467V62.0229H201.979V64.4846H202.733V58.9032H201.979V61.3756H198.467V58.9032H197.714V64.4846Z" fill="#535C69"/>
<path d="M206.954 64.4846H207.633L211.347 60.0492V64.4846H212.1V58.9032H211.432L207.707 63.3386V58.9032H206.954V64.4846Z" fill="#535C69"/>
<path d="M218.281 58.9032C216.838 58.9032 215.904 59.5399 215.904 60.8132C215.904 61.7151 216.392 62.2987 217.252 62.5322L215.862 64.4846H216.679L217.973 62.6383H219.936V64.4846H220.626V58.9032H218.281ZM216.668 60.8344C216.668 59.9431 217.262 59.5717 218.302 59.5717H219.936V62.0759H218.249C217.209 62.0759 216.668 61.6833 216.668 60.8344Z" fill="#535C69"/>
<path d="M234.284 63.8267V58.9032H230.167L230.093 60.7707C230.019 62.2775 229.881 63.7737 229.053 63.8267H228.735V65.8323H229.446V64.4846H234.443V65.8323H235.154V63.8267H234.284ZM230.783 60.8132L230.846 59.5717H233.531V63.8267H230.05C230.613 63.4023 230.73 62.0865 230.783 60.8132Z" fill="#535C69"/>
<path d="M239.18 58.9032L239.084 60.8981C239.01 62.373 238.925 63.8692 238.002 63.8692C237.928 63.8692 237.832 63.848 237.737 63.8267L237.684 64.474C237.885 64.5271 238.055 64.5589 238.225 64.5589C239.424 64.5589 239.668 62.9036 239.764 60.9511L239.838 59.5717H242.512V64.4846H243.265V58.9032H239.18Z" fill="#535C69"/>
<path d="M249.429 58.9032C247.985 58.9032 247.052 59.5399 247.052 60.8132C247.052 61.7151 247.54 62.2987 248.399 62.5322L247.009 64.4846H247.826L249.121 62.6383H251.084V64.4846H251.774V58.9032H249.429ZM247.816 60.8344C247.816 59.9431 248.41 59.5717 249.45 59.5717H251.084V62.0759H249.397C248.357 62.0759 247.816 61.6833 247.816 60.8344Z" fill="#535C69"/>
<path d="M264.413 61.5984C264.997 61.3862 265.358 60.9617 265.358 60.3357C265.358 59.4125 264.583 58.9032 263.32 58.9032H260.858V64.4846H263.394C264.848 64.4846 265.549 63.9329 265.549 62.9672C265.549 62.2351 265.188 61.7788 264.413 61.5984ZM261.591 59.4974H263.267C264.127 59.4974 264.604 59.8051 264.604 60.4312C264.604 61.0572 264.127 61.3862 263.267 61.3862H261.591V59.4974ZM263.363 63.8904H261.591V61.9486H263.437C264.381 61.9486 264.806 62.2563 264.806 62.9248C264.806 63.5933 264.307 63.8904 263.363 63.8904Z" fill="#535C69"/>
<path d="M271.315 58.8607C270.434 58.8607 269.606 59.1366 269.044 59.6141L269.383 60.1765C269.84 59.7733 270.519 59.5186 271.24 59.5186C272.28 59.5186 272.821 60.0386 272.821 60.9936V61.3331H271.049C269.447 61.3331 268.895 62.0547 268.895 62.9142C268.895 63.8798 269.67 64.5377 270.933 64.5377C271.856 64.5377 272.514 64.1875 272.853 63.6145V64.4846H273.575V61.0254C273.575 59.5823 272.758 58.8607 271.315 58.8607ZM271.049 63.9435C270.158 63.9435 269.638 63.5402 269.638 62.893C269.638 62.32 269.988 61.8955 271.071 61.8955H272.821V62.8081C272.524 63.5402 271.898 63.9435 271.049 63.9435Z" fill="#535C69"/>
<path d="M284.61 58.9032V63.8267H281.905V58.9032H281.151V63.8267H278.414V58.9032H277.66V64.4846H285.364V58.9032H284.61Z" fill="#535C69"/>
<path d="M289.595 64.4846H290.274L293.988 60.0492V64.4846H294.741V58.9032H294.072L290.348 63.3386V58.9032H289.595V64.4846Z" fill="#535C69"/>
<path d="M303.33 64.4846L301.102 61.6196L303.203 58.9032H302.375L300.699 61.0891L299.022 58.9032H298.173L300.274 61.6196L298.067 64.4846H298.916L300.699 62.1502L302.471 64.4846H303.33Z" fill="#535C69"/>
<path d="M311.502 64.4846H312.181L315.895 60.0492V64.4846H316.648V58.9032H315.98L312.255 63.3386V58.9032H311.502V64.4846Z" fill="#535C69"/>
<path d="M325.461 63.8267V58.9032H321.343L321.269 60.7707C321.195 62.2775 321.057 63.7737 320.229 63.8267H319.911V65.8323H320.622V64.4846H325.62V65.8323H326.331V63.8267H325.461ZM321.959 60.8132L322.023 59.5717H324.707V63.8267H321.227C321.789 63.4023 321.906 62.0865 321.959 60.8132Z" fill="#535C69"/>
<path d="M334.77 61.6939C334.77 60.0174 333.635 58.8607 332.065 58.8607C330.494 58.8607 329.338 60.0386 329.338 61.6939C329.338 63.3492 330.526 64.5377 332.266 64.5377C333.147 64.5377 333.922 64.2194 334.42 63.6251L333.996 63.137C333.571 63.6251 332.967 63.8692 332.287 63.8692C331.067 63.8692 330.176 63.0946 330.091 61.9274H334.76C334.76 61.8425 334.77 61.7576 334.77 61.6939ZM332.065 59.508C333.158 59.508 333.953 60.272 334.049 61.365H330.091C330.186 60.272 330.982 59.508 332.065 59.508Z" fill="#535C69"/>
<path d="M341.054 58.1074C341.998 58.1074 342.624 57.6192 342.646 56.7279H342.104C342.083 57.2903 341.659 57.6405 341.054 57.6405C340.449 57.6405 340.025 57.2903 340.014 56.7279H339.473C339.494 57.6192 340.11 58.1074 341.054 58.1074ZM338.518 64.4846H339.197L342.911 60.0492V64.4846H343.664V58.9032H342.996L339.271 63.3386V58.9032H338.518V64.4846Z" fill="#535C69"/>
</svg>
