<svg width="31" height="31" viewBox="0 0 31 31" fill="none" xmlns="http://www.w3.org/2000/svg">
<path d="M15.644 0.38916L17.7559 2.05537L20.2793 1.12331L21.7729 3.36057L24.4608 3.25391L25.19 5.84322L27.7793 6.57238L27.6726 9.26029L29.9099 10.7539L28.9778 13.2773L30.644 15.3892L28.9778 17.501L29.9099 20.0244L27.6726 21.518L27.7793 24.2059L25.19 24.9351L24.4608 27.5244L21.7729 27.4177L20.2793 29.655L17.7559 28.723L15.644 30.3892L13.5322 28.723L11.0088 29.655L9.51517 27.4177L6.82726 27.5244L6.0981 24.9351L3.50879 24.2059L3.61546 21.518L1.37819 20.0244L2.31025 17.501L0.644043 15.3892L2.31025 13.2773L1.37819 10.7539L3.61546 9.26029L3.50879 6.57238L6.0981 5.84322L6.82726 3.25391L9.51517 3.36057L11.0088 1.12331L13.5322 2.05537L15.644 0.38916Z" fill="#07BC24"/>
<path d="M9.39363 12.3892V19.3892H8.06363L4.57363 15.1392V19.3892H2.97363V12.3892H4.31363L7.79363 16.6392V12.3892H9.39363Z" fill="white"/>
<path d="M16.4698 18.0892V19.3892H11.0498V12.3892H16.3398V13.6892H12.6598V15.2092H15.9098V16.4692H12.6598V18.0892H16.4698Z" fill="white"/>
<path d="M28.2411 12.3892L25.9511 19.3892H24.2111L22.6711 14.6492L21.0811 19.3892H19.3511L17.0511 12.3892H18.7311L20.3111 17.3092L21.9611 12.3892H23.4611L25.0611 17.3492L26.6911 12.3892H28.2411Z" fill="white"/>
</svg>
