<svg width="23" height="22" viewBox="0 0 23 22" fill="none" xmlns="http://www.w3.org/2000/svg">
<path d="M21.5812 17.3354L21.5813 17.3356C21.8206 17.7873 21.7376 18.3431 21.3752 18.7063L20.3013 19.7802C18.712 21.3695 17.0719 21.7421 15.4357 21.3637C13.7556 20.9751 12.0224 19.7798 10.3447 18.1021L7.22992 14.9874L4.11514 11.8726C2.43746 10.1949 1.24217 8.4617 0.853598 6.78161C0.475174 5.1454 0.847788 3.50523 2.43705 1.91597L3.51137 0.841651C3.87327 0.479752 4.42884 0.395994 4.88127 0.635461L4.88132 0.635488C5.19316 0.800498 5.54382 1.09342 5.90522 1.4687C6.26208 1.83926 6.60781 2.26726 6.9124 2.67793C7.21626 3.08761 7.47457 3.47378 7.65697 3.75772C7.74804 3.89949 7.81986 4.01524 7.86861 4.09506C7.89298 4.13495 7.91156 4.16583 7.92389 4.18645L7.93761 4.20952L7.94022 4.21395C8.09621 4.48861 8.16189 4.75728 8.14542 4.9631C8.13076 5.14624 8.0545 5.28789 7.87138 5.39077L7.83134 5.41327L7.79606 5.44269L8.11629 5.82668L7.79603 5.44271L7.79597 5.44276L7.79577 5.44293L7.79506 5.44352L7.7924 5.44574L7.78235 5.45415L7.74461 5.4858C7.71215 5.51309 7.66572 5.55223 7.60954 5.59992C7.49733 5.69518 7.34553 5.82514 7.18806 5.96323C7.03123 6.10076 6.86571 6.24902 6.72722 6.38025C6.6048 6.49626 6.45843 6.64016 6.38069 6.75477L6.38052 6.75502C5.96118 7.37405 5.72245 8.02555 5.77808 8.7052C5.83393 9.38737 6.17927 10.013 6.7587 10.5924L9.19149 13.0252L11.6243 15.458C12.2037 16.0374 12.8293 16.3827 13.5115 16.4386C14.1911 16.4942 14.8426 16.2555 15.4617 15.8362L15.4619 15.836C15.5765 15.7582 15.7204 15.6119 15.8364 15.4895C15.9677 15.351 16.1159 15.1854 16.2534 15.0286C16.3915 14.8711 16.5215 14.7193 16.6168 14.6071C16.6644 14.551 16.7036 14.5045 16.7309 14.4721L16.7625 14.4343L16.7709 14.4243L16.7731 14.4216L16.7737 14.4209L16.7739 14.4207L16.774 14.4207L16.39 14.1004L16.774 14.4206L16.8035 14.3852L16.8261 14.345C16.9286 14.1622 17.0701 14.0859 17.2533 14.0713C17.4593 14.0548 17.7281 14.1205 18.0028 14.2765L18.0072 14.2791L18.0302 14.2928C18.0508 14.3051 18.0817 14.3237 18.1216 14.3481C18.2014 14.3968 18.3172 14.4686 18.4589 14.5597C18.7429 14.7421 19.1291 15.0004 19.5387 15.3043C19.9494 15.6089 20.3774 15.9546 20.748 16.3115C21.1233 16.6729 21.4162 17.0235 21.5812 17.3354Z" fill="#F24848" stroke="white"/>
</svg>
