<svg width="71" height="71" viewBox="0 0 71 71" fill="none" xmlns="http://www.w3.org/2000/svg">
<circle opacity="0.6" cx="35.2134" cy="35.3921" r="35" fill="#C4C4C5"/>
<circle cx="35.2149" cy="28.3493" r="7.04057" fill="white" stroke="#535D68"/>
<path d="M35.2142 36.3898C38.6336 36.3898 41.1649 37.2466 43.0467 38.5061C44.9317 39.7679 46.1948 41.4539 47.0422 43.1554C47.8905 44.8589 48.3171 46.5684 48.5309 47.8563C48.6376 48.4991 48.6908 49.0337 48.7172 49.4056C48.7189 49.4295 48.7205 49.4528 48.722 49.4753H21.7064C21.7079 49.4528 21.7095 49.4295 21.7112 49.4056C21.7377 49.0337 21.7908 48.4991 21.8975 47.8563C22.1113 46.5684 22.538 44.8589 23.3863 43.1554C24.2337 41.4539 25.4968 39.7679 27.3818 38.5061C29.2636 37.2466 31.7949 36.3898 35.2142 36.3898Z" fill="white" stroke="#535D68"/>
</svg>
