<svg width="13" height="13" viewBox="0 0 13 13" fill="none" xmlns="http://www.w3.org/2000/svg">
<path d="M6.896 0.648926C3.58253 0.648926 0.895996 3.33546 0.895996 6.64893C0.895996 9.96239 3.58253 12.6489 6.896 12.6489C10.2095 12.6489 12.896 9.96239 12.896 6.64893C12.896 3.33546 10.2095 0.648926 6.896 0.648926ZM6.896 11.1563C4.40661 11.1563 2.38987 9.13831 2.38987 6.64893C2.38987 4.15954 4.40661 2.1428 6.896 2.1428C9.38538 2.1428 11.4033 4.16076 11.4033 6.64893C11.4033 9.13831 9.38538 11.1563 6.896 11.1563ZM7.39559 4.14852H6.39518V7.64811H10.3033V6.64893H7.39681L7.39559 4.14852Z" fill="#535D69"/>
</svg>
