<svg width="23" height="22" viewBox="0 0 23 22" fill="none" xmlns="http://www.w3.org/2000/svg">
<g clip-path="url(#clip0)">
<path d="M0.894043 22L2.78604 16.3244C1.82601 14.7097 1.27335 12.8252 1.27335 10.8103C1.27335 4.84 6.11335 0 12.0837 0C18.054 0 22.894 4.84 22.894 10.8103C22.894 16.7807 18.054 21.6207 12.0837 21.6207C10.2672 21.6207 8.55649 21.1704 7.05404 20.3792L0.894043 22Z" fill="white"/>
<path d="M18.9807 14.4079C18.4815 13.4645 16.6407 12.3858 16.6407 12.3858C16.2242 12.1483 15.7216 12.1218 15.4842 12.5451C15.4842 12.5451 14.886 13.2623 14.7339 13.3655C14.039 13.8362 13.3953 13.818 12.7456 13.1683L11.2355 11.6582L9.7255 10.1482C9.07575 9.49845 9.05754 8.85476 9.52826 8.15986C9.63143 8.00776 10.3487 7.40959 10.3487 7.40959C10.772 7.17176 10.7455 6.66955 10.508 6.25307C10.508 6.25307 9.42926 4.41228 8.48592 3.9131C8.08461 3.70069 7.59188 3.77503 7.27099 4.09593L6.60416 4.76276C4.48874 6.87817 5.53033 9.26631 7.64574 11.3817L9.57909 13.3151L11.5124 15.2484C13.6278 17.3638 16.016 18.4054 18.1314 16.29L18.7982 15.6232C19.1191 15.3015 19.1931 14.8088 18.9807 14.4079Z" fill="#F24848"/>
</g>
<defs>
<clipPath id="clip0">
<rect width="22" height="22" fill="white" transform="translate(0.894043)"/>
</clipPath>
</defs>
</svg>
