<?xml version="1.0" encoding="utf-8"?><svg xmlns="http://www.w3.org/2000/svg" xmlns:xlink="http://www.w3.org/1999/xlink"><symbol viewBox="0 0 31 31" id="01" xmlns="http://www.w3.org/2000/svg"><path d="M15.365.112l.617.71c.402.454.814.897 1.216 1.36.113.135.206.155.36.062.752-.443 1.504-.875 2.256-1.318.051-.031.103-.052.164-.083.031.072.072.145.103.206l1.02 2.35c.062.154.144.195.299.154.834-.186 1.668-.36 2.502-.546.227-.052.247-.041.268.196.062.473.103.947.154 1.432.042.401.093.803.124 1.205.01.124.082.144.185.154.783.083 1.566.165 2.359.237.494.052.484.052.38.536l-.494 2.287c-.03.155 0 .237.155.299.803.34 1.596.69 2.4 1.03.051.02.102.052.164.072-.082.155-.154.289-.237.433-.39.67-.772 1.34-1.163 2.009-.083.134-.072.216.051.32.649.576 1.287 1.153 1.936 1.73.052.041.103.082.165.144-.154.145-.288.268-.422.392-.556.505-1.112 1-1.679 1.494-.113.092-.123.175-.051.309.432.741.865 1.483 1.297 2.235.041.062.072.134.114.216a3.47 3.47 0 01-.196.093c-.793.35-1.596.7-2.4 1.03-.144.062-.164.134-.134.268.186.855.371 1.72.557 2.586.03.124-.01.186-.124.196-.381.051-.772.093-1.153.134l-1.545.154c-.103.01-.144.052-.155.155l-.185 1.823c-.031.289-.072.588-.113.876-.01.124-.073.155-.196.134-.855-.185-1.71-.36-2.564-.556-.155-.031-.237 0-.3.154-.339.804-.69 1.607-1.04 2.411-.02.041-.04.093-.071.154-.289-.164-.577-.33-.855-.484-.536-.309-1.071-.618-1.607-.937-.113-.072-.195-.062-.288.041-.587.66-1.174 1.308-1.75 1.957-.042.042-.083.093-.176.176a.642.642 0 00-.103-.165c-.577-.65-1.164-1.298-1.74-1.947-.114-.124-.206-.134-.35-.052-.742.433-1.483.866-2.235 1.298-.062.031-.114.062-.196.103-.02-.051-.052-.103-.072-.144-.35-.804-.71-1.607-1.05-2.421-.062-.144-.134-.175-.279-.144-.844.185-1.689.36-2.533.546-.206.04-.227.03-.247-.175-.052-.382-.083-.763-.124-1.144l-.154-1.504c-.01-.103-.062-.134-.155-.144l-2.111-.217c-.196-.02-.381-.051-.577-.072-.134-.02-.175-.082-.144-.216l.433-1.927c.051-.216.082-.443.133-.659.031-.124 0-.196-.123-.247-.814-.35-1.638-.711-2.451-1.061-.041-.02-.093-.041-.155-.072.083-.155.155-.289.237-.433.392-.67.783-1.35 1.174-2.02.072-.123.072-.195-.041-.298L.38 15.133c-.01-.01-.02 0-.03-.01v-.063c.01 0 .02 0 .03-.01.69-.618 1.37-1.236 2.06-1.844.113-.103.123-.175.051-.31-.391-.669-.782-1.338-1.164-2.008-.082-.144-.164-.288-.247-.443.052-.02.072-.041.114-.052.772-.33 1.544-.659 2.307-.999.401-.175.35-.072.267-.525-.154-.794-.34-1.587-.515-2.37-.04-.185-.03-.206.155-.237.288-.04.577-.072.865-.103l1.812-.185c.103-.01.145-.052.155-.155.03-.298.062-.587.093-.886.061-.556.103-1.102.175-1.658.04-.34.051-.34.391-.258.803.175 1.607.34 2.4.526.154.03.237-.01.298-.155.299-.721.618-1.432.927-2.143.062-.134.114-.268.186-.412.072.041.133.072.195.103.752.433 1.504.865 2.256 1.308.133.083.206.062.309-.051.576-.65 1.153-1.288 1.73-1.937l.123-.154c.01.01.031.01.042.01zm7.59 25.467c.03-.268.062-.505.092-.742.062-.577.124-1.143.175-1.72.01-.103.052-.134.155-.145.474-.04.937-.092 1.41-.144.34-.03.67-.072 1.02-.113-.01-.082-.01-.144-.03-.206a157.25 157.25 0 00-.454-2.133c-.03-.134.01-.206.114-.257.164-.083.33-.175.504-.247.515-.227 1.02-.454 1.535-.67.123-.052.134-.114.082-.217-.134-.236-.257-.484-.391-.72a82.039 82.039 0 00-.731-1.309c-.062-.103-.042-.165.051-.247.556-.485 1.102-.979 1.658-1.473a2.43 2.43 0 00.144-.155c-.061-.052-.123-.093-.164-.134-.536-.474-1.071-.958-1.607-1.432-.103-.093-.124-.165-.052-.278.176-.31.35-.618.515-.938.196-.35.381-.69.567-1.04.093-.175.082-.186-.103-.268l-.989-.433c-.34-.154-.68-.32-1.02-.474-.102-.051-.133-.113-.113-.226a64.661 64.661 0 00.484-2.349c-.092-.01-.154-.031-.226-.041-.731-.083-1.473-.165-2.204-.237-.113-.01-.155-.042-.165-.165a94.091 94.091 0 00-.175-1.7c-.02-.237-.051-.474-.082-.721-.144.02-.258.03-.371.062-.66.134-1.329.278-1.988.422-.113.03-.185 0-.237-.103-.092-.196-.195-.391-.288-.587-.216-.484-.433-.969-.639-1.453-.051-.134-.123-.154-.236-.082-.114.072-.248.123-.371.185-.556.31-1.102.608-1.658.917-.103.062-.165.041-.247-.051-.35-.413-.721-.825-1.082-1.226-.164-.186-.33-.371-.515-.577-.298.33-.597.649-.885.968-.289.32-.567.65-.855.99-.762-.434-1.483-.918-2.286-1.289a3.054 3.054 0 01-.103.196c-.155.35-.31.71-.464 1.061l-.432.927c-.052.103-.114.145-.248.114-.514-.124-1.02-.227-1.534-.34a39.62 39.62 0 00-.814-.155c-.02.165-.04.31-.061.464-.073.66-.145 1.319-.206 1.978-.01.123-.062.154-.165.165-.66.062-1.318.134-1.978.206-.144.01-.288.04-.442.062.02.133.03.257.061.37.134.619.268 1.237.392 1.855.062.299.062.299-.216.443-.031.01-.052.03-.083.041-.432.185-.855.381-1.287.567l-.7.319c.072.144.133.278.195.412.32.587.649 1.175.979 1.762.061.113.051.175-.052.268-.484.412-.958.834-1.442 1.257-.113.103-.216.216-.33.33.114.113.227.216.34.319.485.442.979.886 1.463 1.318.082.072.093.124.041.217-.134.216-.257.443-.38.659-.248.443-.495.886-.742 1.34-.062.113-.052.185.082.236.278.114.546.237.824.36l1.205.557c.113.051.144.124.113.258a96.519 96.519 0 00-.36 1.668c-.042.217-.083.433-.124.67.165.02.309.041.453.062.66.072 1.329.144 1.988.206.103.01.134.052.144.155.051.587.113 1.164.175 1.751.02.227.052.453.082.69.134-.02.248-.03.35-.051.67-.145 1.34-.279 1.999-.423.113-.03.185.01.236.103.062.124.134.248.196.381.247.557.494 1.103.731 1.66.062.133.124.154.237.082.247-.134.505-.268.752-.413l1.267-.71c.103-.052.165-.052.247.04.432.506.875 1 1.328 1.505.083.093.186.185.279.288.113-.113.216-.206.308-.309.443-.494.886-.989 1.319-1.483.061-.072.123-.093.206-.041.144.082.288.144.432.226.494.278.989.557 1.494.835.082.051.185.082.278.123.04-.082.072-.134.092-.195.216-.485.422-.98.65-1.463.081-.186.174-.36.267-.546.041-.093.113-.114.216-.093.37.082.742.165 1.123.247.442.052.844.134 1.277.227z"/><path d="M19.453 7.405l.957.618c.114.073.124.145.042.258-1.329 2.091-2.647 4.193-3.986 6.284-1.7 2.669-3.398 5.327-5.098 7.995-.123.185-.154.206-.35.082-.257-.154-.494-.32-.752-.474-.082-.051-.061-.103-.02-.165.154-.267.298-.546.463-.803 1.854-2.947 3.718-5.893 5.582-8.83 1.02-1.606 2.05-3.213 3.07-4.82a.83.83 0 01.092-.145zM18.362 17.45c1.524-.052 2.657 1.38 2.646 2.647-.01 1.463-1.235 2.658-2.636 2.658a2.66 2.66 0 01-2.688-2.668c-.01-1.422 1.225-2.7 2.678-2.638zm-1.319 2.647c-.01.752.536 1.308 1.267 1.308a1.31 1.31 0 001.339-1.308 1.309 1.309 0 00-1.329-1.34c-.72 0-1.266.578-1.277 1.34zm-4.717-7.384c-1.256.113-2.307-.98-2.554-1.896a2.713 2.713 0 011.185-2.977c1.658-1.04 3.769.051 4.006 1.895.123.928-.206 1.71-.876 2.35a2.297 2.297 0 01-1.76.628zm.01-1.309c.783-.01 1.33-.577 1.309-1.35a1.295 1.295 0 00-1.319-1.287c-.741.01-1.308.608-1.297 1.36.01.72.587 1.287 1.308 1.277z"/></symbol><symbol viewBox="0 0 33 31" id="02" xmlns="http://www.w3.org/2000/svg"><path d="M32.258 14.123h-3.786a3.09 3.09 0 00-1.06-2.082 3.47 3.47 0 00-2.28-.846 3.492 3.492 0 00-1.404.29 3.981 3.981 0 00-1.612-1.554 4.307 4.307 0 00-2.247-.489 4.262 4.262 0 00-2.172.731 3.901 3.901 0 00-1.409 1.72 3.097 3.097 0 00-1.976.577 2.78 2.78 0 00-1.096 1.653H9.48v-2.625a.5.5 0 00-.16-.364.565.565 0 00-.387-.151h-.26V7.399a.5.5 0 00-.16-.364.565.565 0 00-.387-.15h-.313V3.161c0-.343.145-.673.403-.916a1.42 1.42 0 01.973-.379h5.768c.278 0 .548.08.777.229.228.148.403.358.502.602a4.189 4.189 0 00-2.484 1.31 3.748 3.748 0 00-.99 2.514.5.5 0 00.16.364.567.567 0 00.388.151h7.137a.565.565 0 00.387-.15.5.5 0 00.16-.365 3.754 3.754 0 00-1.038-2.568 4.206 4.206 0 00-2.585-1.276 2.312 2.312 0 00-.862-1.322 2.569 2.569 0 00-1.552-.518H9.188c-.655 0-1.283.245-1.746.681a2.26 2.26 0 00-.724 1.645v3.72h-.312a.565.565 0 00-.387.151.5.5 0 00-.16.364v3.584h-.26a.565.565 0 00-.387.15.5.5 0 00-.16.365v2.625H1.495a.565.565 0 00-.387.151.5.5 0 00-.16.364v2.355a.5.5 0 00.16.365c.103.096.242.15.387.15h.72l.981 6.798a4.58 4.58 0 001.516 2.754 5.102 5.102 0 003.014 1.25l-.687 1.842a.487.487 0 00.07.468c.05.068.117.122.195.16a.575.575 0 00.251.058h1.913a.572.572 0 00.294-.08.527.527 0 00.202-.217l1.102-2.215h11.62l1.102 2.215a.527.527 0 00.202.216.57.57 0 00.294.08h1.913a.573.573 0 00.251-.057.539.539 0 00.195-.16.5.5 0 00.07-.468l-.688-1.842a5.102 5.102 0 003.015-1.25 4.58 4.58 0 001.516-2.754l.98-6.797h.72a.565.565 0 00.386-.151.5.5 0 00.16-.365v-2.355a.5.5 0 00-.159-.363.565.565 0 00-.386-.152zm-12.41-8.115h-5.943a2.817 2.817 0 011.039-1.671 3.137 3.137 0 011.933-.66c.707 0 1.391.234 1.934.66.543.425.91 1.017 1.038 1.671zm-3.3 6.955c.138.03.284.007.405-.063a.518.518 0 00.244-.31 2.82 2.82 0 011.026-1.5 3.118 3.118 0 011.774-.623 3.14 3.14 0 011.817.5c.533.346.933.845 1.14 1.423a.513.513 0 00.136.204.58.58 0 00.708.046 2.33 2.33 0 011.335-.415 2.34 2.34 0 011.508.545c.414.35.677.832.737 1.353h-13.03c.147-.417.454-.767.861-.981a1.974 1.974 0 011.339-.179zM6.952 7.915h.625v3.068h-.625V7.915zm-.807 4.098h2.24v2.11h-2.24v-2.11zM9.122 29.81H8.33l.553-1.482h.977l-.737 1.482zm15.51 0l-.737-1.482h.977l.554 1.482h-.793zm4.84-5.642a3.574 3.574 0 01-1.282 2.234 3.996 3.996 0 01-2.523.896H8.087a3.996 3.996 0 01-2.522-.896 3.574 3.574 0 01-1.283-2.233l-.962-6.66h27.114l-.962 6.66zm2.24-7.689H2.043v-1.325h29.669v1.325z"/></symbol><symbol viewBox="0 0 24 31" id="03" xmlns="http://www.w3.org/2000/svg"><path d="M7.878 18.82c.107 0 .208-.04.283-.11a.366.366 0 00.117-.267v-3.262c0-.1-.042-.195-.117-.266a.413.413 0 00-.283-.11.413.413 0 00-.282.11.366.366 0 00-.117.266v3.262c0 .1.042.196.117.267.075.07.176.11.282.11z"/><path d="M23.049 27.512h-1.707V1.198A.323.323 0 0021.24.94a.363.363 0 00-.27-.103H3.452a.38.38 0 00-.269.103.338.338 0 00-.101.257v26.314H1.375c-.22 0-.426.15-.426.357v2.609c0 .208.205.36.426.36h21.674c.22 0 .425-.152.425-.36v-2.609c0-.207-.205-.357-.425-.357zM3.88 1.592h16.661v25.92H18.61V3.807a.388.388 0 00-.12-.275.436.436 0 00-.288-.12H6.223a.437.437 0 00-.288.12.388.388 0 00-.12.275v23.705H3.881V1.592zm13.929 25.92H6.614V4.164H17.81v23.348zm4.865 2.573H1.749v-1.82h20.926v1.82z"/></symbol><symbol viewBox="0 0 124 141" id="04" xmlns="http://www.w3.org/2000/svg"><path d="M31.454 22.268a4.014 4.014 0 01-3.102-1.505 5.2 5.2 0 010-6.569 4.014 4.014 0 013.102-1.505 4.15 4.15 0 013.102 1.505 5.337 5.337 0 010 6.569 4.153 4.153 0 01-3.102 1.505zm0-6.386a1.003 1.003 0 00-.684.365 2.19 2.19 0 000 2.463 1.001 1.001 0 00.684.365.867.867 0 00.639-.365 2.053 2.053 0 000-2.463.866.866 0 00-.639-.456v.091z"/><path d="M28.265 140.004a45.878 45.878 0 01-17.882-4.106 15.508 15.508 0 01-9.716-13.411V17.57a15.418 15.418 0 019.716-13.456A39.412 39.412 0 0125.573.145h93.696a4.561 4.561 0 014.06 4.79 4.83 4.83 0 01-2.464 4.562v3.557a4.882 4.882 0 012.464 4.562 4.83 4.83 0 01-2.464 4.562v3.649a4.83 4.83 0 012.464 4.561 4.561 4.561 0 01-2.464 4.562v3.65a4.83 4.83 0 012.464 4.561 4.883 4.883 0 01-2.464 4.562v3.922a4.83 4.83 0 012.464 4.562 4.883 4.883 0 01-2.464 4.562v3.923a5.155 5.155 0 010 8.804v3.923a5.155 5.155 0 010 8.803v3.924a5.155 5.155 0 010 8.803v3.923a5.155 5.155 0 010 8.804v3.923a4.829 4.829 0 012.464 4.562 4.56 4.56 0 01-4.06 4.561H62.066a20.017 20.017 0 01-13.274 13.229 61.992 61.992 0 01-20.527 2.053zM27.9 3.156h-.684a39.914 39.914 0 00-15.373 3.74A12.453 12.453 0 003.86 17.48v104.917a12.316 12.316 0 007.983 10.629 42.298 42.298 0 0016.422 3.786 59.321 59.321 0 0019.432-2.418A15.825 15.825 0 0059.01 122.58v-1.871h60.259c.365 0 .866-.593.866-1.551s-.501-1.596-.866-1.596h-1.597v-9.58h1.597c.365 0 .866-.593.866-1.551 0-.957-.501-1.596-.866-1.596h-1.597v-9.58h1.597c.365 0 .866-.593.866-1.596 0-1.004-.501-1.551-.866-1.551h-1.597v-9.58h1.597c.365 0 .866-.592.866-1.596s-.501-1.277-.866-1.277h-1.597v-9.58h1.597c.365 0 .866-.638.866-1.596 0-.958-.501-1.597-.866-1.597h-1.597v-9.625h1.597c.365 0 .866-.638.866-1.596 0-.958-.501-1.597-.866-1.597h-1.597V44.53h1.597c.365 0 .866-.638.866-1.596 0-.958-.501-1.597-.866-1.597h-1.597v-9.533h1.597c.365 0 .866-.64.866-1.597 0-.958-.501-1.597-.866-1.597h-1.597v-9.533h1.597c.365 0 .866-.639.866-1.597s-.501-1.688-.866-1.688h-1.597V6.35h1.597c.365 0 .866-.639.866-1.597s-.501-1.596-.866-1.596h-91.37z"/><path d="M31.459 28.609c-23.355 0-25.317-9.853-25.317-10.993 0-2.783 2.691-5.566 6.98-7.618a43.746 43.746 0 0118.474-3.65 43.746 43.746 0 0118.474 3.65c4.288 2.052 6.888 4.835 6.98 7.344-.274 1.414-2.281 11.267-25.591 11.267zm-22.26-11.13s1.505 7.937 22.26 7.937c20.755 0 22.26-8.12 22.306-8.211.046-.091-1.505-2.554-5.246-4.333a40.598 40.598 0 00-17.06-3.33 41.054 41.054 0 00-17.106 3.33c-3.74 1.778-5.155 3.786-5.2 4.561l.045.046zm22.26 116.185a44.293 44.293 0 01-18.246-3.65c-4.608-2.144-7.07-4.744-7.07-7.526V93.841l2.6 2.144c4.56 3.877 12.407 5.839 22.807 5.839 10.4 0 18.247-1.962 22.808-5.84l2.6-2.143v28.647c0 2.6-2.6 5.382-7.024 7.526a44.058 44.058 0 01-18.475 3.65zM9.153 100.273v22.215c0 .821 1.414 2.828 5.2 4.561a40.23 40.23 0 0017.106 3.376 39.867 39.867 0 0017.06-3.376c3.787-1.779 5.2-3.786 5.2-4.561v-22.215a43.655 43.655 0 01-22.26 4.561 43.925 43.925 0 01-22.306-4.561z"/><path d="M31.459 98.63c-23.538 0-25.317-9.852-25.317-11.038V58.853l2.6 2.145c4.562 3.831 12.408 5.793 22.808 5.793s18.247-1.962 22.808-5.793l2.6-2.145v28.739c-.182 1.186-2.007 11.039-25.499 11.039zM9.153 87.41s1.55 8.028 22.306 8.028c20.025 0 22.124-7.436 22.26-8.166V65.285a43.792 43.792 0 01-22.26 4.562 43.974 43.974 0 01-22.306-4.562V87.41z"/><path d="M31.459 63.642c-23.538 0-25.317-9.944-25.317-11.085V23.82l2.6 2.144c4.562 3.878 12.408 5.84 22.808 5.84s18.247-1.962 22.808-5.84l2.6-2.144v28.738c-.182 1.14-1.961 11.085-25.499 11.085zM9.153 52.284s1.55 8.165 22.306 8.165c20.025 0 22.124-7.435 22.26-8.165V30.25a43.746 43.746 0 01-22.26 4.562A43.928 43.928 0 019.153 30.25v22.033zm106.879 65.46H58.419V82.711h57.613v35.033zm-54.375-3.193h51.181V85.904h-51.18v28.647zm54.375-34.898H58.419V44.53h57.613v35.124zm-54.375-3.147h51.181V47.722h-51.18v28.784z"/><path d="M116.028 41.335H58.415V17.477a10.902 10.902 0 00-4.242-8.347l-3.33-2.783h65.185v34.988zm-54.42-3.193h51.227V9.54H58.917a13.046 13.046 0 012.691 7.938v20.664z"/></symbol><symbol viewBox="0 0 21 31" id="05" xmlns="http://www.w3.org/2000/svg"><path d="M20.08 2.451h-6.243L13.031.936a.47.47 0 00-.417-.243H8.882a.47.47 0 00-.417.243L7.66 2.451H1.416c-.258 0-.467.197-.467.44v24.726c0 .243.21.44.467.44h3.266v1.318c0 .727.628 1.318 1.4 1.318.772 0 1.4-.591 1.4-1.318v-1.318h6.533v1.318c0 .727.628 1.318 1.4 1.318.772 0 1.4-.591 1.4-1.318v-1.318h3.266a.453.453 0 00.466-.44V2.891a.453.453 0 00-.466-.44zM9.17 1.572h3.156l.467.88h-4.09l.467-.88zM6.55 29.375c0 .242-.21.44-.467.44s-.467-.198-.467-.44v-1.318h.934v1.318zm9.332 0c0 .242-.209.44-.466.44-.258 0-.467-.198-.467-.44v-1.318h.933v1.318zm3.733-25.166H1.964c-.258 0 .538.197.538.44 0 .242-.796.439-.539.439h17.651v22.09H1.882V5.088h1.4c.258 0 .467-.197.467-.44 0-.242-.209-.439-.467-.439h-1.4V3.33h17.732v.879z"/><path d="M10.747 22.003c-1.287 0-2.333.986-2.333 2.198S9.46 26.4 10.747 26.4c1.287 0 2.334-.986 2.334-2.198s-1.047-2.198-2.334-2.198zm0 3.517c-.772 0-1.4-.592-1.4-1.319 0-.573.39-1.061.934-1.243v1.243c0 .243.209.44.466.44.258 0 .467-.197.467-.44v-1.243c.543.182.934.67.934 1.243 0 .727-.628 1.32-1.4 1.32z"/></symbol><symbol viewBox="0 0 23 31" id="06" xmlns="http://www.w3.org/2000/svg"><path d="M22.166 17.145h-.62L17.527 1.067a.482.482 0 00-.181-.27.534.534 0 00-.32-.104H5.725a.534.534 0 00-.319.105.482.482 0 00-.18.269l-4.02 16.078h-.62a.53.53 0 00-.364.142.47.47 0 00-.15.342v1.935a.47.47 0 00.15.343.53.53 0 00.364.141H9.32v3.217L5.478 27.79H3.734a.535.535 0 00-.31.098.485.485 0 00-.185.255l-.578 1.935a.457.457 0 00.085.424.536.536 0 00.41.191h16.44a.541.541 0 00.226-.049.508.508 0 00.18-.137.47.47 0 00.093-.415l-.514-1.935a.483.483 0 00-.182-.264.534.534 0 00-.316-.103h-1.808l-3.844-4.525v-3.217h5.652v1.936a.49.49 0 00.008.08 1.526 1.526 0 00-.82.632 1.38 1.38 0 00-.194.981c.06.339.246.646.525.867a1.6 1.6 0 00.995.343 1.6 1.6 0 00.995-.343c.278-.221.464-.528.525-.867a1.38 1.38 0 00-.194-.98 1.526 1.526 0 00-.82-.632.49.49 0 00.008-.081v-1.936h2.055a.53.53 0 00.363-.141.47.47 0 00.15-.343V17.63a.47.47 0 00-.15-.342.53.53 0 00-.363-.142zM6.132 1.661H16.62l3.869 15.484H2.262l3.87-15.484zm12.55 27.097l.257.968H3.834l.289-.968h14.559zm-2.723-.968H6.794l3.442-4.052a.468.468 0 00.113-.303v-3.387h2.055v3.387c0 .11.04.217.112.303l3.443 4.052zm4.152-4.355c0 .096-.03.19-.087.27a.508.508 0 01-.23.177.543.543 0 01-.56-.105.458.458 0 01-.111-.527.491.491 0 01.188-.217.536.536 0 01.649.06.47.47 0 01.15.342zm1.541-4.354H1.1v-.968h20.552v.968z"/></symbol><symbol viewBox="0 0 24 31" id="07" xmlns="http://www.w3.org/2000/svg"><path d="M22.787.693H1.384a.486.486 0 00-.333.13.43.43 0 00-.137.313v27.595c0 .118.05.23.137.314.089.083.208.13.333.13h2.1l.387 1.204c.03.09.09.17.17.227a.49.49 0 00.28.087h2.372a.486.486 0 00.332-.13.43.43 0 00.138-.313v-1.076h9.845v1.076c0 .118.05.23.137.314.089.083.208.13.333.13h2.371c.101 0 .2-.031.28-.088a.444.444 0 00.17-.227l.389-1.205h2.1a.486.486 0 00.333-.13.43.43 0 00.137-.313V1.136a.42.42 0 00-.138-.313.474.474 0 00-.333-.13zm-.47 6.532h-9.76V1.579h9.76v5.646zM1.854 1.579h9.761v5.646h-9.76V1.579zm0 6.532h9.761v20.177h-9.76V8.111zm4.369 21.696H4.67l-.204-.633h1.756v.633zm13.277 0h-1.55v-.633h1.755l-.204.633zm-6.944-1.519V8.111h9.76v20.177h-9.76z"/><path d="M9.666 3.2a.486.486 0 00-.332.13.43.43 0 00-.138.313v1.519a.42.42 0 00.138.313.473.473 0 00.332.13.496.496 0 00.333-.13.443.443 0 00.138-.313V3.643a.43.43 0 00-.138-.313.486.486 0 00-.333-.13zm4.838 2.405a.486.486 0 00.332-.13.43.43 0 00.138-.313V3.643a.43.43 0 00-.138-.313.486.486 0 00-.332-.13.486.486 0 00-.333.13.43.43 0 00-.138.313v1.519c0 .117.05.23.138.313.088.083.208.13.333.13zM9.666 19.75a.486.486 0 00.333-.13.43.43 0 00.138-.313V15.12a.43.43 0 00-.138-.313.486.486 0 00-.333-.13.486.486 0 00-.332.13.43.43 0 00-.138.313v4.188c0 .118.05.23.138.314.088.083.207.13.332.13zm4.838-5.074a.485.485 0 00-.333.13.43.43 0 00-.138.313v4.188c0 .118.05.23.138.314.088.083.208.13.333.13a.486.486 0 00.332-.13.43.43 0 00.138-.314V15.12a.43.43 0 00-.138-.313.485.485 0 00-.332-.13z"/></symbol><symbol viewBox="0 0 29 31" id="08" xmlns="http://www.w3.org/2000/svg"><path d="M12.435 6.124c-.429 0-.778.328-.778.732v.978c0 .404.35.733.778.733h4.59c.43 0 .778-.329.778-.733v-.978c0-.404-.349-.732-.778-.732h-4.59zm4.435 1.564h-4.28v-.686h4.28v.686zm-4.435 5.566c-.429 0-.778.328-.778.732v.979c0 .403.35.732.778.732h4.59c.43 0 .778-.329.778-.732v-.979c0-.404-.349-.732-.778-.732h-4.59zm4.435 1.564h-4.28v-.685h4.28v.685zm-4.435 8.01h4.59c.43 0 .778-.329.778-.733v-.978c0-.404-.349-.732-.778-.732h-4.59c-.429 0-.778.328-.778.732v.978c0 .404.35.733.778.733zm.155-1.564h4.28v.685h-4.28v-.685z"/><path d="M27.77.693H1.692c-.429 0-.777.329-.777.733v2.06c0 .405.348.733.777.733h.692v22.798c0 .566.488 1.026 1.089 1.026h.54v1.918c0 .404.349.732.777.732h3.403c.429 0 .777-.328.777-.732v-1.918h.971c.258 0 .467-.197.467-.44s-.209-.44-.467-.44H3.472c-.086 0-.156-.065-.156-.146V18.48h16.143c.258 0 .467-.196.467-.44 0-.242-.209-.438-.466-.438H3.316V11.35h22.83v6.252h-7.204c-.257 0-.466.196-.466.439s-.138.44.12.44h7.55v8.536c0 .08-.07.147-.155.147H8.216c-.258 0 0 .196 0 .44 0 .242-.258.439 0 .439h12.277v1.918c0 .404.349.732.777.732h3.403c.429 0 .777-.328.777-.732v-1.918h.54c.6 0 1.09-.46 1.09-1.026V8.135c0-.243-.21-.44-.467-.44-.258 0-.467.197-.467.44v2.336H3.316V4.219h22.83v4.087c0 .243.209-.171.467-.171.257 0 .466.235.466-.008V4.22h.692c.429 0 .777-.328.777-.732V1.426c0-.404-.348-.733-.777-.733zM8.037 29.814H4.945v-1.771h3.091v1.771zm16.481 0h-3.091v-1.771h3.091v1.771zM7.011 3.34H1.847V1.572H7.01V3.34zm20.604 0H7.945V1.572h19.67V3.34z"/></symbol><symbol viewBox="0 0 33 31" id="09" xmlns="http://www.w3.org/2000/svg"><path d="M1.49 30.694h30.236c.299 0 .54-.228.54-.51V15.948c0-.281-.241-.509-.54-.509H17.149V1.708c0-.28-.242-.508-.54-.508H1.489c-.298 0-.54.228-.54.508v28.477c0 .28.242.509.54.509zm14.578-9.18c-2.85-.248-5.109-2.374-5.372-5.059h5.372v5.06zm0 1.024v1.53c-4.344-.262-7.805-3.522-8.083-7.613H9.61c.27 3.248 3.01 5.828 6.459 6.083zm1.08-6.083h5.372c-.264 2.685-2.522 4.811-5.372 5.06v-5.06zm-6.452-1.017c.263-2.684 2.521-4.81 5.372-5.059v5.06h-5.372zm5.372-6.083c-3.449.255-6.189 2.835-6.459 6.083H7.985c.278-4.09 3.739-7.35 8.083-7.612v1.53zm-9.152 7.1c.28 4.647 4.218 8.356 9.152 8.619v4.602H9.56c-.274-3.805-3.491-6.834-7.532-7.093v-6.128h4.887zM2.03 25.638c2.254.24 4.032 1.916 4.288 4.038H2.029v-4.038zm5.375 4.038c-.264-2.685-2.523-4.813-5.375-5.062v-1.02c3.449.254 6.189 2.835 6.459 6.082H7.404zm17.324 0c.27-3.247 3.01-5.828 6.458-6.082v1.02c-2.852.249-5.11 2.377-5.375 5.062h-1.083zm2.17 0c.256-2.122 2.035-3.797 4.288-4.038v4.038H26.9zm4.288-7.093c-4.04.259-7.257 3.288-7.531 7.093h-6.507v-4.602c4.934-.263 8.872-3.972 9.151-8.619h4.887v6.128zm-5.956-6.128c-.277 4.091-3.738 7.35-8.082 7.612v-1.529c3.448-.255 6.188-2.835 6.459-6.083h1.623zM16.068 6.82c-4.934.263-8.873 3.972-9.152 8.62H2.03V9.31c4.04-.258 7.258-3.288 7.532-7.093h6.507v4.602zm-7.58-4.602c-.27 3.248-3.01 5.828-6.459 6.083V7.28c2.852-.25 5.111-2.377 5.375-5.063h1.084zm-2.171 0C6.06 4.339 4.283 6.015 2.029 6.255V2.217h4.288z"/><path d="M18.55 9.56l.49.921c.059.111.123.22.192.326l-.98 2.955a.503.503 0 00.353.637.578.578 0 00.324.001l3.082-.908 1.835 1.038a3.14 3.14 0 001.54.401h1.741c1.655 0 2.995-1.262 2.996-2.82 0-.359-.073-.714-.215-1.048l-.3-.708a5.26 5.26 0 00-.109-4.318l3.14-2.958a.488.488 0 000-.719L31.028.842a.564.564 0 00-.763 0l-2.983 2.81a6.095 6.095 0 00-2.15-.78l-.442-.07a6.218 6.218 0 00-.962-.075h-.714c-2.77.013-5.004 2.138-4.99 4.747a4.5 4.5 0 00.528 2.085zm2.624-1.196c.366-1.093 1.442-1.836 2.658-1.839a2.867 2.867 0 011.541.448l-1.049.988.764.72 1.049-.989c.256.356.415.766.462 1.193.128 1.236-.681 2.388-1.939 2.762l-5.071 1.492 1.585-4.775zm7.428 1.618l-.078.184a.488.488 0 000 .378l.381.897c.393.924-.083 1.973-1.064 2.344a2.02 2.02 0 01-.714.13h-1.74a2.01 2.01 0 01-.986-.255l-1.01-.571 1.591-.469c1.748-.518 2.872-2.119 2.694-3.837a3.494 3.494 0 00-.765-1.818l.497-.468.42.396c.21.198.553.198.764 0l.076-.071a4.28 4.28 0 01-.066 3.16zm2.043-8.061l.849.799-3.286 3.094-.849-.799 3.286-3.094zM20.01 5.073c.74-.842 1.842-1.329 3.004-1.329h.714c.262 0 .525.021.784.061l.442.07a5.006 5.006 0 011.547.511l-.286.27a.488.488 0 000 .719l.428.403-.496.468c-1.69-1.21-4.102-.903-5.388.689-.274.338-.482.72-.614 1.125l-.455 1.37-.172-.326a3.59 3.59 0 01-.343-.95 3.517 3.517 0 01.835-3.083v.002z"/></symbol><symbol viewBox="0 0 33 31" id="10" xmlns="http://www.w3.org/2000/svg"><path d="M29.032 16.132h-4.18l-.045.391c-.183 1.57-.873 3.024-1.997 4.205l.695.587c1.16-1.22 1.907-2.701 2.174-4.305h2.42v3.59c-3.23.216-5.82 2.654-6.05 5.697h-3.81v-2.28a9.118 9.118 0 004.57-2.047l-.623-.654a8.189 8.189 0 01-4.465 1.88l-.416.043v3.937h5.662v-.44c0-2.907 2.511-5.273 5.599-5.273h.466v-5.331zm-.465-7.089h.467V4.209H23.9v.44c0 2.422 2.093 4.394 4.666 4.394zm-.466-3.955v3.048c-1.686-.198-3.026-1.46-3.238-3.048h3.238z"/><path d="M17.305 4.209v3.937l.416.043c3.7.381 6.68 3.187 7.086 6.672l.045.392h4.18V9.921h-.466c-1.336 0-2.63-.45-3.643-1.268l-.608.667a6.752 6.752 0 003.784 1.465v3.59h-2.42c-.294-1.748-1.176-3.383-2.512-4.642a9.19 9.19 0 00-4.929-2.366v-2.28h3.812a5.968 5.968 0 001.555 3.564l.709-.572a5.095 5.095 0 01-1.348-3.43v-.44h-5.66zm14.528 25.605H1.847V5.09H.914v25.603h31.852v-3.515h-.933v2.636z"/><path d="M9.78 4.649v-.44H4.647v4.834h.467c2.573 0 4.666-1.971 4.666-4.394zm-4.2.44h3.238c-.211 1.587-1.552 2.85-3.237 3.048V5.088z"/><path d="M4.647 15.254h4.18l.046-.392c.405-3.485 3.385-6.292 7.086-6.673l.416-.043V4.21h-5.662v.44c0 2.907-2.512 5.273-5.599 5.273h-.467v5.332zm.934-4.469c3.23-.216 5.82-2.654 6.049-5.697h3.811v2.28a9.185 9.185 0 00-4.928 2.365c-1.336 1.259-2.219 2.895-2.512 4.642h-2.42v-3.59zm4.245 5.847c.438 2.923 2.911 5.252 6.014 5.665l.532.07v-2.145c0-2.255-1.948-4.09-4.343-4.09H9.75l.075.5zm2.203.378c1.88 0 3.41 1.441 3.41 3.212v1.111c-2.266-.498-4.06-2.188-4.59-4.322h1.18z"/><path d="M11.49 11.32a6.469 6.469 0 00-1.664 3.432l-.075.501h2.278c2.395 0 4.343-1.835 4.343-4.09V9.016l-.531.07a7.262 7.262 0 00-3.645 1.568l.612.664a6.267 6.267 0 012.631-1.268v1.111c0 1.771-1.53 3.212-3.41 3.212h-1.18a5.653 5.653 0 011.346-2.478l-.704-.576zM4.647 27.176H9.78v-.44a4.25 4.25 0 00-1.021-2.743l-.729.55c.436.512.705 1.112.788 1.754H5.581v-3.05a3.806 3.806 0 011.863.743l.583-.686a4.863 4.863 0 00-2.913-.962h-.467v4.834z"/><path d="M4.647 21.463h.467c3.087 0 5.6 2.366 5.6 5.273v.44h5.66v-3.937l-.415-.043c-3.7-.381-6.68-3.188-7.086-6.673l-.045-.391h-4.18v5.331zm.934-4.453H8c.293 1.748 1.176 3.383 2.512 4.642a9.174 9.174 0 004.928 2.365v2.28h-3.81c-.23-3.043-2.819-5.481-6.05-5.697v-3.59zM.914.693V5.71h.933V1.572h29.987v26.225h.933V.693H.914z"/><path d="M17.305 11.162c0 2.256 1.949 4.091 4.344 4.091h2.278l-.075-.5c-.439-2.923-2.912-5.253-6.015-5.665l-.532-.07v2.144zm.933-1.11c2.267.498 4.061 2.188 4.59 4.322h-1.18c-1.88 0-3.41-1.44-3.41-3.212v-1.11zm5.614 6.58l.075-.5h-2.278c-2.395 0-4.344 1.835-4.344 4.09v2.145l.532-.07c3.103-.413 5.576-2.742 6.015-5.665zm-5.614 3.59c0-1.77 1.53-3.212 3.41-3.212h1.18c-.53 2.134-2.324 3.824-4.59 4.323v-1.11zm-1.398-6.914l-.391.562a5.233 5.233 0 01-1.545 1.455l-.597.368.597.368c.61.376 1.145.88 1.545 1.455l.39.562.39-.562c.4-.576.935-1.08 1.546-1.455l.597-.368-.597-.368a5.237 5.237 0 01-1.545-1.455l-.39-.562zm.892 2.385a6.19 6.19 0 00-.893.84 6.183 6.183 0 00-.892-.84 6.18 6.18 0 00.892-.84c.267.306.567.589.893.84zm6.169 11.043v.44h5.133v-4.834h-.467c-2.573 0-4.666 1.972-4.666 4.395zm4.2-.439h-3.238c.212-1.588 1.552-2.85 3.238-3.049v3.05z"/></symbol><symbol viewBox="0 0 28 31" id="11" xmlns="http://www.w3.org/2000/svg"><path d="M19.299 18.809c-.5 0-.9.4-.9.9s.4.9.9.9.9-.4.9-.9-.4-.9-.9-.9z"/><path d="M17.399 15.709c0-.3-.2-.4-.5-.4s-.5.2-.5.4v4c0 1 1 2.3 2.4 2.6v1.4c0 .3.2.4.5.4.1 0 .2 0 .3-.1.1-.1.1-.2.1-.4v-1.8c0-.2-.2-.4-.4-.4-1.1-.1-1.9-1.1-1.9-1.8v-3.9zm2.3 1.299v-4c0-.3-.2-.4-.5-.4s-.5.2-.5.4v4.5c0 .1 0 .2.1.3.1.1.2.1.3.1.4 0 1 .1 1.4.4.4.3.5.8.5 1.4v1.3c0 .3.2.4.5.4.1 0 .2 0 .3-.1.1-.1.1-.2.1-.3v-1.4c0-.9-.3-1.6-.8-2-.3-.3-.8-.5-1.4-.6zM8.7 5.909c.5 0 .9-.4.9-.8 0-.5-.4-.8-.9-.8s-.9.4-.9.8.4.8.9.8z"/><path d="M10.499 7.409c0 .2.2.4.4.4.3 0 .4-.2.4-.4v-2.4c0-1-1-2.2-2.3-2.5v-1.3c0-.2-.2-.4-.4-.4-.1 0-.2 0-.3.1-.1.1-.1.2-.1.4v1.7c0 .2.2.4.4.4 1.1.1 1.9 1.1 1.9 1.7v2.3zm-2.2.199v2.4c0 .2.2.4.4.4.3 0 .4-.2.4-.4v-2.8c0-.1 0-.2-.1-.3-.1-.1-.2-.1-.3-.1-.4 0-.9-.1-1.3-.4-.4-.3-.5-.7-.5-1.3v-1.3c0-.2-.2-.4-.4-.4-.1 0-.2 0-.3.1-.2.1-.2.2-.2.3v1.3c0 .8.3 1.5.8 2 .4.2.9.4 1.5.5z"/><path d="M27.399 30.608H.499V.709h26.9v29.9zm-26-.9h25.1v-28.1h-25.1v28.1z"/><path d="M12.899 30.608c-.2 0-.5-.2-.5-.5v-10.2c0-.2.2-.5.5-.5s.5.2.5.5v10.2c-.1.3-.3.5-.5.5zm-8.5-2.199c-.2 0-.5-.2-.5-.5v-10.2c0-.2.2-.5.5-.5s.5.2.5.5v10.2c0 .3-.2.5-.5.5zm0-15.101c-.2 0-.5-.2-.5-.5v-10.2c0-.2.2-.5.5-.5s.5.2.5.5v10.2c0 .3-.2.5-.5.5zm3.201 5.6c-.2 0-.5-.2-.5-.5v-5.9c0-.2.2-.5.5-.5s.5.2.5.5v5.9c-.1.3-.3.5-.5.5zm0 11.7c-.2 0-.5-.2-.5-.5v-8c0-.2.2-.5.5-.5s.5.2.5.5v8c-.1.3-.3.5-.5.5zm5.299-17.3c-.2 0-.5-.2-.5-.5v-7.8c0-.2.2-.5.5-.5s.5.2.5.5v7.8c-.1.3-.3.5-.5.5zm9.901-3.2c-.2 0-.5-.2-.5-.5v-5.9c0-.2.2-.5.5-.5s.5.2.5.5v5.9c-.1.3-.3.5-.5.5zm.899 20c-.2 0-.5-.2-.5-.5v-4.6c0-.2.2-.5.5-.5s.5.2.5.5v4.6c-.1.3-.3.5-.5.5zM16.6 13.309c-.2 0-.5-.2-.5-.5v-2.5c0-.2.2-.5.5-.5s.5.2.5.5v2.5c-.1.3-.3.5-.5.5zm0-9.201c-.2 0-.5-.2-.5-.5v-2.5c0-.2.2-.5.5-.5s.5.2.5.5v2.5c-.1.3-.3.5-.5.5zm2.7 26c-.2 0-.5-.2-.5-.5v-2.5c0-.2.2-.5.5-.5s.5.2.5.5v2.5c-.1.3-.3.5-.5.5zm0-19.499c-.2 0-.5-.2-.5-.5v-5.8c0-.2.2-.5.5-.5s.5.2.5.5v5.8c-.1.3-.3.5-.5.5z"/></symbol><symbol viewBox="0 0 25 33" id="12" xmlns="http://www.w3.org/2000/svg"><path d="M23.3 13.708H2.6c-.2 0-.5-.2-.5-.5v-3.6c0-.2.2-.5.5-.5h20.7c.2 0 .5.2.5.5v3.7c0 .2-.2.4-.5.4zm-20.3-.9h19.8v-2.8H3v2.8z"/><path d="M13 23.808c-.2 0-.5-.2-.5-.5v-1.5c0-.8-.6-1.5-1.6-1.7l-8.9-2.3c-1-.3-1.7-1-1.7-1.9v-2.9c0-1.2.8-2 2-2 .2 0 .5.2.5.5s-.2.5-.5.5c-.9 0-1.1.7-1.1 1.1v2.9c0 .5.4.9 1 1.1l8.9 2.3c1.3.3 2.2 1.4 2.2 2.6v1.5c.1.1-.1.3-.3.3zm11.3-11.9h-.9c-.2 0-.5-.2-.5-.5s.2-.5.5-.5h.9c.2 0 .5.2.5.5s-.2.5-.5.5z"/><path d="M14.199 32.108h-2.5c-.2 0-.5-.2-.5-.5v-8.2c0-.2.2-.5.5-.5h2.5c.2 0 .5.2.5.5v8.2c-.1.3-.3.5-.5.5zm-2-.9h1.6v-7.3h-1.6v7.3zm9.601-21.3c-.3 0-.5-.2-.5-.5v-4.4c0-.2-.1-.3-.2-.4-.2-.2-.6-.4-1-.4-.7 0-1.2.4-1.2.7v.4c0 .9-.9 1.6-2.1 1.6h-1c-.7 0-1.3-.2-1.7-.6-.3-.3-.4-.6-.4-1v-2.3c0-.4-.3-.6-.4-.7-.3-.2-.8-.4-1.3-.4s-.9.1-1.3.4c-.2.1-.5.4-.5.7v1.2c0 .9-.9 1.6-2.1 1.6h-.9c-1.5 0-2.7.8-2.7 1.8v1.6c0 .2-.2.4-.5.4-.2 0-.4-.2-.4-.5v-1.6c0-1.5 1.6-2.7 3.6-2.7h.9c.7 0 1.2-.4 1.2-.7v-1.2c0-.6.3-1.1.8-1.5.5-.3 1.2-.5 1.8-.5.7 0 1.3.2 1.8.5.5.4.8.9.8 1.5v2.3c0 .2.1.3.2.4.2.2.6.4 1 .4h1c.7 0 1.2-.4 1.2-.7v-.4c0-.9.9-1.6 2.1-1.6.7 0 1.3.2 1.7.6.3.3.4.6.4 1v4.4c.1.4-.1.6-.3.6zm-8.7 9.1c-.8 0-1.6-.2-2.2-.6-.6-.4-1-1-1-1.6v-.7c0-.2-.5-.6-1.3-.6H5.1c-.5 0-1.1-.2-1.4-.5-.2-.2-.3-.4-.3-.7v-.9c0-.2.2-.4.5-.4.2 0 .4.2.4.5v.9c.2.2.4.3.8.3h3.5c1.2 0 2.2.7 2.2 1.5v.7c0 .3.2.6.6.8.4.3 1 .4 1.7.4 1.3 0 2.2-.6 2.2-1.2v-.2c0-.8 1-1.5 2.2-1.5h2.4c.8 0 1.3-.4 1.3-.6v-1.1c0-.2.2-.4.5-.4.2 0 .4.2.4.5v1.1c0 .8-1 1.5-2.2 1.5h-2.4c-.8 0-1.3.4-1.3.6v.2c.1 1-1.3 2-3.1 2z"/></symbol><symbol viewBox="0 0 142 36" id="am-pm" xmlns="http://www.w3.org/2000/svg"><path fill-rule="evenodd" clip-rule="evenodd" d="M89.964 7.772C92.484 3.423 97.225-.28 102.19.927c5.039 1.53 7.706 8.134 6.595 13.369-.741 3.543-3.853 5.718-6.817 6.765-3.482 1.288-7.26.644-10.817 0 .074 3.14.37 6.281.74 9.422-.296 2.9-4.519 2.819-4.593-.161-1.037-7.49-1.111-15.865 2.667-22.55zm1.704 8.295c4.075.967 9.114 1.611 12.3-2.013 1.556-3.302-.741-9.423-4.742-8.376-4.298 1.37-6.594 6.04-7.558 10.39zM11.426 2.457c1.779-1.61 4.594-2.175 6.595-.725 3.482 2.416 4.52 7.087 5.038 11.195.519 5.234.667 10.55 1.111 15.784.445 2.578-3.26 3.785-4.223 1.37-.89-3.141-.667-6.604-1.037-9.826-3.63-.564-7.335-.966-10.966-1.369-1.111 3.866-1.926 7.812-2.89 11.678-.666 2.657-4.593 1.69-4.297-.967.815-4.67 2.149-9.18 3.482-13.771 1.482-4.913 3.335-9.987 7.187-13.37zM9.574 14.215c3.038.08 6.15.403 9.114 1.047-.445-3.463-.816-7.248-3.335-9.745-2.963 1.853-4.593 5.396-5.779 8.698zM33.58 8.336c1.334-2.819 3.186-5.96 6.224-6.765 2-.483 3.853.966 4.668 2.9 1.26 2.899.889 6.281.963 9.422 2.297-2.014 4.668-4.59 7.78-4.752 3.26-.16 5.26 3.463 5.556 6.604.519 4.913-.222 9.906.445 14.819.593 2.093-1.778 3.946-3.482 2.738-1.63-1.45-1.112-4.027-1.408-6.04-.37-4.51.889-9.262-.89-13.45-3.037 1.37-5.038 4.188-7.334 6.604-1.408 1.692-4.224.886-4.668-1.369-1.112-4.107-.297-8.376-.89-12.563-2.296 2.013-3.408 5.073-4.445 7.973-1.556 4.67-2.741 9.503-3.26 14.415 0 1.853-2.223 2.98-3.556 1.853-1.482-1.128-.89-3.302-.741-4.994 1.111-6.12 2.593-12 5.038-17.395zm83.576-4.268c-4.297 7.49-5.927 16.268-7.706 24.724-.148 1.288-.963 2.9.223 3.946 1.037 1.45 3.556.805 3.853-1.047 2-8.778 3.334-17.96 7.927-25.61 1.853 4.43 1.482 9.342 2.816 13.852.37 2.094 3.112 3.14 4.371 1.45 1.927-2.578 2.816-5.88 5.187-8.134.889 7.167.37 14.818 3.704 21.341 1.26 2.658 5.335 0 3.853-2.496-2.445-5.557-2.297-11.839-2.815-17.879-.223-2.658-1.482-6.362-4.52-6.282-2.964.161-4.816 3.06-6.298 5.477-.741-3.947-.963-8.618-3.927-11.597-2.222-2.094-5.408-.161-6.668 2.255zm-46.974 16.51c-1.334-1.933.889-3.625 2.296-4.35.964.725 2.816 1.128 2.594 2.82.148 2.657-3.705 3.945-4.89 1.53z"/></symbol><symbol viewBox="0 0 85 31" id="arrow" xmlns="http://www.w3.org/2000/svg"><path d="M83.457 17.095a2 2 0 000-2.828L70.729 1.539A2 2 0 1067.9 4.367l11.314 11.314L67.9 26.994a2 2 0 002.829 2.829l12.728-12.728zM.33 17.68h81.712v-4H.33v4z"/></symbol><symbol viewBox="0 0 25 26" id="basket" xmlns="http://www.w3.org/2000/svg"><path d="M9.646 19.684a3.16 3.16 0 00-3.157 3.157 3.16 3.16 0 003.157 3.156 3.16 3.16 0 003.156-3.156 3.16 3.16 0 00-3.156-3.157zm0 4.42a1.264 1.264 0 111.263-1.263c0 .696-.567 1.263-1.263 1.263zm9.342-4.42a3.16 3.16 0 00-3.156 3.157 3.16 3.16 0 003.156 3.156 3.16 3.16 0 003.157-3.156 3.16 3.16 0 00-3.157-3.157zm0 4.42a1.264 1.264 0 010-2.526 1.264 1.264 0 010 2.526zm5.477-16.941a.947.947 0 00-.741-.357H7.142l-.86-4.35a.947.947 0 00-.759-.748l-3.787-.695a.946.946 0 10-.342 1.863l3.155.579L7.328 17.5a.947.947 0 00.929.763h13.257c.44 0 .823-.304.923-.734l2.21-9.564a.946.946 0 00-.182-.803zM20.76 16.37H9.034L7.517 8.7h15.015l-1.771 7.67z"/></symbol><symbol viewBox="0 0 662 625" id="cart" xmlns="http://www.w3.org/2000/svg"><path d="M565.318 414.065h-360.8a11.552 11.552 0 01-11.54-8.32l-79.69-270.94a11.543 11.543 0 011.848-10.158 11.557 11.557 0 019.232-4.622h512.2a25.095 25.095 0 0120.1 10 26.901 26.901 0 014.27 23.1l-71.37 242.58a25.66 25.66 0 01-24.25 18.36zm-352.14-23.1h352.14a2.39 2.39 0 002.07-2l71.26-242.53c.207-.433.313-.909.31-1.39a3.142 3.142 0 00-.31-1.38 1.917 1.917 0 00-.7-.62 1.813 1.813 0 00-.91-.19h-496.61l72.75 248.11z"/><path d="M650.178 143.485a14.203 14.203 0 00-13.61-11.92h-511.74l79.69 271.06h360.79a13.876 13.876 0 008.277-2.886 13.875 13.875 0 004.893-7.274l71.26-242.53a14.1 14.1 0 00.44-6.45zm-180 207.51a117.88 117.88 0 01-82.59 36.16 117.896 117.896 0 01-115.5-120.11 117.809 117.809 0 01115.49-120.11 117.81 117.81 0 01115.49 120.11 118.002 118.002 0 01-32.89 83.95z"/><path d="M519.228 508.885h-288.72a11.544 11.544 0 01-11.55-8.32L85.108 23.825h-73.11a11.55 11.55 0 010-23.1h81.88a11.562 11.562 0 0111.55 8.43l133.75 476.63h280.05a11.55 11.55 0 010 23.1z"/><path d="M252.908 624.376a66.869 66.869 0 01-68.031-78.522 66.877 66.877 0 0151.968-53.728 66.873 66.873 0 0180.743 65.38 65.998 65.998 0 01-64.68 66.87zm0-110.64a43.895 43.895 0 00-45.612 50.992 43.893 43.893 0 0059.604 33.587 43.894 43.894 0 0027.588-40.809 42.83 42.83 0 00-41.58-43.65v-.12zm269.21 110.64a66.873 66.873 0 01-67.908-78.594 66.861 66.861 0 0117.803-34.775 66.866 66.866 0 01103.465 9.141 66.864 66.864 0 0111.43 37.358 65.83 65.83 0 01-64.79 66.87zm0-110.64a43.768 43.768 0 00-33.76 73.912 43.772 43.772 0 0047.927 10.456 43.767 43.767 0 0027.533-40.598 42.72 42.72 0 00-41.7-43.65v-.12zm-168.5-243.681c-8.2 0-14.32-11.55-14.32-27.37s6.12-27.38 14.32-27.38 14.32 11.55 14.32 27.38c0 15.83-5.89 27.37-14.32 27.37zm0-49c-3.58 0-8.55 8.2-8.55 21.6 0 13.4 5 21.59 8.55 21.59 3.55 0 8.55-8.2 8.55-21.59s-4.62-21.57-8.55-21.57v-.03zm67.56 49c-8.08 0-14.32-11.55-14.32-27.37s6.24-27.38 14.32-27.38 14.32 11.55 14.32 27.38c0 15.83-6.12 27.37-14.32 27.37zm0-49c-3.58 0-8.54 8.2-8.54 21.6 0 13.4 5 21.59 8.54 21.59 3.54 0 8.55-8.2 8.55-21.59s-4.97-21.57-8.55-21.57v-.03zm22-24a28.395 28.395 0 01-23.1-12.93 2.997 2.997 0 01-.49-1.1 2.993 2.993 0 010-1.2c.086-.392.249-.762.48-1.09.239-.327.542-.603.89-.81a2.914 2.914 0 013.38.34c.303.281.545.622.71 1a23.093 23.093 0 0020.67 9.93 2.904 2.904 0 013.12 2.54c.042.406.008.817-.1 1.21-.116.388-.31.749-.57 1.06a2.989 2.989 0 01-2.11 1.08l-2.88-.03zm-111.15.01h-2.78a2.998 2.998 0 01-2.67-3.24 2.881 2.881 0 011-1.9c.586-.471 1.33-.7 2.08-.64a23.12 23.12 0 0020.67-9.93 2.84 2.84 0 01.71-1c.29-.262.63-.462 1-.59a2.91 2.91 0 012.33.25c.348.208.651.483.89.81.236.325.4.697.48 1.09a2.7 2.7 0 010 1.2 2.802 2.802 0 01-.49 1.1 28.421 28.421 0 01-23.32 12.82l.1.03zm102.44 127.04a2.654 2.654 0 01-2-.81 67.676 67.676 0 00-89.39 0c-.269.28-.592.501-.95.65a2.866 2.866 0 01-2.25 0 2.812 2.812 0 01-1-.65 2.867 2.867 0 010-4 73.56 73.56 0 0197.47 0 2.872 2.872 0 010 4c-.549.5-1.258.788-2 .81h.12zm5.88-21.83a11.573 11.573 0 01-10.17-5.66 12.612 12.612 0 01-.92-12.24l8.54-18c.213-.48.56-.89 1-1.18a2.83 2.83 0 011.51-.44 2.822 2.822 0 011.58.4c.471.292.847.717 1.08 1.22l8.43 18.59a13.005 13.005 0 01-.81 12.36 12.372 12.372 0 01-10.28 5l.04-.05zm0-28.3l-5.77 12.71a7.17 7.17 0 000 6.81 6.464 6.464 0 008.412 2.102 6.476 6.476 0 002.328-2.102 7.4 7.4 0 000-6.81l-4.97-12.71z"/></symbol><symbol viewBox="0 0 28 21" id="catalog" xmlns="http://www.w3.org/2000/svg"><path fill-rule="evenodd" clip-rule="evenodd" d="M27.55 19.079l-5-5c1.2-1.5 1.9-3.3 1.9-5.3 0-4.7-3.8-8.5-8.5-8.5s-8.5 3.8-8.5 8.5 3.8 8.5 8.5 8.5c2 0 3.9-.7 5.3-1.9l5 5 1.3-1.3zm-18.2-10.3a6.7 6.7 0 1013.401-.001 6.7 6.7 0 00-13.4 0z"/><path d="M8.15 4.079H.05v-1.8h8.1v1.8zm0 10.7H.05v-1.8h8.1v1.8zm-1.4-5.4H.15v-1.8h6.6v1.8zm-6.6 8.9h12v1.8h-12v-1.8z"/></symbol><symbol viewBox="0 0 145 36" id="cersanit" xmlns="http://www.w3.org/2000/svg"><path d="M127.391.872c.553-.199 1.185-.22 1.718.088 1.224.574 1.442 2.671.435 3.598-.909.75-2.39.663-3.081-.397-.672-1.126-.257-2.87.928-3.29zm6.853-.177h3.811c0 2.539-.02 5.077 0 7.616 2.034.022 4.068-.022 6.102.022-.02.971-.02 1.92 0 2.892h-6.102c.02 5.055 0 10.088 0 15.12.039 1.943.454 4.063 1.876 5.32 1.165 1.105 2.765 1.06 4.206 1.016v2.583c-1.619.397-3.317.53-4.976.22-1.659-.352-3.259-1.434-4.009-3.178-.751-1.788-.889-3.797-.928-5.74.02-8.608.02-17.24.02-25.87zM23.32 11.843c2.132-2.406 5.213-3.576 8.215-3.532 2.073.066 4.246.486 5.964 1.854 2.053 1.568 3.317 4.172 3.83 6.843.356 1.766.534 3.576.356 5.387-6.122-.023-12.244 0-18.385-.023.02 1.656-.02 3.378.592 4.923.889 2.693 3.08 4.591 5.49 5.364 3.14.994 6.458.618 9.617-.11 0 .706.06 1.457-.079 2.163-2.547.64-5.174.971-7.78.905-2.824-.154-5.727-1.06-7.9-3.157-2.172-2.075-3.337-5.231-3.534-8.366-.395-4.348.79-9.072 3.614-12.251zm1.955 1.324c-1.481 2.098-1.975 4.79-2.094 7.395 4.996-.066 10.012 0 15.009-.022.217-2.87-.237-6.026-2.074-8.19-2.883-3.288-8.373-2.913-10.841.817zM47.728 9.79c2.528-1.788 5.766-1.7 8.59-.993a50.8 50.8 0 000 2.45c-1.955-.199-4.147-.199-5.727 1.302-1.46 1.457-1.836 3.775-1.836 5.85 0 5.695.06 11.412.06 17.108-1.324.022-2.647.066-3.97.022-.02-6.512-.08-13.024-.04-19.558.099-2.384 1.047-4.879 2.923-6.181zm15.048-.795c2.844-1.037 6.023-.883 8.748.508-.02.596 0 1.192 0 1.788-2.093-.86-4.463-1.346-6.635-.508-.928.31-1.758 1.016-2.29 1.92-.968 1.656-.79 4.107.592 5.431 1.895 1.965 4.6 2.296 6.813 3.62 1.58.84 3.06 2.164 3.673 4.04.69 2.296.355 5.055-1.146 6.843-1.283 1.611-3.199 2.384-5.035 2.76a16.45 16.45 0 01-8.926-.817c.02-.773 0-1.546 0-2.296 2.37.794 4.838 1.545 7.346 1.17 1.52-.265 3.12-.994 3.89-2.56.75-1.678.612-3.864-.474-5.299-1.244-1.523-3.06-2.185-4.76-2.847-2.073-.817-4.225-1.92-5.509-3.996-.987-1.611-.908-3.708-.336-5.474.593-2.075 2.232-3.598 4.049-4.283zm46.585-.309c2.409-.375 4.937-.706 7.287.243 1.995.729 3.594 2.56 4.364 4.724.553 1.59.81 3.29.869 4.967v16.865c-1.264.022-2.508 0-3.772 0V20.364c0-2.031-.375-4.106-1.382-5.85-1.165-2.23-3.475-3.598-5.786-3.51-2.232 0-4.542.729-6.161 2.517-.139 7.306-.06 14.635-.079 21.942-1.264.022-2.548 0-3.812.022V15.927c-.019-1.325.04-2.65-.059-3.952a3.867 3.867 0 01.059-1.17c2.824-.706 5.589-1.677 8.472-2.119zm16.825-.375h3.989v27.174c-1.342 0-2.666.022-4.008-.022.059-9.029 0-18.102.019-27.152zM8.844 9.15a16.734 16.734 0 018.788-.31c.02.818.02 1.634 0 2.473-2.528-.618-5.253-.662-7.682.442-2.962 1.302-5.095 4.503-5.549 7.99-.355 2.65-.118 5.497 1.047 7.881 1.145 2.45 3.258 4.26 5.628 4.967 2.133.64 4.404.552 6.536 0 .06.795.04 1.611.02 2.428-3.772.993-7.919 1.038-11.473-.883-2.568-1.346-4.542-3.951-5.392-6.975-1.263-4.57-.77-9.956 2.054-13.687 1.54-2.097 3.733-3.51 6.023-4.326zm71.211.397c3.397-1.17 7.07-1.655 10.565-.772 1.975.463 3.871 1.743 4.878 3.73.928 1.766 1.205 3.863 1.264 5.894v17.108c-3.1-.022-6.22.044-9.321-.022-2.725-.199-5.628-.663-7.9-2.517-2.902-2.296-3.396-7.594-.848-10.419 1.737-1.876 4.166-2.627 6.477-3.09 2.567-.398 5.154-.619 7.741-.398-.02-1.545.217-3.156-.336-4.613-.572-1.678-1.836-2.98-3.337-3.554-2.982-1.126-6.24-.596-9.163.507-.02-.618-.02-1.236-.02-1.854zm4.226 12.141c-1.738.795-3.278 2.428-3.673 4.547-.217 1.59-.118 3.334.73 4.658.89 1.457 2.39 2.252 3.872 2.65 2.508.617 5.114.64 7.681.573V20.452c-2.883-.044-5.885 0-8.61 1.236z"/></symbol><symbol viewBox="0 0 22 23" id="comparison" xmlns="http://www.w3.org/2000/svg"><path d="M8.2 22.68h6.1V.08H8.2v22.6zm1.4-21.2h3.3v19.8H9.6V1.48zM.4 22.679h6.1v-15.2H.4v15.2zm1.4-13.8h3.3v12.4H1.8v-12.4zM15.9 2.78v19.9H22V2.78h-6.1zm4.7 18.5h-3.3V4.18h3.3v17.1z"/></symbol><symbol viewBox="0 0 26 27" id="doc" xmlns="http://www.w3.org/2000/svg"><path d="M25.562 26.896H.862v-26h24.7v26zm-23.7-1h22.7v-24h-22.7v24z"/><path d="M21.462 5.696h-13v1h13v-1zm0 3.9h-13v1h13v-1zm0 3.9h-13v1h13v-1zm0 3.9h-13v1h13v-1zm0 3.901h-13v1h13v-1zM4.962 6.696a.7.7 0 100-1.4.7.7 0 000 1.4zm0 3.901a.6.6 0 100-1.2.6.6 0 000 1.2zm0 3.899a.6.6 0 100-1.2.6.6 0 000 1.2zm0 3.9a.6.6 0 100-1.2.6.6 0 000 1.2zm0 3.901a.6.6 0 100-1.2.6.6 0 000 1.2z"/></symbol><symbol viewBox="0 0 113 26" id="electrolux" xmlns="http://www.w3.org/2000/svg"><path fill-rule="evenodd" clip-rule="evenodd" d="M.903 25.905H26.5v-25H.903v25zm16.406-23.09c4.525 1.447 7.794 5.636 7.807 10.585.012 4.869-3.192 9.048-7.807 10.591V2.814zm-3.612-.567c.818 0 1.688.107 2.414.247 0 5.664-5.61 10.325-11.398 10.325l-2.421-.003C2.689 7.01 7.608 2.248 13.697 2.248zM4.715 14c5.787 0 11.395 4.655 11.395 10.315a13.18 13.18 0 01-2.413.251C7.606 24.558 2.52 19.781 2.29 14h2.425zm30.355 1.602v-1.575h5.325v-2.01h-5.327V9.092h5.667V7.09h-7.847v8.422c0 2.129.929 3.585 3.108 3.885a.6.6 0 00.126.019h.04c.224.024.452.04.69.04h4.034v-2.001H36.87c-.693 0-1.8-.334-1.8-1.852zm7.36-2.669v6.525h2.182V7.086h-2.181v5.847zm8.442-2.705c-2.757 0-4.82 1.855-4.82 4.743v.072c0 2.817 1.99 4.636 4.875 4.636 1.387 0 2.684-.375 3.87-1.605l-1.314-1.248c-.694.677-1.37 1.034-2.483 1.034-1.625 0-2.702-.927-2.775-2.353h7.157c.037-.357.037-.749.037-.749 0-2.514-1.808-4.53-4.547-4.53zm-2.593 3.78c.091-1.087 1.224-1.96 2.593-1.96 1.278 0 2.319.891 2.319 1.96h-4.912zm13.273-1.872c.986 0 1.716.357 2.337.98l1.352-1.372c-1.06-1.106-2.32-1.552-3.688-1.552-2.776 0-5.003 2.015-5.003 4.761s2.227 4.762 5.003 4.762c1.369 0 2.629-.446 3.688-1.552l-1.352-1.373c-.62.625-1.351.98-2.337.98-1.606 0-2.83-1.194-2.83-2.817 0-1.622 1.224-2.817 2.83-2.817zm7.222 3.469h-.002v-3.159h1.984v-1.935h-1.981V7.086h-2.182v8.645h.006c.062 2.01.998 3.379 3.102 3.668a.63.63 0 00.126.02h.04c.223.023.452.04.69.04h.23l.01-2.002h-.221c-.694 0-1.802-.334-1.802-1.852zm5.976-3.763v-1.33h-2.164v8.945h2.163v-4.705c0-1.473.964-2.396 2.471-2.396.346 0 .656.035.91.089v-2.06a4.775 4.775 0 00-.654-.052c-1.31 0-2.29.585-2.727 1.508zm8.718-1.597c-2.782 0-5 2.06-5 4.74s2.218 4.74 5 4.74c2.762 0 4.998-2.06 4.998-4.74 0-2.681-2.236-4.74-4.998-4.74zm0 7.545c-1.618 0-2.836-1.225-2.836-2.805s1.218-2.805 2.836-2.805c1.6 0 2.835 1.225 2.835 2.805s-1.235 2.805-2.835 2.805zm6.338-5.07v6.738h2.183V7.085h-2.183v5.634zm10.059 2.992c0 1.42-.854 2.024-2 2.024-1.145 0-2-.605-2-2.005v-5.219h-2.199v5.397c0 2.556 1.909 3.78 4.181 3.78 2.291 0 4.216-1.241 4.216-3.834v-5.342h-2.198v5.2zm10.442.886l-1.376-1.88 1.704-2.265 1.458-1.94h-2.38l-1.982 2.679-2-2.68h-2.363l1.355 1.81 1.808 2.415-1.895 2.576-1.577 2.145h2.346l2.326-3.16 2.326 3.16h2.345l-2.095-2.86z"/></symbol><symbol viewBox="0 0 27 27" id="enter" xmlns="http://www.w3.org/2000/svg"><path d="M12.537 24.948h-10.6v-22.8h10.6c.4 0 .8-.4.8-.8s-.4-.8-.8-.8h-11.4c-.4 0-.8.4-.8.8v24.4c0 .4.4.8.8.8h11.4c.4 0 .8-.4.8-.8s-.4-.8-.8-.8z"/><path d="M26.137 13.048l-5.6-5.7c-.3-.3-.8-.3-1.1 0-.3.3-.3.8 0 1.2l4.2 4.3h-16.8c-.4 0-.8.4-.8.8 0 .5.4.8.8.8h16.7l-4.2 4.3c-.3.3-.3.8 0 1.2.3.3.8.3 1.1 0l5.6-5.7c.4-.4.4-.9.1-1.2z"/></symbol><symbol viewBox="0 0 23 21" id="favorites" xmlns="http://www.w3.org/2000/svg"><path d="M20.356 2.379c-1.1-1.2-2.7-1.9-4.3-1.9-1.6 0-3.2.7-4.3 1.9l-.4.4-.4-.4c-2.2-2.4-5.9-2.5-8.3-.3l-.3.3c-2.3 2.5-2.3 6.4 0 9l8.4 8.9c.3.3.8.3 1.1 0l8.4-8.9c2.4-2.5 2.4-6.5.1-9zm-1.1 7.9l-7.9 8.3-7.9-8.3c-1.8-1.9-1.8-4.9 0-6.9 1.6-1.8 4.4-1.9 6.1-.2l.2.2.9 1c.3.3.8.3 1.1 0l.9-1c1.6-1.8 4.4-1.9 6.1-.2l.2.2c2.1 2 2.1 5 .3 6.9z"/></symbol><symbol viewBox="0 0 14 14" id="feedback" xmlns="http://www.w3.org/2000/svg"><path d="M11.357 10.118a6.79 6.79 0 01-.918.5c-.599 2.093-2.532 3.309-2.532 3.309.806-.963.588-1.94.117-2.72-1.234.066-2.404-.235-3.27-.885.03-.02.061-.038.091-.06.425.061.864.094 1.313.094 3.689 0 6.678-2.139 6.678-4.778 0-.793-.275-1.54-.752-2.197.343.201.653.446.91.741 1.526 1.737.792 4.421-1.637 5.996zm-11.136.416s2.52.032 4.564-1.4c.37.052.75.081 1.14.081 3.2 0 5.793-1.855 5.793-4.144S9.125.927 5.925.927.13 2.78.13 5.07c0 1.314.858 2.483 2.193 3.243-.179.91-.716 1.85-2.103 2.22z"/></symbol><symbol viewBox="0 0 157 36" id="hansgrohe" xmlns="http://www.w3.org/2000/svg"><path d="M.783.7C2.074.7 3.366.686 4.657.705l.013.229v11.985c.005.27-.018.546.02.816a1.13 1.13 0 00.055-.08c.368-.307.746-.615 1.18-.834a6.59 6.59 0 015.354-.396 5.614 5.614 0 012.252 1.562c.838.938 1.337 2.14 1.547 3.372.042.228.032.462.032.69v8.064c.005.979-.018 1.963-.009 2.942-.005.08.023.215-.098.21-1.132.005-2.265 0-3.393.005-.102 0-.205-.005-.303-.014.019-1.124-.014-2.248.024-3.372v-6.716c-.024-1.151-.77-2.229-1.8-2.718-.834-.41-1.85-.476-2.717-.126-1.174.461-2.004 1.641-2.116 2.886-.004 3.311 0 6.627-.004 9.939.018.079-.042.13-.117.111-1.263.005-2.526.005-3.789 0-.018-2.55-.01-5.106-.014-7.662V1.451C.78 1.2.77.948.784.701zm121.854.01c1.296.004 2.596-.014 3.892.009.004 3.894 0 7.793 0 11.687.009.42-.024.844.014 1.269a6.242 6.242 0 012.12-1.292 6.723 6.723 0 013.654-.233 5.855 5.855 0 012.233 1.016 6.064 6.064 0 011.673 2.01c.396.751.634 1.577.746 2.416 0 1.12.009 2.234-.01 3.353v4.43c-.009 1.288.024 2.57-.032 3.858-1.254.004-2.508.004-3.757 0-.023-1.33.01-2.663 0-3.997.005-1.973-.009-3.95.01-5.923.009-.448-.07-.9-.257-1.306-.321-.76-.969-1.352-1.72-1.674-.871-.364-1.901-.373-2.754.047-1.063.517-1.79 1.627-1.911 2.793-.028 3.349.005 6.702-.028 10.05-1.291.019-2.582.005-3.873.005-.033-.504 0-1.012-.014-1.52V3.363c.009-.886-.005-1.772.014-2.653zm-79.24 13.007a6.437 6.437 0 014.147-1.642 6.526 6.526 0 013.715.998c1.314.835 2.32 2.164 2.698 3.68.22.77.177 1.58.182 2.373.019 1.106.01 2.206.01 3.312-.005 2.275.018 4.556.004 6.832-1.277.005-2.559 0-3.836 0-.018-3.32 0-6.641-.01-9.957-.004-.951-.521-1.856-1.276-2.416-1.067-.82-2.61-.937-3.803-.322-.802.402-1.445 1.134-1.683 2.006-.149.494-.107 1.016-.116 1.53-.005 1.898.01 3.791-.01 5.69-.004 1.146.01 2.294-.004 3.44l-.023.029c-1.296.014-2.587 0-3.883.005-.023-.817-.005-1.633-.01-2.454.005-2.504-.009-5.004.01-7.508 0-2.295-.005-4.59.005-6.884h.773c.956.047 1.911.005 2.871.024.01.485-.004.965.01 1.45.088-.028.154-.117.228-.186zm35.593-1.32a7.614 7.614 0 013.719-.191 6.408 6.408 0 013.49 1.86c0-.54-.008-1.082.005-1.623 1.18.014 2.364 0 3.543.01.014 5.116-.014 10.232-.005 15.343-.005.513-.023 1.035-.159 1.535-.228.923-.69 1.772-1.249 2.537a10.105 10.105 0 01-4.078 3.18c-1.1.457-2.297.709-3.486.634-2.032-.084-4.06-.849-5.57-2.224a7.361 7.361 0 01-2.064-3.078c1.356 0 2.717-.014 4.073-.01a5.23 5.23 0 002.028 1.418c.97.369 2.05.448 3.057.196 1.664-.396 3.076-1.688 3.63-3.307.239-.638.322-1.324.304-2-.904.98-2.004 1.805-3.277 2.238-1.011.364-2.116.364-3.164.187-1.79-.308-3.454-1.264-4.656-2.621a8.55 8.55 0 01-1.454-2.28c-.83-1.89-.984-4.086-.345-6.054.843-2.658 2.978-4.92 5.658-5.75zm2.018 3.642c-1.235.112-2.396.774-3.155 1.754a4.776 4.776 0 00-1.007 3.059c-.01 1.805 1.123 3.549 2.773 4.276.918.41 1.985.504 2.96.234.783-.196 1.496-.63 2.064-1.199a4.809 4.809 0 001.3-2.472c.196-1.035.061-2.14-.424-3.078a4.654 4.654 0 00-1.808-1.963 4.454 4.454 0 00-2.703-.61zm18.34-3.521a6.49 6.49 0 012.488-.457c.01.802-.004 1.604 0 2.402-.009.443.019.886-.009 1.329-.993.033-1.995.336-2.787.951-.61.471-1.081 1.18-1.128 1.964-.01 2.457.01 4.91-.01 7.368-.004 1.04.005 2.08-.004 3.116.01.088-.102.07-.158.074h-3.733c-.08.019-.136-.037-.112-.112V13.945c.004-.499-.01-.998.004-1.502 1.221.01 2.447.01 3.668 0 .014.467-.014.933.01 1.4.424-.625 1.09-1.031 1.77-1.325zm11.092-.406c1.398-.102 2.824.136 4.097.737 2.027.933 3.63 2.705 4.413 4.79.942 2.471.737 5.363-.596 7.657-1.1 1.94-2.983 3.438-5.141 4.006-1.636.434-3.407.364-4.991-.233a8.42 8.42 0 01-3.454-2.425 8.804 8.804 0 01-1.943-3.973 9.073 9.073 0 01.54-5.387 8.736 8.736 0 012.974-3.684 8.244 8.244 0 014.101-1.488zm.145 3.927c-1.548.15-2.927 1.199-3.608 2.58a5.039 5.039 0 00.089 4.607 4.73 4.73 0 001.505 1.66 4.446 4.446 0 002.219.765 4.459 4.459 0 001.985-.345c1.137-.476 2.046-1.446 2.508-2.584.535-1.31.48-2.85-.154-4.118a4.712 4.712 0 00-2.177-2.164 4.404 4.404 0 00-2.367-.4zm35.076-3.39c2.013-.812 4.358-.737 6.32.177 1.598.737 2.931 2 3.798 3.526a9.138 9.138 0 011.175 4.355c.004.555.028 1.115-.052 1.67-2.414.014-4.833 0-7.247.005-1.738 0-3.477.004-5.22-.005-.084 0-.168-.005-.247 0-.056.042-.009.126 0 .187a4.358 4.358 0 001.529 2.229c.82.648 1.873.988 2.922.97a4.606 4.606 0 003.607-1.772c.443-.038.891-.01 1.333-.02.937.006 1.869-.008 2.806.006-.023.219-.14.415-.224.615-.964 2.173-2.866 3.941-5.154 4.631-.942.313-1.944.401-2.927.345-2.046-.116-4.004-1.086-5.407-2.574a8.92 8.92 0 01-2.283-4.668c-.359-2.169.079-4.473 1.263-6.329.941-1.492 2.353-2.705 4.008-3.348zm-1.259 6.17c2.853.014 5.705 0 8.557-.01-.093-.378-.288-.723-.508-1.04-.848-1.222-2.349-1.926-3.821-1.888-1.827-.014-3.626 1.193-4.228 2.938zM22.19 13.669c1.407-.992 3.123-1.57 4.852-1.543a6.043 6.043 0 011.91.28c1.04.35 1.925 1.03 2.727 1.763.07-.574.019-1.161.038-1.74 1.263-.004 2.53 0 3.793 0 .028.723.005 1.446.01 2.174v8.72c-.005 1.983.009 3.97-.01 5.951-.466.02-.932-.009-1.398-.004-.354-.005-.708.005-1.063-.005-.452-.037-.904 0-1.356-.023-.019-.532.01-1.068-.019-1.6-.685.602-1.412 1.175-2.26 1.525-.913.387-1.92.48-2.899.425-1.701-.089-3.356-.747-4.693-1.796a8.834 8.834 0 01-3.072-4.663 8.885 8.885 0 01.257-5.326 8.876 8.876 0 013.183-4.137zm4.26 2.403c-1.58.2-2.978 1.31-3.612 2.76-.727 1.605-.508 3.592.573 4.986.886 1.19 2.372 1.907 3.86 1.828a4.567 4.567 0 002.726-1.091c1.207-1.017 1.85-2.654 1.668-4.22-.14-1.568-1.104-3.037-2.498-3.769a4.5 4.5 0 00-2.717-.494zm33.235-2.994c.956-.555 2.05-.84 3.15-.9 1.916-.14 3.907.443 5.37 1.711 1.03.89 1.79 2.136 1.976 3.498-1.421.01-2.838-.005-4.26-.005-.032-.415-.28-.77-.578-1.045-.624-.56-1.477-.886-2.32-.82-.476.032-.956.135-1.376.378-.386.195-.727.545-.806.988-.051.373.112.76.387 1.008.35.293.788.466 1.226.573.368.107.75.135 1.118.229.676.149 1.352.28 2.028.429.83.154 1.663.354 2.414.746.806.401 1.538 1.007 1.971 1.81.513.923.61 2.033.443 3.063a5.566 5.566 0 01-1.118 2.57 5.945 5.945 0 01-2.014 1.628c-.909.457-1.92.7-2.936.741-.452-.004-.904.028-1.352-.046-1.934-.229-3.822-1.157-5.057-2.687-.592-.75-1.03-1.641-1.16-2.593a6.28 6.28 0 01-.056-.657c.256-.023.517.014.774.01h3.309a2.14 2.14 0 00.601 1.412c.536.597 1.319.914 2.102 1.012.545.038 1.1.019 1.626-.149.415-.121.816-.34 1.096-.676a1.58 1.58 0 00.33-1.31c-.055-.197-.14-.388-.293-.523-.34-.345-.81-.508-1.263-.634-.643-.192-1.31-.257-1.962-.383-.9-.168-1.79-.382-2.638-.727-.89-.355-1.748-.84-2.424-1.53-.582-.592-.978-1.394-.997-2.234-.051-1.063.205-2.15.774-3.05a5.244 5.244 0 011.915-1.837z"/></symbol><symbol viewBox="0 0 21 21" id="home" xmlns="http://www.w3.org/2000/svg"><path d="M20.9 7.779L10.6.279.3 7.779v12.5H8v-8.1h5.1v8.1h7.7v-1.5l.1-11zm-6.2 11v-8.1H6.6v8.1H1.8v-10.3l8.8-6.4 8.8 6.4v10.3h-4.7z"/></symbol><symbol viewBox="0 0 68 26" id="jika" xmlns="http://www.w3.org/2000/svg"><path fill-rule="evenodd" clip-rule="evenodd" d="M2.894 18.7c0 .606.167 1.155.503 1.646.376.55.86.88 1.452.994.454.113.82.17 1.096.17 1.876 0 2.982-.844 3.318-2.532.118-.588.178-1.404.178-2.448V2.447h2.852v16.437c-.32 1.918-1.129 3.257-2.426 4.016-1.16.703-2.387 1.053-3.685 1.053-.38 0-.658-.028-.838-.084-1.538 0-2.807-.48-3.805-1.44-.998-.96-1.497-2.17-1.497-3.634V16.6h2.852v2.1zM19.689 2.448V23.2h-2.853V2.447h2.853zm32.82 16.102l3.008-3.174v7.841l-3.008 2.688V18.55z"/><path fill-rule="evenodd" clip-rule="evenodd" d="M57.239 23.219h10.33L54.01.905l-12.625 20.78-8.543-10.734 8.967-8.482h-3.632L27.383 12.755V2.47h-2.852v20.75h2.852v-7.067l3.572-3.342L38.97 23.22h11.71v-2.622h-5.447l8.78-14.45 8.779 14.45H57.24v2.621z"/></symbol><symbol viewBox="0 0 10 14" id="location" xmlns="http://www.w3.org/2000/svg"><path d="M7.903 1.386A4.523 4.523 0 004.683.053a4.52 4.52 0 00-3.218 1.333c-1.592 1.591-1.79 4.585-.429 6.399l3.648 5.268 3.642-5.26c1.366-1.822 1.169-4.816-.423-6.407zm-3.177 4.84a1.664 1.664 0 01-1.662-1.662c0-.917.746-1.662 1.662-1.662.916 0 1.662.745 1.662 1.662 0 .916-.746 1.661-1.662 1.661z"/></symbol><symbol viewBox="0 0 99 141" id="location2" xmlns="http://www.w3.org/2000/svg"><path d="M49.797 140.292L10.439 83.466A53.81 53.81 0 01.828 48.388a53.038 53.038 0 0114.031-33.675 49.11 49.11 0 0169.525 0 53.39 53.39 0 0114.03 33.675 54.16 54.16 0 01-9.68 35.498l-38.937 56.406zm0-133.297A42.094 42.094 0 0020.05 19.343 45.672 45.672 0 007.843 48.458a46.934 46.934 0 008.42 30.798l33.744 49.109 33.605-48.477a46.935 46.935 0 008.419-31.01 45.672 45.672 0 00-12.628-29.535A42.094 42.094 0 0049.797 6.995zm.49 66.649a24.975 24.975 0 1124.976-24.976 25.046 25.046 0 01-24.975 24.976zm0-42.866a17.96 17.96 0 100 35.92 17.96 17.96 0 000-35.92z"/></symbol><symbol viewBox="0 0 32 28" id="mail" xmlns="http://www.w3.org/2000/svg"><path d="M31.061 27.696h-30c-.3 0-.5-.2-.5-.5v-15.9c0-.3.2-.5.5-.5s.5.2.5.5v15.4h29v-15.4c0-.3.2-.5.5-.5s.5.2.5.5v15.9c0 .3-.3.5-.5.5z"/><path d="M13.262 19.796c-.1 0-.2 0-.3-.1l-12.2-7.9c-.2-.1-.3-.5-.1-.7.1-.2.5-.3.7-.1l12.3 7.9c.2.1.3.5.1.7-.1.1-.3.2-.5.2zm5.5 0c-.2 0-.3-.1-.4-.2-.1-.2-.1-.5.1-.7l12.3-7.9c.2-.2.5-.1.7.1.1.2.1.5-.1.7l-12.3 7.9c-.1 0-.2.1-.3.1z"/><path d="M31.062 27.696c-.1 0-.2 0-.3-.1l-13.6-8.8c-.7-.4-1.6-.4-2.2 0l-13.6 8.8c-.2.2-.5.1-.7-.1-.1-.2-.1-.5.1-.7l13.6-8.8c1-.7 2.3-.7 3.3 0l13.6 8.8c.2.1.3.5.1.7 0 .1-.2.2-.3.2zm-30-15.9c-.2 0-.3-.1-.4-.2-.1-.2-.1-.5.1-.7l2.9-1.9c.2-.2.5-.1.7.1.1.2.1.5-.1.7l-3 2h-.2zm30 0c-.1 0-.2 0-.3-.1l-1.6-1c-.2-.1-.3-.5-.1-.7.1-.2.5-.3.7-.1l1.6 1c.2.1.3.5.1.7-.1.2-.3.2-.4.2z"/><path d="M28.062 13.696c-.3 0-.5-.2-.5-.5v-11.5h-23.1v11.5c0 .3-.2.5-.5.5s-.5-.2-.5-.5v-12c0-.3.2-.5.5-.5h24.2c.3 0 .5.2.5.5v12c-.1.2-.3.5-.6.5z"/><path d="M16.062 15.896c-.1 0-.3-.1-.4-.2l-5.5-5.9c-1-1.1-1.2-2.6-.5-3.9.5-.8 1.3-1.5 2.2-1.7.9-.2 1.9 0 2.7.5l1.5 1 1.5-1c.8-.5 1.8-.7 2.7-.5.9.2 1.7.8 2.2 1.7.7 1.3.5 2.9-.5 3.9l-5.5 5.9c-.2.1-.3.2-.4.2zm-3.4-10.7c-.2 0-.4 0-.5.1-.7.2-1.2.6-1.5 1.2-.5.9-.4 2 .3 2.8l5.1 5.5 5.1-5.5c.7-.8.8-1.9.3-2.8-.3-.6-.9-1-1.5-1.2-.7-.2-1.4 0-1.9.4l-1.7 1.2c-.2.1-.4.1-.6 0l-1.7-1.2c-.5-.4-.9-.5-1.4-.5z"/></symbol><symbol viewBox="0 0 38 38" id="microphone" xmlns="http://www.w3.org/2000/svg"><g clip-path="url(#beclip0)"><path d="M18.317 30.396v4.457h-6.504v2.168H26.99v-2.168h-6.504v-4.457c4.866-.437 8.879-3.815 10.291-8.297l-2.067-.652a9.723 9.723 0 01-9.308 6.83 9.723 9.723 0 01-9.308-6.83l-2.067.652c1.41 4.477 5.42 7.86 10.291 8.297z"/><path d="M19.402 26.11c4.184 0 7.588-3.405 7.588-7.588V7.681c0-4.224-3.404-7.66-7.588-7.66s-7.588 3.436-7.588 7.66v10.84c0 4.183 3.404 7.587 7.588 7.587zm-5.42-13.008h3.252v-2.168h-3.252V8.766h3.252V6.598H14.09c.498-2.511 2.691-4.409 5.313-4.409 2.623 0 4.816 1.898 5.314 4.409H21.57v2.168h3.252v2.168H21.57v2.168h3.252v2.168h-10.84v-2.168zm0 4.335h10.84v1.084a5.426 5.426 0 01-5.42 5.42 5.426 5.426 0 01-5.42-5.42v-1.084z"/></g><defs><clipPath id="beclip0"><path transform="translate(.9 .021)" d="M0 0h37v37H0z"/></clipPath></defs></symbol><symbol viewBox="0 0 8 14" id="phone" xmlns="http://www.w3.org/2000/svg"><path d="M7.745 2.45V.843H.027v13h7.717V5.298h.246v-1.29h-.246v-.269h.246V2.45h-.245zm-4.48-.92h1.242v.389H3.264V1.53zm.62 11.9a.518.518 0 11.001-1.037.518.518 0 010 1.037zm3.109-1.399H.778V2.657h6.216v9.374z"/></symbol><symbol viewBox="0 0 6 9" id="question-mark" xmlns="http://www.w3.org/2000/svg"><path d="M2.926 5.867c0-.289.047-.542.141-.758.102-.224.221-.412.359-.564.145-.152.333-.333.565-.542.29-.253.504-.47.642-.65.137-.188.206-.413.206-.673 0-.354-.137-.636-.413-.845-.275-.217-.656-.325-1.141-.325-.848 0-1.497.285-1.946.856l-.794-.564a2.99 2.99 0 011.163-.9c.479-.21 1.03-.314 1.653-.314.79 0 1.417.174 1.88.52.464.34.696.81.696 1.41 0 .296-.05.56-.152.791-.094.224-.21.412-.348.564a8.09 8.09 0 01-.554.542 4.659 4.659 0 00-.663.704 1.299 1.299 0 00-.207.748H2.926zm.554 2.461a.716.716 0 01-.51-.195.698.698 0 01-.196-.499.66.66 0 01.195-.487.695.695 0 01.511-.206.66.66 0 01.5.206.66.66 0 01.196.487.678.678 0 01-.206.499.665.665 0 01-.49.195z"/></symbol><symbol viewBox="0 0 118 36" id="quick-step" xmlns="http://www.w3.org/2000/svg"><path d="M115.184 22.281v.426c.247 0 .508-.014.755-.041 0-.069.014-.22.014-.289-.233-.082-.508-.096-.769-.096zm-.344-.288c.454.041.976-.123 1.374.151.22.33.083.837-.357.865.137.22.261.439.398.672-.109 0-.329-.013-.439-.013-.165-.261-.206-.741-.618-.7v.727h-.358a37.142 37.142 0 010-1.702zm.275-.33c-1.03.234-1.195 1.813-.275 2.293.784.508 1.979-.137 1.883-1.084.068-.838-.852-1.483-1.608-1.208zm-.123-.37c1.016-.343 2.17.508 2.115 1.579.055 1.029-1.03 1.866-2.019 1.592-1.017-.192-1.58-1.469-1.072-2.361.206-.398.563-.686.976-.81zm-10.854 2.828c.014 1.139-.014 2.278.014 3.43.811-.026 1.676.056 2.445-.26.674-.316.797-1.153.701-1.812-.041-.535-.371-1.056-.907-1.207-.728-.206-1.497-.165-2.253-.151zm-3.572-2.883h5.715c1.264.014 2.611.343 3.559 1.236.851.796 1.209 2.003 1.209 3.143.027 1.207-.193 2.525-1.031 3.445-.769.878-1.951 1.235-3.077 1.317-.934.055-1.855 0-2.789.028v4.557h-3.572c-.014-4.57 0-9.155-.014-13.726zm-10.029 0h7.845v3.02h-4.259v2.278h4.025v3.02c-1.346.014-2.692-.014-4.039.014.014.796-.013 1.592.014 2.374 1.415-.014 2.83-.014 4.245-.014v3.02h-7.83V21.238zm-10.798 0c3.16-.014 6.333 0 9.493 0 0 1.002 0 2.018-.014 3.02h-2.94v10.706c-1.195 0-2.39.013-3.585-.014V24.244h-2.954v-3.006zm-29.895 0h3.586c0 1.894-.014 3.788 0 5.683 1.443-1.895 2.899-3.789 4.341-5.683 1.484 0 2.968-.014 4.438.014-1.841 2.155-3.64 4.324-5.468 6.478 1.978 2.43 3.984 4.832 5.976 7.247h-4.396c-.206.055-.33-.11-.44-.247-1.47-1.921-2.967-3.829-4.451-5.737v5.984h-3.586c0-4.584.014-9.168 0-13.739zm-17.956 0h3.586c-.014 4.585.014 9.155-.014 13.74a154.037 154.037 0 00-3.558 0c-.027-4.585-.014-9.155-.014-13.74zm-14.274 0H21.2v6.986c.014.948-.028 1.963.384 2.842.275.617.907 1.043 1.58 1.098.742.082 1.608.013 2.157-.563.632-.673.7-1.66.728-2.54.014-2.607 0-5.201 0-7.809 1.196-.027 2.39 0 3.586-.014 0 2.883 0 5.751-.014 8.634-.013 1.317-.288 2.703-1.209 3.705-.961 1.099-2.431 1.565-3.846 1.716-1.539.124-3.16-.027-4.534-.768a4.315 4.315 0 01-2.088-2.567c-.275-.892-.316-1.84-.316-2.773-.014-2.662-.014-5.311-.014-7.947zm53.8.412c1.153-.782 2.623-.92 3.97-.7a9.826 9.826 0 013.146 1.016c-.44.947-.92 1.88-1.429 2.786-.673-.55-1.539-.933-2.418-.892-.48.014-.989.206-1.291.604-.302.384-.206 1.002.192 1.29.632.494 1.443.604 2.17.85 1.086.33 2.213.824 2.845 1.826.714 1.167.59 2.663.206 3.926-.413 1.359-1.649 2.292-2.968 2.69-2.335.714-4.946.124-6.91-1.263.508-.947 1.016-1.88 1.511-2.827.605.357 1.127.85 1.786 1.084.824.33 1.855.467 2.624-.069.536-.356.728-1.194.261-1.688-.536-.59-1.36-.727-2.088-.96-1.03-.302-2.17-.632-2.885-1.497-.673-.85-.728-2.003-.632-3.033.165-1.263.838-2.457 1.91-3.143zM38.4 23.956c1.456-2.086 4.067-3.294 6.595-3.075.906.083 1.827.302 2.651.687-.027 1.413-.014 2.827-.014 4.24-1.195-1.578-3.681-2.003-5.303-.823-1.992 1.4-2.047 4.804-.013 6.204 1.634 1.153 4.066.728 5.33-.796-.014 1.428 0 2.855 0 4.282-.99.302-2.006.632-3.05.632-2.253.055-4.478-.988-5.935-2.69-2.02-2.375-2.047-6.122-.26-8.661zM5.304 25.74c-1.263 1.483-.906 3.87.481 5.161.962.947 2.46 1.304 3.737.892-.728-.741-1.484-1.468-2.212-2.21 1.127-.096 2.24-.315 3.352-.384.371.26.646.645.976.96 1.264-1.633.59-4.172-1.085-5.256-1.622-1.167-4.053-.727-5.249.837zm-1.717-3.376c1.786-1.345 4.135-1.867 6.32-1.469 1.923.302 3.75 1.345 4.85 2.965 1.154 1.647 1.47 3.774 1.126 5.737-.233 1.25-.852 2.388-1.621 3.377.783.768 1.511 1.564 2.308 2.32-1.085.205-2.198.356-3.297.52-.371-.425-.728-.864-1.086-1.29-1.483.852-3.27 1.002-4.945.81-1.951-.233-3.82-1.249-5.001-2.84-1.127-1.524-1.58-3.5-1.402-5.395.18-1.867 1.237-3.623 2.748-4.735zM51.7 6.524L41.436 17.78l-3.133-2.827L48.581 3.697l3.118 2.827zM68.555.814l3.119 2.828-10.276 11.255-3.092-2.827L68.558.815zM58.46 2.422l3.104 2.84-10.262 11.256-3.119-2.828L58.46 2.421z"/><path d="M59.271 11.713c3.132-3.39 6.21-6.835 9.342-10.225.783.74 1.58 1.44 2.363 2.168-3.174 3.541-6.402 7.055-9.617 10.555-.783-.686-1.538-1.414-2.335-2.1a.93.93 0 01.247-.398zm-10.4 1.95c3.174-3.542 6.416-7.028 9.59-10.556.824.66 1.552 1.428 2.362 2.087l-.11.274c-3.146 3.445-6.292 6.89-9.438 10.349-.824-.686-1.593-1.441-2.404-2.155zm-9.878 1.262c3.215-3.514 6.416-7.028 9.617-10.541.824.7 1.607 1.455 2.418 2.168-2.335 2.58-4.698 5.147-7.034 7.728-.893.933-1.704 1.935-2.624 2.813-.783-.74-1.607-1.44-2.377-2.168zm24.935 13.149c.248-.618.88-1.098 1.567-1.03.728-.068 1.29.55 1.566 1.167.013.288.013.576 0 .851-.22.508-.591.974-1.14 1.125-.619.096-1.36 0-1.732-.549-.398-.425-.343-1.043-.26-1.564z"/></symbol><symbol viewBox="0 0 266 265" id="remove" xmlns="http://www.w3.org/2000/svg"><path d="M252.344 80.68H13.928C7.181 80.68.433 73.932.433 67.185V49.19c0-6.748 6.748-13.495 13.495-13.495h238.416c6.747 0 13.495 6.747 13.495 13.495v17.994c0 6.747-6.748 13.495-13.495 13.495zM16.178 64.935h233.917V51.44H16.178v13.495z"/><path d="M212.965 264.304H51.022c-6.747 0-13.495-4.478-13.495-11.195L21.783 73.977c0-2.24 0-4.479 2.249-6.718 2.25-2.239 4.498-2.239 6.747-2.239h206.927c2.249 0 4.499 0 6.748 2.24-2.249 2.238 0 4.477 0 6.717L226.46 253.109c0 6.717-6.747 11.195-13.495 11.195zM53.272 248.63h157.444L226.46 80.694H37.527L53.272 248.63z"/><path d="M133.148 213.168c-4.499 0-8.997-4.498-8.997-6.748V105.206c0-4.498 4.498-8.996 8.997-8.996 4.498 0 8.997 4.498 8.997 8.996V206.42c-2.25 4.499-4.499 6.748-8.997 6.748zm47.866 1.573c-4.493-.235-8.749-4.963-8.632-7.209l5.298-101.075c.235-4.493 4.963-8.75 9.455-8.514 4.492.236 8.749 4.963 8.514 9.455l-5.298 101.076c-2.481 4.374-4.845 6.503-9.337 6.267zm-95.726-.019c-4.492.235-9.22-4.021-9.337-6.268l-5.297-101.075c-.236-4.492 4.02-9.22 8.513-9.455 4.492-.236 9.22 4.021 9.455 8.513l5.298 101.076c-2.011 4.61-4.14 6.974-8.632 7.209zm91.408-167.184h-85.47c-4.498 0-8.996-4.086-8.996-8.173V12.8C82.23 6.67 88.978.54 95.725.54h74.224c6.748 0 13.495 6.13 13.495 12.26v26.564c2.249 4.087-2.249 8.173-6.748 8.173zm-76.472-14.303h69.725v-18.39h-69.725v18.39z"/></symbol><symbol viewBox="0 0 83 36" id="roca" xmlns="http://www.w3.org/2000/svg"><path fill-rule="evenodd" clip-rule="evenodd" d="M.923 21.885C.94 14.828.923 7.755.94.699 5.388.769 9.853.575 14.3.84c1.982.248 4.232.514 5.607 2.11 1.93 2.003 1.715 5.389-.071 7.428-.786.975-1.929 1.595-3.09 2.02a722.476 722.476 0 005.448 9.503c-2.465-.035-4.93 0-7.395-.017-1.125-2.252-2.375-4.433-3.536-6.649-.321-.62-.625-1.24-1.036-1.808-.946.23-1.91.106-2.875.16-.018 2.765 0 5.53 0 8.297-2.144 0-4.287-.018-6.43 0zm6.43-18.19c0 2.322-.018 4.645 0 6.95 1.982-.018 4.09-.16 5.822-1.241a3.433 3.433 0 001.59-2.128c.357-1.135-.197-2.411-1.161-3.05-.59-.407-1.322-.478-2.018-.531-1.411 0-2.822.018-4.233 0zM31.857 6.39c2.233-.195 4.5-.089 6.68.478 1.947.514 3.626 1.933 4.394 3.777.678 1.63.75 3.457.553 5.176-.196 1.844-1.09 3.635-2.607 4.752-1.43 1.117-3.287 1.436-5.037 1.648-2.322.195-4.697.09-6.93-.567-2.054-.62-3.715-2.287-4.358-4.326-.464-1.578-.518-3.262-.268-4.875.25-1.88 1.322-3.67 2.93-4.698 1.375-.922 3.053-1.153 4.643-1.365zm.715 2.624c-1.054.23-1.947 1.152-2.09 2.216a21.268 21.268 0 00-.018 6.116c.16 1.152 1.143 2.145 2.304 2.323 1.322.248 2.965.16 3.894-.94.768-.869.678-2.092.785-3.174.161-1.33 0-2.659-.125-3.989-.053-.975-.66-1.914-1.553-2.34-1-.443-2.162-.532-3.197-.212zm18.985-1.915c3.394-1.241 7.198-.94 10.61.088-.287.905-.68 1.791-.93 2.713-1.196-.106-2.357-.461-3.554-.426-1.178-.07-2.429.125-3.375.851-1.036.851-1.233 2.27-1.233 3.529 0 1.311-.071 2.747.733 3.864.589.851 1.625 1.26 2.625 1.383 1.608.124 3.197-.07 4.769-.425.321.922.678 1.826.964 2.765-3.411 1.029-7.197 1.33-10.591.089-1.983-.691-3.59-2.322-4.215-4.308-.5-1.667-.536-3.457-.179-5.16.447-2.268 2.162-4.2 4.376-4.963zm15.396.07c3.036-.69 6.18-1.01 9.305-.815 1.429.177 2.965.372 4.162 1.241 1.053.78 1.84 1.95 2.053 3.262.197.869.143 1.773.143 2.66v7.712c-3.572 1.01-7.34 1.312-11.037.975a12.757 12.757 0 01-3.983-.993 4.127 4.127 0 01-2.233-2.216c-.732-1.667-.16-3.794 1.34-4.858 1.036-.727 2.286-1.081 3.5-1.347 2.09-.461 4.233-.408 6.34-.514-.035-.922.25-2.146-.75-2.695-1.035-.443-2.196-.39-3.303-.372-1.572.035-3.126.319-4.644.691-.25-.94-.661-1.808-.893-2.73zm4.822 8.103c-1.304.798-1.554 2.89-.286 3.847 1.465.993 3.34.762 5.02.638.053-1.773.017-3.546.017-5.319-1.59.071-3.304 0-4.75.834zM.941 27.452c11.359-2.73 23.361-2.713 34.703.106a70.25 70.25 0 0011.841 1.649c1.429-.018 2.858.177 4.287.124 1.464-.107 2.929-.16 4.357-.444.804-.124 1.572-.39 2.394-.425-.143.408-.554.585-.875.816a127.424 127.424 0 01-8.502 5.407c-.607.337-1.179.744-1.84 1.01-3.59-.16-7.18-.691-10.698-1.436-2.215-.532-4.465-1.028-6.715-1.365-6.162-1.046-12.45-1.134-18.665-.603-3.465.373-6.912.94-10.305 1.773.036-2.198 0-4.414.018-6.613zm62.725-.213c.25-.39.661-.71 1.144-.674h17.824a486.83 486.83 0 000 7.251c-7.715-.018-15.431.018-23.129-.018 1.429-2.145 2.768-4.379 4.161-6.56z"/></symbol><symbol viewBox="0 0 44 43" id="search" xmlns="http://www.w3.org/2000/svg"><path d="M43.278 39.45l-12.533-12.2c2.377-2.858 3.808-6.49 3.808-10.444C34.553 7.639 26.892.18 17.475.18S.396 7.639.396 16.806 8.058 33.43 17.475 33.43a17.28 17.28 0 0010.728-3.707l12.533 12.2a.916.916 0 001.272 0l1.27-1.237a.859.859 0 000-1.237zm-25.803-9.52c-7.435 0-13.483-5.887-13.483-13.124 0-7.238 6.048-13.125 13.483-13.125 7.435 0 13.483 5.887 13.483 13.125 0 7.237-6.048 13.125-13.483 13.125z"/></symbol><symbol viewBox="0 0 160 36" id="tarkett" xmlns="http://www.w3.org/2000/svg"><path fill-rule="evenodd" clip-rule="evenodd" d="M18.296.695C8.692.695.877 8.547.877 18.195c0 9.649 7.815 17.5 17.419 17.5 9.603 0 17.418-7.851 17.418-17.5-.031-9.648-7.846-17.5-17.418-17.5zm0 33.487c-1.915 0-3.735-.347-5.43-.946-2.7-1.167-5.179-3.469-6.183-5.424-1.224-2.49-1.946-5.234-1.695-8.608.66-9.9 12.303-12.518 16.54-6.937 4.143 5.487-2.699 9.617-2.856 7.19-.376-5.928-5.21-3.847-5.367-.284-.533 10.689 17.2 9.428 17.388-2.554.125-7.063-4.708-11.54-7.156-13.527 6.214 2.175 10.67 8.135 10.67 15.103 0 8.798-7.155 15.987-15.911 15.987zM39.512 6.119h20.274v6.117h-6.245v18.667h-7.784V12.236h-6.245V6.119z"/><path fill-rule="evenodd" clip-rule="evenodd" d="M66.91 23.146c-.595.126-1.223.284-1.85.504-1.382.568-1.476 1.388-1.476 1.608 0 .505.408 1.388 1.79 1.388 1.003 0 2.698-.663 3.326-2.081.345-.757.345-1.514.345-2.145-.722.253-1.412.505-2.134.726zm-9.352-4.95c.283-1.546.66-3.47 3.264-4.825 2.009-1.04 4.614-1.23 6.497-1.23 8.6 0 8.6 4.446 8.6 6.622v9.9c0 1.199.094 1.514.627 2.24h-7.093v-1.388c-.91.63-2.574 1.829-5.963 1.829-4.55 0-6.528-2.775-6.528-5.865 0-1.072.251-2.586 1.538-3.878 1.632-1.671 3.578-1.955 6.779-2.397 1.977-.284 2.762-.441 3.829-.756-.032-1.23-.377-2.082-2.448-2.082-1.632 0-2.103.41-2.354 1.672l-6.748.157zm26.991-3.88c1.946-1.765 3.296-1.954 6.026-1.954v6.117c-.47-.031-.973-.063-1.475-.063-4.237 0-4.3 2.775-4.331 3.973v8.545h-7.156v-18.32h6.905v1.703h.031zm7.91-8.166h7.218v11.793l4.896-5.171h8.788l-6.874 6.527 7.187 11.603h-8.191l-3.955-6.905-1.883 1.829v5.076h-7.187V6.15z"/><path fill-rule="evenodd" clip-rule="evenodd" d="M125.381 19.299c-.031-.284-.031-.568-.094-.851-.314-1.293-1.444-1.86-2.417-1.86-2.165 0-2.542 1.891-2.73 2.71h5.241zm6.967 7.347c-2.134 3.247-5.272 4.982-9.603 4.982-6.685 0-9.981-4.825-9.981-9.901 0-5.928 4.08-9.744 9.949-9.744 2.197 0 5.053.568 7.25 2.712 2.668 2.617 2.699 5.644 2.762 8.42h-12.648c.031.819.063 1.765.879 2.553.157.19.847.852 2.165.852 1.632 0 2.542-.883 3.296-2.365l5.931 2.49zm16.32-9.586l.032 8.798c0 .914 0 2.522 1.224 3.752 1.444 1.482 3.986 1.513 4.739 1.513 1.506 0 2.919-.189 4.551-.378v-4.95c-.408.063-.879.126-1.287.126-1.915 0-1.946-1.198-1.946-1.892l-.031-6.937h3.232V13.15h-3.107l-.031-5.708h-7.219v5.707h-5.869V7.443h-7.25l.032 5.707h-2.511v3.942h2.354v8.797c0 .915 0 2.523 1.224 3.752 1.444 1.482 3.986 1.514 4.739 1.514 1.507 0 2.919-.19 4.551-.379v-4.981c-.408.063-.879.126-1.287.126-1.914 0-1.946-1.198-1.946-1.892l.063-7 5.743.031z"/></symbol><symbol viewBox="0 0 43 43" id="tel" xmlns="http://www.w3.org/2000/svg"><path d="M41.992 33.073c-1.536-2.901-7.2-6.22-7.2-6.22-1.281-.73-2.828-.811-3.558.49 0 0-1.84 2.207-2.309 2.524-2.138 1.448-4.118 1.392-6.117-.607l-4.646-4.644-4.647-4.644c-1.999-1.999-2.055-3.979-.606-6.116.317-.468 2.524-2.307 2.524-2.307 1.302-.732 1.22-2.277.49-3.558 0 0-3.319-5.661-6.222-7.197a3.182 3.182 0 00-3.738.563l-2.051 2.05C-2.597 9.915.608 17.26 7.116 23.767l5.949 5.946 5.949 5.946c6.508 6.507 13.856 9.71 20.365 3.204l2.051-2.05a3.182 3.182 0 00.562-3.739z"/></symbol><symbol viewBox="0 0 141 141" id="tel2" xmlns="http://www.w3.org/2000/svg"><path d="M104.866 140.439a35.274 35.274 0 01-8.013-.953 73.973 73.973 0 01-33.896-21.559l-39.875-39.62A74.534 74.534 0 011.778 44.41a34.914 34.914 0 0110.874-33.896l6.869-6.869A10.493 10.493 0 0132.24 1.801a30.335 30.335 0 017.313 5.914 85.534 85.534 0 016.36 7.95c1.971 2.67 3.625 5.215 4.833 7.059l1.717 2.798a12.147 12.147 0 011.908 6.869 6.36 6.36 0 01-3.37 5.214l-3.816 3.244-2.862 2.607a15.452 15.452 0 00-5.024 12.21A16.153 16.153 0 0044.64 65.97l30.972 30.97a15.833 15.833 0 009.985 5.278 16.154 16.154 0 0010.366-3.243c.508-.381 1.526-1.463 1.908-1.78.381-.319 1.717-1.845 2.543-2.862.827-1.018 3.244-3.816 3.244-3.816a8.773 8.773 0 015.151-3.37 11.444 11.444 0 016.359 1.716l3.053 1.845c1.844 1.208 4.388 2.862 7.059 4.897a76.571 76.571 0 018.013 6.677 30.009 30.009 0 015.851 7.25 10.555 10.555 0 01-1.908 12.401l-6.805 6.868a36.32 36.32 0 01-11.611 8.392 36.319 36.319 0 01-13.954 3.246zM27.025 6.889a4.007 4.007 0 00-2.989 1.272l-6.868 6.931a28.554 28.554 0 00-9.222 27.983 68.81 68.81 0 0019.906 30.843l39.747 39.493a68.297 68.297 0 0030.844 19.906 28.49 28.49 0 0027.982-9.222l6.805-6.804a4.259 4.259 0 00.763-5.024 23.783 23.783 0 00-4.706-5.66 65.963 65.963 0 00-7.377-6.36 114.397 114.397 0 00-6.678-4.642l-2.099-1.272-.572-.382a6.994 6.994 0 00-3.053-.954s-.445.636-.89 1.208l-3.307 3.816-2.734 3.053a21.591 21.591 0 01-3.18 3.052 21.87 21.87 0 01-14.436 4.388 22.579 22.579 0 01-13.992-7.122L40.19 70.166a22.067 22.067 0 01-7.186-13.99 22.194 22.194 0 014.388-14.437A21.548 21.548 0 0140 38.814l3.052-2.735 4.642-3.88a3.624 3.624 0 00-.508-3.306l-1.717-2.735a114.378 114.378 0 00-4.643-6.677 73.844 73.844 0 00-6.36-7.378 25.44 25.44 0 00-5.723-4.706 4.515 4.515 0 00-1.717-.508z"/></symbol><symbol viewBox="0 0 19 18" id="thumb-up" xmlns="http://www.w3.org/2000/svg"><path d="M15.671 5.905h-3.626V3.418c0-1.193-.356-2.06-1.06-2.573C9.878.032 8.372.489 8.307.51a.618.618 0 00-.431.59v3c0 2.221-2.613 2.994-2.725 3.023-.007.003-.014.003-.018.007l-.298.093a1.865 1.865 0 00-1.287-.514H2.416A1.872 1.872 0 00.54 8.583v6.455c0 1.035.841 1.876 1.876 1.876h1.132c.478 0 .917-.18 1.247-.478a2.585 2.585 0 001.98.927h7.347c1.704 0 2.836-.934 3.034-2.498l.913-5.732.05-.31a2.49 2.49 0 00-2.448-2.918zm-11.48 9.136a.643.643 0 01-.643.644H2.416a.643.643 0 01-.643-.644V8.583c0-.356.287-.644.643-.644h1.132c.356 0 .644.288.644.644v6.458zm12.71-6.408l-.964 6.053-.003.021c-.043.352-.173 1.427-1.812 1.427H6.776a1.354 1.354 0 01-1.352-1.351v-6.2a1.88 1.88 0 00-.018-.248l.09-.029c.263-.075 3.612-1.103 3.612-4.209v-2.49c.356-.036.823-.011 1.15.233.367.273.554.802.554 1.578v3.105c0 .342.277.619.618.619h4.241c.69 0 1.248.56 1.248 1.247 0 .079-.008.162-.018.244z"/></symbol><symbol viewBox="0 0 14 14" id="time" xmlns="http://www.w3.org/2000/svg"><path d="M6.52.939a6.495 6.495 0 00-6.498 6.5c0 3.591 2.906 6.5 6.497 6.5a6.5 6.5 0 100-13zm.002 11.7a5.199 5.199 0 01-5.2-5.2c0-2.873 2.327-5.2 5.2-5.2s5.2 2.327 5.2 5.2-2.327 5.2-5.2 5.2z"/><path d="M6.847 7.601V4.19h-.975v3.9l3.41 2.047.49-.799-2.925-1.736z"/></symbol><symbol viewBox="0 0 141 141" id="time2" xmlns="http://www.w3.org/2000/svg"><path d="M70.866 140.54c-38.818 0-70-31.182-70-70 0-38.819 31.182-70 70-70s70 31.181 70 70c0 38.818-31.818 70-70 70zm0-133.637c-35 0-63.636 28.637-63.636 63.637s28.636 63.636 63.636 63.636 63.637-28.636 63.637-63.636S105.866 6.903 70.866 6.903z"/><path d="M71.506 41.266h-6.363v36.91h6.363v-36.91z"/><path d="M68.035 72.506l-2.892 5.668 43.644 22.275 2.893-5.668-43.645-22.275z"/></symbol><symbol viewBox="0 0 22 21" id="user" xmlns="http://www.w3.org/2000/svg"><path d="M22 19.679c0-.2-.1-.4-.1-.7-.2-.8-.5-2.1-1.2-3.3-1.2-2.1-3.6-4.5-8.5-4.8 2.7-.4 4.8-2.6 4.8-5.1 0-2.9-2.6-5.2-5.9-5.2-3.3 0-5.9 2.3-5.9 5.2 0 2.6 2.1 4.7 4.8 5.1-4.9.3-7.3 2.7-8.5 4.8-.6 1-1 2.1-1.2 3.3 0 .2-.1.5-.1.7l-.1.8H22v-.8zM6.7 5.779c0-2 2-3.7 4.4-3.7 2.4 0 4.4 1.7 4.4 3.7s-2 3.7-4.4 3.7c-2.4 0-4.4-1.7-4.4-3.7zm-4.8 13.2c.2-.7.4-1.7 1-2.6 1.5-2.7 4.3-4.1 8.3-4.1 4 0 6.7 1.4 8.3 4.1.5.9.8 1.9 1 2.6H1.9z"/></symbol><symbol viewBox="0 0 34 18" id="view" xmlns="http://www.w3.org/2000/svg"><path d="M1.032 8.518c.26-.334 6.5-8.155 16.364-8.155 8.464 0 16.006 7.777 16.323 8.108a.556.556 0 010 .784c-.317.332-7.86 8.108-16.323 8.108-8.464 0-16.006-7.776-16.324-8.108a.553.553 0 01-.04-.737zm16.364 7.631c6.785 0 13.236-5.72 14.875-7.286-1.636-1.567-8.08-7.285-14.875-7.285-7.94 0-13.543 5.71-14.912 7.253 1.58 1.516 8.069 7.318 14.912 7.318z"/><path d="M17.396 4.007c3.03 0 5.495 2.178 5.495 4.857 0 2.679-2.465 4.857-5.495 4.857-3.03 0-5.496-2.178-5.496-4.857 0-2.679 2.465-4.857 5.496-4.857zm0 8.5c2.272 0 4.121-1.635 4.121-3.643 0-2.009-1.85-3.643-4.121-3.643-2.273 0-4.122 1.634-4.122 3.643 0 2.008 1.85 3.643 4.122 3.643z"/></symbol><symbol viewBox="0 0 24 24" id="whatsapp" xmlns="http://www.w3.org/2000/svg"><path d="M12 .5C5.7.5.5 5.7.5 12c0 2.4.7 4.6 2 6.5l-1.3 3.9c-.1.2 0 .4.1.5.2.1.4.2.6.1l4-1.3c1.8 1.2 4 1.8 6.1 1.8 6.3 0 11.5-5.2 11.5-11.5S18.3.5 12 .5zm6.9 16.2c-.3.9-1.5 1.7-2.5 1.9-.2 0-.4.1-.7.1-.8 0-1.8-.3-3.4-.9-2-.8-4-2.6-5.6-4.9l-.1-.1C6 12 5.1 10.6 5.1 9.1c0-1.7.9-2.6 1.2-3 .4-.4.9-.6 1.5-.6h.4c.5 0 .8.2 1.1.8l.2.4c.3.7.7 1.8.8 2 .2.4.2.7 0 1-.1.2-.2.4-.4.6-.1.1-.2.2-.2.3l-.3.3v.1c.3.5.9 1.4 1.7 2.1 1.1 1 1.9 1.3 2.3 1.5h.1c.1 0 .2.1.2 0 .2-.2.4-.6.7-.9l.1-.1c.3-.4.7-.5.9-.5.1 0 .3 0 .4.1.1 0 .3.1 2.2 1.1l.2.1c.3.1.5.2.6.5.4.2.3 1.1.1 1.8z"/></symbol><symbol viewBox="0 0 141 141" id="whatsapp2" xmlns="http://www.w3.org/2000/svg"><path d="M.866 140.369l12.091-36.273a68.967 68.967 0 01-9.545-35C3.412 30.915 33.957.37 72.139.37s68.727 30.546 68.727 68.727c0 38.182-30.545 68.728-68.727 68.728-10.818 0-22.273-2.546-31.818-7.637L.866 140.369zm40.091-17.182l1.91 1.273c8.908 4.455 19.09 7 29.272 7 34.364 0 62.364-28 62.364-62.364 0-34.363-28-62.363-62.364-62.363s-62.364 28-62.364 62.363c0 11.455 3.182 22.273 8.91 31.819l1.272 2.545-9.545 28 30.545-8.273z"/><path d="M116.049 92.005c-3.181-5.727-14.636-12.727-14.636-12.727-2.545-1.273-5.727-1.91-7.636 1.273 0 0-3.819 4.454-5.091 5.09-4.455 3.182-8.273 3.182-12.728-1.272l-9.545-9.546-9.545-9.545c-3.819-3.818-4.455-8.273-1.273-12.727.636-1.273 5.09-5.091 5.09-5.091 2.546-1.273 2.546-4.455 1.273-7.637 0 0-7-11.454-12.727-14.636-2.545-1.273-5.727-.636-7.636 1.273l-4.455 4.454c-13.363 13.364-7 28.637 6.364 42L56.23 85.005l12.091 12.091c13.364 13.364 28.636 20.364 42 6.364l4.455-4.455c1.909-1.272 2.545-4.454 1.272-7z"/></symbol><symbol viewBox="0 0 16 16" id="ustomize" xmlns="http://www.w3.org/2000/svg"><path d="M15.481 6.2l-1.417-.473a5.969 5.969 0 00-.265-.641l.668-1.335a.5.5 0 00-.046-.521 7.558 7.558 0 00-1.554-1.554.5.5 0 00-.52-.046l-1.335.668a5.929 5.929 0 00-.642-.264L9.897.616a.5.5 0 00-.4-.336 7.499 7.499 0 00-2.198 0 .5.5 0 00-.4.336l-.472 1.418a5.928 5.928 0 00-.642.264L4.45 1.63a.501.501 0 00-.521.046A7.56 7.56 0 002.375 3.23a.5.5 0 00-.045.521l.667 1.335c-.1.208-.189.423-.264.641L1.315 6.2a.5.5 0 00-.336.4 7.556 7.556 0 000 2.198.5.5 0 00.336.4l1.418.473c.075.218.163.433.264.641l-.667 1.335a.5.5 0 00.045.521c.44.591.963 1.115 1.554 1.554a.5.5 0 00.521.046l1.335-.668c.208.1.423.189.642.264l.472 1.418a.5.5 0 00.4.336 7.556 7.556 0 002.198 0 .5.5 0 00.4-.336l.473-1.418a5.68 5.68 0 00.641-.264l1.335.668a.5.5 0 00.521-.046 7.558 7.558 0 001.554-1.554.5.5 0 00.046-.52l-.668-1.336c.1-.208.189-.422.265-.641l1.417-.473a.5.5 0 00.336-.4 7.556 7.556 0 000-2.198.5.5 0 00-.336-.4zm-.615 2.15l-1.359.452a.5.5 0 00-.32.331c-.097.326-.227.64-.388.94a.5.5 0 00-.007.46l.64 1.28a6.523 6.523 0 01-.92.92l-1.28-.64a.498.498 0 00-.46.007 4.96 4.96 0 01-.94.387.5.5 0 00-.33.321l-.454 1.359a6.57 6.57 0 01-1.3 0l-.453-1.359a.5.5 0 00-.331-.32 4.966 4.966 0 01-.94-.388.498.498 0 00-.46-.007l-1.28.64a6.605 6.605 0 01-.919-.92l.64-1.28a.5.5 0 00-.008-.46 4.97 4.97 0 01-.387-.94.5.5 0 00-.321-.331L1.93 8.349a6.623 6.623 0 010-1.3l1.359-.453a.5.5 0 00.32-.331 4.97 4.97 0 01.388-.94.5.5 0 00.008-.46l-.64-1.28a6.587 6.587 0 01.92-.92l1.278.64a.5.5 0 00.461-.007 5 5 0 01.94-.387.5.5 0 00.331-.321l.453-1.359a6.577 6.577 0 011.3 0l.453 1.359a.5.5 0 00.331.32c.326.097.64.227.94.388.143.077.315.08.46.007l1.28-.64a6.526 6.526 0 01.92.92l-.64 1.28a.5.5 0 00.007.46 5 5 0 01.387.94.5.5 0 00.321.331l1.359.453c.043.432.043.868 0 1.3z"/><path d="M8.398 4.2a3.5 3.5 0 100 7 3.5 3.5 0 000-7zm0 6a2.5 2.5 0 110-5 2.5 2.5 0 010 5z"/></symbol></svg>