<svg width="28" height="32" viewBox="0 0 28 32" fill="none" xmlns="http://www.w3.org/2000/svg">
<path d="M7.95878 4.67566C8.1863 4.40275 8.1863 3.96099 7.95878 3.68808C7.73126 3.41582 7.36292 3.41582 7.13597 3.68808C6.90845 3.96099 6.90845 4.40275 7.13597 4.67566C7.36292 4.94726 7.73126 4.94726 7.95878 4.67566Z" stroke="#535C69" stroke-width="0.7" stroke-miterlimit="10"/>
<path d="M27.3432 18.1341C27.3432 17.7488 27.0989 17.4375 26.7971 17.4375V16.0417C27.0983 16.0417 27.3432 15.7297 27.3432 15.3444C27.3432 14.9591 27.0989 14.6465 26.7971 14.6465V13.2513C27.0983 13.2513 27.3432 12.9386 27.3432 12.5534C27.3432 12.1681 27.0989 11.8555 26.7971 11.8555V10.4603C27.0983 10.4603 27.3432 10.1476 27.3432 9.76237C27.3432 9.3771 27.0989 9.06576 26.7971 9.06576V7.66992C27.0983 7.66992 27.3432 7.35792 27.3432 6.97266C27.3432 6.5874 27.0989 6.27474 26.7971 6.27474V4.8789C27.0983 4.8789 27.3432 4.56625 27.3432 4.18099C27.3432 3.79572 27.0989 3.48307 26.7971 3.48307V2.08789C27.0983 2.08789 27.3432 1.77523 27.3432 1.38997C27.3432 1.00471 27.0989 0.693359 26.7971 0.693359H26.2516H6.60778V0.706441C5.28644 0.770542 4.05409 1.06815 3.09217 1.56003C1.84004 2.20039 1.15088 3.13117 1.15088 4.18099V27.2051C1.15088 28.2549 1.84004 29.1857 3.09217 29.8267C4.18611 30.3859 5.86766 30.6934 6.85172 30.6934C7.83578 30.6934 9.64386 30.6934 11.2297 30.1227C12.8156 29.552 13.9374 28.2549 13.9374 27.2051H26.2521H26.7977C27.0989 27.2051 27.3438 26.8924 27.3438 26.5072C27.3438 26.1219 27.0995 25.8099 26.7977 25.8099V24.4141C27.0989 24.4141 27.3438 24.1021 27.3438 23.7168C27.3438 23.3315 27.0983 23.0189 26.7971 23.0189V21.6237C27.0983 21.6237 27.3432 21.311 27.3432 20.9258C27.3432 20.5405 27.0989 20.2279 26.7971 20.2279V18.8327C27.0983 18.8327 27.3432 18.5194 27.3432 18.1341Z" stroke="#535C69" stroke-width="0.7" stroke-miterlimit="10"/>
<path d="M3.6514 2.85734C4.68252 2.36284 6.06667 2.09009 7.54793 2.09009C9.0292 2.09009 10.4133 2.36284 11.4445 2.85734C12.247 3.2426 12.7681 3.75345 12.7821 4.16684C12.7606 4.32643 12.3959 6.27629 7.54793 6.27629C2.69994 6.27629 2.33588 4.32643 2.31494 4.16684C2.32774 3.7541 2.84941 3.2426 3.6514 2.85734Z" stroke="#535C69" stroke-width="0.7" stroke-miterlimit="10"/>
<path d="M12.7803 27.2053C12.7803 27.62 12.2557 28.1407 11.4427 28.5311C10.411 29.0256 9.02743 29.2984 7.54617 29.2984C6.06548 29.2984 4.68076 29.0256 3.65079 28.5311C2.83717 28.1407 2.31201 27.6206 2.31201 27.2053V21.6638C3.40537 22.5632 5.16405 23.0191 7.54617 23.0191C9.92887 23.0191 11.687 22.5632 12.7803 21.6638V27.2053Z" stroke="#535C69" stroke-width="0.7" stroke-miterlimit="10"/>
<path d="M12.7803 19.5089C12.7669 19.6253 12.4541 21.6236 7.54617 21.6236C2.63886 21.6236 2.32539 19.6253 2.31201 19.5089V13.989C3.40595 14.8884 5.16405 15.3443 7.54617 15.3443C9.92887 15.3443 11.687 14.8884 12.7803 13.989V19.5089Z" stroke="#535C69" stroke-width="0.7" stroke-miterlimit="10"/>
<path d="M12.7803 11.8348C12.7669 11.9513 12.4541 13.9482 7.54617 13.9482C2.63886 13.9482 2.32539 11.9513 2.31201 11.8348V6.31494C3.40595 7.21301 5.16405 7.66892 7.54617 7.66892C9.92887 7.66892 11.687 7.21301 12.7803 6.31494V11.8348Z" stroke="#535C69" stroke-width="0.7" stroke-miterlimit="10"/>
<path d="M25.7372 18.8333H13.8149V25.8105H25.7372V18.8333Z" stroke="#535C69" stroke-width="0.7" stroke-miterlimit="10"/>
<path d="M25.7372 10.46H13.8149V17.4372H25.7372V10.46Z" stroke="#535C69" stroke-width="0.7" stroke-miterlimit="10"/>
<path d="M25.7363 9.06511H13.814V4.18099C13.814 3.39215 13.4436 2.66938 12.7544 2.08789H25.7363V9.06511Z" stroke="#535C69" stroke-width="0.7" stroke-miterlimit="10"/>
</svg>
