<svg width="28" height="31" viewBox="0 0 28 31" fill="none" xmlns="http://www.w3.org/2000/svg">
<path d="M19.7204 18.873C19.1867 18.873 18.7864 19.2499 18.7865 19.7525C18.7865 20.255 19.1867 20.632 19.7204 20.632C20.254 20.6319 20.6543 20.255 20.6542 19.7525C20.6542 19.2499 20.254 18.873 19.7204 18.873Z" fill="#535C69"/>
<path d="M17.8201 15.7683C17.8201 15.5173 17.6202 15.3291 17.3537 15.329C17.0871 15.329 16.8872 15.5173 16.8872 15.7683L16.8872 19.7846C16.8872 20.7886 17.8867 22.0438 19.2528 22.3889L19.2528 23.7696C19.2528 24.0206 19.4527 24.2088 19.7192 24.2089C19.8525 24.2089 19.9524 24.1775 20.0524 24.0834C20.1523 23.9892 20.1857 23.8951 20.1857 23.7068L20.1857 21.9497C20.219 21.7301 20.0191 21.5418 19.7859 21.5105C18.6864 21.4163 17.8534 20.3809 17.8535 19.7533L17.8201 15.7683Z" fill="#535C69"/>
<path d="M20.1473 17.0858L20.1473 13.0696C20.1473 12.8186 19.9473 12.6303 19.6808 12.6303C19.4143 12.6303 19.2144 12.8185 19.2143 13.0696L19.2143 17.5252C19.2143 17.6507 19.2476 17.7448 19.3476 17.8389C19.4475 17.9331 19.5475 17.9645 19.6808 17.9644C20.0806 17.9644 20.6469 18.0586 21.0468 18.3723C21.4133 18.6547 21.5799 19.1254 21.5799 19.7529L21.5799 21.0708C21.5799 21.3218 21.7798 21.5101 22.0463 21.5101C22.1796 21.5101 22.2795 21.4787 22.3795 21.3846C22.4794 21.2905 22.5128 21.1963 22.4794 21.0395L22.4794 19.7216C22.4794 18.843 22.2129 18.1527 21.6465 17.6821C21.2467 17.3682 20.747 17.1486 20.1473 17.0858Z" fill="#535C69"/>
<path d="M9.11483 5.97887C9.62615 5.97887 10.0096 5.61773 10.0096 5.13622C10.0096 4.65471 9.62611 4.29353 9.11483 4.29356C8.60354 4.2936 8.22003 4.6547 8.22007 5.13622C8.2201 5.61773 8.60354 5.97884 9.11483 5.97887Z" fill="#535C69"/>
<path d="M10.9332 7.46118C10.9332 7.70179 11.1249 7.88226 11.3804 7.88229C11.6359 7.88233 11.8275 7.70182 11.8275 7.46119L11.8275 5.10652C11.8275 4.14404 10.8694 2.94088 9.5599 2.61001L9.5599 1.28652C9.5599 1.04591 9.36827 0.865442 9.11275 0.865407C8.98497 0.865407 8.8892 0.895474 8.79338 0.985709C8.69757 1.07594 8.6656 1.16618 8.6656 1.34665L8.6656 3.03101C8.63368 3.24155 8.82531 3.42202 9.04886 3.45208C10.1028 3.54232 10.9013 4.53491 10.9013 5.13648L10.9332 7.46118Z" fill="#535C69"/>
<path d="M8.70033 7.69296L8.70033 10.0476C8.70033 10.2882 8.89196 10.4687 9.14748 10.4687C9.40296 10.4687 9.59459 10.2883 9.59463 10.0476L9.59463 7.27182C9.59463 7.15148 9.5627 7.06128 9.46689 6.97105C9.37107 6.88081 9.27526 6.85071 9.14752 6.85075C8.76426 6.85075 8.22134 6.76051 7.83804 6.45974C7.48674 6.18903 7.327 5.73786 7.32704 5.13628L7.32704 3.87299C7.32704 3.63239 7.13541 3.45192 6.87989 3.45188C6.75211 3.45188 6.65634 3.48195 6.56052 3.57218C6.46471 3.66242 6.43274 3.75265 6.46471 3.90302L6.46471 5.16631C6.46471 6.00853 6.72023 6.67024 7.26315 7.12141C7.64637 7.42226 8.12545 7.63283 8.70033 7.69296Z" fill="#535C69"/>
<rect x="1.36357" y="1.22612" width="26.0444" height="29.0068" stroke="#535C69" stroke-width="0.9"/>
<line x1="13.3172" y1="19.9935" x2="13.3172" y2="30.2346" stroke="#535C69" stroke-width="0.9" stroke-linecap="round" stroke-linejoin="round"/>
<line x1="4.87285" y1="17.7884" x2="4.87285" y2="28.0295" stroke="#535C69" stroke-width="0.9" stroke-linecap="round" stroke-linejoin="round"/>
<line x1="4.87285" y1="2.67949" x2="4.87285" y2="12.9206" stroke="#535C69" stroke-width="0.9" stroke-linecap="round" stroke-linejoin="round"/>
<line x1="8.01543" y1="12.5892" x2="8.01543" y2="18.4916" stroke="#535C69" stroke-width="0.9" stroke-linecap="round" stroke-linejoin="round"/>
<line x1="8.01543" y1="22.212" x2="8.01543" y2="30.2351" stroke="#535C69" stroke-width="0.9" stroke-linecap="round" stroke-linejoin="round"/>
<line x1="13.3172" y1="5.07866" x2="13.3172" y2="12.9211" stroke="#535C69" stroke-width="0.9" stroke-linecap="round" stroke-linejoin="round"/>
<line x1="23.2034" y1="3.84697" x2="23.2034" y2="9.74939" stroke="#535C69" stroke-width="0.9" stroke-linecap="round" stroke-linejoin="round"/>
<line x1="24.1092" y1="25.1097" x2="24.1092" y2="29.7296" stroke="#535C69" stroke-width="0.9" stroke-linecap="round" stroke-linejoin="round"/>
<line x1="17.0291" y1="10.42" x2="17.0291" y2="12.9231" stroke="#535C69" stroke-width="0.9" stroke-linecap="round" stroke-linejoin="round"/>
<line x1="17.0291" y1="1.2271" x2="17.0291" y2="3.73022" stroke="#535C69" stroke-width="0.9" stroke-linecap="round" stroke-linejoin="round"/>
<line x1="19.7107" y1="27.2281" x2="19.7107" y2="29.7312" stroke="#535C69" stroke-width="0.9" stroke-linecap="round" stroke-linejoin="round"/>
<line x1="19.7107" y1="4.39922" x2="19.7107" y2="10.2219" stroke="#535C69" stroke-width="0.9" stroke-linecap="round" stroke-linejoin="round"/>
</svg>
