<svg width="26" height="32" viewBox="0 0 26 32" fill="none" xmlns="http://www.w3.org/2000/svg">
<path d="M3.02949 12.3523L23.7544 12.3523L23.7544 8.65475L3.02949 8.65475L3.02949 12.3523Z" stroke="#535C69" stroke-width="0.9" stroke-miterlimit="10" stroke-linecap="round" stroke-linejoin="round"/>
<path d="M2.79232 10.5044C1.75435 10.5044 1.26172 11.2042 1.26172 12.0669V14.9886C1.26172 15.6713 1.79553 16.2765 2.57978 16.4797L11.4965 18.7994C12.6234 19.0927 13.3896 19.9601 13.3896 20.9407V22.4458" stroke="#535C69" stroke-width="0.9" stroke-miterlimit="10" stroke-linecap="round" stroke-linejoin="round"/>
<path d="M24.7355 10.5044H23.8716" stroke="#535C69" stroke-width="0.9" stroke-miterlimit="10" stroke-linecap="round" stroke-linejoin="round"/>
<path d="M12.1548 30.6934L14.6245 30.6934L14.6245 22.4464L12.1548 22.4464L12.1548 30.6934Z" stroke="#535C69" stroke-width="0.9" stroke-miterlimit="10" stroke-linecap="round" stroke-linejoin="round"/>
<path d="M22.1913 8.55711L22.2193 4.19547C22.2243 3.54688 21.4878 3.01777 20.5767 3.01157C19.6656 3.00691 18.9225 3.52671 18.9192 4.17529L18.9159 4.59579C18.911 5.24437 18.1696 5.76572 17.2585 5.75951L16.2139 5.75331C15.3028 5.74865 14.5663 5.21799 14.5713 4.56941L14.5861 2.25127C14.591 1.39787 13.6239 0.699631 12.4228 0.693424C11.2234 0.685666 10.2447 1.37304 10.2398 2.22644L10.2315 3.41034C10.2266 4.05892 9.48519 4.58027 8.57408 4.57406L7.65967 4.56941C5.88523 4.55855 4.44195 5.57331 4.43371 6.83479L4.42383 8.45315" stroke="#535C69" stroke-width="0.9" stroke-miterlimit="10" stroke-linecap="round" stroke-linejoin="round"/>
<path d="M4.39381 12.4612L4.38722 13.3487C4.38393 13.7599 4.92763 14.0966 5.59984 14.0997L9.13554 14.1199C10.0961 14.1261 10.8721 14.6055 10.8688 15.1936L10.8639 15.9291C10.8573 16.8383 12.06 17.5831 13.5494 17.5924C15.0388 17.6017 16.2498 16.8709 16.2564 15.9601L16.258 15.7956C16.2613 15.2076 17.0439 14.7374 18.0045 14.7421L20.4116 14.7561C21.3721 14.7623 22.1547 14.2906 22.158 13.7025L22.1663 12.562" stroke="#535C69" stroke-width="0.9" stroke-miterlimit="10" stroke-linecap="round" stroke-linejoin="round"/>
</svg>
