<svg width="41" height="41" viewBox="0 0 41 41" fill="none" xmlns="http://www.w3.org/2000/svg">
<g clip-path="url(#clip0)">
<path d="M41 8.79792V32.2021C41 34.086 39.4673 35.6188 37.5833 35.6188H3.41667C1.53272 35.6188 0 34.086 0 32.2021V17.3049C0 16.9276 0.305963 16.6216 0.683333 16.6216C1.0607 16.6216 1.36667 16.9276 1.36667 17.3049V32.2021C1.36667 33.3324 2.28635 34.2521 3.41667 34.2521H37.5833C38.7137 34.2521 39.6333 33.3324 39.6333 32.2021V8.79792C39.6333 7.6676 38.7137 6.74792 37.5833 6.74792H3.41667C2.28635 6.74792 1.36667 7.6676 1.36667 8.79792V11.5313H36.3875C36.7649 11.5313 37.0708 11.8372 37.0708 12.2146C37.0708 12.592 36.7649 12.8979 36.3875 12.8979H1.36667V17.3396H36.3875C36.7649 17.3396 37.0708 17.6456 37.0708 18.0229C37.0708 18.4003 36.7649 18.7063 36.3875 18.7063H0.683333C0.305963 18.7063 0 18.4003 0 18.0229V8.79792C0 6.91397 1.53272 5.38126 3.41667 5.38126H37.5833C39.4673 5.38126 41 6.91397 41 8.79792ZM35.5333 26.5646C35.5333 24.8104 33.5833 23.7465 32.106 24.7011C33.5556 27.0756 31.8397 30.1521 29.0417 30.1521C27.0635 30.1521 25.4542 28.5428 25.4542 26.5646C25.4542 23.6205 28.8228 21.9342 31.1771 23.6838C33.5418 21.9346 36.9 23.626 36.9 26.5646C36.9 28.5428 35.2907 30.1521 33.3125 30.1521C32.9351 30.1521 32.6292 29.8461 32.6292 29.4688C32.6292 29.0914 32.9351 28.7854 33.3125 28.7854C34.5371 28.7854 35.5333 27.7892 35.5333 26.5646ZM31.2625 26.5646C31.2625 25.34 30.2663 24.3438 29.0417 24.3438C27.817 24.3438 26.8208 25.34 26.8208 26.5646C26.8208 27.7892 27.817 28.7854 29.0417 28.7854C30.2663 28.7854 31.2625 27.7892 31.2625 26.5646ZM6.23542 25.1125H11.9583C12.3357 25.1125 12.6417 24.8065 12.6417 24.4292C12.6417 24.0518 12.3357 23.7458 11.9583 23.7458H6.23542C5.85805 23.7458 5.55208 24.0518 5.55208 24.4292C5.55208 24.8065 5.85805 25.1125 6.23542 25.1125ZM6.23542 29.3833H11.9583C12.3357 29.3833 12.6417 29.0774 12.6417 28.7C12.6417 28.3226 12.3357 28.0167 11.9583 28.0167H6.23542C5.85805 28.0167 5.55208 28.3226 5.55208 28.7C5.55208 29.0774 5.85805 29.3833 6.23542 29.3833Z" fill="black"/>
</g>
<defs>
<clipPath id="clip0">
<rect width="41" height="41" fill="white"/>
</clipPath>
</defs>
</svg>
