<svg width="39" height="39" viewBox="0 0 39 39" fill="none" xmlns="http://www.w3.org/2000/svg">
<g clip-path="url(#clip0)">
<path d="M37.4559 8.6052L19.7484 0.0567404C19.5914 -0.0189745 19.4086 -0.0189745 19.2517 0.0567404L1.54408 8.6052C1.34665 8.7005 1.22119 8.90045 1.22119 9.11967V29.8802C1.22119 30.0995 1.34665 30.2994 1.54408 30.3947L19.2516 38.9432C19.3301 38.981 19.4151 39 19.5 39C19.5849 39 19.6699 38.981 19.7484 38.9432L37.4559 30.3947C37.6534 30.2994 37.7788 30.0995 37.7788 29.8802V9.11975C37.7788 8.90037 37.6533 8.70057 37.4559 8.6052ZM19.5 1.20564L35.8935 9.11967L31.1413 11.4138C31.1113 11.3909 31.0795 11.3697 31.0446 11.3529L14.7625 3.4927L19.5 1.20564ZM13.4723 4.13864L29.8419 12.0412L26.4892 13.6597L10.1264 5.76041L13.4723 4.13864ZM30.2249 13.1249V19.1079L27.0933 20.6198V14.6368L30.2249 13.1249ZM36.6362 29.5218L20.0713 37.5184V18.0267L27.0933 14.6368C27.3774 14.4996 27.4965 14.1581 27.3593 13.8739C27.2222 13.5899 26.8807 13.4706 26.5965 13.6079L19.5 17.0338L14.9235 14.8244C14.6393 14.6871 14.2978 14.8064 14.1606 15.0905C14.0234 15.3746 14.1426 15.7162 14.4267 15.8533L18.9287 18.0267V37.5184L2.36377 29.5216V10.0298L14.9778 16.1194C15.0579 16.1581 15.1425 16.1764 15.2258 16.1764C15.4381 16.1764 15.6421 16.0574 15.7406 15.8533C15.8778 15.5692 15.7587 15.2277 15.4745 15.0905L3.10652 9.11967L8.78171 6.37992L25.9428 14.6646C25.9453 14.6681 25.9481 14.6712 25.9507 14.6747V21.53C25.9507 21.7266 26.0518 21.9094 26.2183 22.014C26.3108 22.072 26.4163 22.1013 26.5221 22.1013C26.6068 22.1013 26.6917 22.0825 26.7704 22.0445L31.0446 19.9811C31.2421 19.8858 31.3675 19.6859 31.3675 19.4666V12.5735L36.6362 10.0299V29.5218Z" fill="black"/>
<path d="M7.07833 27.306L4.47973 26.0515C4.19546 25.9142 3.85405 26.0335 3.71687 26.3176C3.57968 26.6017 3.69882 26.9433 3.98294 27.0805L6.58154 28.3349C6.6616 28.3736 6.74622 28.3919 6.82948 28.3919C7.04185 28.3919 7.24584 28.2729 7.34433 28.0689C7.48159 27.7847 7.36246 27.4433 7.07833 27.306Z" fill="black"/>
<path d="M9.46994 25.7493L4.48334 23.342C4.19915 23.2048 3.85767 23.3239 3.72048 23.6081C3.58337 23.8922 3.70251 24.2338 3.98663 24.371L8.97322 26.7783C9.05328 26.8169 9.1379 26.8353 9.22116 26.8353C9.43353 26.8353 9.63751 26.7163 9.736 26.5122C9.87319 26.228 9.75406 25.8864 9.46994 25.7493Z" fill="black"/>
</g>
<defs>
<clipPath id="clip0">
<rect width="39" height="39" fill="white"/>
</clipPath>
</defs>
</svg>
