<svg width="45" height="45" viewBox="0 0 45 45" fill="none" xmlns="http://www.w3.org/2000/svg">
<path d="M4.39453 19.4903C4.23139 19.4904 4.07496 19.5552 3.9596 19.6706C3.84424 19.786 3.77939 19.9424 3.7793 20.1055V22.8301C3.7793 22.9933 3.84412 23.1498 3.95949 23.2652C4.07487 23.3806 4.23136 23.4454 4.39453 23.4454C4.5577 23.4454 4.71419 23.3806 4.82957 23.2652C4.94495 23.1498 5.00977 22.9933 5.00977 22.8301V20.1055C5.00967 19.9424 4.94482 19.786 4.82946 19.6706C4.71411 19.5552 4.55767 19.4904 4.39453 19.4903Z" fill="black"/>
<path d="M12.1158 21.832C10.9512 21.832 9.81266 22.1774 8.84428 22.8245C7.87589 23.4715 7.12112 24.3912 6.67542 25.4672C6.22972 26.5432 6.11311 27.7272 6.34032 28.8695C6.56754 30.0118 7.12838 31.0611 7.95193 31.8846C8.77547 32.7082 9.82473 33.269 10.967 33.4962C12.1093 33.7234 13.2933 33.6068 14.3693 33.1611C15.4454 32.7154 16.365 31.9607 17.0121 30.9923C17.6592 30.0239 18.0045 28.8854 18.0045 27.7207C18.0027 26.1595 17.3818 24.6627 16.2778 23.5587C15.1739 22.4548 13.6771 21.8338 12.1158 21.832ZM12.1158 32.3789C11.1945 32.3789 10.2939 32.1057 9.52789 31.5939C8.76185 31.082 8.1648 30.3545 7.81223 29.5033C7.45966 28.6521 7.36741 27.7155 7.54715 26.8119C7.72689 25.9083 8.17054 25.0783 8.822 24.4269C9.47346 23.7754 10.3035 23.3317 11.2071 23.152C12.1107 22.9723 13.0473 23.0645 13.8985 23.4171C14.7496 23.7697 15.4771 24.3667 15.989 25.1327C16.5008 25.8988 16.774 26.7994 16.774 27.7207C16.7727 28.9557 16.2814 30.1397 15.4082 31.013C14.5349 31.8863 13.3508 32.3775 12.1158 32.3789Z" fill="black"/>
<path d="M40.6055 31.2012H32.3648L32.4302 30.5656V30.5575L33.274 22.3661C33.2738 22.3641 33.2738 22.3621 33.274 22.3601L33.9609 15.7075C33.9697 15.6218 33.9604 15.5353 33.9336 15.4536C33.9069 15.3718 33.8633 15.2965 33.8056 15.2326C33.748 15.1687 33.6776 15.1176 33.599 15.0825C33.5204 15.0475 33.4353 15.0294 33.3492 15.0293H22.1674C21.8572 14.3062 21.3745 13.6702 20.7617 13.1768C20.1488 12.6834 19.4244 12.3476 18.6518 12.1989V9.05274C18.6518 8.97184 18.6358 8.89174 18.6047 8.81702C18.5737 8.74231 18.5283 8.67444 18.471 8.6173C18.4137 8.56016 18.3458 8.51487 18.271 8.48402C18.1962 8.45317 18.1161 8.43736 18.0352 8.4375H13.7848V5.82293H17.2719C17.4351 5.82293 17.5916 5.75811 17.7069 5.64273C17.8223 5.52735 17.8871 5.37087 17.8871 5.2077C17.8884 4.47631 17.6185 3.77041 17.1296 3.22641C16.6408 2.68242 15.9676 2.33892 15.2402 2.2623L9.72914 1.67344C9.64332 1.66426 9.55653 1.67325 9.47442 1.69981C9.3923 1.72637 9.31668 1.76991 9.25249 1.8276C9.1883 1.8853 9.13697 1.95585 9.10183 2.03468C9.06668 2.11351 9.04852 2.19885 9.04852 2.28516V5.2077C9.04861 5.37084 9.11346 5.52727 9.22882 5.64263C9.34418 5.75799 9.50061 5.82284 9.66375 5.82293H10.4449V8.4375H6.19805C6.0349 8.43759 5.87847 8.50244 5.76311 8.6178C5.64775 8.73316 5.58291 8.88959 5.58281 9.05274V12.1992C4.48222 12.4141 3.49038 13.0045 2.77672 13.8695C2.06306 14.7345 1.67186 15.8204 1.66992 16.9418V40.6055C1.67076 41.3278 1.95808 42.0204 2.46887 42.5311C2.97965 43.0419 3.67218 43.3293 4.39453 43.3301H19.8387C20.3787 43.3306 20.9066 43.1698 21.3546 42.8681C21.3882 43.0001 21.4648 43.1171 21.5722 43.2007C21.6797 43.2843 21.8119 43.3299 21.948 43.3301H42.7148C42.878 43.33 43.0344 43.2651 43.1498 43.1498C43.2651 43.0344 43.33 42.878 43.3301 42.7149V33.9258C43.3292 33.2034 43.0419 32.5109 42.5311 32.0001C42.0204 31.4893 41.3278 31.202 40.6055 31.2012ZM42.0996 33.9258V34.0137H29.6191V33.9258C29.6196 33.5297 29.7772 33.1499 30.0573 32.8698C30.3374 32.5897 30.7172 32.4321 31.1133 32.4316H40.6055C41.0016 32.4321 41.3814 32.5897 41.6615 32.8698C41.9416 33.1499 42.0991 33.5297 42.0996 33.9258ZM31.1133 31.2012C30.3909 31.202 29.6984 31.4893 29.1876 32.0001C28.6768 32.5109 28.3895 33.2034 28.3887 33.9258V37.5047H22.5032L21.8429 31.1098H31.1372L31.1277 31.2012H31.1133ZM20.9985 22.9184H31.9813L31.2641 29.8793H21.716L21.6084 28.838L20.9985 22.9184ZM32.1079 21.6879H20.8702L20.3101 16.2598H32.6672L32.1079 21.6879ZM10.279 2.96965L15.1095 3.48574C15.4277 3.51934 15.7304 3.64059 15.9838 3.83598C16.2372 4.03137 16.4314 4.29324 16.5449 4.59246H13.178H13.1695H13.1611H11.0686H11.0602H11.0517H10.2783L10.279 2.96965ZM11.6754 5.82293H12.5543V8.4375H11.6754V5.82293ZM17.4199 9.66797V12.1078H6.81328V9.66797H17.4199ZM19.8387 42.0996H4.39453C3.9984 42.0992 3.61863 41.9416 3.33853 41.6615C3.05842 41.3814 2.90086 41.0016 2.90039 40.6055V16.9418C2.90141 15.9864 3.2814 15.0704 3.95697 14.3949C4.63253 13.7193 5.54851 13.3393 6.50391 13.3383H17.7293C18.3402 13.3372 18.9413 13.4919 19.4757 13.7878C20.0102 14.0837 20.4603 14.511 20.7837 15.0293H19.6277C19.5416 15.0293 19.4564 15.0474 19.3777 15.0824C19.299 15.1173 19.2285 15.1685 19.1708 15.2324C19.1131 15.2964 19.0695 15.3718 19.0428 15.4537C19.016 15.5355 19.0068 15.6221 19.0157 15.7078L20.411 29.2229L20.5485 30.5589V30.5624L21.3328 38.1516V40.6055C21.3323 41.0016 21.1748 41.3814 20.8947 41.6615C20.6146 41.9416 20.2348 42.0992 19.8387 42.0996ZM22.5633 40.6055V38.7352H28.3887V42.0996H22.5633V40.6055ZM42.0996 42.0996H29.6191V35.2441H42.0996V42.0996Z" fill="black"/>
<path d="M35.8594 36.0643C34.6641 36.0643 33.6913 37.2343 33.6913 38.6719C33.6913 40.1094 34.6641 41.2794 35.8594 41.2794C37.0547 41.2794 38.0275 40.1094 38.0275 38.6719C38.0275 37.2343 37.0547 36.0643 35.8594 36.0643ZM35.8594 40.0489C35.3514 40.0489 34.9218 39.4182 34.9218 38.6719C34.9218 37.9255 35.3514 37.2948 35.8594 37.2948C36.3674 37.2948 36.797 37.9255 36.797 38.6719C36.797 39.4182 36.3674 40.0489 35.8594 40.0489Z" fill="black"/>
</svg>
