<svg width="20" height="20" fill="none" xmlns="http://www.w3.org/2000/svg"><path d="M15.157 14.861a2.333 2.333 0 00-2.335 2.336 2.333 2.333 0 002.335 2.335 2.333 2.333 0 002.335-2.335c-.022-1.28-1.055-2.336-2.335-2.336zm4.109-11.137c-.045 0-.112-.023-.18-.023H4.94l-.225-1.504A2.01 2.01 0 002.717.468H.898A.9.9 0 000 1.366a.9.9 0 00.898.898h1.819c.112 0 .202.09.225.202l1.392 9.476a2.462 2.462 0 002.425 2.089H16.1a2.495 2.495 0 002.425-1.976l1.46-7.298a.888.888 0 00-.719-1.033zm-9.835 13.36a2.322 2.322 0 00-2.313-2.223 2.349 2.349 0 00-2.245 2.425 2.302 2.302 0 002.29 2.223h.045c1.28-.067 2.29-1.145 2.223-2.425z" fill="#2D2D2D"/></svg>