<svg width="20" height="18" fill="none" xmlns="http://www.w3.org/2000/svg"><path fill-rule="evenodd" clip-rule="evenodd" d="M10 2.807a6.87 6.87 0 01.398-.524A6.029 6.029 0 0112.186.81a4.652 4.652 0 012.189-.56 5.44 5.44 0 012.19.458 5.632 5.632 0 011.787 1.25 5.867 5.867 0 011.206 1.855A5.99 5.99 0 0120 6.083a5.99 5.99 0 01-.442 2.27 5.844 5.844 0 01-1.206 1.855c-.432.448-5.675 5.368-7.654 7.017-.43.358-.967.358-1.397 0-1.978-1.65-7.221-6.569-7.654-7.017A5.865 5.865 0 01.442 8.354 6.005 6.005 0 010 6.084c0-.806.158-1.574.442-2.271a5.855 5.855 0 011.206-1.854A5.634 5.634 0 013.436.709 5.436 5.436 0 015.625.25c.777 0 1.517.204 2.19.56a6.053 6.053 0 011.787 1.472c.14.168.274.343.398.525z" fill="#2D2D2D"/></svg>