<svg width="26" height="17" fill="none" xmlns="http://www.w3.org/2000/svg"><path fill-rule="evenodd" clip-rule="evenodd" d="M25.749 13.014v-.312h-.081l-.094.214-.094-.214h-.08v.312h.057v-.235l.088.203h.06l.088-.203v.235h.057zm-.515 0v-.258h.104v-.053h-.266v.053h.104v.258h.058z" fill="#F79410"/><path fill-rule="evenodd" clip-rule="evenodd" d="M16.515 14.352h-7.03V1.718h7.03v12.634z" fill="#FF5F00"/><path fill-rule="evenodd" clip-rule="evenodd" d="M9.93 8.035c0-2.563 1.2-4.846 3.07-6.317A8.035 8.035 0 000 8.035a8.035 8.035 0 0013 6.317 8.022 8.022 0 01-3.07-6.317z" fill="#EB001B"/><path fill-rule="evenodd" clip-rule="evenodd" d="M26 8.035a8.035 8.035 0 01-13 6.317 8.02 8.02 0 003.07-6.317A8.02 8.02 0 0013 1.718a8.035 8.035 0 0113 6.317" fill="#F79410"/></svg>