<svg width="40" height="12" fill="none" xmlns="http://www.w3.org/2000/svg"><path fill-rule="evenodd" clip-rule="evenodd" d="M10.779 0v.005C10.774.005 9.216 0 8.8 1.577c-.38 1.447-1.454 5.44-1.483 5.55H7.02S5.923 3.045 5.538 1.572C5.122-.005 3.56 0 3.56 0H0v12h3.56V4.873h.297L5.933 12h2.472l2.077-7.121h.297V12h3.56V0h-3.56zm13.003 0S22.74.1 22.25 1.258l-2.522 5.869h-.297V0h-3.56v12h3.363s1.092-.105 1.582-1.258l2.472-5.869h.297V12h3.56V0h-3.363zm4.945 5.45V12h3.56V8.175h3.856c1.681 0 3.105-1.138 3.635-2.725H28.727z" fill="#4DB45E"/><path fill-rule="evenodd" clip-rule="evenodd" d="M36.143 0h-7.916c.396 2.285 2.013 4.119 4.104 4.716.475.136.974.21 1.488.21h6.102c.054-.273.079-.55.079-.839C40 1.83 38.274 0 36.143 0z" fill="url(#paint0_linear)"/><defs><linearGradient id="paint0_linear" x1="28.228" y1="2.463" x2="40" y2="2.463" gradientUnits="userSpaceOnUse"><stop offset=".3" stop-color="#00B4E6"/><stop offset="1" stop-color="#088CCB"/></linearGradient></defs></svg>