<svg width="72" height="64" fill="none" xmlns="http://www.w3.org/2000/svg"><path fill-rule="evenodd" clip-rule="evenodd" d="M63 7.114H9a2.25 2.25 0 00-2.25 2.25v34.542l9.271-7.063a7.875 7.875 0 018.158-.846l10.434 4.968c.426.203.934.118 1.27-.212l13.283-13.01a7.875 7.875 0 0110.43-.525l5.654 4.523V9.364A2.25 2.25 0 0063 7.114zm2.25 33.272l-9.87-7.897a1.125 1.125 0 00-1.49.075l-13.283 13.01a7.875 7.875 0 01-8.896 1.485l-10.434-4.968a1.125 1.125 0 00-1.165.12L6.75 52.393v1.972A2.25 2.25 0 009 56.614h54a2.25 2.25 0 002.25-2.25V40.386zM9 .364a9 9 0 00-9 9v45a9 9 0 009 9h54a9 9 0 009-9v-45a9 9 0 00-9-9H9zm13.5 20.25a6.75 6.75 0 1113.5 0 6.75 6.75 0 01-13.5 0z" fill="#EFEFEF"/></svg>