<svg width="16" height="16" fill="none" xmlns="http://www.w3.org/2000/svg"><path fill-rule="evenodd" clip-rule="evenodd" d="M8 14.75a6.75 6.75 0 100-13.5 6.75 6.75 0 000 13.5zM8 16A8 8 0 108 0a8 8 0 000 16z" fill="#8C8C8C"/><path d="M7.558 9.62a.19.19 0 01-.14-.06.192.192 0 01-.06-.14V9.1c.033-.313.13-.587.29-.82.166-.24.4-.513.7-.82.22-.213.386-.397.5-.55a.997.997 0 00.2-.47.686.686 0 00-.27-.65 1.157 1.157 0 00-.75-.25c-.654 0-1.047.323-1.18.97-.047.153-.144.23-.29.23h-.85a.216.216 0 01-.16-.06.267.267 0 01-.06-.18c.013-.367.123-.71.33-1.03.206-.32.506-.577.9-.77.393-.2.853-.3 1.38-.3.553 0 1.006.09 1.36.27.36.173.62.397.78.67.167.273.25.557.25.85 0 .34-.077.633-.23.88-.147.24-.37.52-.67.84-.214.233-.38.433-.5.6-.114.16-.19.333-.23.52a8.73 8.73 0 00-.05.34c-.054.167-.144.25-.27.25h-.98zm-.03 1.88a.231.231 0 01-.17-.07.231.231 0 01-.07-.17v-.87a.23.23 0 01.07-.17.218.218 0 01.17-.08h.97c.073 0 .133.023.18.07.046.047.07.107.07.18v.87a.231.231 0 01-.07.17.244.244 0 01-.18.07h-.97z" fill="#8C8C8C"/></svg>