<svg width="39" height="12" fill="none" xmlns="http://www.w3.org/2000/svg"><path fill-rule="evenodd" clip-rule="evenodd" d="M20.17 3.836c-.022 1.672 1.563 2.605 2.758 3.16 1.227.568 1.64.933 1.635 1.442-.01.78-.98 1.123-1.887 1.136-1.583.023-2.504-.407-3.236-.733l-.57 2.543c.734.322 2.094.604 3.504.616 3.31 0 5.475-1.557 5.486-3.97.013-3.063-4.446-3.233-4.416-4.602.01-.415.427-.858 1.338-.97.45-.058 1.695-.101 3.107.518l.553-2.46A8.814 8.814 0 0025.494 0c-3.115 0-5.306 1.578-5.324 3.836zM33.765.212c-.604 0-1.114.336-1.34.851L27.696 11.82h3.307l.658-1.733h4.041l.382 1.733H39L36.456.212h-2.69zm.463 3.136l.954 4.358h-2.614l1.66-4.358zM16.16.212l-2.607 11.607h3.152L19.31.212h-3.15zm-4.662 0l-3.28 7.9L6.89 1.395C6.735.645 6.12.212 5.437.212H.075L0 .549c1.1.228 2.352.595 3.11.988.463.24.595.45.748 1.02l2.513 9.262H9.7L14.807.212h-3.31z" fill="#fff"/></svg>