<?xml version="1.0" encoding="utf-8"?><svg xmlns="http://www.w3.org/2000/svg" xmlns:xlink="http://www.w3.org/1999/xlink"><symbol viewBox="0 -1 512 512" id="address" xmlns="http://www.w3.org/2000/svg"><path d="M204.5 458.605v51.856l-12.54-10.129c-1.937-1.566-48.034-38.992-94.78-92.66C32.695 333.637 0 267.18 0 210.152V204.5C0 91.738 91.738 0 204.5 0S409 91.738 409 204.5v5.652c0 4.79-.254 9.653-.715 14.575l-39.992-36.485c-8.191-83.156-78.52-148.34-163.793-148.34-90.758 0-164.598 73.84-164.598 164.598v5.652c0 96.368 124.164 213.028 164.598 248.453zm122.7-28.66h59.85v-59.851H327.2zM204.5 119.707c46.754 0 84.793 38.04 84.793 84.793s-38.04 84.793-84.793 84.793-84.793-38.04-84.793-84.793 38.04-84.793 84.793-84.793zm0 39.902c-24.754 0-44.89 20.137-44.89 44.891 0 24.75 20.136 44.89 44.89 44.89 24.75 0 44.89-20.14 44.89-44.89 0-24.754-20.14-44.89-44.89-44.89zm280.61 243.223l-11.22-10.234v64.058c0 29.828-24.269 54.094-54.097 54.094H293.461c-29.828 0-54.098-24.266-54.098-54.094v-64.058l-11.218 10.234-26.891-29.477L356.625 231.61 512 373.355zm-51.122-46.637l-77.363-70.574-77.36 70.574v100.457c0 7.828 6.368 14.196 14.196 14.196h126.332c7.828 0 14.195-6.368 14.195-14.196zm0 0"/></symbol><symbol viewBox="0 0 48 48" id="arrow-down" xmlns="http://www.w3.org/2000/svg"><path d="M26.981 9.46c-.002-1.413-1.107-2.458-2.504-2.46-1.396 0-2.472 1.17-2.47 2.586l.024 20.699-5.718-5.763a2.508 2.508 0 00-3.576-.004 2.585 2.585 0 00.005 3.62l9.843 9.968.071.068a2.51 2.51 0 003.716.006l.068-.071 9.822-9.945a2.58 2.58 0 00-.005-3.62 2.505 2.505 0 00-3.575-.003l-5.677 5.619-.024-20.7z" fill-rule="evenodd"/></symbol><symbol viewBox="0 0 490.661 490.661" id="arrow-right" xmlns="http://www.w3.org/2000/svg"><path d="M453.352 236.091L48.019 1.424c-3.285-1.899-7.36-1.899-10.688 0a10.681 10.681 0 00-5.333 9.237v469.333c0 3.819 2.048 7.339 5.333 9.237a10.802 10.802 0 005.333 1.429c1.856 0 3.691-.469 5.355-1.429l405.333-234.667c3.285-1.92 5.312-5.44 5.312-9.237s-2.027-7.338-5.312-9.236z"/></symbol><symbol viewBox="0 0 96 96" id="arrow-up" xmlns="http://www.w3.org/2000/svg"><path d="M82.607 62.107L52.606 26.105a6.203 6.203 0 00-9.212 0L13.393 62.107a5.999 5.999 0 109.211 7.688L48 39.325l25.396 30.47a5.999 5.999 0 109.211-7.688z"/></symbol><symbol id="attention" viewBox="0 0 64 64" xml:space="preserve" xmlns="http://www.w3.org/2000/svg"><style>.aest0{fill:#134563}</style><g id="aeIcon-Exclamation" transform="translate(228 278)"><path class="aest0" d="M-196-222.1c-13.2 0-23.9-10.7-23.9-23.9s10.7-23.9 23.9-23.9 23.9 10.7 23.9 23.9-10.7 23.9-23.9 23.9zm0-45.2c-11.7 0-21.3 9.6-21.3 21.3s9.6 21.3 21.3 21.3 21.3-9.6 21.3-21.3-9.6-21.3-21.3-21.3z" id="aeFill-49"/><path class="aest0" id="aeFill-50" d="M-197.4-236.1h2.8v2.8h-2.8z"/><path class="aest0" id="aeFill-51" d="M-195.2-238.9h-1.6l-.6-11.3v-8.5h2.8v8.5l-.6 11.3"/></g></symbol><symbol viewBox="0 0 32 32" id="back" xmlns="http://www.w3.org/2000/svg"><path d="M28 14H8.8l4.62-4.62c.394-.394.58-.864.58-1.38 0-.984-.813-2-2-2-.531 0-.994.193-1.38.58l-7.958 7.958C2.334 14.866 2 15.271 2 16s.279 1.08.646 1.447l7.974 7.973c.386.387.849.58 1.38.58 1.188 0 2-1.016 2-2 0-.516-.186-.986-.58-1.38L8.8 18H28a2 2 0 000-4z"/></symbol><symbol viewBox="0 0 50 50" id="cart" xmlns="http://www.w3.org/2000/svg"><path d="M47.6 14.8A2 2 0 0046 14h-4.4L29.1 5.4a2 2 0 00-2.4.1L16.3 14h-3.1L11 3.6A2 2 0 009 2H4a2 2 0 000 4h3.4L14 37.4a2 2 0 002 1.6h1a5 5 0 106 0h10a5 5 0 106 0h1a2 2 0 001.9-1.5l6-21a2 2 0 00-.3-1.7zM20 44a1 1 0 111-1 1 1 0 01-1 1zm16 0a1 1 0 111-1 1 1 0 01-1 1zM28.1 9.5l6.5 4.5h-12zM38.5 35H17.6L14 18h29.3z"/></symbol><symbol viewBox="0 0 48 48" id="cash" xmlns="http://www.w3.org/2000/svg"><path clip-rule="evenodd" d="M47 40a5 5 0 01-5 5H6a5 5 0 01-5-5V11a4 4 0 014-4h20.171l8.099-2.934a.99.99 0 011.268.589L35.391 7H39a4 4 0 014 4v2a4 4 0 014 4v23zM5 9a2 2 0 000 4h3.634c.013-.005.021-.016.034-.021L19.65 9H5zm29.078.181l-1.062-2.924h-.001L30.964 7h.003l-5.514 2h-.01l-11.039 4h21.062l-1.388-3.819zM41 11a2 2 0 00-2-2h-2.883l1.454 4H41v-2zm2 4H5c-.732 0-1.41-.211-2-.555V40a3 3 0 003 3h36a3 3 0 003-3v-7h-4a4 4 0 010-8h4v-8a2 2 0 00-2-2zm2 16v-4h-4a2 2 0 000 4h4zm-4-3h2v2h-2v-2z" fill-rule="evenodd"/></symbol><symbol viewBox="0 0 496 496" id="chat" xmlns="http://www.w3.org/2000/svg"><path d="M402.524 432l-18.52-55.568a56.001 56.001 0 00-43.112-37.384l-53.464-9.728v-4.144c9.304-5.4 17.4-12.624 23.848-21.176h16.152c13.232 0 24-10.768 24-24v-96c0-57.344-46.656-104-104-104s-104 46.656-104 104v56c0 15.424 10.968 28.328 25.512 31.336 4.488 22.992 18.856 42.448 38.488 53.84v4.144l-53.472 9.728a55.99 55.99 0 00-43.104 37.384l-3.2 9.608-27.248-27.248c-3.12-3.12-3.12-8.2 0-11.32l31.6-31.592-59.312-59.312L16.98 292.28C6.404 302.856.58 316.92.58 331.88s5.824 29.016 16.4 39.592l108.12 108.12C135.676 490.168 149.74 496 164.7 496s29.016-5.832 39.344-16.168l38.968-35.704L230.86 432h171.664zm-67.096-152c0 4.416-3.592 8-8 8H320.7a79.46 79.46 0 005.216-16.664c3.424-.712 6.576-2.072 9.512-3.784V280zm-8-26.224v-27.552c4.76 2.776 8 7.88 8 13.776s-3.24 11-8 13.776zm-160 0c-4.76-2.776-8-7.88-8-13.776s3.24-11 8-13.776v27.552zm0-53.776v9.136a31.73 31.73 0 00-8 3.312V184c0-48.52 39.48-88 88-88s88 39.48 88 88v28.448a31.44 31.44 0 00-8-3.312V200h-8c-23.656 0-45.896-9.216-62.632-25.944l-9.368-9.368-9.368 9.368C221.324 190.784 199.084 200 175.428 200h-8zm16 56v-40.304c24.024-1.808 46.424-11.72 64-28.432 17.576 16.712 39.976 26.632 64 28.432V256c0 11.664-3.184 22.576-8.656 32h-55.344v16h42.192c-11.28 9.928-26.024 16-42.192 16-35.288 0-64-28.712-64-64zm88 76.312v.376l-24 24-24-24v-.376c7.584 2.384 15.64 3.688 24 3.688s16.416-1.304 24-3.688zM126.02 381.488a40.014 40.014 0 0130.792-26.712l55.92-10.16 34.696 34.696 34.688-34.688 55.912 10.16a40 40 0 0130.792 26.712L380.332 416H214.86l-31.16-31.16-34.624 31.32c-3.016 3.032-8.288 3.032-11.312 0l-17.472-17.472 5.728-17.2zM52.684 279.192l36.688 36.688-8.688 8.688-36.688-36.688 8.688-8.688zm140.28 189.104c-7.552 7.536-17.6 11.704-28.28 11.704s-20.728-4.168-28.288-11.72L28.276 360.168c-7.552-7.552-11.712-17.6-11.712-28.28 0-10.688 4.16-20.736 11.712-28.288l4.4-4.4 36.688 36.688-.288.288c-9.352 9.36-9.352 24.584 0 33.944l57.368 57.368c4.536 4.528 10.56 7.032 16.976 7.032s12.44-2.496 16.68-6.752l.6-.536 36.856 36.856-4.592 4.208zm16.4-15.04l-36.776-36.776 10.568-9.552 36.712 36.712-10.504 9.616zM471.428 0h-112c-13.232 0-24 10.768-24 24v64c0 13.232 10.768 24 24 24h21.368l-8.272 48.248 77.2-48.248h21.704c13.232 0 24-10.768 24-24V24c0-13.232-10.768-24-24-24zm8 88c0 4.408-3.592 8-8 8h-26.296l-50.808 31.752L399.772 96h-40.344c-4.408 0-8-3.592-8-8V24c0-4.408 3.592-8 8-8h112c4.408 0 8 3.592 8 8v64z"/><path d="M367.428 32h96v16h-96zm0 32h64v16h-64zm80 0h16v16h-16zm-200-40C142.9 24 52.86 96.304 29.452 197.16l-15.16-25.272-13.72 8.232 28.12 46.856 46.856-28.12-8.232-13.72-21.68 13.008C68.308 105.88 151.276 40 247.428 40c21.016 0 41.752 3.12 61.632 9.28L313.796 34c-21.416-6.64-43.744-10-66.368-10zM491.54 177.136l-46.856-28.12-28.112 46.864 13.72 8.232 14-23.336c7.368 21.56 11.136 44.112 11.136 67.224 0 47.576-16.48 94.088-46.392 130.96l12.424 10.08c32.224-39.712 49.968-89.808 49.968-141.04 0-24.472-3.944-48.368-11.632-71.248l23.512 14.104 8.232-13.72z"/></symbol><symbol viewBox="0 0 32 32" id="check" xmlns="http://www.w3.org/2000/svg"><path d="M11.5 25.5a2 2 0 01-1.41-.59l-5.5-5.5a2 2 0 012.83-2.83l4.09 4.09L24.59 7.59a2 2 0 012.83 2.83l-14.5 14.5a2 2 0 01-1.42.58z" data-name="Layer 57"/></symbol><symbol viewBox="0 0 512 512" id="close" xmlns="http://www.w3.org/2000/svg"><path d="M437.5 386.6L306.9 256l130.6-130.6c14.1-14.1 14.1-36.8 0-50.9-14.1-14.1-36.8-14.1-50.9 0L256 205.1 125.4 74.5c-14.1-14.1-36.8-14.1-50.9 0-14.1 14.1-14.1 36.8 0 50.9L205.1 256 74.5 386.6c-14.1 14.1-14.1 36.8 0 50.9 14.1 14.1 36.8 14.1 50.9 0L256 306.9l130.6 130.6c14.1 14.1 36.8 14.1 50.9 0 14-14.1 14-36.9 0-50.9z"/></symbol><symbol viewBox="0 0 16 16" id="col" xmlns="http://www.w3.org/2000/svg"><path d="M0 0h4v4H0zm6 0h4v4H6zm6 0h4v4h-4zM0 6h4v4H0zm6 0h4v4H6zm6 0h4v4h-4zM0 12h4v4H0zm6 0h4v4H6zm6 0h4v4h-4z"/></symbol><symbol viewBox="0 0 32 32" id="delivery" xmlns="http://www.w3.org/2000/svg"><path d="M31.83 16.45l-4-6A1 1 0 0027 10h-8a1 1 0 00-1 1v12a1 1 0 001 1h2a4 4 0 01.54-2H20V12h6.46L30 17.3V22h-1.54a4 4 0 01.54 2h2a1 1 0 001-1v-6a1 1 0 00-.17-.55z"/><path d="M19 4H1a1 1 0 00-1 1v18a1 1 0 001 1h2a4 4 0 01.54-2H2V6h16v16h-7.54a4 4 0 01.54 2h8a1 1 0 001-1V5a1 1 0 00-1-1zm8 14h-5a1 1 0 010-2h5a1 1 0 010 2z"/><path d="M27.4 18a1 1 0 01-.84-.45L24.86 15H23v2a1 1 0 01-2 0v-3a1 1 0 011-1h3.39a1 1 0 01.84.45l2 3a1 1 0 01-.23 1.38.94.94 0 01-.6.17zM7 28a4 4 0 114-4 4 4 0 01-4 4zm0-6a2 2 0 102 2 2 2 0 00-2-2zm18 6a4 4 0 114-4 4 4 0 01-4 4zm0-6a2 2 0 102 2 2 2 0 00-2-2z"/></symbol><symbol viewBox="0 0 512 512" id="doc" xmlns="http://www.w3.org/2000/svg"><path d="M503.22 186.828l-25.041-25.041c-11.697-11.698-30.729-11.696-42.427 0l-52.745 52.745V45c0-24.813-20.187-45-45-45h-293c-24.813 0-45 20.187-45 45v422c0 24.813 20.187 45 45 45h293c24.813 0 45-20.187 45-45V347.967L503.22 229.255c11.697-11.697 11.697-30.73 0-42.427zM323.821 364.251l-45.122 21.058 21.037-45.078 111.975-111.975 24.757 24.756zM353.007 467c0 8.271-6.729 15-15 15h-293c-8.271 0-15-6.729-15-15V45c0-8.271 6.729-15 15-15h293c8.271 0 15 6.729 15 15v199.532c-83.179 83.179-77.747 77.203-79.34 80.616l-39.598 84.854a15 15 0 0019.936 19.936l84.854-39.599c3.111-1.452 3.623-2.354 14.148-12.748zm104.806-235.067l-24.89-24.89L456.966 183l25.033 25.049z"/><path d="M80.007 127h224c8.284 0 15-6.716 15-15s-6.716-15-15-15h-224c-8.284 0-15 6.716-15 15s6.716 15 15 15zm0 80h176c8.284 0 15-6.716 15-15s-6.716-15-15-15h-176c-8.284 0-15 6.716-15 15s6.716 15 15 15zm128 50h-128c-8.284 0-15 6.716-15 15s6.716 15 15 15h128c8.284 0 15-6.716 15-15s-6.716-15-15-15z"/></symbol><symbol viewBox="0 0 48 48" id="dots" xmlns="http://www.w3.org/2000/svg"><circle cx="5.5" cy="24" r="5.5"/><circle cx="42.499" cy="24" r="5.5"/><circle cx="24" cy="24" r="5.5"/></symbol><symbol viewBox="0 0 32 32" id="down" xmlns="http://www.w3.org/2000/svg"><path d="M4 8h24L16 26z"/></symbol><symbol viewBox="0 0 491.996 491.996" id="download" xmlns="http://www.w3.org/2000/svg"><path d="M484.132 124.986l-16.116-16.228c-5.072-5.068-11.82-7.86-19.032-7.86-7.208 0-13.964 2.792-19.036 7.86l-183.84 183.848L62.056 108.554c-5.064-5.068-11.82-7.856-19.028-7.856s-13.968 2.788-19.036 7.856l-16.12 16.128c-10.496 10.488-10.496 27.572 0 38.06l219.136 219.924c5.064 5.064 11.812 8.632 19.084 8.632h.084c7.212 0 13.96-3.572 19.024-8.632l218.932-219.328c5.072-5.064 7.856-12.016 7.864-19.224 0-7.212-2.792-14.068-7.864-19.128z"/></symbol><symbol viewBox="0 0 50 90" id="facebook" xmlns="http://www.w3.org/2000/svg"><path d="M50 15.646H35.717c-1.688 0-3.574 2.221-3.574 5.192v10.314H50v14.7H32.143V90H15.285V45.854H0v-14.7h15.285V22.5c0-12.407 8.611-22.5 20.432-22.5H50v15.646z"/></symbol><symbol viewBox="0 0 64 64" id="filter" xmlns="http://www.w3.org/2000/svg"><path d="M53.09 15.34L38.44 33.5l-1.55 1.93v13.23h-9.78V35.43l-1.55-1.93-14.65-18.16h42.18m8.25-7H2L0 13l20.11 24.9v13.55L24 55.66h16l3.91-4.21V37.9L64 13l-2.66-4.66z" data-name="&lt;Group>"/></symbol><symbol viewBox="0 0 32 32" id="forward" xmlns="http://www.w3.org/2000/svg"><path d="M28.66 17.11a1.19 1.19 0 00.09-.15l.1-.2.06-.2a.84.84 0 00.05-.17 2 2 0 000-.78.84.84 0 00-.05-.17l-.06-.2-.1-.2a1.19 1.19 0 00-.09-.15 1.79 1.79 0 00-.25-.31l-10-10a2 2 0 00-2.82 2.82l6.58 6.6H5a2 2 0 000 4h17.17l-6.58 6.59a2 2 0 102.82 2.82l10-10a1.79 1.79 0 00.25-.3z"/></symbol><symbol viewBox="0 0 24 24" id="heart" xmlns="http://www.w3.org/2000/svg"><path d="M16.4 6c2 0 3.6 1.6 3.6 3.6s-3.9 6.4-8 9.8c-4.1-3.5-8-7.9-8-9.8C4 7.6 5.6 6 7.6 6 10 6 12 9 12 9s1.9-3 4.4-3m0-2c-1.8 0-3.4.9-4.4 2.3C11 4.9 9.4 4 7.6 4 4.5 4 2 6.5 2 9.6 2 14 12 22 12 22s10-8 10-12.4C22 6.5 19.5 4 16.4 4z"/></symbol><symbol viewBox="0 0 56.693 56.693" id="instagram" xmlns="http://www.w3.org/2000/svg"><path d="M43.414 4.831H13c-5.283 0-9.581 4.297-9.581 9.58v30.415c0 5.283 4.298 9.58 9.581 9.58h30.415c5.283 0 9.58-4.297 9.58-9.58V14.41c-.001-5.283-4.298-9.579-9.581-9.579zm2.748 5.713l1.096-.004v8.403l-8.375.027-.029-8.402 7.308-.024zM21.131 24.53c1.588-2.197 4.164-3.638 7.076-3.638s5.488 1.441 7.074 3.638a8.677 8.677 0 011.652 5.088c0 4.811-3.918 8.725-8.727 8.725-4.812 0-8.726-3.914-8.726-8.725a8.683 8.683 0 011.651-5.088zm27.033 20.295a4.754 4.754 0 01-4.75 4.75H13a4.755 4.755 0 01-4.751-4.75V24.53h7.4a13.483 13.483 0 00-.998 5.088c0 7.473 6.08 13.557 13.556 13.557 7.475 0 13.555-6.084 13.555-13.557 0-1.799-.361-3.516-1-5.088h7.402v20.295z"/></symbol><symbol viewBox="0 0 64 64" id="list" xmlns="http://www.w3.org/2000/svg"><path d="M0 3.96h10.04V14H0zm16.94 0H64V14H16.94zM0 26.98h10.04v10.04H0zm16.94 0H64v10.04H16.94zM0 50.01h10.04v10.04H0zm16.94 0H64v10.04H16.94z"/></symbol><symbol viewBox="0 0 32 32" id="lock" xmlns="http://www.w3.org/2000/svg"><path d="M26.621 32H5.38A3.383 3.383 0 012 28.621V15.38A3.383 3.383 0 015.379 12H26.62A3.383 3.383 0 0130 15.379V28.62A3.383 3.383 0 0126.621 32zM5.38 14A1.38 1.38 0 004 15.379V28.62c0 .761.619 1.38 1.379 1.38H26.62A1.38 1.38 0 0028 28.621V15.38A1.38 1.38 0 0026.621 14H5.38z"/><path d="M22 14H10a1 1 0 01-1-1V7c0-3.86 3.14-7 7-7s7 3.14 7 7v6a1 1 0 01-1 1zm-11-2h10V7c0-2.757-2.243-5-5-5s-5 2.243-5 5v5zm5 11.363c-1.754 0-3.182-1.427-3.182-3.181S14.246 17 16 17s3.182 1.428 3.182 3.182-1.428 3.181-3.182 3.181zM16 19a1.183 1.183 0 101.182 1.182c0-.652-.53-1.182-1.182-1.182z"/><path d="M16 27a1 1 0 01-1-1v-3.637a1 1 0 112 0V26a1 1 0 01-1 1z"/></symbol><symbol viewBox="0 0 96 96" id="mail" xmlns="http://www.w3.org/2000/svg"><path d="M80 12H16C9.373 12 4 17.373 4 24v48c0 6.627 5.373 12 12 12h64c6.627 0 12-5.373 12-12V24c0-6.627-5.373-12-12-12zm0 8c.459 0 .893.093 1.303.235L48 46.877 14.697 20.235A3.968 3.968 0 0116 20h64zm0 56H16c-2.21 0-4-1.79-4-4V28.323l33.501 26.8c.73.585 1.615.877 2.499.877s1.769-.292 2.499-.877L84 28.323V72c0 2.21-1.79 4-4 4z"/></symbol><symbol viewBox="0 0 512 512" id="minus" xmlns="http://www.w3.org/2000/svg"><path d="M417.4 224H94.6C77.7 224 64 238.3 64 256s13.7 32 30.6 32h322.8c16.9 0 30.6-14.3 30.6-32s-13.7-32-30.6-32z"/></symbol><symbol viewBox="0 0 24 24" id="mobile" xmlns="http://www.w3.org/2000/svg"><path d="M20 4c0-2.2-1.8-4-4-4H8C5.8 0 4 1.8 4 4v16c0 2.2 1.8 4 4 4h8c2.2 0 4-1.8 4-4V4zm-7 18h-2c-.6 0-1-.4-1-1s.4-1 1-1h2c.6 0 1 .4 1 1s-.4 1-1 1zm5-5c0 .6-.4 1-1 1H7c-.6 0-1-.4-1-1V5c0-.6.4-1 1-1h10c.6 0 1 .4 1 1v12z"/></symbol><symbol viewBox="0 0 492.004 492.004" id="next" xmlns="http://www.w3.org/2000/svg"><path d="M382.678 226.804L163.73 7.86C158.666 2.792 151.906 0 144.698 0s-13.968 2.792-19.032 7.86l-16.124 16.12c-10.492 10.504-10.492 27.576 0 38.064L293.398 245.9l-184.06 184.06c-5.064 5.068-7.86 11.824-7.86 19.028 0 7.212 2.796 13.968 7.86 19.04l16.124 16.116c5.068 5.068 11.824 7.86 19.032 7.86s13.968-2.792 19.032-7.86L382.678 265c5.076-5.084 7.864-11.872 7.848-19.088.016-7.244-2.772-14.028-7.848-19.108z"/></symbol><symbol viewBox="0 0 30 30" id="ok" xmlns="http://www.w3.org/2000/svg"><path d="M22 15c-1 0-3 2-7 2s-6-2-7-2a2 2 0 00-2 2c0 1 .568 1.481 1 1.734C8.185 19.427 12 21 12 21l-4.25 5.438S7 27.373 7 28a2 2 0 002 2c1.021 0 1.484-.656 1.484-.656S14.993 23.993 15 24c.007-.007 4.516 5.344 4.516 5.344S19.979 30 21 30a2 2 0 002-2c0-.627-.75-1.562-.75-1.562L18 21s3.815-1.573 5-2.266c.432-.253 1-.734 1-1.734a2 2 0 00-2-2zM15 0a7 7 0 100 14 7 7 0 000-14zm0 10.5a3.5 3.5 0 11-.001-6.999A3.5 3.5 0 0115 10.5z"/></symbol><symbol viewBox="0 0 525.153 525.153" id="phone" xmlns="http://www.w3.org/2000/svg"><path d="M525.153 205.794V7.046h-198.77l59.649 59.67-79.517 79.517 79.451 79.429 79.517-79.517 59.67 59.649zm-47.264 157.655c-35.141 0-68.883-5.58-100.392-16.017-9.825-2.998-20.809-.766-28.643 6.849l-61.837 61.793c-79.561-40.546-144.811-105.381-185.248-185.248l61.815-62.077c7.899-7.374 10.131-18.358 7.046-28.183-10.372-31.444-16.039-65.163-16.039-100.282 0-15.536-12.647-28.183-28.096-28.183h-98.4C12.647 12.1 0 24.748 0 40.284c0 263.867 213.89 477.823 477.889 477.823 15.448 0 28.074-12.604 28.074-28.096v-98.357c.021-15.535-12.626-28.205-28.074-28.205z"/></symbol><symbol viewBox="0 0 32 32" id="plus" xmlns="http://www.w3.org/2000/svg"><path d="M28 14H18V4a2 2 0 00-4 0v10H4a2 2 0 000 4h10v10a2 2 0 004 0V18h10a2 2 0 000-4z"/></symbol><symbol viewBox="0 0 492 492" id="prev" xmlns="http://www.w3.org/2000/svg"><path d="M198.608 246.104L382.664 62.04c5.068-5.056 7.856-11.816 7.856-19.024 0-7.212-2.788-13.968-7.856-19.032l-16.128-16.12C361.476 2.792 354.712 0 347.504 0s-13.964 2.792-19.028 7.864L109.328 227.008c-5.084 5.08-7.868 11.868-7.848 19.084-.02 7.248 2.76 14.028 7.848 19.112l218.944 218.932c5.064 5.072 11.82 7.864 19.032 7.864 7.208 0 13.964-2.792 19.032-7.864l16.124-16.12c10.492-10.492 10.492-27.572 0-38.06L198.608 246.104z"/></symbol><symbol viewBox="0 0 489.533 489.533" id="reload" xmlns="http://www.w3.org/2000/svg"><path d="M268.175 488.161c98.2-11 176.9-89.5 188.1-187.7 14.7-128.4-85.1-237.7-210.2-239.1v-57.6c0-3.2-4-4.9-6.7-2.9l-118.6 87.1c-2 1.5-2 4.4 0 5.9l118.6 87.1c2.7 2 6.7.2 6.7-2.9v-57.5c87.9 1.4 158.3 76.2 152.3 165.6-5.1 76.9-67.8 139.3-144.7 144.2-81.5 5.2-150.8-53-163.2-130-2.3-14.3-14.8-24.7-29.2-24.7-17.9 0-31.9 15.9-29.1 33.6 17.4 109.7 118.7 192 236 178.9z"/></symbol><symbol viewBox="0 0 492.004 492.004" id="right" xmlns="http://www.w3.org/2000/svg"><path d="M484.14 226.886L306.46 49.202c-5.072-5.072-11.832-7.856-19.04-7.856-7.216 0-13.972 2.788-19.044 7.856l-16.132 16.136c-5.068 5.064-7.86 11.828-7.86 19.04 0 7.208 2.792 14.2 7.86 19.264L355.9 207.526H26.58C11.732 207.526 0 219.15 0 234.002v22.812c0 14.852 11.732 27.648 26.58 27.648h330.496L252.248 388.926c-5.068 5.072-7.86 11.652-7.86 18.864 0 7.204 2.792 13.88 7.86 18.948l16.132 16.084c5.072 5.072 11.828 7.836 19.044 7.836 7.208 0 13.968-2.8 19.04-7.872l177.68-177.68c5.084-5.088 7.88-11.88 7.86-19.1.016-7.244-2.776-14.04-7.864-19.12z"/></symbol><symbol viewBox="0 0 25 25" id="sandwich" xmlns="http://www.w3.org/2000/svg"><path d="M0 2h25v4H0V2zm0 8h25v4H0v-4zm0 8h25v4H0v-4z" fill-rule="evenodd"/></symbol><symbol viewBox="0 0 64 64" id="search" xmlns="http://www.w3.org/2000/svg"><g fill-rule="evenodd"><path d="M28 5C15.297 5 5 15.297 5 28s10.297 23 23 23 23-10.297 23-23S40.703 5 28 5zm0 5c9.941 0 18 8.059 18 18s-8.059 18-18 18-18-8.059-18-18 8.059-18 18-18z" fill-rule="nonzero"/><path d="M40.929 41.429a2.5 2.5 0 013.535 0l10.607 10.607a2.5 2.5 0 01-3.535 3.535L40.929 44.964a2.5 2.5 0 010-3.535z"/></g></symbol><symbol viewBox="0 0 465.882 465.882" id="send" xmlns="http://www.w3.org/2000/svg"><path d="M465.882 0L0 262.059l148.887 55.143 229.643-215.29-174.674 235.65.142.053-.174-.053v128.321l83.495-97.41 105.77 39.175z"/></symbol><symbol viewBox="0 0 96 96" id="share" xmlns="http://www.w3.org/2000/svg"><path d="M72 56c-4.813 0-9.12 2.137-12.054 5.501L39.643 51.35c.23-1.081.357-2.201.357-3.35s-.127-2.269-.357-3.349l20.303-10.152C62.879 37.864 67.187 40 72 40c8.836 0 16-7.164 16-16S80.836 8 72 8s-16 7.164-16 16c0 1.149.127 2.269.357 3.349L36.054 37.501C33.121 34.136 28.814 32 24 32c-8.836 0-16 7.164-16 16s7.164 16 16 16c4.814 0 9.12-2.137 12.054-5.501l20.304 10.152C56.127 69.731 56 70.851 56 72c0 8.836 7.164 16 16 16s16-7.164 16-16-7.164-16-16-16zm0-40a8 8 0 110 16 8 8 0 010-16zM24 56a8 8 0 110-16 8 8 0 010 16zm48 24a8 8 0 110-16 8 8 0 010 16z"/></symbol><symbol viewBox="0 0 24 24" id="star" xmlns="http://www.w3.org/2000/svg"><path d="M5.574 15.362l-1.267 7.767a.75.75 0 001.103.777L12 20.264l6.59 3.643a.75.75 0 001.103-.777l-1.267-7.767 5.36-5.494a.75.75 0 00-.423-1.265l-7.378-1.127L12.678.433c-.247-.526-1.11-.526-1.357 0L8.015 7.476.637 8.603a.75.75 0 00-.423 1.265z"/></symbol><symbol viewBox="0 0 25 25" id="table" xmlns="http://www.w3.org/2000/svg"><path d="M0 2h25v4H0V2zm0 8h25v4H0v-4zm0 8h25v4H0v-4z" fill-rule="evenodd"/></symbol><symbol viewBox="0 0 20 20" id="time" xmlns="http://www.w3.org/2000/svg"><path d="M10 20a10 10 0 110-20 10 10 0 010 20zm0-2a8 8 0 100-16 8 8 0 000 16zm-1-7.59V4h2v5.59l3.95 3.95-1.41 1.41L9 10.41z"/></symbol><symbol viewBox="0 0 512 512" id="twitter" xmlns="http://www.w3.org/2000/svg"><path d="M492 109.5c-17.4 7.7-36 12.9-55.6 15.3 20-12 35.4-31 42.6-53.6-18.7 11.1-39.4 19.2-61.5 23.5C399.8 75.8 374.6 64 346.8 64c-53.5 0-96.8 43.4-96.8 96.9 0 7.6.8 15 2.5 22.1-80.5-4-151.9-42.6-199.6-101.3-8.3 14.3-13.1 31-13.1 48.7 0 33.6 17.1 63.3 43.1 80.7C67 210.7 52 206.3 39 199v1.2c0 47 33.4 86.1 77.7 95-8.1 2.2-16.7 3.4-25.5 3.4-6.2 0-12.3-.6-18.2-1.8 12.3 38.5 48.1 66.5 90.5 67.3-33.1 26-74.9 41.5-120.3 41.5-7.8 0-15.5-.5-23.1-1.4C62.9 432 113.8 448 168.4 448 346.6 448 444 300.3 444 172.2c0-4.2-.1-8.4-.3-12.5 18.9-13.7 35.3-30.8 48.3-50.2z"/></symbol><symbol viewBox="0 0 492.002 492.002" id="up" xmlns="http://www.w3.org/2000/svg"><path d="M484.136 328.473L264.988 109.329c-5.064-5.064-11.816-7.844-19.172-7.844-7.208 0-13.964 2.78-19.02 7.844L7.852 328.265C2.788 333.333 0 340.089 0 347.297s2.784 13.968 7.852 19.032l16.124 16.124c5.064 5.064 11.824 7.86 19.032 7.86s13.964-2.796 19.032-7.86l183.852-183.852 184.056 184.064c5.064 5.06 11.82 7.852 19.032 7.852 7.208 0 13.96-2.792 19.028-7.852l16.128-16.132c10.488-10.492 10.488-27.568 0-38.06z"/></symbol><symbol viewBox="0 0 25.531 27.5" id="user" xmlns="http://www.w3.org/2000/svg"><path d="M19.182 13.168c-1.207 2.764-3.845 5.074-6.403 5.074-3.122 0-5.39-2.284-6.599-5.047C-.851 16.838.035 26.055.035 26.055c0 1.262.994 1.444 2.162 1.444h21.147c1.17 0 2.168-.185 2.168-1.444 0 0 .701-9.244-6.33-12.887zm4.164 12.333H2.198l-.192-.002c-.05-1.396.025-6.456 3.476-9.435 1.799 2.651 4.412 4.179 7.297 4.179 2.594-.001 5.286-1.66 7.083-4.224 3.455 2.957 3.68 8.018 3.668 9.479a5.13 5.13 0 01-.184.003z"/><path d="M12.779 16.744c3.521 0 6.321-5.039 6.321-9.203C19.1 3.376 16.245 0 12.723 0 9.202 0 6.347 3.376 6.347 7.541c0 4.164 2.91 9.203 6.432 9.203zM12.723 2C15.137 2 17.1 4.485 17.1 7.541c0 3.434-2.262 7.203-4.321 7.203-2.071 0-4.432-3.837-4.432-7.203C8.347 4.485 10.31 2 12.723 2z"/></symbol><symbol viewBox="0 0 512 512" id="vk" xmlns="http://www.w3.org/2000/svg"><path d="M475.515 137.899c3.16-10.674 0-18.53-15.2-18.53h-50.297c-12.809 0-18.702 6.746-21.861 14.261 0 0-25.617 62.422-61.825 102.899-11.698 11.699-17.078 15.457-23.482 15.457-3.158 0-8.027-3.758-8.027-14.432v-99.655c0-12.809-3.588-18.53-14.176-18.53h-79.075c-8.027 0-12.809 5.978-12.809 11.528 0 12.125 18.104 14.943 19.983 49.101v74.123c0 16.225-2.904 19.212-9.308 19.212-17.079 0-58.581-62.678-83.174-134.409-4.952-13.919-9.821-19.555-22.715-19.555H43.25c-14.346 0-17.25 6.746-17.25 14.261 0 13.32 17.079 79.502 79.502 166.945 41.587 59.689 100.167 92.056 153.453 92.056 32.022 0 35.951-7.173 35.951-19.555 0-57.045-2.903-62.425 13.152-62.425 7.428 0 20.237 3.757 50.127 32.534 34.155 34.158 39.792 49.445 58.92 49.445h50.297c14.347 0 21.606-7.173 17.421-21.351-9.564-29.801-74.208-91.114-77.111-95.213-7.429-9.564-5.295-13.835 0-22.375.087-.083 61.483-86.502 67.803-115.792z"/></symbol><symbol viewBox="0 0 32 32" id="zoom" xmlns="http://www.w3.org/2000/svg"><path d="M27.414 24.586l-5.077-5.077A9.932 9.932 0 0024 14c0-5.514-4.486-10-10-10S4 8.486 4 14s4.486 10 10 10a9.932 9.932 0 005.509-1.663l5.077 5.077a2 2 0 102.828-2.828zM7 14c0-3.86 3.14-7 7-7s7 3.14 7 7-3.14 7-7 7-7-3.14-7-7z"/><path d="M19 14a1 1 0 01-1 1h-3v3a1 1 0 01-2 0v-3h-3a1 1 0 010-2h3v-3a1 1 0 012 0v3h3a1 1 0 011 1z"/></symbol></svg>