<?xml version="1.0" encoding="utf-8"?><svg xmlns="http://www.w3.org/2000/svg" xmlns:xlink="http://www.w3.org/1999/xlink"><symbol viewBox="0 0 10 6" id="arrow-down" xmlns="http://www.w3.org/2000/svg"><path d="M5.357 5.607L9.852 1.11A.504.504 0 109.14.395L5 4.535.862.395a.504.504 0 10-.714.715l4.495 4.497a.51.51 0 00.714 0z"/></symbol><symbol viewBox="0 0 10 18" id="arrow-left" xmlns="http://www.w3.org/2000/svg"><path d="M.307 9.642l8.095 8.092a.912.912 0 001.287 0 .907.907 0 000-1.284L2.236 9l7.452-7.45a.908.908 0 000-1.284.912.912 0 00-1.287 0L.307 8.358a.917.917 0 000 1.284z"/></symbol><symbol viewBox="0 0 10 18" id="arrow-right" xmlns="http://www.w3.org/2000/svg"><path d="M9.693 8.358L1.598.266a.912.912 0 00-1.287 0 .907.907 0 000 1.284L7.764 9 .312 16.45a.908.908 0 000 1.284.912.912 0 001.287 0l8.094-8.092a.917.917 0 000-1.284z"/></symbol><symbol viewBox="0 0 28 28" id="cart" xmlns="http://www.w3.org/2000/svg"><g clip-path="url(#dclip0)" stroke-width=".3"><path d="M10.641 20.93a3.54 3.54 0 00-3.535 3.535A3.54 3.54 0 0010.641 28a3.54 3.54 0 003.536-3.535 3.54 3.54 0 00-3.536-3.536zm0 4.949a1.415 1.415 0 010-2.828 1.415 1.415 0 010 2.828zm10.465-4.949a3.54 3.54 0 00-3.535 3.535A3.54 3.54 0 0021.106 28a3.54 3.54 0 003.535-3.535 3.54 3.54 0 00-3.535-3.536zm0 4.949a1.415 1.415 0 010-2.828 1.415 1.415 0 010 2.828zm6.133-18.973a1.061 1.061 0 00-.83-.4H7.838l-.964-4.873a1.06 1.06 0 00-.85-.837L1.783.018A1.06 1.06 0 101.4 2.104l3.533.648 3.113 15.732a1.06 1.06 0 001.04.854h14.848c.494 0 .922-.34 1.034-.822l2.474-10.712a1.06 1.06 0 00-.203-.898zm-4.148 10.311H9.957l-1.7-8.59h16.818l-1.984 8.59z"/></g><defs><clipPath id="dclip0"><path d="M0 0h28v28H0z"/></clipPath></defs></symbol><symbol viewBox="0 0 21 17" id="compare" xmlns="http://www.w3.org/2000/svg"><path d="M20.563 16.375H.438a.438.438 0 010-.875h20.125a.438.438 0 010 .875z"/><path d="M5.688 16.375H1.313a.438.438 0 01-.438-.438V5c0-.482.393-.875.875-.875h3.5c.482 0 .875.393.875.875v10.938a.438.438 0 01-.438.437zM1.75 15.5h3.5V5h-3.5v10.5zm10.938.875H8.311a.438.438 0 01-.437-.438V1.5c0-.482.393-.875.875-.875h3.5c.482 0 .875.393.875.875v14.438a.438.438 0 01-.438.437zM8.75 15.5h3.5v-14h-3.5v14zm10.938.875h-4.375a.438.438 0 01-.438-.438V7.626c0-.482.393-.875.875-.875h3.5c.482 0 .875.393.875.875v8.313a.438.438 0 01-.438.437zM15.75 15.5h3.5V7.625h-3.5V15.5z"/></symbol><symbol viewBox="0 0 11 20" id="facebook" xmlns="http://www.w3.org/2000/svg"><path d="M8.33 3.32h1.827V.14A23.577 23.577 0 007.497 0C4.864 0 3.06 1.656 3.06 4.7v2.8H.156v3.555H3.06V20h3.561v-8.944H9.41L9.852 7.5h-3.23V5.05c0-1.027.277-1.73 1.709-1.73z"/></symbol><symbol viewBox="0 0 32 32" id="google" xmlns="http://www.w3.org/2000/svg"><path d="M31.37 13c.2 1.07.31 2.19.31 3.36C31.68 25.5 25.56 32 16.32 32c-8.84 0-16-7.16-16-16s7.16-16 16-16c4.32 0 7.93 1.59 10.7 4.17l-4.51 4.51v-.01c-1.68-1.6-3.81-2.42-6.189-2.42-5.28 0-9.57 4.46-9.57 9.74 0 5.279 4.29 9.75 9.57 9.75 4.79 0 8.05-2.74 8.721-6.5H16.32V13h15.05z"/></symbol><symbol viewBox="0 0 28 26" id="heart" xmlns="http://www.w3.org/2000/svg"><path d="M14 25.442c-.399 0-.783-.144-1.082-.407a323.786 323.786 0 00-3.184-2.738l-.005-.004c-2.821-2.404-5.257-4.48-6.952-6.525C.882 13.482 0 11.314 0 8.946c0-2.3.789-4.423 2.221-5.977C3.671 1.397 5.66.531 7.822.531c1.616 0 3.096.511 4.4 1.519A9.002 9.002 0 0114 3.907a9.003 9.003 0 011.779-1.857c1.303-1.008 2.783-1.52 4.4-1.52 2.161 0 4.15.866 5.6 2.438 1.432 1.554 2.22 3.676 2.22 5.977 0 2.368-.881 4.536-2.776 6.822-1.695 2.045-4.13 4.12-6.951 6.524a313.74 313.74 0 00-3.19 2.744c-.3.262-.684.406-1.082.406zM7.822 2.172c-1.699 0-3.26.677-4.395 1.909C2.275 5.33 1.64 7.058 1.64 8.946c0 1.992.74 3.773 2.4 5.775 1.604 1.936 3.99 3.97 6.752 6.324l.006.004c.965.823 2.06 1.756 3.2 2.752a381.246 381.246 0 013.21-2.757c2.763-2.354 5.148-4.387 6.752-6.323 1.66-2.002 2.4-3.783 2.4-5.775 0-1.888-.635-3.615-1.787-4.865-1.135-1.232-2.696-1.91-4.395-1.91-1.244 0-2.387.396-3.396 1.176-.9.696-1.525 1.575-1.893 2.19a1.027 1.027 0 01-.889.506c-.368 0-.7-.19-.89-.506-.366-.615-.993-1.494-1.892-2.19-1.009-.78-2.152-1.176-3.396-1.176z"/></symbol><symbol viewBox="0 0 24 24" id="home" xmlns="http://www.w3.org/2000/svg"><path d="M23.4 10.392l-.002-.002L13.608.6a2.194 2.194 0 00-1.562-.647A2.2 2.2 0 0010.483.6L.698 10.385a2.212 2.212 0 00-.006 3.13 2.197 2.197 0 001.535.648h.39v7.204a2.589 2.589 0 002.586 2.586h3.83a.703.703 0 00.703-.703v-5.648c0-.651.53-1.18 1.18-1.18h2.26c.65 0 1.18.529 1.18 1.18v5.648c0 .388.314.703.702.703h3.83a2.589 2.589 0 002.586-2.586v-7.204h.362c.59 0 1.145-.23 1.563-.648.86-.86.86-2.261.001-3.123zm-.996 2.13a.798.798 0 01-.568.235h-1.065a.703.703 0 00-.703.703v7.907c0 .65-.529 1.18-1.18 1.18h-3.127v-4.945a2.589 2.589 0 00-2.586-2.586h-2.259a2.59 2.59 0 00-2.586 2.586v4.945H5.203c-.65 0-1.18-.53-1.18-1.18V13.46a.703.703 0 00-.703-.703H2.273a.797.797 0 01-.586-.236.804.804 0 010-1.136h.001l9.79-9.79a.797.797 0 01.568-.236c.214 0 .416.084.568.236l9.787 9.787a.805.805 0 01.003 1.14z"/></symbol><symbol viewBox="0 0 20 20" id="location" xmlns="http://www.w3.org/2000/svg"><path d="M10 0a7.04 7.04 0 00-7.031 7.031c0 1.31.363 2.589 1.05 3.698l5.58 8.994a.586.586 0 00.499.277h.004a.586.586 0 00.498-.285l5.44-9.081a7.023 7.023 0 00.991-3.603A7.04 7.04 0 0010 0zm5.034 10.032l-4.945 8.256-5.075-8.177a5.852 5.852 0 01-.881-3.08A5.88 5.88 0 0110 1.164c3.23 0 5.863 2.636 5.863 5.867 0 1.06-.29 2.097-.83 3.001z"/><path d="M10 3.516A3.52 3.52 0 006.484 7.03 3.511 3.511 0 0010 10.547a3.509 3.509 0 003.516-3.516A3.52 3.52 0 0010 3.516zm0 5.867A2.353 2.353 0 017.648 7.03 2.36 2.36 0 0110 4.68a2.357 2.357 0 012.348 2.351A2.349 2.349 0 0110 9.383z"/></symbol><symbol viewBox="0 0 12 12" id="search" xmlns="http://www.w3.org/2000/svg"><g clip-path="url(#kclip0)"><path d="M5.285 0A5.29 5.29 0 000 5.285a5.29 5.29 0 005.285 5.284 5.29 5.29 0 005.284-5.284A5.29 5.29 0 005.285 0zm0 9.594a4.314 4.314 0 01-4.31-4.31A4.314 4.314 0 015.286.977a4.314 4.314 0 014.308 4.309 4.314 4.314 0 01-4.308 4.309z"/><path d="M11.857 11.167L9.06 8.37a.488.488 0 10-.69.69l2.797 2.797a.486.486 0 00.69 0c.19-.19.19-.5 0-.69z"/></g><defs><clipPath id="kclip0"><path d="M0 0h12v12H0z"/></clipPath></defs></symbol><symbol viewBox="0 0 14 13" id="star" xmlns="http://www.w3.org/2000/svg"><path d="M6.524.464a.5.5 0 01.952 0l1.208 3.718a.5.5 0 00.475.346h3.91a.5.5 0 01.294.904L10.2 7.731a.5.5 0 00-.182.559l1.209 3.719a.5.5 0 01-.77.559l-3.163-2.299a.5.5 0 00-.588 0l-3.163 2.299a.5.5 0 01-.77-.56L3.982 8.29a.5.5 0 00-.182-.56L.636 5.433a.5.5 0 01.294-.904h3.91a.5.5 0 00.476-.346L6.524.464z"/></symbol><symbol viewBox="0 0 22 20" id="telegram" xmlns="http://www.w3.org/2000/svg"><path d="M8.632 12.916l-.364 5.119c.521 0 .747-.224 1.017-.493l2.441-2.333 5.058 3.705c.928.517 1.582.244 1.832-.854l3.32-15.557v-.001C22.232 1.13 21.442.594 20.538.93L1.021 8.402C-.31 8.92-.29 9.662.795 9.998l4.99 1.552 11.589-7.252c.545-.36 1.041-.16.633.2l-9.375 8.418z"/></symbol><symbol viewBox="0 0 32 32" id="time" xmlns="http://www.w3.org/2000/svg"><path d="M16 0C7.163 0 0 7.163 0 16s7.163 16 16 16 16-7.163 16-16C31.99 7.167 24.833.01 16 0zm0 29.714c-7.574 0-13.714-6.14-13.714-13.714C2.286 8.426 8.426 2.286 16 2.286c7.574 0 13.714 6.14 13.714 13.714-.008 7.57-6.143 13.706-13.714 13.714z"/><path d="M16 5.714c-.631 0-1.143.512-1.143 1.143v8h-8a1.143 1.143 0 100 2.286H16c.631 0 1.143-.512 1.143-1.143V6.857c0-.631-.512-1.143-1.143-1.143z"/></symbol><symbol viewBox="0 0 20 18" id="twitter" xmlns="http://www.w3.org/2000/svg"><path d="M17.945 4.928A8.185 8.185 0 0020 2.799a8.563 8.563 0 01-2.363.647 4.078 4.078 0 001.805-2.266 8.204 8.204 0 01-2.6.992 4.099 4.099 0 00-7.093 2.803c0 .326.028.638.095.936a11.608 11.608 0 01-8.451-4.29A4.135 4.135 0 00.83 3.695c0 1.42.73 2.678 1.821 3.408A4.053 4.053 0 01.8 6.597v.045a4.12 4.12 0 003.285 4.029 4.076 4.076 0 01-1.075.135c-.262 0-.527-.015-.776-.07.531 1.623 2.04 2.817 3.831 2.856a8.242 8.242 0 01-5.084 1.749A7.73 7.73 0 010 15.285a11.547 11.547 0 006.29 1.84c7.236 0 11.952-6.037 11.655-12.197z"/></symbol><symbol viewBox="0 0 28 28" id="user" xmlns="http://www.w3.org/2000/svg"><path d="M13.8 13.488c1.853 0 3.457-.665 4.769-1.976 1.31-1.311 1.975-2.915 1.975-4.768 0-1.853-.664-3.457-1.976-4.769C17.259.665 15.654 0 13.8 0c-1.853 0-3.457.665-4.768 1.976-1.311 1.31-1.976 2.915-1.976 4.768 0 1.853.665 3.457 1.976 4.768 1.311 1.31 2.916 1.976 4.768 1.976zM10.192 3.136C11.198 2.13 12.378 1.64 13.8 1.64c1.422 0 2.602.489 3.608 1.495 1.006 1.006 1.495 2.186 1.495 3.608 0 1.422-.489 2.602-1.495 3.608-1.006 1.006-2.186 1.495-3.608 1.495-1.421 0-2.601-.49-3.608-1.495-1.006-1.006-1.495-2.186-1.495-3.608 0-1.422.49-2.602 1.495-3.608zM25.6 21.53a16.651 16.651 0 00-.226-1.769 13.93 13.93 0 00-.435-1.778 8.79 8.79 0 00-.732-1.66 6.25 6.25 0 00-1.102-1.436 4.86 4.86 0 00-1.584-.996 5.474 5.474 0 00-2.022-.366c-.286 0-.563.118-1.096.465-.329.214-.713.462-1.142.736-.367.234-.864.453-1.478.651a5.868 5.868 0 01-1.807.292c-.6 0-1.208-.098-1.807-.292-.613-.198-1.11-.417-1.476-.65-.425-.272-.81-.52-1.143-.737-.533-.348-.81-.465-1.096-.465a5.45 5.45 0 00-2.022.367 4.858 4.858 0 00-1.584.995 6.255 6.255 0 00-1.102 1.437 8.802 8.802 0 00-.731 1.659 13.976 13.976 0 00-.435 1.778 16.549 16.549 0 00-.227 1.77 23.962 23.962 0 00-.056 1.654c0 1.461.465 2.645 1.38 3.517C4.584 27.563 5.78 28 7.237 28h13.482c1.456 0 2.653-.437 3.558-1.298.917-.872 1.381-2.055 1.381-3.518 0-.564-.019-1.12-.056-1.653zm-2.455 3.983c-.598.57-1.392.846-2.427.846H7.236c-1.035 0-1.83-.276-2.427-.845-.586-.558-.871-1.32-.871-2.33 0-.524.017-1.042.052-1.54a14.6 14.6 0 01.205-1.593c.1-.562.23-1.09.382-1.568a7.2 7.2 0 01.595-1.349c.237-.416.51-.774.81-1.062a3.22 3.22 0 011.055-.655c.386-.153.82-.237 1.292-.25.057.031.16.09.325.198.338.22.726.47 1.156.745.485.309 1.109.588 1.855.828.762.247 1.54.372 2.312.372.771 0 1.55-.125 2.311-.371.747-.242 1.37-.52 1.856-.83.44-.28.817-.524 1.155-.744.166-.108.268-.167.325-.197.472.012.906.096 1.293.249a3.23 3.23 0 011.053.655c.301.288.574.645.81 1.062.25.437.45.891.596 1.349.153.478.282 1.006.383 1.568.102.57.171 1.107.205 1.594.035.496.052 1.014.053 1.54 0 1.009-.286 1.77-.872 2.329z"/></symbol></svg>