<?xml version="1.0" encoding="utf-8"?><svg xmlns="http://www.w3.org/2000/svg" xmlns:xlink="http://www.w3.org/1999/xlink"><symbol viewBox="0 0 12 8" id="arrow-down" xmlns="http://www.w3.org/2000/svg"><path d="M10.59 0L6 4.58 1.41 0 0 1.41l6 6 6-6L10.59 0z"/></symbol><symbol viewBox="0 0 6 9" id="arrow-right" xmlns="http://www.w3.org/2000/svg"><path d="M.333 1.863l3.054 3.012L.333 7.888l.94.925 4-3.938-4-3.938-.94.926z"/></symbol><symbol viewBox="0 0 24 24" id="attach" xmlns="http://www.w3.org/2000/svg"><path d="M5.318 9.227h9.932c1.909 0 3.454 1.465 3.454 3.273s-1.545 3.273-3.454 3.273H4.455c-1.192 0-2.16-.917-2.16-2.046 0-1.129.968-2.045 2.16-2.045h9.068c.475 0 .863.368.863.818 0 .45-.388.818-.863.818H5.318v1.228h8.205c1.191 0 2.159-.917 2.159-2.046 0-1.13-.968-2.046-2.16-2.046H4.456C2.545 10.454 1 11.92 1 13.727 1 15.536 2.546 17 4.455 17H15.25c2.625 0 4.75-2.013 4.75-4.5S17.875 8 15.25 8H5.318v1.227z"/></symbol><symbol viewBox="0 0 1489.733 1698.268" id="bag" xmlns="http://www.w3.org/2000/svg"><path d="M1489.668 1540.226l-50.734-1145.759c-.896-84.585-70.35-153.199-155.591-153.199h-257.892C1004.523 106.268 886.593 0 744.689 0 602.747 0 484.784 106.268 463.85 241.268H206.313c-85.217 0-154.649 68.616-155.543 153.202L.064 1540.188a68.224 68.224 0 00-.064 2.933c0 85.543 69.797 155.146 155.592 155.146h1178.556c85.79 0 155.586-69.583 155.586-155.127a65.883 65.883 0 00-.066-2.914zM744.689 132.141c68.746 0 126.941 46.126 145.617 109.126H598.998c18.686-62.999 76.91-109.126 145.691-109.126zm589.458 1434.127H155.592c-12.811 0-22.917-9.645-23.43-22.062l50.674-1145.048c.043-.971.064-2.111.064-3.084 0-12.695 10.283-22.806 23.412-22.806H460v241.459c0 36.49 29.51 66.07 66 66.07s66-29.58 66-66.07V373.268h304v241.459c0 36.49 29.51 66.07 66 66.07s66-29.58 66-66.07V373.268h255.343c13.153 0 23.457 10.095 23.457 22.79 0 .974.021 2.023.064 2.998l50.706 1145.117c-.513 12.413-10.617 22.095-23.423 22.095z"/></symbol><symbol viewBox="0 0 29 28" id="clock" xmlns="http://www.w3.org/2000/svg"><path fill-rule="evenodd" clip-rule="evenodd" d="M14.113 0C6.33 0 0 6.28 0 14s6.33 14 14.113 14c7.783 0 14.113-6.28 14.113-14S21.896 0 14.113 0zm-.941 1.906V2.8a.927.927 0 00.581.863.948.948 0 001.23-.506.927.927 0 00.072-.357v-.894a12.225 12.225 0 017.018 2.878l-.643.638a.934.934 0 00-.236 1.036.933.933 0 00.522.518.948.948 0 001.044-.235l.643-.637a12.026 12.026 0 012.9 6.962h-.9c-.25 0-.49.098-.666.273a.93.93 0 000 1.32.945.945 0 00.665.274h.903a12.024 12.024 0 01-2.902 6.963l-.643-.638a.942.942 0 00-.674-.283.946.946 0 00-.875.583.926.926 0 00.22 1.023l.642.635a12.225 12.225 0 01-7.018 2.877V25.2a.927.927 0 00-.589-.876.947.947 0 00-1.027.214.93.93 0 00-.267.662v.895a12.223 12.223 0 01-7.018-2.878l.642-.635a.931.931 0 00-.684-1.606.945.945 0 00-.65.283l-.64.637a12.024 12.024 0 01-2.9-6.962h.902c.25 0 .489-.098.665-.273a.93.93 0 000-1.32.945.945 0 00-.665-.274h-.902a12.026 12.026 0 012.9-6.962l.64.637a.942.942 0 001.026.204.942.942 0 00.51-.504.928.928 0 00-.202-1.019l-.643-.638a12.223 12.223 0 017.019-2.878z"/><path d="M14.1 5.587a.947.947 0 00-.862.59.926.926 0 00-.066.358V14a.926.926 0 00.274.661l4.706 4.665a.94.94 0 001.04.226.943.943 0 00.518-.515.927.927 0 00-.228-1.03l-4.428-4.393v-7.08a.927.927 0 00-.587-.878.948.948 0 00-.368-.069z"/></symbol><symbol viewBox="0 0 64 64" id="close" xmlns="http://www.w3.org/2000/svg"><g fill-rule="evenodd"><path d="M14.732 14.732a2.5 2.5 0 013.536 0l30.405 30.406a2.5 2.5 0 11-3.535 3.535L14.732 18.268a2.5 2.5 0 010-3.536z"/><path d="M14.732 48.673a2.5 2.5 0 003.536 0l30.405-30.405a2.5 2.5 0 10-3.535-3.536L14.732 45.138a2.5 2.5 0 000 3.535z"/></g></symbol><symbol viewBox="0 0 24 24" id="download" xmlns="http://www.w3.org/2000/svg"><path d="M16.707 13.293a.999.999 0 00-1.414 0L13 15.586V8a1 1 0 10-2 0v7.586l-2.293-2.293a.999.999 0 10-1.414 1.414L12 19.414l4.707-4.707a.999.999 0 000-1.414z"/></symbol><symbol viewBox="0 0 19 19" id="instagram" xmlns="http://www.w3.org/2000/svg"><path fill-rule="evenodd" clip-rule="evenodd" d="M13.063 0H5.936A5.938 5.938 0 000 5.938v7.125A5.938 5.938 0 005.938 19h7.125A5.939 5.939 0 0019 13.062V5.939A5.938 5.938 0 0013.062 0zm4.156 13.063a4.161 4.161 0 01-4.157 4.156H5.939a4.161 4.161 0 01-4.157-4.157V5.939A4.16 4.16 0 015.938 1.78h7.125a4.161 4.161 0 014.156 4.157v7.125zM9.5 4.75a4.75 4.75 0 100 9.5 4.75 4.75 0 000-9.5zm0 7.719a2.969 2.969 0 110-5.938 2.969 2.969 0 010 5.938zm5.106-8.708a.633.633 0 110 1.266.633.633 0 010-1.266z"/></symbol><symbol viewBox="0 0 26 26" id="mail" xmlns="http://www.w3.org/2000/svg"><path d="M23.23 4H2.77C1.795 4 1 4.844 1 5.88v14.24C1 21.155 1.794 22 2.77 22h20.46c.976 0 1.77-.844 1.77-1.88V5.88C25 4.845 24.206 4 23.23 4zm-7.563 9L23.5 7.347v11.306L15.667 13zm7.562-7.5c.054 0 .108.032.155.08L13 13.076 2.616 5.581c.047-.049.101-.081.155-.081h20.458zM2.5 18.653V7.347L10.333 13 2.5 18.653zm.27 1.847c-.053 0-.107-.032-.154-.08l8.998-6.495.948.683c.022.017.048.023.072.037a.745.745 0 00.365.105h.002a.745.745 0 00.365-.105c.024-.014.05-.02.072-.037l.947-.683 9 6.494c-.048.049-.102.081-.156.081H2.771z"/></symbol><symbol viewBox="0 0 19 19" id="phone" xmlns="http://www.w3.org/2000/svg"><path d="M15.045 17.915a.524.524 0 01-.29.083l-.424-.006a1.931 1.931 0 01-.333-.033l-.05-.01c-.17-.032-.351-.065-.523-.107-.984-.245-1.967-.697-3.094-1.42-1.382-.886-2.744-2.02-4.285-3.568A25.961 25.961 0 012.78 8.979c-.814-1.212-1.302-2.21-1.584-3.257A7.44 7.44 0 011.06 5.1l-.05-.258L1 4.735v-.498c0-.07.014-.14.04-.206.3-.724.81-1.235 1.31-1.696.364-.34.748-.65 1.108-.936a1.761 1.761 0 011.568-.34c.35.083.655.3.85.603l.465.702c.487.741.988 1.506 1.498 2.245a1.794 1.794 0 01.145 1.87c-.09.199-.194.382-.295.56l-.127.23-.042.076a.724.724 0 00.074.816c.288.34.587.706.893 1.035a22.903 22.903 0 001.721 1.702c.595.529 1.462.583 2.162.204a1.916 1.916 0 011.38-.24c.168.038.328.106.473.2 1.052.693 2.103 1.388 3.15 2.086.547.365.766 1.11.537 1.813a1.67 1.67 0 01-.231.471 10.168 10.168 0 01-1.933 2.058c-.16.12-.332.228-.51.32l-.19.105zm-.808-1.02a.87.87 0 00.166.016h.115a.415.415 0 00.196-.05c.126-.064.246-.137.36-.22a9.133 9.133 0 001.722-1.853.643.643 0 00.075-.17.52.52 0 00.033-.3c-.037-.198-.223-.323-.392-.435a621.36 621.36 0 00-2.89-1.911.378.378 0 00-.117-.05.865.865 0 00-.62.13c-.458.246-.867.477-1.253.705a.796.796 0 01-.942-.054 23.582 23.582 0 01-2.999-2.77 24.63 24.63 0 01-.933-1.082C6.6 8.666 6.44 8.482 6.29 8.3a.729.729 0 01-.066-.896c.134-.22.258-.445.383-.668l.132-.236c.094-.17.18-.32.25-.474a.715.715 0 00-.05-.797c-.51-.75-1.02-1.521-1.51-2.266l-.454-.697a.31.31 0 00-.206-.142.68.68 0 00-.63.125c-.34.278-.711.575-1.05.888-.343.315-.669.633-.894 1.014a.828.828 0 00-.105.424c0 .07.007.14.02.208l.022.116c.036.19.07.369.116.539.248.92.692 1.823 1.436 2.932a24.926 24.926 0 003.133 3.715c1.493 1.497 2.79 2.576 4.104 3.421 1.02.658 1.904 1.064 2.768 1.28.15.037.302.064.455.092l.093.018z"/></symbol><symbol viewBox="0 0 20 20" id="search" xmlns="http://www.w3.org/2000/svg"><path d="M12.9 14.32a8 8 0 111.41-1.41l5.35 5.33-1.42 1.42-5.33-5.34zM8 14A6 6 0 108 2a6 6 0 000 12z"/></symbol><symbol viewBox="0 0 24 24" id="viber" xmlns="http://www.w3.org/2000/svg"><path d="M11.398.002C9.473.028 5.331.344 3.014 2.467 1.294 4.177.693 6.698.623 9.82c-.06 3.11-.13 8.95 5.5 10.541v2.42s-.038.97.602 1.17c.79.25 1.24-.499 1.99-1.299l1.4-1.58c3.85.32 6.8-.419 7.14-.529.78-.25 5.181-.811 5.901-6.652.74-6.031-.36-9.831-2.34-11.551l-.01-.002c-.6-.55-3-2.3-8.37-2.32 0 0-.396-.025-1.038-.016zm.067 1.697c.545-.003.88.02.88.02 4.54.01 6.711 1.38 7.221 1.84 1.67 1.429 2.528 4.856 1.9 9.892-.6 4.88-4.17 5.19-4.83 5.4-.28.09-2.88.73-6.152.52 0 0-2.439 2.941-3.199 3.701-.12.13-.26.17-.35.15-.13-.03-.17-.19-.16-.41l.02-4.019c-4.771-1.32-4.491-6.302-4.441-8.902.06-2.6.55-4.732 2-6.172 1.957-1.77 5.475-2.01 7.11-2.02zm.36 2.6a.299.299 0 00-.3.299.3.3 0 00.3.3 5.631 5.631 0 014.03 1.59c1.09 1.06 1.621 2.48 1.641 4.34a.3.3 0 00.3.3v-.009a.3.3 0 00.3-.3 6.451 6.451 0 00-1.81-4.76c-1.19-1.16-2.692-1.76-4.462-1.76zm-3.954.69a.955.955 0 00-.615.12h-.012c-.41.24-.788.54-1.148.94-.27.32-.421.639-.461.949a1.24 1.24 0 00.05.541l.02.01a13.722 13.722 0 001.2 2.6 15.383 15.383 0 002.32 3.171l.03.04.04.03.03.03.03.03a15.603 15.603 0 003.18 2.33c1.32.72 2.122 1.06 2.602 1.2v.01c.14.04.268.06.398.06a1.84 1.84 0 001.102-.472c.39-.35.7-.738.93-1.148v-.01c.23-.43.15-.841-.18-1.121a13.632 13.632 0 00-2.15-1.54c-.51-.28-1.03-.11-1.24.17l-.45.569c-.23.28-.65.24-.65.24l-.012.01c-3.12-.8-3.95-3.959-3.95-3.959s-.04-.43.25-.65l.56-.45c.27-.22.46-.74.17-1.25a13.522 13.522 0 00-1.54-2.15.843.843 0 00-.504-.3zm4.473.89a.3.3 0 00.002.6 3.78 3.78 0 012.65 1.15 3.5 3.5 0 01.9 2.57.3.3 0 00.3.299l.01.012a.3.3 0 00.3-.301c.03-1.19-.34-2.19-1.07-2.99-.73-.8-1.75-1.25-3.05-1.34a.3.3 0 00-.042 0zm.49 1.619a.305.305 0 00-.018.611c.99.05 1.47.55 1.53 1.58a.3.3 0 00.3.29h.01a.3.3 0 00.29-.32c-.07-1.34-.8-2.091-2.1-2.161a.305.305 0 00-.012 0z"/></symbol></svg>