<svg width="24" height="24" viewBox="0 0 24 24" fill="none" xmlns="http://www.w3.org/2000/svg">
<g clip-path="url(#clip0)">
<path d="M23.7073 9.18293H19.6816L15.4523 2.13399C15.2425 1.78383 14.7874 1.66951 14.4358 1.88005C14.0849 2.09059 13.9713 2.54564 14.1819 2.89654L17.9537 9.18293H5.75362L9.52544 2.89649C9.73598 2.54559 9.62241 2.09054 9.27151 1.88C8.91916 1.66946 8.46556 1.78378 8.25502 2.13394L4.02571 9.18288H0V10.6646H1.60796L3.4901 20.7044C3.68688 21.7557 4.6057 22.5183 5.67506 22.5183H18.0323C19.1016 22.5183 20.0204 21.7557 20.2165 20.7052L22.0993 10.6646H23.7073C23.7073 10.6646 23.7073 9.18293 23.7073 9.18293ZM18.76 20.4325C18.695 20.7826 18.3889 21.0366 18.0322 21.0366H5.67506C5.31838 21.0366 5.01237 20.7827 4.94653 20.4318L3.11501 10.6646H20.5923L18.76 20.4325Z" fill="black"/>
</g>
<defs>
<clipPath id="clip0">
<rect width="23.7073" height="23.7073" fill="white" transform="translate(0 0.292725)"/>
</clipPath>
</defs>
</svg>
