<svg width="23" height="24" viewBox="0 0 23 24" fill="none" xmlns="http://www.w3.org/2000/svg">
<g clip-path="url(#clip0)">
<path d="M16.4195 1.92053C13.793 1.92053 12.0565 3.35469 11.1951 4.30356C10.3337 3.35477 8.59722 1.92053 5.97071 1.92053C2.38687 1.92053 0 5.25322 0 8.98656C0 11.78 1.40861 17.2221 10.8422 22.2835C11.0625 22.4017 11.3276 22.4018 11.548 22.2835C20.9816 17.222 22.3902 11.78 22.3902 8.98656C22.3902 5.16659 19.9327 1.92053 16.4195 1.92053ZM11.1951 20.7766C6.66375 18.2851 1.49267 14.1339 1.49267 8.98656C1.49267 6.1232 3.21212 3.41324 5.97071 3.41324C8.06353 3.41324 9.79506 4.69648 10.5613 5.90472C10.8533 6.37452 11.5393 6.37404 11.8302 5.90271C11.8456 5.87782 13.4018 3.4132 16.4195 3.4132C19.1986 3.4132 20.8975 6.15035 20.8975 8.98652C20.8975 14.134 15.7266 18.2851 11.1951 20.7766Z" fill="black"/>
</g>
<defs>
<clipPath id="clip0">
<rect width="22.3902" height="22.3902" fill="white" transform="translate(0 0.951294)"/>
</clipPath>
</defs>
</svg>
