<svg width="14" height="13" viewBox="0 0 14 13" fill="none" xmlns="http://www.w3.org/2000/svg">
<path d="M13.1958 1.15077H5.01397C4.78903 0.482685 4.15712 0 3.41414 0C2.67117 0 2.03925 0.482685 1.81431 1.15077H0.537192C0.240519 1.15077 0 1.39129 0 1.68797C0 1.98464 0.240519 2.22516 0.537192 2.22516H1.81435C2.03929 2.89325 2.67121 3.37593 3.41418 3.37593C4.15715 3.37593 4.78907 2.89325 5.01401 2.22516H13.1958C13.4925 2.22516 13.733 1.98464 13.733 1.68797C13.733 1.39129 13.4925 1.15077 13.1958 1.15077ZM3.41414 2.30155C3.07582 2.30155 2.80056 2.02629 2.80056 1.68797C2.80056 1.34964 3.07582 1.07438 3.41414 1.07438C3.75247 1.07438 4.02772 1.34964 4.02772 1.68797C4.02772 2.02629 3.75247 2.30155 3.41414 2.30155Z" fill="black"/>
<path d="M13.1958 5.7538H11.9186C11.6937 5.08571 11.0618 4.60303 10.3188 4.60303C9.57588 4.60303 8.94396 5.08571 8.71902 5.7538H0.537192C0.240519 5.7538 0 5.99432 0 6.29099C0 6.58767 0.240519 6.82818 0.537192 6.82818H8.71902C8.94396 7.49627 9.57592 7.97896 10.3189 7.97896C11.0618 7.97896 11.6937 7.49627 11.9187 6.82818H13.1958C13.4925 6.82818 13.733 6.58767 13.733 6.29099C13.733 5.99432 13.4925 5.7538 13.1958 5.7538ZM10.3189 6.90457C9.98053 6.90457 9.70527 6.62932 9.70527 6.29099C9.70527 5.95267 9.98053 5.67741 10.3189 5.67741C10.6572 5.67741 10.9324 5.95267 10.9324 6.29099C10.9324 6.62932 10.6572 6.90457 10.3189 6.90457Z" fill="black"/>
<path d="M13.1958 10.3571H7.31556C7.09061 9.68898 6.4587 9.2063 5.71573 9.2063C4.97275 9.2063 4.34084 9.68898 4.1159 10.3571H0.537192C0.240519 10.3571 0 10.5976 0 10.8943C0 11.1909 0.240519 11.4315 0.537192 11.4315H4.1159C4.34084 12.0995 4.97275 12.5822 5.71573 12.5822C6.4587 12.5822 7.09061 12.0995 7.31556 11.4315H13.1958C13.4925 11.4315 13.733 11.1909 13.733 10.8943C13.733 10.5976 13.4925 10.3571 13.1958 10.3571ZM5.71573 11.5079C5.3774 11.5079 5.10214 11.2326 5.10214 10.8943C5.10214 10.556 5.3774 10.2807 5.71573 10.2807C6.05405 10.2807 6.32931 10.5559 6.32931 10.8943C6.32931 11.2326 6.05405 11.5079 5.71573 11.5079Z" fill="black"/>
</svg>
