<svg width="15" height="15" viewBox="0 0 15 15" fill="none" xmlns="http://www.w3.org/2000/svg">
<path d="M14.4181 7.1178L7.99939 0.69913C7.55528 0.255011 6.94071 0 6.31215 0H1.36365C0.611911 0 0 0.611559 0 1.36365V6.31183C0 6.9487 0.248363 7.54831 0.69913 7.99939L7.1178 14.4181C7.49334 14.7933 7.99271 15 8.52271 15C9.05271 15 9.55209 14.7932 9.92762 14.4181L14.418 9.92765C14.7936 9.55279 15 9.05373 15 8.52274C15 7.99176 14.7936 7.49266 14.4181 7.1178ZM3.69144 4.17366L2.96831 4.89692C2.90173 4.96349 2.81448 4.99679 2.72726 4.99679C2.64004 4.99679 2.55282 4.96349 2.48622 4.89692C2.35304 4.76374 2.35304 4.54801 2.48622 4.41486L3.45001 3.45091C3.45001 3.45091 3.45017 3.45059 3.45033 3.4504C3.45049 3.45024 3.45065 3.45024 3.45065 3.45024L4.41445 2.48628C4.54229 2.35844 4.76866 2.35844 4.8965 2.48628L5.86065 3.45043C5.99382 3.58361 5.99382 3.79934 5.86065 3.93248C5.72747 4.06566 5.51174 4.06566 5.37859 3.93248L4.65549 3.20938L4.17343 3.69154L4.65549 4.17385C4.78867 4.30703 4.78867 4.52276 4.65549 4.6559C4.58892 4.72248 4.50167 4.75578 4.41445 4.75578C4.32723 4.75578 4.24001 4.72248 4.1734 4.6559L3.69144 4.17366ZM5.61967 7.88952C5.53245 7.88952 5.44523 7.85621 5.37862 7.78964C5.24544 7.65646 5.24544 7.44041 5.37862 7.30758L5.86135 6.82518C5.99386 6.69235 5.99386 6.47594 5.86135 6.34277L5.61963 6.10207L4.89653 6.82518C4.76336 6.95835 4.54762 6.95835 4.41448 6.82518C4.2813 6.692 4.2813 6.47626 4.41448 6.34312L5.36996 5.38831C5.37261 5.38498 5.3753 5.38198 5.37862 5.37897C5.38128 5.37597 5.38463 5.37297 5.38795 5.36999L6.34344 4.41486C6.47662 4.28168 6.69235 4.28168 6.82549 4.41486L7.30755 4.89692C7.70638 5.29575 7.70638 5.94429 7.30755 6.34312C7.12777 6.52289 6.89274 6.62776 6.64038 6.64108C6.62705 6.88379 6.52785 7.1225 6.34341 7.30726L5.86068 7.78967C5.79414 7.85621 5.70689 7.88952 5.61967 7.88952ZM7.78964 9.23584C7.92282 9.36902 7.92282 9.58475 7.78964 9.7179C7.72307 9.78447 7.63581 9.81777 7.5486 9.81777C7.46138 9.81777 7.37416 9.78447 7.30755 9.7179L6.34341 8.75375C6.21023 8.62057 6.21023 8.40484 6.34341 8.2717L8.27166 6.34309C8.33558 6.27917 8.42213 6.24321 8.51271 6.24321C8.60328 6.24321 8.68983 6.27917 8.75375 6.34309L9.7179 7.30755C9.85108 7.44073 9.85108 7.65646 9.7179 7.78961C9.58472 7.92279 9.36899 7.92279 9.23584 7.78961L8.51274 7.06619L8.03056 7.54847L8.51274 8.03065C8.64592 8.16383 8.64592 8.37956 8.51274 8.51271C8.44617 8.57928 8.35892 8.61258 8.2717 8.61258C8.18448 8.61258 8.09726 8.57928 8.03065 8.51271L7.54853 8.03059L7.06651 8.51271L7.78964 9.23584ZM11.6462 9.7179C11.513 9.85108 11.2973 9.85108 11.1641 9.7179L10.441 8.9948L9.95897 9.47685L10.441 9.95891C10.5742 10.0921 10.5742 10.3078 10.441 10.441C10.3745 10.5075 10.2872 10.5408 10.2 10.5408C10.1128 10.5408 10.0255 10.5075 9.95894 10.441L9.47688 9.95891L8.99483 10.441L9.71793 11.1644C9.85111 11.2976 9.85111 11.5133 9.71793 11.6464C9.65136 11.713 9.5641 11.7463 9.47688 11.7463C9.38967 11.7463 9.30245 11.713 9.23584 11.6464L8.2717 10.682C8.13852 10.5488 8.13852 10.3331 8.2717 10.1999L10.2 8.27166C10.3331 8.13849 10.5489 8.13849 10.682 8.27166L11.6462 9.23581C11.7794 9.36902 11.7794 9.58475 11.6462 9.7179Z" fill="black"/>
<path d="M6.58393 5.9609H6.5846C6.67581 5.9609 6.76105 5.92527 6.82564 5.86103C6.95882 5.7282 6.95882 5.5118 6.82564 5.37897L6.5846 5.13792L6.10254 5.61998L6.34358 5.86067C6.40814 5.92562 6.49338 5.9609 6.58393 5.9609Z" fill="black"/>
</svg>
