<svg width="175" height="68" viewBox="0 0 175 68" fill="none" xmlns="http://www.w3.org/2000/svg">
<path d="M5.278 4.2C6.51 4.2 7.476 4.494 8.176 5.082C8.876 5.66067 9.226 6.468 9.226 7.504C9.226 8.53067 8.876 9.338 8.176 9.926C7.476 10.5047 6.51 10.794 5.278 10.794H2.478V14H1.764V4.2H5.278ZM5.278 10.15C6.32333 10.15 7.12133 9.92133 7.672 9.464C8.22267 9.00667 8.498 8.35333 8.498 7.504C8.498 6.65467 8.22267 6.00133 7.672 5.544C7.12133 5.07733 6.32333 4.844 5.278 4.844H2.478V10.15H5.278ZM13.6137 6.636C14.519 6.636 15.2144 6.86933 15.6997 7.336C16.185 7.79333 16.4277 8.47 16.4277 9.366V14H15.7557V12.698C15.5224 13.1273 15.1817 13.4633 14.7337 13.706C14.2857 13.9393 13.749 14.056 13.1237 14.056C12.3117 14.056 11.6677 13.8647 11.1917 13.482C10.725 13.0993 10.4917 12.5953 10.4917 11.97C10.4917 11.3633 10.7064 10.8733 11.1357 10.5C11.5744 10.1173 12.2697 9.926 13.2217 9.926H15.7277V9.338C15.7277 8.65667 15.541 8.13867 15.1677 7.784C14.8037 7.42933 14.267 7.252 13.5577 7.252C13.0724 7.252 12.6057 7.336 12.1577 7.504C11.719 7.672 11.3457 7.896 11.0377 8.176L10.6877 7.672C11.0517 7.34533 11.4904 7.09333 12.0037 6.916C12.517 6.72933 13.0537 6.636 13.6137 6.636ZM13.2217 13.482C13.8284 13.482 14.3417 13.342 14.7617 13.062C15.191 12.782 15.513 12.376 15.7277 11.844V10.472H13.2357C12.517 10.472 11.9944 10.6027 11.6677 10.864C11.3504 11.1253 11.1917 11.4847 11.1917 11.942C11.1917 12.418 11.369 12.796 11.7237 13.076C12.0784 13.3467 12.5777 13.482 13.2217 13.482ZM22.328 10.192C22.8694 10.2947 23.2847 10.5 23.574 10.808C23.8727 11.1067 24.022 11.4753 24.022 11.914C24.022 12.3433 23.8774 12.7213 23.588 13.048C23.308 13.3747 22.9254 13.6267 22.44 13.804C21.9547 13.9813 21.4274 14.07 20.858 14.07C20.3354 14.07 19.822 13.9907 19.318 13.832C18.8234 13.664 18.3894 13.426 18.016 13.118L18.296 12.6C18.6227 12.88 19.01 13.0947 19.458 13.244C19.9154 13.3933 20.3774 13.468 20.844 13.468C21.5347 13.468 22.118 13.3233 22.594 13.034C23.07 12.7353 23.308 12.3433 23.308 11.858C23.308 11.4287 23.1074 11.0927 22.706 10.85C22.314 10.598 21.782 10.472 21.11 10.472H19.934V9.94H21.082C21.67 9.94 22.1507 9.82333 22.524 9.59C22.9067 9.35667 23.098 9.044 23.098 8.652C23.098 8.19467 22.888 7.84467 22.468 7.602C22.0574 7.35 21.53 7.224 20.886 7.224C20.0647 7.224 19.29 7.434 18.562 7.854L18.352 7.294C19.1734 6.83667 20.046 6.608 20.97 6.608C21.782 6.608 22.4587 6.78533 23 7.14C23.5414 7.48533 23.812 7.95667 23.812 8.554C23.812 8.93667 23.6767 9.27267 23.406 9.562C23.1354 9.85133 22.776 10.0613 22.328 10.192ZM30.1452 6.636C30.8265 6.636 31.4425 6.79467 31.9932 7.112C32.5438 7.42933 32.9732 7.868 33.2812 8.428C33.5985 8.988 33.7572 9.62733 33.7572 10.346C33.7572 11.0647 33.5985 11.7087 33.2812 12.278C32.9732 12.838 32.5438 13.2767 31.9932 13.594C31.4425 13.902 30.8265 14.056 30.1452 14.056C29.5012 14.056 28.9178 13.9067 28.3952 13.608C27.8725 13.3 27.4665 12.8753 27.1772 12.334V16.716H26.4772V6.692H27.1492V8.414C27.4385 7.854 27.8445 7.42 28.3672 7.112C28.8992 6.79467 29.4918 6.636 30.1452 6.636ZM30.1032 13.426C30.6632 13.426 31.1672 13.2953 31.6152 13.034C32.0632 12.7727 32.4132 12.4087 32.6652 11.942C32.9265 11.4753 33.0572 10.9433 33.0572 10.346C33.0572 9.74867 32.9265 9.21667 32.6652 8.75C32.4132 8.28333 32.0632 7.91933 31.6152 7.658C31.1672 7.39667 30.6632 7.266 30.1032 7.266C29.5432 7.266 29.0392 7.39667 28.5912 7.658C28.1525 7.91933 27.8025 8.28333 27.5412 8.75C27.2892 9.21667 27.1632 9.74867 27.1632 10.346C27.1632 10.9433 27.2892 11.4753 27.5412 11.942C27.8025 12.4087 28.1525 12.7727 28.5912 13.034C29.0392 13.2953 29.5432 13.426 30.1032 13.426ZM38.4281 6.636C39.3335 6.636 40.0288 6.86933 40.5141 7.336C40.9995 7.79333 41.2421 8.47 41.2421 9.366V14H40.5701V12.698C40.3368 13.1273 39.9961 13.4633 39.5481 13.706C39.1001 13.9393 38.5635 14.056 37.9381 14.056C37.1261 14.056 36.4821 13.8647 36.0061 13.482C35.5395 13.0993 35.3061 12.5953 35.3061 11.97C35.3061 11.3633 35.5208 10.8733 35.9501 10.5C36.3888 10.1173 37.0841 9.926 38.0361 9.926H40.5421V9.338C40.5421 8.65667 40.3555 8.13867 39.9821 7.784C39.6181 7.42933 39.0815 7.252 38.3721 7.252C37.8868 7.252 37.4201 7.336 36.9721 7.504C36.5335 7.672 36.1601 7.896 35.8521 8.176L35.5021 7.672C35.8661 7.34533 36.3048 7.09333 36.8181 6.916C37.3315 6.72933 37.8681 6.636 38.4281 6.636ZM38.0361 13.482C38.6428 13.482 39.1561 13.342 39.5761 13.062C40.0055 12.782 40.3275 12.376 40.5421 11.844V10.472H38.0501C37.3315 10.472 36.8088 10.6027 36.4821 10.864C36.1648 11.1253 36.0061 11.4847 36.0061 11.942C36.0061 12.418 36.1835 12.796 36.5381 13.076C36.8928 13.3467 37.3921 13.482 38.0361 13.482ZM47.4742 6.804C48.1556 6.804 48.7576 6.958 49.2802 7.266C49.8122 7.56467 50.2276 7.98467 50.5262 8.526C50.8249 9.06733 50.9742 9.69267 50.9742 10.402C50.9742 11.1113 50.8202 11.746 50.5122 12.306C50.2136 12.8567 49.7889 13.2907 49.2382 13.608C48.6969 13.916 48.0762 14.07 47.3762 14.07C46.5736 14.07 45.8876 13.874 45.3182 13.482C44.7582 13.09 44.3289 12.5347 44.0302 11.816C43.7409 11.0973 43.5962 10.2573 43.5962 9.296C43.5962 8.204 43.7269 7.29867 43.9882 6.58C44.2589 5.86133 44.6602 5.29667 45.1922 4.886C45.7336 4.466 46.4242 4.15333 47.2642 3.948L50.4982 3.164L50.6102 3.822L47.5302 4.55C46.7742 4.72733 46.1582 4.98867 45.6822 5.334C45.2156 5.67 44.8656 6.132 44.6322 6.72C44.3989 7.308 44.2776 8.05933 44.2682 8.974C44.5109 8.302 44.9169 7.77467 45.4862 7.392C46.0556 7 46.7182 6.804 47.4742 6.804ZM47.3902 13.468C47.9409 13.468 48.4356 13.3373 48.8742 13.076C49.3129 12.8147 49.6536 12.4553 49.8962 11.998C50.1389 11.5313 50.2602 11.004 50.2602 10.416C50.2602 9.828 50.1389 9.31 49.8962 8.862C49.6536 8.40467 49.3129 8.05467 48.8742 7.812C48.4449 7.56 47.9502 7.434 47.3902 7.434C46.8302 7.434 46.3309 7.56 45.8922 7.812C45.4536 8.05467 45.1129 8.40467 44.8702 8.862C44.6276 9.31 44.5062 9.828 44.5062 10.416C44.5062 11.004 44.6276 11.5313 44.8702 11.998C45.1129 12.4553 45.4536 12.8147 45.8922 13.076C46.3309 13.3373 46.8302 13.468 47.3902 13.468ZM56.1857 14.056C55.4951 14.056 54.8697 13.8973 54.3097 13.58C53.7591 13.2627 53.3251 12.824 53.0077 12.264C52.6904 11.6947 52.5317 11.0553 52.5317 10.346C52.5317 9.63667 52.6904 9.002 53.0077 8.442C53.3251 7.87267 53.7591 7.42933 54.3097 7.112C54.8697 6.79467 55.4951 6.636 56.1857 6.636C56.8764 6.636 57.4971 6.79467 58.0477 7.112C58.6077 7.42933 59.0464 7.87267 59.3637 8.442C59.6811 9.002 59.8397 9.63667 59.8397 10.346C59.8397 11.0553 59.6811 11.6947 59.3637 12.264C59.0464 12.824 58.6077 13.2627 58.0477 13.58C57.4971 13.8973 56.8764 14.056 56.1857 14.056ZM56.1857 13.426C56.7457 13.426 57.2451 13.2953 57.6837 13.034C58.1317 12.7727 58.4817 12.4087 58.7337 11.942C58.9951 11.4753 59.1257 10.9433 59.1257 10.346C59.1257 9.74867 58.9951 9.21667 58.7337 8.75C58.4817 8.28333 58.1317 7.91933 57.6837 7.658C57.2451 7.39667 56.7457 7.266 56.1857 7.266C55.6257 7.266 55.1217 7.39667 54.6737 7.658C54.2351 7.91933 53.8851 8.28333 53.6237 8.75C53.3717 9.21667 53.2457 9.74867 53.2457 10.346C53.2457 10.9433 53.3717 11.4753 53.6237 11.942C53.8851 12.4087 54.2351 12.7727 54.6737 13.034C55.1217 13.2953 55.6257 13.426 56.1857 13.426ZM66.732 7.322H63.876V14H63.176V7.322H60.32V6.692H66.732V7.322ZM70.6528 6.636C71.5581 6.636 72.2534 6.86933 72.7388 7.336C73.2241 7.79333 73.4668 8.47 73.4668 9.366V14H72.7948V12.698C72.5614 13.1273 72.2208 13.4633 71.7728 13.706C71.3248 13.9393 70.7881 14.056 70.1628 14.056C69.3508 14.056 68.7068 13.8647 68.2308 13.482C67.7641 13.0993 67.5308 12.5953 67.5308 11.97C67.5308 11.3633 67.7454 10.8733 68.1748 10.5C68.6134 10.1173 69.3088 9.926 70.2608 9.926H72.7668V9.338C72.7668 8.65667 72.5801 8.13867 72.2068 7.784C71.8428 7.42933 71.3061 7.252 70.5968 7.252C70.1114 7.252 69.6448 7.336 69.1968 7.504C68.7581 7.672 68.3848 7.896 68.0768 8.176L67.7268 7.672C68.0908 7.34533 68.5294 7.09333 69.0428 6.916C69.5561 6.72933 70.0928 6.636 70.6528 6.636ZM70.2608 13.482C70.8674 13.482 71.3808 13.342 71.8008 13.062C72.2301 12.782 72.5521 12.376 72.7668 11.844V10.472H70.2748C69.5561 10.472 69.0334 10.6027 68.7068 10.864C68.3894 11.1253 68.2308 11.4847 68.2308 11.942C68.2308 12.418 68.4081 12.796 68.7628 13.076C69.1174 13.3467 69.6168 13.482 70.2608 13.482ZM76.3108 6.692H77.0108V10.024H81.9668V6.692H82.6668V14H81.9668V10.64H77.0108V14H76.3108V6.692ZM88.6017 14.056C87.9111 14.056 87.2857 13.8973 86.7257 13.58C86.1751 13.2627 85.7411 12.824 85.4237 12.264C85.1064 11.6947 84.9477 11.0553 84.9477 10.346C84.9477 9.63667 85.1064 9.002 85.4237 8.442C85.7411 7.87267 86.1751 7.42933 86.7257 7.112C87.2857 6.79467 87.9111 6.636 88.6017 6.636C89.2924 6.636 89.9131 6.79467 90.4637 7.112C91.0237 7.42933 91.4624 7.87267 91.7797 8.442C92.0971 9.002 92.2557 9.63667 92.2557 10.346C92.2557 11.0553 92.0971 11.6947 91.7797 12.264C91.4624 12.824 91.0237 13.2627 90.4637 13.58C89.9131 13.8973 89.2924 14.056 88.6017 14.056ZM88.6017 13.426C89.1617 13.426 89.6611 13.2953 90.0997 13.034C90.5477 12.7727 90.8977 12.4087 91.1497 11.942C91.4111 11.4753 91.5417 10.9433 91.5417 10.346C91.5417 9.74867 91.4111 9.21667 91.1497 8.75C90.8977 8.28333 90.5477 7.91933 90.0997 7.658C89.6611 7.39667 89.1617 7.266 88.6017 7.266C88.0417 7.266 87.5377 7.39667 87.0897 7.658C86.6511 7.91933 86.3011 8.28333 86.0397 8.75C85.7877 9.21667 85.6617 9.74867 85.6617 10.346C85.6617 10.9433 85.7877 11.4753 86.0397 11.942C86.3011 12.4087 86.6511 12.7727 87.0897 13.034C87.5377 13.2953 88.0417 13.426 88.6017 13.426ZM100.609 10.612H98.8311V14H98.1311V6.692H98.8311V10.01H100.609L103.367 6.692H104.137L101.169 10.234L104.361 14H103.521L100.609 10.612ZM108.74 14.056C108.05 14.056 107.424 13.8973 106.864 13.58C106.314 13.2627 105.88 12.824 105.562 12.264C105.245 11.6947 105.086 11.0553 105.086 10.346C105.086 9.63667 105.245 9.002 105.562 8.442C105.88 7.87267 106.314 7.42933 106.864 7.112C107.424 6.79467 108.05 6.636 108.74 6.636C109.431 6.636 110.052 6.79467 110.602 7.112C111.162 7.42933 111.601 7.87267 111.918 8.442C112.236 9.002 112.394 9.63667 112.394 10.346C112.394 11.0553 112.236 11.6947 111.918 12.264C111.601 12.824 111.162 13.2627 110.602 13.58C110.052 13.8973 109.431 14.056 108.74 14.056ZM108.74 13.426C109.3 13.426 109.8 13.2953 110.238 13.034C110.686 12.7727 111.036 12.4087 111.288 11.942C111.55 11.4753 111.68 10.9433 111.68 10.346C111.68 9.74867 111.55 9.21667 111.288 8.75C111.036 8.28333 110.686 7.91933 110.238 7.658C109.8 7.39667 109.3 7.266 108.74 7.266C108.18 7.266 107.676 7.39667 107.228 7.658C106.79 7.91933 106.44 8.28333 106.178 8.75C105.926 9.21667 105.8 9.74867 105.8 10.346C105.8 10.9433 105.926 11.4753 106.178 11.942C106.44 12.4087 106.79 12.7727 107.228 13.034C107.676 13.2953 108.18 13.426 108.74 13.426ZM122.626 6.692V14H121.982V7.812L118.804 13.062H118.482L115.318 7.826V14H114.674V6.692H115.36L118.664 12.222L121.982 6.692H122.626ZM128.075 6.636C128.98 6.636 129.675 6.86933 130.161 7.336C130.646 7.79333 130.889 8.47 130.889 9.366V14H130.217V12.698C129.983 13.1273 129.643 13.4633 129.195 13.706C128.747 13.9393 128.21 14.056 127.585 14.056C126.773 14.056 126.129 13.8647 125.653 13.482C125.186 13.0993 124.953 12.5953 124.953 11.97C124.953 11.3633 125.167 10.8733 125.597 10.5C126.035 10.1173 126.731 9.926 127.683 9.926H130.189V9.338C130.189 8.65667 130.002 8.13867 129.629 7.784C129.265 7.42933 128.728 7.252 128.019 7.252C127.533 7.252 127.067 7.336 126.619 7.504C126.18 7.672 125.807 7.896 125.499 8.176L125.149 7.672C125.513 7.34533 125.951 7.09333 126.465 6.916C126.978 6.72933 127.515 6.636 128.075 6.636ZM127.683 13.482C128.289 13.482 128.803 13.342 129.223 13.062C129.652 12.782 129.974 12.376 130.189 11.844V10.472H127.697C126.978 10.472 126.455 10.6027 126.129 10.864C125.811 11.1253 125.653 11.4847 125.653 11.942C125.653 12.418 125.83 12.796 126.185 13.076C126.539 13.3467 127.039 13.482 127.683 13.482ZM133.733 6.692H134.433V10.024H139.389V6.692H140.089V14H139.389V10.64H134.433V14H133.733V6.692ZM149.986 13.384V15.82H149.328V14H142.412V15.82H141.74V13.384H142.174C142.668 13.356 143.004 12.9733 143.182 12.236C143.368 11.4893 143.499 10.444 143.574 9.1L143.672 6.692H148.81V13.384H149.986ZM144.218 9.142C144.171 10.2527 144.078 11.1767 143.938 11.914C143.798 12.6513 143.546 13.1413 143.182 13.384H148.11V7.322H144.302L144.218 9.142ZM154.965 14.056C154.274 14.056 153.649 13.8973 153.089 13.58C152.538 13.2627 152.104 12.824 151.787 12.264C151.47 11.6947 151.311 11.0553 151.311 10.346C151.311 9.63667 151.47 9.002 151.787 8.442C152.104 7.87267 152.538 7.42933 153.089 7.112C153.649 6.79467 154.274 6.636 154.965 6.636C155.656 6.636 156.276 6.79467 156.827 7.112C157.387 7.42933 157.826 7.87267 158.143 8.442C158.46 9.002 158.619 9.63667 158.619 10.346C158.619 11.0553 158.46 11.6947 158.143 12.264C157.826 12.824 157.387 13.2627 156.827 13.58C156.276 13.8973 155.656 14.056 154.965 14.056ZM154.965 13.426C155.525 13.426 156.024 13.2953 156.463 13.034C156.911 12.7727 157.261 12.4087 157.513 11.942C157.774 11.4753 157.905 10.9433 157.905 10.346C157.905 9.74867 157.774 9.21667 157.513 8.75C157.261 8.28333 156.911 7.91933 156.463 7.658C156.024 7.39667 155.525 7.266 154.965 7.266C154.405 7.266 153.901 7.39667 153.453 7.658C153.014 7.91933 152.664 8.28333 152.403 8.75C152.151 9.21667 152.025 9.74867 152.025 10.346C152.025 10.9433 152.151 11.4753 152.403 11.942C152.664 12.4087 153.014 12.7727 153.453 13.034C153.901 13.2953 154.405 13.426 154.965 13.426ZM160.899 6.692H161.599V12.922L166.807 6.692H167.423V14H166.723V7.77L161.515 14H160.899V6.692ZM164.133 5.572C163.545 5.572 163.069 5.42267 162.705 5.124C162.341 4.816 162.154 4.39133 162.145 3.85H162.663C162.672 4.23267 162.812 4.536 163.083 4.76C163.363 4.984 163.713 5.096 164.133 5.096C164.553 5.096 164.898 4.984 165.169 4.76C165.439 4.536 165.579 4.23267 165.589 3.85H166.121C166.111 4.39133 165.925 4.816 165.561 5.124C165.197 5.42267 164.721 5.572 164.133 5.572Z" fill="#333333"/>
<path d="M126.13 48.4238C126.13 37.0272 119.663 29.697 109.331 29.697H98.2552V36.0992L100.481 42.2719V31.7303H109.065C118.127 31.7303 123.797 38.2028 123.797 48.4238C123.797 58.7491 118.127 65.1721 109.065 65.1721H108.735L109.447 67.148C119.71 67.0932 126.13 59.8309 126.13 48.4238Z" fill="#333333"/>
<path d="M80.4183 29.697L73.0448 48.3117L74.1653 51.4189L81.6369 32.2099L90.2754 54.4167H75.2444L75.9777 56.4499H91.0706L95.2556 67.1506H97.6953L82.8554 29.697H80.4183Z" fill="#333333"/>
<path d="M50.1606 50.4544L60.6012 67.1506H63.1985L52.4919 50.1364C57.8439 48.7992 60.9704 45.4287 60.9704 40.1839C60.9704 33.6045 56.0935 29.697 47.7751 29.697H37.177V36.5475L39.4025 42.7203V31.7277H47.5634C54.8749 31.7277 58.7449 34.887 58.7449 40.1813C58.7449 45.3713 54.8749 48.5828 47.5634 48.5828H41.5143L42.2476 50.6161H46.4481C47.7751 50.6187 48.9963 50.5639 50.1606 50.4544Z" fill="#333333"/>
<path d="M137.482 56.7991L134.794 49.7061H134.75C134.802 50.2692 134.825 50.9365 134.825 51.7081V56.7991H133.973V48.7964H135.362L137.871 55.3966H137.915L140.445 48.7964H141.821V56.7991H140.9V51.6429C140.9 51.0512 140.926 50.41 140.975 49.7166H140.931L138.22 56.7991H137.482Z" fill="#333333"/>
<path d="M149.245 56.7991H144.828V48.7964H149.245V49.6227H145.749V52.2008H149.033V53.0219H145.749V55.9675H149.245V56.7991Z" fill="#333333"/>
<path d="M158.161 52.7221C158.161 54.0437 157.805 55.0525 157.095 55.7512C156.385 56.4498 155.362 56.7991 154.03 56.7991H151.836V48.7964H154.265C155.497 48.7964 156.455 49.1405 157.139 49.8313C157.82 50.522 158.161 51.4839 158.161 52.7221ZM157.185 52.7534C157.185 51.7107 156.927 50.9235 156.408 50.3943C155.889 49.8651 155.12 49.6019 154.095 49.6019H152.755V55.9936H153.878C154.975 55.9936 155.801 55.7199 156.354 55.1751C156.909 54.6303 157.185 53.8222 157.185 52.7534Z" fill="#333333"/>
<path d="M160.761 56.7991V48.7964H161.683V56.7991H160.761Z" fill="#333333"/>
<path d="M169.669 56.7991L168.683 54.2549H165.508L164.532 56.7991H163.6L166.734 48.7651H167.509L170.625 56.7991H169.669ZM168.397 53.4155L167.475 50.9365C167.356 50.6237 167.232 50.2379 167.106 49.7818C167.026 50.1311 166.912 50.5169 166.765 50.9365L165.833 53.4155H168.397Z" fill="#333333"/>
<path d="M137.457 63.3045H140.153V67.1963C139.734 67.3319 139.306 67.4335 138.872 67.5039C138.438 67.5743 137.935 67.6082 137.364 67.6082C136.164 67.6082 135.232 67.2485 134.563 66.5264C133.895 65.8043 133.562 64.7955 133.562 63.4974C133.562 62.6658 133.727 61.9359 134.057 61.3103C134.388 60.6847 134.865 60.2077 135.485 59.8766C136.107 59.5456 136.835 59.3813 137.669 59.3813C138.516 59.3813 139.303 59.5378 140.031 59.8506L139.675 60.6717C138.96 60.3641 138.271 60.2129 137.61 60.2129C136.644 60.2129 135.89 60.5022 135.348 61.0835C134.806 61.6648 134.535 62.4677 134.535 63.4974C134.535 64.5766 134.796 65.3977 135.317 65.9555C135.839 66.5134 136.605 66.7923 137.617 66.7923C138.167 66.7923 138.704 66.7297 139.228 66.602V64.1386H137.455V63.3045H137.457Z" fill="#333333"/>
<path d="M143.808 64.1705V67.4993H142.886V59.4966H145.06C146.033 59.4966 146.751 59.6843 147.215 60.0596C147.68 60.435 147.913 61.0007 147.913 61.7566C147.913 62.815 147.381 63.5292 146.32 63.902L148.47 67.4966H147.381L145.462 64.1679H143.808V64.1705ZM143.808 63.3702H145.07C145.721 63.3702 146.198 63.2399 146.5 62.9792C146.802 62.7185 146.955 62.3275 146.955 61.8061C146.955 61.277 146.8 60.8964 146.493 60.6618C146.183 60.4272 145.687 60.3125 145.005 60.3125H143.808V63.3702Z" fill="#333333"/>
<path d="M157.461 63.4858C157.461 64.7657 157.14 65.7745 156.498 66.507C155.855 67.2395 154.964 67.6071 153.823 67.6071C152.656 67.6071 151.755 67.2473 151.12 66.5253C150.485 65.8058 150.17 64.7866 150.17 63.4728C150.17 62.1694 150.487 61.1606 151.125 60.4438C151.76 59.7269 152.664 59.3672 153.836 59.3672C154.974 59.3672 155.862 59.7321 156.503 60.462C157.14 61.1945 157.461 62.2033 157.461 63.4858ZM151.146 63.4858C151.146 64.5702 151.373 65.3913 151.832 65.9518C152.289 66.5122 152.953 66.7912 153.825 66.7912C154.703 66.7912 155.367 66.5122 155.816 65.9544C156.265 65.3966 156.487 64.5728 156.487 63.4858C156.487 62.4092 156.265 61.5933 155.819 61.0355C155.372 60.4803 154.711 60.2013 153.838 60.2013C152.961 60.2013 152.292 60.4829 151.835 61.0407C151.378 61.5985 151.146 62.4171 151.146 63.4858Z" fill="#333333"/>
<path d="M166.044 59.4966V64.6735C166.044 65.5859 165.77 66.3028 165.226 66.8241C164.681 67.3454 163.93 67.6061 162.977 67.6061C162.024 67.6061 161.286 67.3428 160.762 66.8189C160.24 66.2923 159.979 65.5703 159.979 64.6527V59.4966H160.901V64.7179C160.901 65.3852 161.082 65.8987 161.443 66.2558C161.805 66.613 162.337 66.7928 163.036 66.7928C163.705 66.7928 164.219 66.613 164.58 66.2532C164.942 65.8935 165.122 65.3774 165.122 64.7074V59.4966H166.044Z" fill="#333333"/>
<path d="M174.003 61.8277C174.003 62.6384 173.729 63.2614 173.182 63.6967C172.635 64.132 171.85 64.351 170.832 64.351H169.9V67.4973H168.979V59.4946H171.034C173.011 59.4972 174.003 60.274 174.003 61.8277ZM169.898 63.5507H170.727C171.542 63.5507 172.134 63.4178 172.5 63.1519C172.864 62.886 173.048 62.4585 173.048 61.872C173.048 61.3428 172.875 60.9492 172.534 60.6885C172.19 60.4304 171.656 60.3001 170.931 60.3001H169.9V63.5507H169.898Z" fill="#333333"/>
<path d="M15.4514 30.0333C20.7517 30.0333 24.6734 32.1186 27.7457 36.7221L29.5994 35.5439C26.5271 30.6771 21.6501 28 15.3997 28C10.4273 28 6.28356 30.0489 3.38684 33.5054L4.26205 35.9323C6.81282 32.2073 10.7422 30.0333 15.4514 30.0333Z" fill="#333333"/>
<path d="M29.4942 60.7981V47.1023H16.4589V49.1355H27.2687V59.9431C24.8832 62.9382 20.2747 64.703 16.1388 64.703C15.6173 64.703 15.1061 64.6769 14.6078 64.6326L15.3591 66.718C15.5992 66.7258 15.8393 66.7362 16.0845 66.7362C21.0157 66.7388 26.3677 64.7603 29.4942 60.7981Z" fill="#333333"/>
</svg>
