<svg width="47" height="50" viewBox="0 0 47 50" fill="none" xmlns="http://www.w3.org/2000/svg">
<path fill-rule="evenodd" clip-rule="evenodd" d="M20.9656 0C25.673 0 30.0781 1.29192 33.8488 3.53898C31.5842 4.13843 29.6171 5.2776 27.947 6.95554C25.3488 9.56599 24.0494 12.8907 24.0494 16.9303C24.0494 20.1429 24.8748 22.824 26.5251 24.9738C27.8856 26.7454 29.7366 28.08 32.0785 28.9778C33.9297 29.6864 35.9037 30.0409 38 30.0409C39.539 30.0409 41.1003 29.8165 42.6839 29.3676C43.8444 29.0336 44.9535 28.6018 46.0131 28.0729C44.7727 39.0395 36.4945 47.8755 25.8049 49.9554C26.9626 49.1692 28.0186 48.1093 28.9721 46.7753L28.3221 46.1707C27.2106 47.5527 26.0331 48.5508 24.7899 49.165C23.6784 49.7216 22.4915 50 21.2292 50C16.2482 50 14.5604 45.9713 14.2332 41.613C15.6315 41.1738 16.8744 40.4634 17.9628 39.4803C20.1429 37.5293 21.4078 34.6858 21.7568 30.9513C22.8124 31.1006 23.7855 31.4905 24.6767 32.1203C26.1652 33.1567 27.1164 34.6923 27.531 36.7268L28.1526 36.6405L27.8135 29.8457H27.2484C27.1918 30.1721 27.107 30.4407 26.994 30.6519C26.881 30.8629 26.7113 30.9686 26.4853 30.9686C26.3346 30.9686 26.1746 30.9493 26.005 30.911C25.8354 30.8725 25.6188 30.7958 25.3552 30.6807C24.6391 30.3927 24.0741 30.1912 23.6594 30.076C23.0581 29.9173 22.4506 29.805 21.8361 29.7399C21.8493 29.4062 21.8561 29.0662 21.8561 28.7194V8.58079C21.8561 7.52186 22.0472 6.68489 22.4297 6.07C22.9762 5.18153 24.0006 4.73749 25.5031 4.73749H26.2408V3.6103H15.4633V4.73749H16.2009C17.7308 4.73749 18.7824 5.21586 19.3562 6.17232C19.6842 6.71895 19.848 7.52186 19.848 8.58079V27.6944C19.848 28.391 19.8243 29.0571 19.7756 29.6938C16.9686 29.8485 14.5844 30.854 12.6244 32.7104C10.7124 34.5213 9.65582 36.7958 9.45369 39.5351C6.51709 39.1519 4.47442 37.6486 3.33326 35.0223C2.6211 33.3833 2.26768 31.1103 2.26768 28.207V8.30242C6.88142 3.20379 13.5497 0 20.9656 0ZM35.63 4.70356C39.4286 7.42526 42.4396 11.1766 44.256 15.5483H40.5429V16.3279H40.8102C42.0594 16.3279 42.9181 16.6585 43.3864 17.3201C43.654 17.6981 43.788 18.2532 43.788 18.9855V26.5683C42.2711 27.8203 40.3641 28.4462 38.0669 28.4462C31.9394 28.4462 28.9152 22.998 28.5688 17.2945C28.2316 11.7437 30.4674 5.9509 35.63 4.70356ZM13.5432 49.3098C7.94967 47.5885 3.18623 43.9723 0 39.2118C2.9201 41.0947 6.46042 41.9588 9.51211 42.117C9.81284 44.5723 10.8313 46.6774 12.5679 48.4309C12.8818 48.7477 13.2072 49.0402 13.5432 49.3098ZM14.19 39.1125C15.0955 38.7796 15.9021 38.2877 16.6107 37.6355C18.2237 36.1548 19.2338 33.9296 19.6415 30.9605C15.7514 31.5324 14.3595 35.1684 14.19 39.1125Z" fill="black"/>
</svg>
