<svg width="45" height="45" viewBox="0 0 45 45" fill="none" xmlns="http://www.w3.org/2000/svg">
<path d="M22.5 0C10.0736 0 0 10.0736 0 22.5C0.0139718 34.9206 10.0794 44.986 22.5 45C34.9264 45 45 34.9264 45 22.5C45 10.0736 34.9264 0 22.5 0ZM22.5 43.5484C10.8753 43.5484 1.45161 34.1247 1.45161 22.5C1.46486 10.8807 10.8807 1.46486 22.5 1.45161C34.1247 1.45161 43.5484 10.8753 43.5484 22.5C43.5484 34.1247 34.1247 43.5484 22.5 43.5484Z" fill="black"/>
<path d="M36.2898 21.7742H23.2253V8.70969C23.2253 8.30887 22.9004 7.98389 22.4995 7.98389C22.0987 7.98389 21.7737 8.30887 21.7737 8.70969V21.7742H8.7092C8.30838 21.7742 7.9834 22.0992 7.9834 22.5C7.9834 22.9008 8.30838 23.2258 8.7092 23.2258H21.7737V36.2903C21.7737 36.6912 22.0987 37.0161 22.4995 37.0161C22.9004 37.0161 23.2253 36.6912 23.2253 36.2903V23.2258H36.2898C36.6907 23.2258 37.0157 22.9008 37.0157 22.5C37.0157 22.0992 36.6907 21.7742 36.2898 21.7742Z" fill="black"/>
</svg>
