<svg width="22" height="22" viewBox="0 0 22 22" fill="none" xmlns="http://www.w3.org/2000/svg">
<g clip-path="url(#clip0)">
<path d="M0.438843 21.0444C0.438843 20.6917 0.724745 20.4058 1.07742 20.4058H20.2348C20.5875 20.4058 20.8734 20.6917 20.8734 21.0444C20.8734 21.3971 20.5875 21.683 20.2348 21.683H1.07742C0.724744 21.683 0.438843 21.3971 0.438843 21.0444Z" fill="black"/>
<path d="M17.8808 13.8197C16.768 12.7069 15.4434 11.8831 13.9982 11.3844C15.5461 10.3183 16.563 8.53416 16.563 6.51673C16.563 3.25969 13.9132 0.609863 10.6561 0.609863C7.39908 0.609863 4.74926 3.25969 4.74926 6.51673C4.74926 8.53416 5.76615 10.3183 7.31403 11.3844C5.86884 11.8831 4.54427 12.7069 3.43143 13.8197C1.50164 15.7495 0.438843 18.3153 0.438843 21.0444H2.03529C2.03529 16.2909 5.90257 12.4236 10.6561 12.4236C15.4097 12.4236 19.2769 16.2909 19.2769 21.0444H20.8734C20.8734 18.3153 19.8106 15.7495 17.8808 13.8197ZM10.6561 10.8271C8.27936 10.8271 6.3457 8.89352 6.3457 6.51673C6.3457 4.13993 8.27936 2.20631 10.6561 2.20631C13.0329 2.20631 14.9665 4.13993 14.9665 6.51673C14.9665 8.89352 13.0329 10.8271 10.6561 10.8271Z" fill="black"/>
</g>
<defs>
<clipPath id="clip0">
<rect width="21.0731" height="21.0731" fill="white" transform="translate(0.438843 0.609863)"/>
</clipPath>
</defs>
</svg>
