<svg width="117" height="105" fill="none" xmlns="http://www.w3.org/2000/svg"><path d="M13.383 104.948C6.004 104.948 0 98.945 0 91.565c0-2.332.622-4.642 1.8-6.681L46.915 6.74A13.414 13.414 0 0158.5.052c4.764 0 9.202 2.562 11.584 6.688l45.117 78.144A13.386 13.386 0 01117 91.565c0 7.38-6.004 13.383-13.383 13.383H13.383z" fill="#75CFF9"/><path d="M54.36 11.037L9.243 89.182c-1.84 3.187.46 7.171 4.14 7.171h90.234c3.68 0 5.98-3.984 4.14-7.171L62.64 11.037c-1.84-3.187-6.44-3.187-8.28 0L9.243 89.182c-1.84 3.187.46 7.171 4.14 7.171h90.234c3.68 0 5.98-3.984 4.14-7.171L62.64 11.037c-1.84-3.187-6.44-3.187-8.28 0z" fill="#CCEFFD"/><path d="M115.201 84.884L70.084 6.74A13.414 13.414 0 0058.5.052c-1.291 0-2.558.19-3.767.546a13.413 13.413 0 017.818 6.142l45.117 78.144a13.386 13.386 0 011.799 6.681c0 7.38-6.004 13.384-13.384 13.384h7.534c7.379 0 13.383-6.004 13.383-13.383 0-2.333-.622-4.643-1.799-6.682z" fill="#6CBFF8"/><path d="M107.757 89.182L62.64 11.037c-1.66-2.877-5.572-3.156-7.67-.837.225.25.43.528.61.837l45.116 78.144c1.84 3.188-.46 7.172-4.14 7.172h7.062c3.68 0 5.981-3.984 4.14-7.171z" fill="#AAE2FA"/><path d="M60.199 62.735h-3.841c-.785 0-1.434-.61-1.483-1.394l-1.548-24.85a1.486 1.486 0 011.483-1.58h6.936c.857 0 1.536.724 1.483 1.58L61.68 61.34a1.485 1.485 0 01-1.482 1.394zm-1.92 7.863a4.378 4.378 0 100 8.757 4.378 4.378 0 000-8.757z" fill="#5FA7EE"/></svg>