<svg width="14" height="14" fill="none" xmlns="http://www.w3.org/2000/svg"><g clip-path="url(#clip0)" fill="#868686"><path d="M8.02 14.005h-7c-.562 0-1.02-.458-1.02-1.021V1.13A1.02 1.02 0 011.188.124l6.41.97c.502.084.86.508.86 1.009v11.464a.438.438 0 01-.437.438zM1.022.985a.144.144 0 00-.146.146v11.853c0 .08.065.146.146.146h6.562V2.103a.145.145 0 00-.122-.144l-6.41-.97a.183.183 0 00-.03-.004z"/><path d="M12.98 14H8.02a.438.438 0 01-.437-.438V5.687a.437.437 0 01.527-.428l5.085 1.065c.476.106.805.516.805.998v5.657c0 .563-.458 1.02-1.02 1.02zm-4.522-.875h4.521c.08 0 .146-.065.146-.146V7.322a.145.145 0 00-.114-.142l-4.553-.954v6.899zm-2.771.731H3.062a.438.438 0 01-.437-.437v-2.48c0-.562.458-1.02 1.02-1.02h1.46c.562 0 1.02.458 1.02 1.02v2.48a.438.438 0 01-.438.437zM3.5 12.981h1.75V10.94a.146.146 0 00-.146-.146H3.646a.146.146 0 00-.146.146v2.041zM3.354 3.5H2.48a.438.438 0 010-.875h.875a.438.438 0 010 .875zm2.916 0h-.874a.438.438 0 010-.875h.875a.438.438 0 010 .875zM3.354 5.25H2.48a.438.438 0 010-.875h.875a.438.438 0 010 .875zm2.916 0h-.874a.438.438 0 010-.875h.875a.438.438 0 010 .875zM3.354 7H2.48a.438.438 0 010-.875h.875a.438.438 0 010 .875zM6.27 7h-.874a.438.438 0 010-.875h.875a.438.438 0 010 .875zM3.354 8.75H2.48a.438.438 0 010-.875h.875a.438.438 0 010 .875zm2.916 0h-.874a.438.438 0 010-.875h.875a.438.438 0 010 .875z"/><path d="M11.23 8.75h-.876a.438.438 0 010-.875h.875a.438.438 0 010 .875zm0 1.75h-.876a.438.438 0 010-.875h.875a.438.438 0 010 .875zm0 1.75h-.876a.438.438 0 010-.875h.875a.438.438 0 010 .875z"/></g><defs><clipPath id="clip0"><path fill="#fff" d="M0 0h14v14H0z"/></clipPath></defs></svg>