<svg width="14" height="14" fill="none" xmlns="http://www.w3.org/2000/svg"><g clip-path="url(#clip0)" fill="#868686"><path d="M11.23 14H2.77c-.885 0-1.604-.72-1.604-1.604V1.604A1.608 1.608 0 012.77 0h8.458c.885 0 1.605.72 1.605 1.604v10.792c0 .885-.72 1.604-1.605 1.604zM2.77.875a.73.73 0 00-.73.73v10.79c0 .403.328.73.73.73h8.458a.73.73 0 00.73-.73V1.606a.73.73 0 00-.73-.73H2.771z"/><path d="M10.063 4.667H3.938a1.022 1.022 0 01-1.021-1.021V2.77c0-.563.458-1.021 1.02-1.021h6.126c.563 0 1.02.458 1.02 1.02v.876a1.02 1.02 0 01-1.02 1.02zM3.938 2.625a.146.146 0 00-.146.146v.875c0 .08.065.146.146.146h6.125c.08 0 .146-.066.146-.146V2.77a.146.146 0 00-.146-.146H3.938zm.728 5.539a.438.438 0 01-.437-.437V6.269a.438.438 0 01.875 0v1.458a.438.438 0 01-.438.437z"/><path d="M5.396 7.438H3.938a.438.438 0 010-.875h1.458a.438.438 0 010 .875zm4.667.143H8.604a.438.438 0 010-.875h1.459a.438.438 0 010 .875zm0 2.625H8.604a.438.438 0 010-.875h1.459a.438.438 0 010 .875zm0 1.463H8.604a.438.438 0 010-.875h1.459a.438.438 0 010 .875zm-6.126-.004a.438.438 0 01-.31-.747l1.46-1.459a.438.438 0 11.618.62l-1.458 1.457a.437.437 0 01-.31.129z"/><path d="M5.396 11.665a.434.434 0 01-.31-.128l-1.458-1.459a.438.438 0 01.62-.619l1.457 1.459a.438.438 0 01-.31.747z"/></g><defs><clipPath id="clip0"><path fill="#fff" d="M0 0h14v14H0z"/></clipPath></defs></svg>