<svg width="32" height="32" fill="none" xmlns="http://www.w3.org/2000/svg"><path d="M21.938 14.126V.938A.938.938 0 0021 0H.937A.938.938 0 000 .938V29c0 .518.42.938.938.938h16.434C18.91 31.188 20.87 32 23 32c4.928 0 9-4.072 9-9 0-5.32-4.718-9.51-10.063-8.874zM1.875 1.875h18.188v12.684c-5.596 1.953-7.75 8.683-4.424 13.504H1.875V1.875zM23 30.125c-3.894 0-7.063-3.23-7.063-7.125A7.07 7.07 0 0123 15.937 7.07 7.07 0 0130.063 23c0 3.894-3.169 7.125-7.063 7.125z" fill="#fff"/><path d="M17 10.938c.518 0 .938-.42.938-.938V5A.938.938 0 0017 4.062H5A.938.938 0 004.062 5v5c0 .518.42.938.938.938h12zm-11.063-5h10.125v3.125H5.938V5.937zm.563 7.125h-1a.937.937 0 100 1.874h1a.937.937 0 100-1.874zm5 0h-1a.937.937 0 100 1.874h1a.937.937 0 100-1.874zm5 0h-1a.937.937 0 100 1.874h1a.937.937 0 100-1.874zm-10 5h-1a.937.937 0 100 1.875h1a.937.937 0 100-1.875zm5 0h-1a.937.937 0 100 1.875h1a.937.937 0 100-1.875zm-5 5h-1a.937.937 0 100 1.875h1a.937.937 0 100-1.875zm5 0h-1a.937.937 0 100 1.875h1a.937.937 0 100-1.875zm12.54-.985c-.597-.211-1.256-.465-1.61-.742-.023-.018-.066-.128-.036-.29.015-.077.082-.336.332-.411.625-.188.914.052.966.104a.937.937 0 001.336-1.316 2.478 2.478 0 00-1.09-.626v-.052a.938.938 0 00-1.874 0v.136c-1.69.614-2.078 2.92-.79 3.93.565.444 1.363.76 2.141 1.035.465.164.512.497.47.748-.047.279-.287.752-.89.756-.625.004-.773-.019-1.23-.318a.938.938 0 00-1.026 1.57c.498.325.893.487 1.325.563v.09a.938.938 0 001.875 0v-.196c2.271-.822 2.572-4.108.101-4.981z" fill="#fff"/></svg>