<svg width="14" height="14" fill="none" xmlns="http://www.w3.org/2000/svg"><path d="M9.545 8.024l-1.482-.227-.667-1.421c-.144-.307-.648-.307-.792 0l-.667 1.42-1.483.228a.436.436 0 00-.247.737l1.086 1.113-.258 1.576a.437.437 0 00.644.453L7 11.173l1.32.73a.435.435 0 00.465-.025.44.44 0 00.18-.428l-.257-1.576L9.793 8.76a.437.437 0 00-.248-.737zM7.926 9.42c-.096.1-.14.24-.118.376l.148.905-.744-.411a.44.44 0 00-.423 0l-.743.411.147-.905a.44.44 0 00-.118-.376l-.645-.66.871-.134a.437.437 0 00.33-.246L7 7.59l.37.79c.16.338.513.23 1.201.38l-.646.66z" fill="#868686"/><path d="M12.396 1.167h-1.313v-.73a.438.438 0 00-.875 0v.73H3.792v-.73a.438.438 0 00-.875 0v.73H1.604C.72 1.167 0 1.886 0 2.77v9.625C0 13.28.72 14 1.604 14h10.792C13.28 14 14 13.28 14 12.396V2.77c0-.885-.72-1.604-1.604-1.604zm-10.792.875h1.313v.437a.438.438 0 00.875 0v-.437h6.416v.437a.438.438 0 00.875 0v-.437h1.313a.73.73 0 01.729.729v1.312H.875V2.771a.73.73 0 01.73-.73zm10.792 11.083H1.604a.73.73 0 01-.729-.73V4.959h12.25v7.438a.73.73 0 01-.73.729z" fill="#868686"/></svg>