<svg width="35" height="35" fill="none" xmlns="http://www.w3.org/2000/svg"><path d="M17.5.438C8.078.438.437 8.078.437 17.5S8.078 34.563 17.5 34.563c9.422 0 17.063-7.64 17.063-17.063C34.563 8.078 26.922.437 17.5.437zm6.3 23.544l-2.514-.011-3.786-4.513-3.782 4.509-2.517.011a.303.303 0 01-.305-.304c0-.073.027-.141.072-.198l4.955-5.904-4.955-5.9a.306.306 0 01.232-.503l2.518.012 3.782 4.514 3.782-4.51 2.514-.011c.167 0 .304.133.304.305 0 .072-.026.14-.072.198l-4.947 5.9 4.95 5.902a.306.306 0 01-.232.503z" fill="#000"/></svg>