<svg width="14" height="14" fill="none" xmlns="http://www.w3.org/2000/svg"><g clip-path="url(#clip0)" fill="#868686"><path d="M8.896 4.669a.438.438 0 110-.875.438.438 0 010 .875zm2.64 0a.438.438 0 110-.875.438.438 0 010 .875z"/><path d="M10.212 7.59c-.953 0-1.748-.325-2.363-.966-.714-.743-1.14-1.906-1.14-3.11 0-.024.002-.048.008-.07L7.14 1.53A1.467 1.467 0 018.238.422L9.886.044c.212-.05.438-.05.653 0L12.18.42c.547.126.977.56 1.097 1.108l.425 1.922a.34.34 0 01.006.063v.089c0 .892-.298 2.154-1.133 3.022-.618.64-1.413.965-2.363.965zm-2.92-4.045c.008.82.268 1.936.978 2.676.5.522 1.154.786 1.942.786.786 0 1.44-.265 1.942-.787.716-.743.971-1.84.971-2.617v-.057l-.418-1.89A.879.879 0 0012.05.99L10.407.613a.886.886 0 00-.391 0L8.368.99a.88.88 0 00-.66.666l-.416 1.888zm-1.167 6.953H2.042a.292.292 0 01-.292-.292V5.539a1.46 1.46 0 011.458-1.458h1.75a.292.292 0 010 .583h-1.75a.876.876 0 00-.875.875v4.375h3.5V6.123a.292.292 0 01.584 0v4.083a.292.292 0 01-.292.292z"/><path d="M4.958 12.836h-1.75a.291.291 0 01-.283-.222l-.583-2.333a.292.292 0 01.283-.362h2.917a.292.292 0 01.284.362l-.584 2.333a.293.293 0 01-.284.222zm-1.522-.584h1.295l.437-1.75h-2.17l.438 1.75z"/><path d="M4.083 14a.292.292 0 01-.291-.292v-1.166a.292.292 0 01.583 0v1.166c0 .161-.13.292-.292.292zM2.042 6.414H.292a.292.292 0 010-.583h1.75a.292.292 0 010 .583zm2.916 0h-1.75a.292.292 0 010-.583h1.75a.292.292 0 010 .583zm0 1.75h-1.75a.292.292 0 010-.583h1.75a.292.292 0 010 .583zm5.254-1.745a1.46 1.46 0 01-1.042-.432.292.292 0 01.412-.412.91.91 0 001.26 0 .292.292 0 01.412.412 1.462 1.462 0 01-1.042.432zM6.709 3.79a.291.291 0 01-.175-.524c.051-.038 1.278-.935 3.678-.935s3.621.897 3.672.935a.292.292 0 01-.349.467c-.011-.008-1.133-.818-3.322-.818-2.19 0-3.319.81-3.33.819a.305.305 0 01-.174.056z"/></g><defs><clipPath id="clip0"><path fill="#fff" d="M0 0h14v14H0z"/></clipPath></defs></svg>