<svg width="49" height="49" fill="none" xmlns="http://www.w3.org/2000/svg"><path fill-rule="evenodd" clip-rule="evenodd" d="M24.5 0C10.969 0 0 10.969 0 24.5S10.969 49 24.5 49 49 38.031 49 24.5 38.031 0 24.5 0zm-5.387 11.512c1.394-.063 1.84-.079 5.388-.079h-.004c3.55 0 3.994.016 5.387.08 1.392.063 2.342.283 3.175.606.86.334 1.587.78 2.314 1.507a6.413 6.413 0 011.508 2.315c.32.83.541 1.78.607 3.171.062 1.394.079 1.84.079 5.388 0 3.549-.017 3.993-.08 5.387-.065 1.39-.285 2.34-.606 3.171a6.414 6.414 0 01-1.508 2.315 6.393 6.393 0 01-2.313 1.508c-.832.323-1.783.543-3.174.607-1.393.063-1.837.079-5.386.079-3.549 0-3.994-.016-5.388-.079-1.39-.064-2.34-.284-3.172-.607a6.398 6.398 0 01-2.314-1.508 6.402 6.402 0 01-1.507-2.315c-.322-.83-.543-1.78-.607-3.171-.063-1.394-.079-1.838-.079-5.387 0-3.549.017-3.994.079-5.388.063-1.39.283-2.34.607-3.171a6.414 6.414 0 011.508-2.315 6.399 6.399 0 012.315-1.507c.83-.323 1.78-.543 3.171-.607z" fill="#fff"/><path fill-rule="evenodd" clip-rule="evenodd" d="M23.329 13.787h1.172c3.49 0 3.903.013 5.28.076 1.274.058 1.966.27 2.426.45a4.04 4.04 0 011.502.977c.457.457.74.893.978 1.503.179.46.392 1.151.45 2.425.062 1.378.076 1.791.076 5.279 0 3.487-.014 3.9-.076 5.278-.059 1.274-.271 1.965-.45 2.425a4.04 4.04 0 01-.978 1.502 4.04 4.04 0 01-1.502.977c-.46.18-1.152.392-2.426.45-1.377.063-1.79.076-5.28.076-3.489 0-3.902-.013-5.28-.076-1.274-.059-1.965-.272-2.426-.45a4.047 4.047 0 01-1.503-.978 4.052 4.052 0 01-.978-1.502c-.178-.46-.392-1.151-.45-2.425-.062-1.378-.075-1.791-.075-5.28 0-3.49.013-3.902.075-5.28.059-1.273.271-1.965.45-2.425a4.04 4.04 0 01.978-1.503c.457-.457.893-.74 1.503-.978.46-.18 1.152-.392 2.426-.45 1.206-.055 1.673-.071 4.108-.074v.003zm8.147 2.17a1.568 1.568 0 100 3.137 1.568 1.568 0 000-3.137zM17.791 24.5a6.71 6.71 0 1113.421 0 6.71 6.71 0 01-13.421 0z" fill="#fff"/><path fill-rule="evenodd" clip-rule="evenodd" d="M24.501 20.145a4.356 4.356 0 110 8.71 4.356 4.356 0 010-8.71z" fill="#fff"/></svg>