<svg width="14" height="14" fill="none" xmlns="http://www.w3.org/2000/svg"><path d="M10.5 14a.437.437 0 01-.171-.036C10.193 13.907 7 12.516 7 9.656V7.312c0-.187.119-.353.297-.414l3.062-1.042c.091-.03.19-.03.282 0l3.062 1.042c.178.06.297.227.297.414v2.344c0 2.86-3.193 4.25-3.329 4.31A.447.447 0 0110.5 14zM7.875 7.624v2.03c0 1.945 2.016 3.114 2.625 3.422.609-.308 2.625-1.477 2.625-3.422v-2.03L10.5 6.732l-2.625.893z" fill="#868686"/><path d="M10.354 11.375a.434.434 0 01-.31-.128L8.879 10.08a.438.438 0 11.62-.619l.81.81 1.446-1.93a.437.437 0 11.7.527l-1.75 2.333a.437.437 0 01-.32.174h-.03zm-4.176.875H1.604C.72 12.25 0 11.53 0 10.646V1.604C0 .72.72 0 1.604 0h6.708c.885 0 1.605.72 1.605 1.604v3.168a.438.438 0 01-.875 0V1.604a.73.73 0 00-.73-.729H1.604a.73.73 0 00-.729.73v9.04c0 .403.327.73.73.73h4.573a.438.438 0 010 .875z" fill="#868686"/><path d="M7.73 5.542H2.186a.438.438 0 010-.875H7.73a.438.438 0 010 .875zM5.396 7.875H2.188a.438.438 0 010-.875h3.208a.438.438 0 010 .875zm-.583-4.667H2.188a.438.438 0 010-.875h2.624a.438.438 0 010 .875z" fill="#868686"/></svg>