<svg width="30" height="24" fill="none" xmlns="http://www.w3.org/2000/svg"><path d="M4.875 0h20.25a4.875 4.875 0 014.867 4.599l.008.276v14.25a4.875 4.875 0 01-4.599 4.867l-.276.008H4.875a4.875 4.875 0 01-4.867-4.599L0 19.125V4.875A4.875 4.875 0 014.599.008L4.875 0h20.25-20.25zM27.75 8.06l-12.225 6.434a1.125 1.125 0 01-.905.065l-.143-.063L2.25 8.061v11.064a2.625 2.625 0 002.409 2.616l.216.009h20.25a2.625 2.625 0 002.616-2.41l.009-.215V8.059zm-2.625-5.81H4.875a2.625 2.625 0 00-2.616 2.409l-.009.216v.644L15 12.227l12.75-6.711v-.642a2.625 2.625 0 00-2.41-2.616l-.215-.009z" fill="#00448B"/></svg>