<svg width="49" height="49" fill="none" xmlns="http://www.w3.org/2000/svg"><path fill-rule="evenodd" clip-rule="evenodd" d="M0 24.5C0 10.969 10.969 0 24.5 0S49 10.969 49 24.5 38.031 49 24.5 49 0 38.031 0 24.5zm24.483.393c3.613 0 6.55-2.835 6.55-6.32 0-3.487-2.937-6.323-6.55-6.323-3.612 0-6.55 2.836-6.55 6.323 0 3.485 2.938 6.32 6.55 6.32zm6.47 3.64a12.516 12.516 0 01-3.803 1.52l3.662 3.535c.75.723.75 1.896 0 2.62a1.966 1.966 0 01-2.713 0l-3.6-3.474-3.596 3.474a1.952 1.952 0 01-1.358.542c-.49 0-.982-.181-1.357-.542a1.808 1.808 0 010-2.62l3.661-3.534a12.535 12.535 0 01-3.803-1.52c-.896-.546-1.165-1.689-.6-2.555.563-.867 1.747-1.128 2.645-.582 2.68 1.628 6.135 1.628 8.818 0 .898-.546 2.082-.285 2.646.582.565.865.295 2.009-.602 2.554z" fill="#fff"/><path fill-rule="evenodd" clip-rule="evenodd" d="M24.483 15.955c1.496 0 2.712 1.174 2.712 2.617s-1.216 2.617-2.712 2.617c-1.494 0-2.712-1.174-2.712-2.617s1.218-2.617 2.712-2.617z" fill="#fff"/></svg>