<svg width="68" height="74" fill="none" xmlns="http://www.w3.org/2000/svg"><path d="M8.935 47.742H6.548a5.968 5.968 0 01-5.967-5.968 3.58 3.58 0 013.58-3.58h4.774v9.548z" fill="#BD4150"/><path d="M54.29 0H10.129l-1.23 2.387v70.457h56.133l2.387-1.231V13.129L54.29 0z" fill="#ECEAEC"/><path d="M10.13 68.032V0a2.387 2.387 0 00-2.388 2.387v69.226A2.387 2.387 0 0010.13 74h54.904a2.387 2.387 0 002.387-2.387H13.71a3.58 3.58 0 01-3.58-3.58zm57.29-55.108c0-.633-.252-1.24-.7-1.688L56.183.7a2.387 2.387 0 00-1.688-.7h-.204v11.935c0 .66.534 1.194 1.193 1.194H67.42v-.205z" fill="#DAD8DB"/><path d="M41.161 45.355h-37c-.419 0-.82-.072-1.194-.204l-1.15 1.918v15.08a3.58 3.58 0 003.581 3.58h35.763l2.387-1.278v-16.71a2.387 2.387 0 00-2.387-2.386z" fill="#E15F78"/><path d="M2.968 45.151A3.59 3.59 0 01.58 41.774v21.484a3.58 3.58 0 003.58 3.58h37a2.387 2.387 0 002.387-2.386h-37a3.58 3.58 0 01-3.58-3.581V45.15z" fill="#DB4655"/><path d="M34.644 54.813H32.3v-2.262h2.648a1.193 1.193 0 100-2.387h-3.842c-.66 0-1.193.535-1.193 1.194v9.478a1.193 1.193 0 102.387 0v-3.635h2.343a1.193 1.193 0 100-2.388zM12.753 50.13h-2.659a1.194 1.194 0 00-1.193 1.193v9.548a1.193 1.193 0 102.386 0v-2.96c.536-.003 1.125-.006 1.466-.006 2.172 0 3.94-1.744 3.94-3.887 0-2.145-1.768-3.889-3.94-3.889zm0 5.388c-.338 0-.921.002-1.454.005l-.008-3.007h1.462c.843 0 1.554.688 1.554 1.502 0 .813-.712 1.5-1.554 1.5zm10.009-5.248h-2.624a1.194 1.194 0 00-1.194 1.196l.007 4.62c0 1.289.012 4.648.012 4.648a1.194 1.194 0 001.194 1.19h.004s1.946-.008 2.698-.02c2.804-.05 4.839-2.492 4.839-5.807 0-3.485-1.984-5.827-4.936-5.827zm.055 9.246c-.341.006-.932.011-1.47.014a1414.09 1414.09 0 01-.009-3.444l-.004-3.429h1.428c2.426 0 2.549 2.865 2.549 3.44 0 1.68-.77 3.389-2.494 3.42z" fill="#fff"/><path d="M25.608 40.377c-.921 0-1.753-.48-2.338-1.383-.87-1.342-.641-2.861.626-4.169 1.277-1.32 3.891-2.56 7.037-3.574a61.383 61.383 0 002.914-6.409 59.38 59.38 0 001.354-3.83c-1.573-2.882-2.508-5.566-2.26-7.309.254-1.768 1.574-2.763 3.537-2.655.583.032 1.973.336 2.31 2.477.256 1.637-.176 4.284-1.04 7.29 1.636 2.762 3.88 5.718 6.074 7.988 3.318-.202 6.129.04 7.543.893 1.107.668 1.542 1.757 1.163 2.912-.62 1.89-2.118 2.755-4.01 2.314-1.594-.372-3.569-1.763-5.571-3.695-3.22.284-7.011.94-10.336 1.917-1.985 3.563-4.131 6.336-5.933 7.025-.364.14-.723.208-1.07.208zm-.336-2.68c.2.306.309.3.36.294.76-.078 2.026-1.39 3.471-3.607-.955.41-1.812.854-2.532 1.33-1.807 1.197-1.424 1.788-1.299 1.983zM46.3 31.07c1.02.797 1.968 1.342 2.76 1.527.62.144.937.07 1.2-.732-.351-.534-1.849-.79-3.96-.795zm-9.48-7.36a65.084 65.084 0 01-2.767 6.654 58.057 58.057 0 016.847-1.285 47.292 47.292 0 01-4.08-5.369zm-.574-10.323c-.848 0-.892.317-.94.653-.126.882.184 2.136.797 3.582.54-2.577.43-3.94.167-4.235h-.024z" fill="#E15F78"/></svg>