<svg width="24" height="32" fill="none" xmlns="http://www.w3.org/2000/svg"><path d="M4.584 1.627l1.75-.526a4.125 4.125 0 014.954 2.257l1.352 3.009a4.125 4.125 0 01-.949 4.708l-2.241 2.09a.375.375 0 00-.117.233c-.066.595.337 1.755 1.268 3.367.676 1.171 1.29 1.995 1.81 2.456.363.322.563.391.648.367l3.015-.922a4.126 4.126 0 014.551 1.53l1.922 2.663a4.125 4.125 0 01-.509 5.408l-1.329 1.26a5.625 5.625 0 01-5.38 1.333c-4.132-1.153-7.835-4.639-11.153-10.386C.853 14.72-.312 9.764.762 5.605a5.625 5.625 0 013.822-3.978zm.65 2.156A3.375 3.375 0 002.94 6.168c-.903 3.498.13 7.891 3.184 13.181 3.05 5.284 6.333 8.373 9.81 9.346a3.375 3.375 0 003.227-.802l1.33-1.26a1.875 1.875 0 00.232-2.458l-1.92-2.663a1.876 1.876 0 00-2.07-.695l-3.023.925c-1.755.522-3.348-.89-5.058-3.852-1.152-1.995-1.689-3.54-1.556-4.742.071-.623.36-1.2.82-1.628l2.24-2.09a1.875 1.875 0 00.432-2.14L9.236 4.28a1.875 1.875 0 00-2.25-1.025l-1.752.528z" fill="#00448B"/></svg>