<svg width="24" height="33" fill="none" xmlns="http://www.w3.org/2000/svg"><path d="M4.63.963L6.377.404c1.641-.523 3.391.324 4.095 1.978l1.396 3.296c.607 1.434.271 3.123-.836 4.173l-3.077 2.921c.188 1.749.776 3.47 1.761 5.163a14.103 14.103 0 003.69 4.217l3.697-1.235c1.403-.467 2.929.071 3.787 1.334l2.003 2.941c1 1.47.82 3.494-.419 4.739l-1.33 1.334c-1.322 1.327-3.212 1.81-4.959 1.264-4.126-1.287-7.918-5.107-11.38-11.461C1.34 14.704.116 9.303 1.137 4.87 1.567 3.004 2.894 1.517 4.63.963z" fill="#2F97DA"/></svg>