<svg width="32" height="32" fill="none" xmlns="http://www.w3.org/2000/svg"><g clip-path="url(#clip0)"><path d="M31.37 14.882l-5.139-2.57 5.14-2.569c.919-.46.92-1.776 0-2.236L16.62.132a1.251 1.251 0 00-1.119 0L.752 7.507c-.92.46-.92 1.776 0 2.236l5.14 2.57-5.14 2.569c-.92.46-.92 1.776 0 2.236l5.14 2.57-5.14 2.569c-.92.46-.92 1.776 0 2.236l14.75 7.375a1.25 1.25 0 001.118 0l14.75-7.375c.92-.46.92-1.776 0-2.236l-5.139-2.57 5.14-2.569c.919-.46.92-1.776 0-2.236zM16.061 2.647l11.955 5.978-11.955 5.977L4.106 8.625l11.955-5.978zm11.955 20.728l-11.955 5.977-11.955-5.977 4.58-2.29 6.816 3.408a1.25 1.25 0 001.118 0l6.816-3.408 4.58 2.29zm-11.955-1.398L4.106 16l4.58-2.29 6.816 3.408a1.25 1.25 0 001.118 0l6.816-3.408 4.58 2.29-11.955 5.977z" fill="#fff"/></g><defs><clipPath id="clip0"><path fill="#fff" d="M0 0h32v32H0z"/></clipPath></defs></svg>