<svg width="32" height="32" fill="none" xmlns="http://www.w3.org/2000/svg"><path d="M30.63 24.004l-6.714-6.715a4.735 4.735 0 00-2.61-1.314l2.96-2.96a6.584 6.584 0 005.795-1.819 6.57 6.57 0 001.282-7.465.937.937 0 00-1.508-.259l-2.15 2.15H26.36V4.297l2.15-2.15A.937.937 0 0028.25.64a6.57 6.57 0 00-7.465 1.282 6.584 6.584 0 00-1.819 5.794l-3.638 3.638-5.116-5.116.663-.663a.937.937 0 00-.18-1.465L4.07.134a.937.937 0 00-1.144.14l-2.65 2.65A.937.937 0 00.135 4.07l3.975 6.625a.937.937 0 001.466.18l.662-.662 5.116 5.116-3.638 3.638a6.585 6.585 0 00-5.794 1.818A6.57 6.57 0 00.641 28.25a.937.937 0 001.508.258l2.149-2.15h1.325v1.326l-2.15 2.15a.937.937 0 00.26 1.507 6.569 6.569 0 007.465-1.282 6.584 6.584 0 001.818-5.794l2.96-2.96a4.737 4.737 0 001.315 2.61l6.714 6.714a4.688 4.688 0 006.626 0 4.691 4.691 0 000-6.625zM5.1 8.7L2.117 3.732l1.615-1.615 4.97 2.981-3.604 3.603zm2.463.186l1.325-1.325 5.116 5.116-1.325 1.325-5.116-5.116zm3.765 14.416a.937.937 0 00-.243.905 4.703 4.703 0 01-1.213 4.527 4.696 4.696 0 01-3.975 1.325l1.325-1.325a.937.937 0 00.275-.663v-2.65a.937.937 0 00-.937-.937H3.91a.937.937 0 00-.663.274l-1.325 1.326a4.696 4.696 0 011.325-3.976 4.703 4.703 0 014.527-1.212.937.937 0 00.904-.243L20.655 8.677a.937.937 0 00.243-.904 4.704 4.704 0 011.213-4.527 4.695 4.695 0 013.976-1.326L24.76 3.246a.937.937 0 00-.275.662v2.65c0 .518.42.937.937.937h2.65a.937.937 0 00.663-.274l1.325-1.326a4.695 4.695 0 01-1.325 3.976 4.704 4.704 0 01-4.527 1.213.937.937 0 00-.904.243L11.328 23.303zm17.978 6a2.815 2.815 0 01-3.976.001l-6.713-6.713c-.949-.95-1.24-2.607.036-3.94 1.332-1.275 2.989-.984 3.939-.036l6.713 6.714a2.815 2.815 0 010 3.975z" fill="#fff"/></svg>