<svg width="14" height="14" fill="none" xmlns="http://www.w3.org/2000/svg"><g clip-path="url(#clip0)" fill="#868686"><path d="M6.125 0H2.042A2.044 2.044 0 000 2.042v9.916C0 13.084.916 14 2.042 14h.583a.292.292 0 000-.583h-.583a1.46 1.46 0 01-1.459-1.459V2.042A1.46 1.46 0 012.042.583h4.083a1.46 1.46 0 011.458 1.459v2.916a.292.292 0 00.584 0V2.042A2.044 2.044 0 006.125 0z"/><path d="M7.875 2.334H.292a.292.292 0 000 .583h7.583a.292.292 0 000-.583zM5.25 10.5H.292a.292.292 0 000 .583H5.25a.292.292 0 000-.583zm-.292-9.334h-1.75a.292.292 0 000 .583h1.75a.292.292 0 000-.583zm1.179 0H6.13a.29.29 0 00-.289.292c0 .16.134.291.295.291a.292.292 0 000-.583z"/><path d="M13.166 7.721l-2.194-2.41a1.117 1.117 0 00-1.86.486 1.118 1.118 0 00-1.752.582 1.116 1.116 0 00-1.747.573L4.58 5.918A1.117 1.117 0 003 7.497l3.972 3.971-2.356.37A1.307 1.307 0 003.5 13.126c0 .482.393.875.875.875h5.5c.857 0 1.663-.334 2.269-.94l.917-.918A3.18 3.18 0 0014 9.878a3.2 3.2 0 00-.834-2.157zm-.517 4.01l-.918.917a2.608 2.608 0 01-1.856.77h-5.5a.292.292 0 01-.292-.292c0-.355.265-.66.62-.712l2.925-.46a.292.292 0 00.161-.493L3.413 7.084a.532.532 0 01.754-.754l2.919 2.92a.292.292 0 00.412-.413L6.306 7.645a.532.532 0 01.755-.755l1.191 1.192a.292.292 0 00.415-.41l-.608-.608a.532.532 0 01.754-.755l.608.609h.001l.001.001v.001h.001a.292.292 0 00.408-.418l-.026-.025a.528.528 0 01.003-.754.53.53 0 01.742-.01l2.184 2.4a2.62 2.62 0 01-.086 3.618z"/></g><defs><clipPath id="clip0"><path fill="#fff" d="M0 0h14v14H0z"/></clipPath></defs></svg>