<svg width="33" height="32" fill="none" xmlns="http://www.w3.org/2000/svg"><path d="M30.608 23.498a25.533 25.533 0 00-4.264-4.633v-1.368l6.351-4.94a.547.547 0 00-.336-.979H20.721L17.018.614a.547.547 0 00-1.036 0l-3.703 10.964H.641a.547.547 0 00-.336.979l6.351 4.94v1.369a25.536 25.536 0 00-4.264 4.632L.196 26.573a.547.547 0 00.445.865h2.734v3.28a.547.547 0 001.036.245 14.773 14.773 0 013.179-4.228l-1.453 4.358a.547.547 0 00.84.616l9.523-6.878 9.523 6.878a.547.547 0 00.84-.616l-1.453-4.358a14.772 14.772 0 013.179 4.228.547.547 0 001.036-.244v-3.281h2.734a.547.547 0 00.445-.865l-2.196-3.075zm-22.062.368a14.722 14.722 0 01-.4-.267c.205-.143.415-.28.627-.412l-.227.679zm-.796-1.322v-5.231l.29-.204a14.697 14.697 0 0116.92 0l.29.204v5.231a15.791 15.791 0 00-17.5 0zm16.477.643c.207.128.412.262.613.401-.13.09-.26.177-.392.262l-.22-.663zM12.672 12.672a.547.547 0 00.518-.372l3.31-9.801 3.31 9.801a.547.547 0 00.518.372h10.438l-4.85 3.772-.326-.23a15.791 15.791 0 00-18.18 0l-.326.23-4.85-3.772h10.438zm-8.203 16.03v-1.811a.547.547 0 00-.547-.547H1.703l1.579-2.21a24.438 24.438 0 013.374-3.811v3.268a.546.546 0 00.215.433v.001c.396.305.81.592 1.234.858a15.884 15.884 0 00-3.636 3.82zm12.351-4.989a.547.547 0 00-.64 0l-8.468 6.116 2.47-7.412a14.718 14.718 0 0112.636 0l2.47 7.412-8.468-6.116zm12.258 2.63a.547.547 0 00-.547.548v1.812a15.88 15.88 0 00-3.65-3.83c.386-.242.763-.503 1.127-.778.013-.006.027-.011.04-.018a.546.546 0 00.296-.486v-3.268a24.438 24.438 0 013.374 3.811l1.579 2.21h-2.219z" fill="#fff"/></svg>