<svg width="50" height="49" fill="none" xmlns="http://www.w3.org/2000/svg"><path fill-rule="evenodd" clip-rule="evenodd" d="M25.167 0C11.636 0 .667 10.969.667 24.5S11.636 49 25.167 49c13.53 0 24.5-10.969 24.5-24.5S38.697 0 25.167 0zm-.683 20.761l-.051-.847c-.154-2.198 1.2-4.205 3.342-4.983.788-.277 2.125-.311 2.999-.07.342.104.994.45 1.456.762l.84.57.925-.293c.515-.156 1.2-.415 1.509-.588.29-.156.548-.243.548-.19 0 .293-.634 1.297-1.165 1.85-.72.779-.514.848.942.33.874-.295.891-.295.72.034-.103.173-.634.778-1.2 1.332-.96.951-1.01 1.055-1.01 1.851 0 1.229-.583 3.79-1.166 5.19-1.08 2.63-3.393 5.347-5.707 6.713-3.256 1.92-7.592 2.405-11.242 1.28-1.217-.38-3.307-1.349-3.307-1.522 0-.052.634-.121 1.405-.138a9.648 9.648 0 004.593-1.28l.925-.554-1.062-.363c-1.508-.52-2.862-1.713-3.205-2.838-.103-.363-.069-.38.891-.38l.994-.018-.84-.398c-.994-.502-1.902-1.35-2.347-2.214-.326-.623-.737-2.198-.617-2.319.034-.052.394.052.805.19 1.183.433 1.337.33.651-.397-1.285-1.315-1.68-3.27-1.062-5.121l.291-.83 1.131 1.124c2.314 2.266 5.039 3.616 8.157 4.014l.857.103z" fill="#fff"/></svg>