<svg width="14" height="14" fill="none" xmlns="http://www.w3.org/2000/svg"><path d="M12.932.95a.441.441 0 00-.408-.043c-.03.012-2.913 1.153-5.337.01C5.107-.066 2.815.394 1.75.704V.438a.438.438 0 00-.875 0v13.124a.438.438 0 00.875 0v-4.94c.775-.254 3.073-.855 5.064.086.946.447 1.935.596 2.834.596a9.35 9.35 0 003.204-.585.44.44 0 00.273-.406v-7a.44.44 0 00-.193-.364zm-.682 7.053c-.78.253-3.076.851-5.064-.087-2.08-.982-4.371-.522-5.436-.212V1.622c.775-.253 3.073-.854 5.064.087 2.078.98 4.371.522 5.436.21v6.084z" fill="#868686"/></svg>