<svg width="50" height="49" fill="none" xmlns="http://www.w3.org/2000/svg"><path fill-rule="evenodd" clip-rule="evenodd" d="M24.833 0C11.303 0 .333 10.969.333 24.5S11.303 49 24.833 49c13.531 0 24.5-10.969 24.5-24.5S38.364 0 24.833 0zm1.995 32.234c-.241.255-.713.306-.713.306h-1.562s-3.446.204-6.482-2.898c-3.31-3.384-6.233-10.097-6.233-10.097s-.169-.44.014-.653c.205-.24.767-.254.767-.254l3.733-.024s.352.056.604.238c.208.15.324.43.324.43s.604 1.498 1.402 2.854c1.561 2.646 2.287 3.224 2.816 2.94.772-.412.54-3.74.54-3.74s.015-1.207-.388-1.745c-.312-.417-.9-.538-1.159-.572-.21-.028.134-.507.582-.721.672-.323 1.858-.342 3.26-.328 1.093.011 1.408.078 1.834.18.991.234.96.986.893 2.61-.02.485-.043 1.048-.043 1.7 0 .145-.004.301-.008.462-.024.831-.05 1.784.508 2.138.287.18.986.027 2.736-2.89.829-1.382 1.45-3.007 1.45-3.007s.137-.29.348-.414c.216-.127.507-.088.507-.088l3.93-.023s1.18-.14 1.37.385c.202.548-.44 1.83-2.045 3.93-1.523 1.993-2.264 2.727-2.196 3.376.05.474.531.903 1.456 1.745 1.93 1.759 2.447 2.684 2.57 2.906l.024.041c.865 1.409-.96 1.52-.96 1.52l-3.49.047s-.75.146-1.736-.52c-.517-.347-1.022-.916-1.503-1.457-.735-.827-1.414-1.59-1.993-1.41-.973.303-.943 2.36-.943 2.36s.007.44-.214.673z" fill="#fff"/></svg>