<svg width="14" height="14" fill="none" xmlns="http://www.w3.org/2000/svg"><g clip-path="url(#clip0)" fill="#868686"><path d="M7.208 5.047l-.89-.89c-.325-.325-.502-.738-.486-1.133.032-.72-.269-1.407-.92-2.102-.557-.592-1.32-.93-2.03-.918A2.884 2.884 0 001.095.66a.292.292 0 00.033.477l1.782 1.07a1.584 1.584 0 01-.854 1.257L.46 2.505a.313.313 0 00-.302 0 .292.292 0 00-.152.24 2.894 2.894 0 00.79 2.175 2.93 2.93 0 002.123.916c.21 0 .43-.029.666-.088l1.46 1.46a.293.293 0 00.413 0 .292.292 0 000-.412l-1.58-1.58a.288.288 0 00-.29-.074 2.28 2.28 0 01-.67.11 2.31 2.31 0 01-1.697-.733c-.33-.35-.539-.78-.61-1.244l1.283.769a.29.29 0 00.28.01l.123-.06a2.168 2.168 0 001.205-1.95.292.292 0 00-.142-.25L1.82.872c.332-.183.695-.28 1.07-.284.567-.007 1.152.26 1.596.734.546.582.789 1.115.764 1.677-.024.558.215 1.13.656 1.57l.89.89a.292.292 0 00.412-.412zm3.866 3.119h-.008c-.476 0-.895-.157-1.18-.443l-.93-.93a.292.292 0 00-.413.413l.93.93c.396.396.961.614 1.599.614h.011c1.23 0 2.24.956 2.326 2.165l-1.593-.956a.288.288 0 00-.28-.011l-.123.061a2.168 2.168 0 00-1.205 1.95c0 .102.054.197.142.25l1.676 1.005a2.292 2.292 0 01-.938.203h-.003c-.563 0-1.139-.273-1.581-.747-.537-.577-.776-1.105-.752-1.663.023-.56-.216-1.134-.658-1.575l-.888-.888a.292.292 0 00-.412.412l.887.888c.327.327.505.74.487 1.137-.03.714.267 1.397.909 2.086.552.593 1.284.932 2.008.932l.003.001a2.899 2.899 0 001.681-.544.292.292 0 00-.019-.487l-1.951-1.17c.053-.537.37-1.007.854-1.258l1.872 1.122a.293.293 0 00.277.013.293.293 0 00.162-.227l.01-.07c.013-.098.026-.195.026-.296a2.922 2.922 0 00-2.926-2.917z"/><path d="M13.996 2.74a.312.312 0 00-.164-.245.29.29 0 00-.289.006l-1.596.957a1.586 1.586 0 01-.854-1.257l1.782-1.069a.292.292 0 00.034-.477A2.883 2.883 0 0011.122 0h-.03c-.724 0-1.452.334-2 .919-.651.694-.953 1.382-.922 2.101.018.395-.158.808-.485 1.134L4.116 7.723c-.286.286-.704.443-1.189.443H2.92a2.92 2.92 0 00-2.917 2.917c0 .1.012.198.025.294l.01.072a.29.29 0 00.44.214l1.87-1.123c.486.251.803.722.855 1.257l-1.951 1.171a.292.292 0 00-.02.488 2.9 2.9 0 001.682.543h.005c.723 0 1.454-.34 2.007-.932.641-.69.939-1.372.908-2.087-.017-.396.16-.81.488-1.137l4.097-4.098c.237.06.456.088.667.088.8 0 1.573-.334 2.121-.916.558-.59.838-1.363.79-2.177zm-1.213 1.777a2.313 2.313 0 01-1.698.733 2.26 2.26 0 01-.669-.111.29.29 0 00-.29.073L5.908 9.43c-.442.443-.682 1.017-.658 1.575.024.558-.215 1.088-.752 1.664-.442.475-1.018.747-1.58.747h-.004c-.325 0-.643-.07-.938-.202l1.676-1.006a.292.292 0 00.142-.25 2.17 2.17 0 00-1.206-1.95l-.123-.061a.291.291 0 00-.28.01l-1.594.957A2.338 2.338 0 012.925 8.75h.01c.632 0 1.198-.219 1.594-.615l3.569-3.569c.44-.44.68-1.013.656-1.57-.025-.563.218-1.096.763-1.678.445-.474 1.001-.742 1.597-.734.375.005.738.101 1.07.284l-1.54.923a.292.292 0 00-.142.25c0 .831.461 1.578 1.205 1.95l.123.062c.089.044.195.04.28-.011l1.282-.77c-.07.465-.28.895-.609 1.245z"/></g><defs><clipPath id="clip0"><path fill="#fff" d="M0 0h14v14H0z"/></clipPath></defs></svg>