<svg width="34" height="34" viewBox="0 0 34 34" fill="none" xmlns="http://www.w3.org/2000/svg">
<path fill-rule="evenodd" clip-rule="evenodd" d="M22.8309 7.7937H11.1693C9.3082 7.7937 7.7937 9.3081 7.7937 11.1693V22.8308C7.7937 24.6923 9.3082 26.2068 11.1693 26.2068H22.8309C24.6923 26.2068 26.2068 24.6923 26.2068 22.8308V11.1693C26.2068 9.3082 24.6923 7.7937 22.8309 7.7937ZM16.9999 23.0616C13.6579 23.0616 10.9385 20.3422 10.9385 16.9999C10.9385 13.6579 13.6579 10.9385 16.9999 10.9385C20.3422 10.9385 23.0616 13.6579 23.0616 16.9999C23.0616 20.3422 20.3422 23.0616 16.9999 23.0616ZM23.2566 12.1919C22.4654 12.1919 21.822 11.5486 21.822 10.7578C21.822 9.9669 22.4654 9.32351 23.2566 9.32351C24.0474 9.32351 24.6908 9.9669 24.6908 10.7578C24.6908 11.5486 24.0474 12.1919 23.2566 12.1919Z" fill="black"/>
<path fill-rule="evenodd" clip-rule="evenodd" d="M16.9998 13.5002C15.0705 13.5002 13.4994 15.0706 13.4994 16.9999C13.4994 18.93 15.0705 20.5007 16.9998 20.5007C18.9299 20.5007 20.4998 18.93 20.4998 16.9999C20.4998 15.0706 18.9299 13.5002 16.9998 13.5002Z" fill="black"/>
<path fill-rule="evenodd" clip-rule="evenodd" d="M0 0V34H34V0H0ZM28.7677 22.8307C28.7677 26.1049 26.1049 28.7677 22.8308 28.7677H11.1693C7.89547 28.7677 5.23226 26.1049 5.23226 22.8307V11.1693C5.23226 7.89547 7.89547 5.23226 11.1693 5.23226H22.8308C26.1049 5.23226 28.7677 7.89547 28.7677 11.1693V22.8307Z" fill="black"/>
</svg>
