<svg width="251" height="65" viewBox="0 0 251 65" fill="none" xmlns="http://www.w3.org/2000/svg">
<path fill-rule="evenodd" clip-rule="evenodd" d="M71.9968 27.0165C72.3788 28.1047 73.4974 31.5869 73.7156 32.5662C73.9067 33.3279 73.6612 33.5999 72.8972 33.5999H72.215C72.0514 33.5999 71.9695 33.6272 71.9695 33.7903V34.4161C71.9695 34.5792 72.0514 34.6654 72.1879 34.6654C72.8154 34.6654 73.7703 34.5839 76.0347 34.5839C78.2447 34.5839 78.8176 34.6654 79.3087 34.6654C79.4996 34.6654 79.5817 34.6109 79.5817 34.4705V33.7903C79.5817 33.6816 79.5271 33.5999 79.3633 33.5999H78.4631C77.781 33.5999 77.0715 33.2734 76.6077 32.3758C76.2257 31.5869 74.4524 26.5268 73.8248 24.4049C73.3063 22.6637 71.1783 16.57 70.6599 14.8562C70.578 14.5569 70.5236 14.3936 70.3598 14.3936C70.2235 14.3936 70.1416 14.5025 70.0051 14.6386C69.7051 15.0193 68.5046 15.8355 67.7407 15.9986C67.5496 16.0531 67.4952 16.162 67.4952 16.2435C67.4952 16.3524 67.6043 16.4883 67.6861 16.5972C67.8771 16.8964 67.7407 17.2502 67.6588 17.5222C67.4133 18.2567 65.2032 24.1056 65.0123 24.6497C64.2211 26.8804 62.2294 31.9132 62.0383 32.3484C61.6564 33.219 61.2746 33.5999 60.456 33.5999H59.5011C59.3919 33.5999 59.2782 33.6544 59.2782 33.7903V34.4433C59.2782 34.6109 59.3373 34.6654 59.4739 34.6654C59.8557 34.6654 60.4561 34.5839 62.4476 34.5839C64.0575 34.5839 65.1759 34.6654 65.5579 34.6654C65.6944 34.6654 65.7762 34.6109 65.7762 34.4161V33.7903C65.7762 33.6544 65.6944 33.5999 65.5035 33.5999H64.2211C63.6209 33.5999 63.2936 33.3823 63.2936 33.0014C63.2936 32.8655 63.348 32.5934 63.3753 32.4028C63.5118 31.8317 65.0123 27.6965 65.2851 27.0165H71.9968ZM26.2232 0C32.1111 0 37.6208 1.67278 42.337 4.58226C39.5045 5.35844 37.0441 6.83342 34.9552 9.00601C31.7054 12.386 30.0802 16.6909 30.0802 21.9213C30.0802 26.081 31.1126 29.5525 33.1767 32.336C34.8785 34.6299 37.1936 36.358 40.1228 37.5204C42.4382 38.4379 44.9072 38.8969 47.5292 38.8969C49.4542 38.8969 51.4069 38.6064 53.3876 38.0251C54.8393 37.5926 56.2265 37.0335 57.5518 36.3487C56.0003 50.5482 45.6462 61.9891 32.276 64.6822C33.7239 63.6641 35.0448 62.2918 36.2374 60.5646L35.4244 59.7817C34.0342 61.5711 32.5614 62.8635 31.0064 63.6587C29.6162 64.3794 28.1316 64.7399 26.5529 64.7399C20.3228 64.7399 18.2118 59.5236 17.8025 53.8804C19.5514 53.3118 21.106 52.3919 22.4673 51.119C25.1941 48.5929 26.7762 44.911 27.2128 40.0757C28.5331 40.269 29.7502 40.7738 30.8648 41.5893C32.7267 42.9312 33.9163 44.9195 34.4349 47.5538L35.2124 47.442L34.7883 38.6441H34.0814C34.0107 39.0667 33.9045 39.4146 33.7632 39.688C33.6219 39.9613 33.4097 40.0981 33.127 40.0981C32.9386 40.0981 32.7383 40.0731 32.5263 40.0235C32.3141 39.9737 32.0431 39.8743 31.7134 39.7252C30.8179 39.3524 30.1112 39.0916 29.5924 38.9423C28.8403 38.7368 28.0806 38.5914 27.312 38.5071C27.3284 38.075 27.3369 37.6348 27.3369 37.1858V11.1104C27.3369 9.73929 27.5759 8.65558 28.0544 7.85942C28.7379 6.70903 30.0192 6.13409 31.8985 6.13409H32.8212V4.67461H19.341V6.13409H20.2635C22.1772 6.13409 23.4925 6.75348 24.2102 7.99191C24.6204 8.69968 24.8253 9.73929 24.8253 11.1104V35.8587C24.8253 36.7606 24.7957 37.6231 24.7347 38.4475C21.2238 38.6477 18.2417 39.9497 15.7901 42.3534C13.3987 44.6981 12.0772 47.6431 11.8244 51.19C8.15138 50.6938 5.59647 48.7473 4.16914 45.3468C3.27839 43.2246 2.83635 40.2816 2.83635 36.5223V10.75C8.60707 4.14826 16.9475 0 26.2232 0ZM44.5649 6.09016C49.316 9.61421 53.0821 14.4714 55.3541 20.1319H50.7098V21.1414H51.0441C52.6066 21.1414 53.6806 21.5693 54.2664 22.426C54.6011 22.9154 54.7687 23.6342 54.7687 24.5824V34.4006C52.8714 36.0217 50.4862 36.8321 47.6129 36.8321C39.9489 36.8321 36.1662 29.7778 35.733 22.3929C35.3112 15.2057 38.1076 7.70522 44.5649 6.09016ZM16.9394 63.8462C9.9432 61.6174 3.98523 56.9352 0 50.7714C3.65237 53.2093 8.08049 54.3281 11.8975 54.533C12.2736 57.7121 13.5475 60.4378 15.7196 62.7082C16.1122 63.1184 16.5191 63.4971 16.9394 63.8462ZM17.7484 50.6428C18.881 50.2117 19.8899 49.5748 20.7761 48.7304C22.7936 46.8131 24.057 43.9319 24.567 40.0876C19.7013 40.8281 17.9604 45.5359 17.7484 50.6428ZM199.273 42.1228H204.526V42.5026H204.241C203.661 42.5026 203.265 42.6523 203.055 42.9517C202.907 43.1588 202.833 43.4409 202.833 43.7979V50.4116C202.833 51.39 202.97 52.1557 203.244 52.7082C203.761 53.7444 204.753 54.2625 206.219 54.2625C207.094 54.2625 207.812 54.038 208.371 53.589C209.204 52.9212 209.621 51.8046 209.621 50.2388V43.7979C209.621 43.4409 209.557 43.1704 209.431 42.9862C209.209 42.6638 208.803 42.5026 208.212 42.5026H207.928V42.1228H212.089V42.5026H211.804C211.224 42.5026 210.828 42.6523 210.617 42.9517C210.47 43.1588 210.396 43.4409 210.396 43.7979V50.5843C210.396 52.219 209.895 53.4277 208.893 54.2106C208.133 54.8093 207.179 55.1086 206.029 55.1086C204.816 55.1086 203.798 54.8726 202.975 54.4005C201.636 53.6292 200.966 52.288 200.966 50.377V43.7979C200.966 43.4409 200.903 43.1704 200.776 42.9862C200.555 42.6638 200.148 42.5026 199.558 42.5026H199.273V42.1228ZM223.607 42.0538L223.797 46.129L223.449 46.1808C223.217 44.9605 222.684 44.0396 221.851 43.4178C221.197 42.9228 220.464 42.6754 219.652 42.6754C218.47 42.6754 217.484 43.1301 216.693 44.0396C215.796 45.0756 215.348 46.532 215.348 48.4084C215.348 50.2159 215.786 51.6376 216.661 52.6738C217.484 53.6522 218.571 54.1415 219.921 54.1415C220.627 54.1415 221.292 53.9746 221.914 53.6407C222.611 53.2723 223.27 52.6738 223.892 51.8449L224.256 52.2074C223.549 53.2667 222.742 54.038 221.835 54.5214C221.097 54.9129 220.295 55.1086 219.43 55.1086C217.7 55.1086 216.247 54.4725 215.071 53.2003C213.895 51.9283 213.307 50.3482 213.307 48.4602C213.307 46.5492 213.906 44.9865 215.103 43.7718C216.3 42.5574 217.779 41.95 219.541 41.95C220.132 41.95 220.712 42.0307 221.281 42.1919C221.513 42.2608 221.83 42.3818 222.231 42.5544C222.378 42.6235 222.5 42.6695 222.595 42.6926C222.69 42.7157 222.779 42.7272 222.864 42.7272C222.99 42.7272 223.085 42.6638 223.148 42.5372C223.212 42.4106 223.259 42.2493 223.291 42.0538H223.607ZM236.423 42.0363L236.645 45.8528H236.297C235.917 44.736 235.31 43.9014 234.477 43.3487C233.77 42.8768 232.969 42.6407 232.072 42.6407C230.891 42.6407 229.883 43.107 229.05 44.0396C228.101 45.0987 227.626 46.5319 227.626 48.3393C227.626 50.2272 228.085 51.7183 229.003 52.8118C229.846 53.8249 230.917 54.3316 232.215 54.3316C233.301 54.3316 234.203 54.0264 234.92 53.4162V51.0574C234.92 50.7004 234.857 50.4299 234.73 50.2457C234.509 49.9233 234.103 49.7621 233.512 49.7621H233.385V49.3822H238.322V49.7621H238.195C237.615 49.7621 237.22 49.9123 237.009 50.2111C236.862 50.4187 236.787 50.7006 236.787 51.0574V53.6753C236.049 54.1588 235.252 54.5271 234.398 54.7804C233.649 54.9992 232.911 55.1086 232.183 55.1086C231.191 55.1086 230.258 54.9358 229.382 54.5905C228.275 54.1531 227.399 53.5027 226.756 52.6392C225.975 51.5915 225.585 50.285 225.585 48.7194C225.585 46.7506 226.199 45.1304 227.428 43.8582C228.657 42.5861 230.226 41.95 232.135 41.95C232.694 41.95 233.232 42.0191 233.749 42.1573C234.076 42.2493 234.445 42.3875 234.857 42.5717C235.194 42.7214 235.442 42.7962 235.6 42.7962C235.759 42.7962 235.869 42.7272 235.933 42.5891C235.996 42.4507 236.043 42.2667 236.075 42.0363H236.423ZM186.807 43.7984C186.807 43.5961 186.861 43.4323 186.971 43.3073C187.08 43.1823 187.218 43.1197 187.388 43.1197C187.758 43.1197 188.086 43.48 188.371 44.2002C188.535 44.6082 188.722 44.8611 188.932 44.9624C189.145 45.0664 189.349 45.1171 189.553 45.1171C189.906 45.1171 190.171 45.0366 190.352 44.8788C190.53 44.7243 190.7 44.4414 190.858 44.0336C191.094 43.4293 191.382 43.1287 191.724 43.1287C191.893 43.1287 192.037 43.1912 192.155 43.3161C192.273 43.4412 192.33 43.5961 192.33 43.7806C192.33 44.23 192.049 44.6438 191.482 45.0277C190.913 45.4117 190.277 45.6052 189.567 45.6052C188.641 45.6052 187.948 45.4296 187.491 45.0813C187.034 44.7331 186.807 44.3044 186.807 43.7984ZM187.899 52.5289L191.238 48.5343C191.226 48.0877 191.143 47.7752 190.993 47.6026C190.841 47.427 190.579 47.3376 190.208 47.3317V46.9982H193.797V47.3317C193.42 47.3317 193.167 47.3703 193.041 47.4477C192.911 47.5281 192.808 47.6234 192.736 47.7395C192.664 47.8555 192.627 48.2337 192.627 48.8736V53.1123C192.627 53.7284 192.658 54.0974 192.719 54.2167C192.782 54.3357 192.877 54.4398 193.009 54.529C193.141 54.6185 193.403 54.666 193.797 54.666V54.9875H190.065V54.666C190.53 54.666 190.844 54.5768 191.002 54.3981C191.157 54.2225 191.238 53.794 191.238 53.1123V49.3527L187.899 53.3564C187.911 53.8505 187.98 54.1898 188.104 54.3772C188.227 54.5619 188.492 54.6601 188.903 54.666V54.9875H185.34V54.666C185.841 54.666 186.16 54.5707 186.301 54.3804C186.442 54.1927 186.511 53.7701 186.511 53.1123V48.8736C186.511 48.2514 186.479 47.8853 186.419 47.7721C186.355 47.6591 186.26 47.555 186.131 47.4656C186.002 47.3763 185.737 47.3317 185.34 47.3317V46.9982H189.073V47.3317C188.696 47.3317 188.443 47.3703 188.314 47.4477C188.184 47.5281 188.083 47.6234 188.009 47.7395C187.937 47.8555 187.899 48.2337 187.899 48.8736V52.5289ZM178.667 52.5289L182.005 48.5343C181.993 48.0877 181.91 47.7752 181.76 47.6026C181.608 47.427 181.346 47.3376 180.975 47.3317V46.9982H184.564V47.3317C184.187 47.3317 183.934 47.3703 183.808 47.4477C183.678 47.5281 183.575 47.6234 183.503 47.7395C183.431 47.8555 183.394 48.2337 183.394 48.8736V53.1123C183.394 53.7284 183.425 54.0974 183.486 54.2167C183.549 54.3357 183.644 54.4398 183.776 54.529C183.908 54.6185 184.17 54.666 184.564 54.666V54.9875H180.832V54.666C181.298 54.666 181.611 54.5768 181.769 54.3981C181.924 54.2225 182.005 53.794 182.005 53.1123V49.3527L178.667 53.3564C178.678 53.8505 178.747 54.1898 178.871 54.3772C178.994 54.5619 179.259 54.6601 179.67 54.666V54.9875H176.107V54.666C176.608 54.666 176.927 54.5707 177.068 54.3804C177.209 54.1927 177.278 53.7701 177.278 53.1123V48.8736C177.278 48.2514 177.246 47.8853 177.186 47.7721C177.122 47.6591 177.028 47.555 176.898 47.4656C176.769 47.3763 176.504 47.3317 176.107 47.3317V46.9982H179.84V47.3317C179.463 47.3317 179.21 47.3703 179.081 47.4477C178.951 47.5281 178.851 47.6234 178.776 47.7395C178.704 47.8555 178.667 48.2337 178.667 48.8736V52.5289ZM169.434 50.5672H172.772V48.8736C172.772 48.3675 172.752 48.0402 172.712 47.8853C172.671 47.7304 172.576 47.5995 172.421 47.4923C172.266 47.3853 171.993 47.3317 171.599 47.3317V46.9982H175.331V47.3317C174.983 47.3317 174.73 47.3703 174.569 47.4537C174.408 47.5342 174.302 47.6532 174.244 47.8048C174.189 47.9597 174.161 48.3169 174.161 48.8736V53.1123C174.161 53.6183 174.181 53.9517 174.224 54.1154C174.267 54.2792 174.368 54.4101 174.532 54.5113C174.693 54.6155 174.96 54.666 175.331 54.666V54.9875H171.599V54.666C172.065 54.666 172.378 54.5768 172.536 54.3981C172.691 54.2225 172.772 53.794 172.772 53.1123V51.1328H169.434V53.1123C169.434 53.6183 169.457 53.9517 169.497 54.1154C169.54 54.2792 169.643 54.4101 169.805 54.5113C169.968 54.6155 170.236 54.666 170.607 54.666V54.9875H166.875V54.666C167.375 54.666 167.694 54.5707 167.835 54.3804C167.976 54.1927 168.045 53.7701 168.045 53.1123V48.8736C168.045 48.3675 168.025 48.0342 167.982 47.8705C167.938 47.7097 167.838 47.5788 167.674 47.4806C167.51 47.3793 167.245 47.3317 166.875 47.3317V46.9982H170.607V47.3317C170.259 47.3317 170.003 47.3703 169.842 47.4537C169.684 47.5342 169.575 47.6532 169.52 47.8048C169.462 47.9597 169.434 48.3169 169.434 48.8736V50.5672ZM163.74 53.8356C162.95 54.4696 162.452 54.8357 162.248 54.9339C161.946 55.0799 161.624 55.1543 161.282 55.1543C160.747 55.1543 160.307 54.9637 159.962 54.5857C159.617 54.2077 159.444 53.7106 159.444 53.0944C159.444 52.7045 159.528 52.368 159.697 52.0823C159.927 51.6895 160.327 51.3173 160.897 50.966C161.466 50.6178 162.415 50.1952 163.74 49.695V49.3796C163.74 48.5848 163.62 48.0371 163.375 47.7395C163.131 47.4448 162.774 47.2961 162.308 47.2961C161.955 47.2961 161.673 47.3941 161.466 47.5936C161.253 47.79 161.147 48.0162 161.147 48.2723L161.164 48.7783C161.164 49.0462 161.098 49.2516 160.965 49.3975C160.833 49.5433 160.661 49.6148 160.448 49.6148C160.238 49.6148 160.068 49.5403 159.936 49.3885C159.804 49.2368 159.738 49.0314 159.738 48.7693C159.738 48.2693 159.985 47.8109 160.479 47.3912C160.974 46.9746 161.667 46.7632 162.561 46.7632C163.246 46.7632 163.806 46.8822 164.246 47.1203C164.577 47.3019 164.821 47.5846 164.98 47.9687C165.08 48.2187 165.129 48.7276 165.129 49.5016V52.2134C165.129 52.9753 165.143 53.4426 165.172 53.6154C165.201 53.7849 165.247 53.901 165.31 53.9577C165.376 54.0172 165.451 54.047 165.535 54.047C165.624 54.047 165.704 54.0261 165.77 53.9844C165.888 53.91 166.115 53.6957 166.452 53.3475V53.8356C165.825 54.7077 165.224 55.1453 164.649 55.1453C164.376 55.1453 164.157 55.0471 163.993 54.8476C163.829 54.6512 163.746 54.3118 163.74 53.8356ZM163.74 53.2699V50.225C162.892 50.5761 162.346 50.8232 162.098 50.966C161.653 51.2222 161.336 51.49 161.147 51.7698C160.954 52.0496 160.859 52.3532 160.859 52.6867C160.859 53.1033 160.98 53.4517 161.221 53.7284C161.463 54.0022 161.742 54.1422 162.055 54.1422C162.484 54.1422 163.044 53.8506 163.74 53.2699ZM155.882 47.5667H152.543V53.1123C152.543 53.7284 152.575 54.0974 152.638 54.2167C152.699 54.3357 152.797 54.4398 152.929 54.529C153.061 54.6185 153.323 54.666 153.717 54.666V54.9875H149.984V54.666C150.485 54.666 150.804 54.5707 150.945 54.3804C151.086 54.1927 151.155 53.7701 151.155 53.1123V48.8736C151.155 48.2514 151.123 47.8853 151.063 47.7721C150.999 47.6591 150.904 47.555 150.775 47.4656C150.646 47.3763 150.381 47.3317 149.984 47.3317V46.9982H158.441V47.3317C158.064 47.3317 157.811 47.3703 157.685 47.4477C157.555 47.5281 157.452 47.6234 157.38 47.7395C157.308 47.8555 157.271 48.2337 157.271 48.8736V53.1123C157.271 53.7284 157.302 54.0974 157.363 54.2167C157.426 54.3357 157.521 54.4398 157.653 54.529C157.785 54.6185 158.047 54.666 158.441 54.666V54.9875H154.709V54.666C155.174 54.666 155.488 54.5768 155.646 54.3981C155.801 54.2225 155.882 53.794 155.882 53.1123V47.5667ZM144.205 52.904L146.614 46.9982H149.217V47.3317C148.834 47.3317 148.581 47.3703 148.455 47.4477C148.328 47.5281 148.228 47.6234 148.156 47.7395C148.084 47.8555 148.046 48.2337 148.046 48.8736V53.1123C148.046 53.6658 148.072 54.0203 148.127 54.1808C148.179 54.3416 148.288 54.4606 148.455 54.544C148.621 54.6243 148.874 54.666 149.217 54.666V54.9875H145.484V54.666C145.944 54.666 146.255 54.5768 146.41 54.3981C146.568 54.2225 146.646 53.794 146.646 53.1123V48.3081L143.917 54.9875H143.624L140.844 48.3081V53.1123C140.844 53.6658 140.872 54.0203 140.927 54.1808C140.984 54.3416 141.094 54.4606 141.255 54.544C141.419 54.6243 141.672 54.666 142.014 54.666V54.9875H139.067V54.666C139.567 54.666 139.886 54.5707 140.027 54.3804C140.168 54.1927 140.237 53.7701 140.237 53.1123V48.8736C140.237 48.2514 140.205 47.8853 140.145 47.7721C140.082 47.6591 139.987 47.555 139.857 47.4656C139.728 47.3763 139.463 47.3317 139.067 47.3317V46.9982H141.778L144.205 52.904ZM134.693 46.7632C135.86 46.7632 136.798 47.2244 137.508 48.1413C138.109 48.9272 138.408 49.8291 138.408 50.8441C138.408 51.5613 138.241 52.2848 137.911 53.017C137.58 53.7492 137.123 54.3028 136.542 54.675C135.961 55.0471 135.314 55.2316 134.601 55.2316C133.437 55.2316 132.513 54.7525 131.829 53.794C131.251 52.9843 130.961 52.0765 130.961 51.0732C130.961 50.338 131.136 49.6117 131.487 48.8884C131.838 48.1651 132.301 47.6293 132.873 47.284C133.445 46.9358 134.052 46.7632 134.693 46.7632ZM134.431 47.3317C134.135 47.3317 133.836 47.421 133.534 47.6055C133.235 47.79 132.991 48.1086 132.807 48.57C132.62 49.0283 132.528 49.6177 132.528 50.338C132.528 51.5019 132.752 52.505 133.198 53.3475C133.644 54.1898 134.233 54.6124 134.963 54.6124C135.507 54.6124 135.955 54.3803 136.312 53.916C136.666 53.4486 136.841 52.6509 136.841 51.5169C136.841 50.0968 136.548 48.9807 135.955 48.168C135.559 47.6084 135.05 47.3317 134.431 47.3317ZM131.156 54.9875H128.882C128.175 53.925 127.533 52.8325 126.961 51.7162C126.826 51.4602 126.705 51.2698 126.593 51.1447C126.484 51.0196 126.334 50.9573 126.145 50.9573C126.076 50.9573 125.969 50.9631 125.823 50.975V53.1123C125.823 53.6867 125.857 54.0559 125.92 54.2167C125.986 54.3743 126.101 54.4904 126.271 54.5588C126.438 54.6303 126.722 54.666 127.122 54.666V54.9875H123.263V54.666C123.764 54.666 124.083 54.5707 124.224 54.3804C124.365 54.1927 124.434 53.7701 124.434 53.1123V48.8736C124.434 48.2514 124.402 47.8853 124.342 47.7721C124.278 47.6591 124.184 47.555 124.054 47.4656C123.925 47.3763 123.66 47.3317 123.263 47.3317V46.9982H127.122V47.3317C126.654 47.3317 126.366 47.3645 126.257 47.4358C126.147 47.5042 126.05 47.5907 125.958 47.6918C125.868 47.7929 125.823 48.1889 125.823 48.8736V50.4452C125.952 50.4571 126.041 50.46 126.084 50.46C126.426 50.46 126.748 50.3618 127.05 50.1594C127.349 49.96 127.617 49.5343 127.853 48.8825C128.074 48.2664 128.255 47.8526 128.396 47.6353C128.54 47.421 128.741 47.2452 128.994 47.1084C129.25 46.9715 129.52 46.9029 129.799 46.9029C130.104 46.9029 130.346 46.9804 130.524 47.1293C130.705 47.2811 130.794 47.4806 130.794 47.7246C130.794 47.927 130.728 48.0996 130.601 48.2425C130.472 48.3855 130.291 48.4568 130.061 48.4568C129.937 48.4568 129.782 48.4211 129.598 48.3496C129.362 48.2633 129.181 48.2216 129.057 48.2216C128.801 48.2216 128.586 48.4509 128.419 48.9092C128.226 49.439 128.088 49.7784 127.996 49.9332C127.907 50.0881 127.735 50.2934 127.484 50.5493C127.657 50.6001 127.847 50.734 128.051 50.9512C128.258 51.1656 128.637 51.7787 129.192 52.7908C129.638 53.5974 129.969 54.1095 130.19 54.3237C130.414 54.5411 130.734 54.6541 131.156 54.666V54.9875ZM115.816 53.8356C115.025 54.4696 114.528 54.8357 114.324 54.9339C114.022 55.0799 113.7 55.1543 113.358 55.1543C112.823 55.1543 112.383 54.9637 112.038 54.5857C111.693 54.2077 111.52 53.7106 111.52 53.0944C111.52 52.7045 111.604 52.368 111.773 52.0823C112.003 51.6895 112.403 51.3173 112.972 50.966C113.542 50.6178 114.49 50.1952 115.816 49.695V49.3796C115.816 48.5848 115.695 48.0371 115.451 47.7395C115.206 47.4448 114.85 47.2961 114.384 47.2961C114.03 47.2961 113.749 47.3941 113.542 47.5936C113.329 47.79 113.222 48.0162 113.222 48.2723L113.24 48.7783C113.24 49.0462 113.174 49.2516 113.041 49.3975C112.909 49.5433 112.737 49.6148 112.524 49.6148C112.314 49.6148 112.144 49.5403 112.012 49.3885C111.88 49.2368 111.814 49.0314 111.814 48.7693C111.814 48.2693 112.061 47.8109 112.555 47.3912C113.05 46.9746 113.743 46.7632 114.637 46.7632C115.322 46.7632 115.882 46.8822 116.322 47.1203C116.653 47.3019 116.897 47.5846 117.055 47.9687C117.156 48.2187 117.205 48.7276 117.205 49.5016V52.2134C117.205 52.9753 117.219 53.4426 117.248 53.6154C117.277 53.7849 117.323 53.901 117.386 53.9577C117.452 54.0172 117.527 54.047 117.61 54.047C117.699 54.047 117.78 54.0261 117.846 53.9844C117.964 53.91 118.191 53.6957 118.528 53.3475V53.8356C117.901 54.7077 117.3 55.1453 116.725 55.1453C116.452 55.1453 116.233 55.0471 116.069 54.8476C115.905 54.6512 115.822 54.3118 115.816 53.8356ZM115.816 53.2699V50.225C114.968 50.5761 114.422 50.8232 114.174 50.966C113.729 51.2222 113.412 51.49 113.222 51.7698C113.03 52.0496 112.935 52.3532 112.935 52.6867C112.935 53.1033 113.056 53.4517 113.297 53.7284C113.539 54.0022 113.818 54.1422 114.131 54.1422C114.56 54.1422 115.12 53.8506 115.816 53.2699ZM107.958 47.5667H104.619V53.1123C104.619 53.7284 104.651 54.0974 104.714 54.2167C104.775 54.3357 104.872 54.4398 105.004 54.529C105.137 54.6185 105.399 54.666 105.793 54.666V54.9875H102.06V54.666C102.56 54.666 102.88 54.5707 103.021 54.3804C103.161 54.1927 103.23 53.7701 103.23 53.1123V48.8736C103.23 48.2514 103.199 47.8853 103.138 47.7721C103.075 47.6591 102.98 47.555 102.851 47.4656C102.721 47.3763 102.457 47.3317 102.06 47.3317V46.9982H110.517V47.3317C110.14 47.3317 109.887 47.3703 109.76 47.4477C109.631 47.5281 109.528 47.6234 109.456 47.7395C109.384 47.8555 109.346 48.2337 109.346 48.8736V53.1123C109.346 53.7284 109.378 54.0974 109.438 54.2167C109.502 54.3357 109.597 54.4398 109.729 54.529C109.861 54.6185 110.123 54.666 110.517 54.666V54.9875H106.784V54.666C107.25 54.666 107.564 54.5768 107.722 54.3981C107.877 54.2225 107.958 53.794 107.958 53.1123V47.5667ZM98.7248 47.5667H95.3865V53.1123C95.3865 53.7284 95.4179 54.0974 95.4812 54.2167C95.5416 54.3357 95.6395 54.4398 95.7716 54.529C95.9039 54.6185 96.1655 54.666 96.5595 54.666V54.9875H92.8272V54.666C93.3275 54.666 93.6467 54.5707 93.7877 54.3804C93.9285 54.1927 93.9976 53.7701 93.9976 53.1123V48.8736C93.9976 48.2514 93.966 47.8853 93.9055 47.7721C93.8423 47.6591 93.7474 47.555 93.618 47.4656C93.4886 47.3763 93.224 47.3317 92.8272 47.3317V46.9982H101.284V47.3317C100.907 47.3317 100.654 47.3703 100.528 47.4477C100.398 47.5281 100.295 47.6234 100.223 47.7395C100.151 47.8555 100.113 48.2337 100.113 48.8736V53.1123C100.113 53.7284 100.145 54.0974 100.206 54.2167C100.269 54.3357 100.364 54.4398 100.496 54.529C100.628 54.6185 100.89 54.666 101.284 54.666V54.9875H97.5514V54.666C98.0174 54.666 98.3307 54.5768 98.489 54.3981C98.6442 54.2225 98.7248 53.794 98.7248 53.1123V47.5667ZM83.9134 46.9982H87.5107V47.3228H87.3353C87.0823 47.3228 86.8924 47.3793 86.7659 47.4923C86.6394 47.6055 86.5762 47.7454 86.5762 47.9151C86.5762 48.1413 86.6682 48.4568 86.855 48.8558L88.7327 52.8861L90.4609 48.4747C90.5558 48.2337 90.6017 47.9983 90.6017 47.7662C90.6017 47.662 90.5816 47.5847 90.5443 47.5311C90.4982 47.4685 90.4291 47.418 90.3344 47.3793C90.2365 47.3405 90.0698 47.3228 89.8281 47.3228V46.9982H92.3384V47.3228C92.1314 47.3465 91.9704 47.3912 91.8583 47.4627C91.7461 47.5311 91.6226 47.662 91.4873 47.8555C91.4357 47.9358 91.3407 48.1593 91.1999 48.5254L88.0599 56.4968C87.755 57.2705 87.3583 57.8539 86.8666 58.2498C86.375 58.6458 85.9033 58.8423 85.4461 58.8423C85.1154 58.8423 84.8423 58.744 84.6296 58.5446C84.4167 58.3482 84.3104 58.1218 84.3104 57.866C84.3104 57.6218 84.3879 57.4254 84.5404 57.2766C84.6957 57.1277 84.9085 57.0533 85.1788 57.0533C85.3627 57.0533 85.6159 57.1189 85.9349 57.2467C86.1593 57.3331 86.3001 57.3779 86.3577 57.3779C86.5244 57.3779 86.7083 57.2855 86.9097 57.1069C87.1081 56.9253 87.3093 56.5771 87.5107 56.0592L88.0599 54.675L85.288 48.6474C85.2016 48.4687 85.0695 48.2425 84.8826 47.9775C84.7416 47.7721 84.6266 47.6353 84.5375 47.5667C84.4081 47.4746 84.2012 47.3912 83.9134 47.3228V46.9982ZM75.3966 47.7929L77.7717 46.7988H78.0938V48.6653C78.4905 47.9627 78.8901 47.4685 79.2927 47.1858C79.6954 46.906 80.1181 46.7632 80.5608 46.7632C81.3371 46.7632 81.9813 47.0786 82.4987 47.7068C83.1342 48.4747 83.4506 49.4719 83.4506 50.7071C83.4506 52.0823 83.0681 53.2224 82.3034 54.1243C81.6766 54.8626 80.8829 55.2316 79.9282 55.2316C79.5141 55.2316 79.1548 55.172 78.85 55.05C78.6257 54.9606 78.3727 54.7882 78.0938 54.5263V56.958C78.0938 57.5057 78.1254 57.8511 78.1886 57.9998C78.2547 58.1487 78.3669 58.2678 78.5278 58.3541C78.6861 58.4404 78.9765 58.485 79.3991 58.485V58.8065H75.3535V58.485H75.5663C75.8739 58.491 76.1385 58.4285 76.357 58.3005C76.4634 58.2379 76.5468 58.1337 76.6072 57.9909C76.6646 57.8481 76.6934 57.488 76.6934 56.9075V49.3527C76.6934 48.8377 76.6733 48.5075 76.6273 48.3675C76.5812 48.2276 76.5093 48.1236 76.4116 48.055C76.3138 47.9835 76.1816 47.9508 76.0119 47.9508C75.8767 47.9508 75.7071 47.9895 75.4973 48.0728L75.3966 47.7929ZM78.0938 49.1801V52.1626C78.0938 52.8087 78.1167 53.2313 78.1685 53.4367C78.2461 53.7732 78.4388 54.0678 78.7463 54.3237C79.0513 54.5797 79.4365 54.7077 79.9052 54.7077C80.4659 54.7077 80.9201 54.4815 81.2681 54.029C81.7225 53.4367 81.9497 52.6002 81.9497 51.5256C81.9497 50.3053 81.6937 49.3646 81.1761 48.7099C80.8168 48.2545 80.3884 48.0283 79.8966 48.0283C79.6263 48.0283 79.359 48.0996 79.0944 48.2364C78.893 48.3438 78.5596 48.6563 78.0938 49.1801ZM76.0034 43.1614L76.0465 45.9267H75.7158C75.6928 45.37 75.5778 44.9205 75.3706 44.5842C75.1637 44.2479 74.9107 44.0336 74.6087 43.9443C74.3098 43.852 73.8755 43.8073 73.3062 43.8073H70.1058V52.8325C70.1058 53.6123 70.2035 54.1064 70.3962 54.3149C70.5918 54.5263 71.0375 54.6422 71.7392 54.666V54.9875H66.8366V54.666C67.5468 54.6422 67.9981 54.5263 68.1937 54.3149C68.3892 54.1064 68.4899 53.6123 68.4899 52.8325V45.3164C68.4899 44.5367 68.3892 44.0425 68.1937 43.8342C67.9981 43.6257 67.5468 43.5096 66.8366 43.4858V43.1614H76.0034ZM240.318 35.6719C240.318 38.3381 240.318 39.8071 240.235 40.4056C240.18 40.8136 240.125 41.0856 239.657 41.0856H238.583C238.308 41.0856 238.253 41.1945 238.253 41.3305V41.8203C238.253 41.9833 238.308 42.0651 238.501 42.0651C238.721 42.0651 239.685 41.9833 241.281 41.9833C243.043 41.9833 243.98 42.0651 244.117 42.0651C244.31 42.0651 244.365 41.9833 244.365 41.8203V41.3577C244.365 41.1945 244.337 41.0856 244.117 41.0856H242.906C242.493 41.0856 242.3 40.9497 242.3 40.1878V34.4433C243.154 34.8015 244.31 34.9102 245.053 34.9102C248.495 34.9102 251 32.0491 251 28.4855C251 26.3907 250.559 25.2755 249.513 24.2416C248.715 23.5071 247.779 22.9086 246.375 22.9086C244.53 22.9086 243.098 23.7791 242.355 24.7314H242.273L242.162 23.4254C242.162 23.0174 242.107 22.8813 241.97 22.8813C241.777 22.8813 241.557 22.9902 241.337 23.0989L238.694 24.4049C238.556 24.4592 238.501 24.5136 238.501 24.5953V24.8129C238.501 24.8946 238.501 24.9762 238.694 25.0577L239.327 25.4114C240.125 25.8466 240.318 26.2276 240.318 26.8804V35.6719ZM242.3 25.9011C242.961 24.8129 244.09 24.1599 245.246 24.1599C247.091 24.1599 248.825 25.6835 248.825 29.4922C248.825 32.8655 247.201 34.0353 245.631 34.0353C244.503 34.0353 243.649 33.8448 242.878 33.3007C242.355 32.9469 242.3 32.4573 242.3 31.8587V25.9011ZM235.142 27.0165C235.142 24.3505 235.28 23.643 235.307 23.3982C235.335 23.2623 235.225 23.1263 235.06 23.1263C234.977 23.1263 234.867 23.1534 234.729 23.1534C234.592 23.1806 234.454 23.2078 234.261 23.2078H231.701C231.425 23.2078 231.37 23.2351 231.37 23.4527V23.9151C231.37 24.0512 231.508 24.1056 231.976 24.1056C232.664 24.1599 233.105 24.296 233.16 25.0577V31.5595C233.16 31.8043 232.995 32.158 232.885 32.2941C232.361 32.9469 231.26 33.6544 230.517 33.6544C229.774 33.6544 229.003 33.5999 228.315 32.6206C227.433 31.3691 227.709 29.6281 227.709 28.5399V26.5811C227.709 24.9762 227.791 23.6975 227.819 23.4527C227.847 23.2623 227.709 23.1263 227.516 23.1263C227.433 23.1263 227.323 23.1534 227.213 23.1534C227.103 23.1806 226.993 23.2078 226.828 23.2078H224.377C224.13 23.2078 224.075 23.2623 224.075 23.4254V23.9151C224.075 24.0512 224.212 24.0784 224.68 24.1056C225.313 24.1873 225.699 24.3777 225.726 25.1394V28.3223C225.726 31.3147 225.671 32.2125 226.8 33.6544C227.709 34.8287 228.617 34.9102 229.388 34.9102C230.765 34.9102 232.362 34.0624 233.132 33.0014H233.188L233.408 34.5792C233.435 34.8559 233.545 34.9102 233.655 34.9102C233.876 34.9102 234.041 34.8559 234.206 34.8015L237.097 33.8448C237.207 33.8175 237.262 33.7631 237.234 33.5999L237.152 33.2462C237.124 33.1375 237.042 33.083 236.822 33.1375C236.491 33.219 236.078 33.219 235.913 33.219C235.582 33.219 235.28 33.1103 235.197 32.2669C235.142 31.6956 235.142 30.3626 235.142 29.0568V27.0165ZM216.614 34.9102C220 34.9102 222.698 31.8861 222.698 28.9207C222.698 27.1524 222.065 25.7378 220.826 24.4866C220 23.6703 218.486 22.9086 216.972 22.9086C216.063 22.9086 214.714 23.1263 213.282 24.2144C211.658 25.4659 210.915 27.2069 210.915 28.5943C210.915 30.5257 211.163 31.5324 212.429 33.0286C213.585 34.3889 215.292 34.9102 216.614 34.9102ZM216.944 34.0896C215.65 34.0896 214.852 33.5727 214.219 32.6749C213.337 31.4235 213.172 30.3898 213.172 28.8664C213.172 26.7989 213.558 25.6835 214.631 24.5953C215.292 23.888 216.008 23.7247 216.751 23.7247C218.155 23.7247 220.385 25.629 220.385 28.6488C220.385 31.5595 219.036 34.0896 216.944 34.0896ZM203.509 29.9001C203.509 31.3147 203.509 32.2669 203.481 33.1647C203.481 33.5183 203.289 33.6816 202.876 33.6816H201.802C201.554 33.6816 201.499 33.736 201.499 33.9264V34.3889C201.499 34.6109 201.554 34.6654 201.664 34.6654C201.83 34.6654 202.986 34.5839 204.693 34.5839C206.179 34.5839 207.446 34.6654 207.611 34.6654C207.721 34.6654 207.749 34.5792 207.749 34.4161V33.9264C207.749 33.7631 207.721 33.6816 207.556 33.6816H206.262C205.684 33.6816 205.491 33.4096 205.491 32.5662V26.9076C205.491 26.8259 205.601 26.3363 205.767 26.037C206.235 25.1666 206.95 24.8946 207.391 24.8946C207.749 24.8946 208.079 24.9762 208.299 25.1122C208.52 25.221 208.795 25.3298 209.098 25.3298C209.593 25.3298 210.254 24.7857 210.254 23.9968C210.254 23.3712 209.786 22.7997 208.85 22.7997C207.666 22.7997 206.372 23.9151 205.546 25.1666H205.436L205.299 23.235C205.299 23.0719 205.271 22.9086 205.106 22.9086C204.996 22.9086 204.886 22.9358 204.72 23.0174L201.995 24.4049C201.83 24.4866 201.774 24.5408 201.774 24.6497V24.8129C201.774 24.9218 201.83 24.9488 201.995 25.0033L202.518 25.2755C203.289 25.6835 203.509 25.9555 203.509 27.3428V29.9001ZM195.745 30.5802C195.745 31.9949 195.635 32.5934 195.002 32.9742C194.038 33.5183 192.689 33.8992 190.487 33.8992C188.697 33.8992 187.018 33.2734 185.641 31.9676C183.934 30.3626 183.026 27.5606 183.026 24.3505C183.026 21.902 183.962 19.6441 185.448 18.0934C187.1 16.3523 188.807 15.8899 190.707 15.8899C193.185 15.8899 194.892 17.1141 195.718 18.1208C196.681 19.2904 197.149 20.569 197.369 21.3307C197.397 21.4668 197.48 21.5485 197.59 21.5485L198.085 21.494C198.195 21.494 198.223 21.3852 198.223 21.2492L198.14 16.0531C198.14 15.8627 198.085 15.7268 197.893 15.7268C197.727 15.7268 197.617 15.8627 197.507 15.9716L197.094 16.4612C196.929 16.6788 196.764 16.7331 196.461 16.4883C195.525 15.781 193.405 14.9104 191.037 14.9104C187.734 14.9104 185.256 15.8355 183.301 17.495C181.264 19.2904 180.19 21.9292 180.19 24.4049C180.19 27.6965 181.044 30.0089 182.723 31.8861C184.623 34.0896 187.981 34.9919 190.432 34.9919C193.515 34.9919 195.718 34.3616 197.948 33.2462C198.223 33.1375 198.388 33.0286 198.388 32.811C198.388 32.5934 198.278 32.3214 198.278 31.9404V28.3495C198.278 27.5062 198.636 27.3158 199.131 27.3158H200.205C200.37 27.3158 200.398 27.2069 200.398 27.098V26.4452C200.398 26.3363 200.37 26.2548 200.178 26.2548C199.792 26.2548 198.911 26.3363 196.929 26.3363C195.057 26.3363 193.818 26.2548 193.433 26.2548C193.295 26.2548 193.267 26.3092 193.267 26.4724V27.1524C193.267 27.2613 193.323 27.3158 193.46 27.3158H194.616C195.442 27.3158 195.745 27.5878 195.745 28.5671V30.5802ZM167.406 34.9102C169.726 34.9102 171.526 33.5183 171.553 31.3146C171.526 29.2199 170.271 28.404 168.28 27.8326C166.943 27.4517 165.66 27.1524 165.66 25.5746C165.66 24.4049 166.724 23.7791 167.761 23.7791C168.825 23.7791 169.344 24.3232 169.671 24.8401L170.599 26.0915C170.68 26.2276 170.735 26.2548 170.844 26.2276L171.172 26.1187C171.308 26.0642 171.363 25.9826 171.363 25.8739L170.953 23.9695C170.926 23.8064 170.871 23.6703 170.462 23.4799C169.971 23.2351 169.262 22.9086 167.952 22.9086C165.906 22.9086 164.133 24.3505 164.133 26.2276C164.133 28.3766 165.742 29.2199 167.352 29.6825C169.398 30.2539 169.998 30.9611 169.998 32.1852C169.998 33.4638 168.798 34.0353 167.843 34.0353C166.397 34.0353 166.015 33.3551 165.469 32.3484L164.787 31.0156C164.733 30.8795 164.651 30.825 164.542 30.8524L164.187 30.9339C164.078 30.9611 163.996 31.0156 164.023 31.1515L164.487 33.736C164.515 33.872 164.515 34.0353 164.651 34.1168C164.978 34.3616 166.07 34.9102 167.406 34.9102ZM157.885 23.7791C158.539 23.7791 159.112 23.8608 159.713 24.9762C160.122 25.7107 160.586 26.0643 161.213 26.0643C161.786 26.0643 162.195 25.7377 162.223 25.1122C162.223 24.5408 161.35 22.9086 158.512 22.9086C154.911 22.9086 152.673 26.1187 152.673 29.3016C152.673 30.5257 152.892 31.6684 153.901 33.0014C155.156 34.5792 156.684 34.9102 158.13 34.9102C159.986 34.9102 161.732 33.872 162.523 32.9742C162.659 32.811 162.632 32.7293 162.523 32.6206L162.25 32.3484C162.168 32.2669 162.086 32.2941 162.032 32.3484C161.104 33.219 160.395 33.5183 159.031 33.5183C158.103 33.5183 156.957 33.3007 156.057 32.131C155.32 31.1243 154.665 29.4648 154.665 27.9958C154.665 25.1937 156.329 23.7791 157.885 23.7791ZM147.435 30.6618C147.435 31.478 147.435 32.3213 147.408 33.1375C147.381 33.5727 147.271 33.6816 146.971 33.6816H145.635C145.443 33.6816 145.362 33.736 145.362 33.8992V34.4433C145.362 34.6109 145.443 34.6654 145.58 34.6654C145.88 34.6654 146.944 34.5839 148.526 34.5839C149.672 34.5839 150.927 34.6654 151.146 34.6654C151.337 34.6654 151.391 34.5792 151.391 34.3889V33.9264C151.391 33.7631 151.337 33.6816 151.118 33.6816H149.863C149.563 33.6816 149.481 33.491 149.427 32.9742C149.4 32.6749 149.4 31.6956 149.4 30.6346V27.6695C149.4 25.4114 149.4 23.6975 149.454 23.235C149.481 23.0447 149.454 22.9086 149.318 22.9086C149.154 22.9086 149.018 22.963 148.799 23.0719C147.763 23.643 146.726 24.0784 145.853 24.4049C145.716 24.4592 145.662 24.5136 145.662 24.5953V24.8401C145.662 24.9488 145.716 25.0033 145.907 25.0307C147.271 25.2481 147.435 25.7377 147.435 26.6628V30.6618ZM147.708 19.8345C148.854 19.8345 149.345 18.9639 149.345 18.2295C149.345 17.6037 148.881 16.7876 147.872 16.7876C146.753 16.7876 146.153 17.6037 146.153 18.3111C146.153 19.2088 147.081 19.8345 147.708 19.8345ZM140.287 28.4584C140.287 27.2069 140.314 25.8739 140.369 24.6225H143.888C144.052 24.6225 144.107 24.5408 144.134 24.4049L144.407 23.4527C144.461 23.3438 144.379 23.2078 144.216 23.2078H140.423L140.56 20.5418C140.56 20.3242 140.505 20.1338 140.287 20.1338C140.123 20.1338 139.987 20.1882 139.905 20.4059C139.55 21.3307 137.449 23.4254 136.795 23.8064C136.467 23.9967 136.303 24.0784 136.303 24.296C136.303 24.5136 136.467 24.6225 136.713 24.6225H138.377C138.35 25.7651 138.322 27.615 138.322 28.1047V28.7032C138.322 29.084 138.241 31.478 138.241 32.5934C138.241 33.6272 139.55 34.9102 140.887 34.9102C142.524 34.9102 143.643 34.0896 143.916 33.8175C143.997 33.736 144.052 33.6272 143.97 33.5183L143.834 33.2734C143.752 33.1647 143.643 33.1375 143.506 33.219C143.124 33.4638 142.333 33.5727 141.706 33.5727C141.214 33.5727 140.287 33.219 140.287 31.1787V28.4584ZM133.93 27.3428C134.366 27.3428 134.694 27.2885 134.694 26.9076C134.694 25.8466 133.821 22.9086 130.683 22.9086C129.319 22.9086 127.955 23.1534 126.782 24.3505C125.336 25.7922 125.063 27.615 125.063 28.6758C125.063 30.5802 125.308 31.5869 126.263 32.9742C127.273 34.4433 128.992 34.9102 130.547 34.9102C132.975 34.9102 134.394 33.0286 134.885 31.9404C135.021 31.6413 134.967 31.5595 134.885 31.5324L134.53 31.342C134.448 31.3146 134.339 31.3691 134.284 31.478C133.821 32.3758 132.648 33.3279 130.983 33.3279C128.801 33.3279 127.109 31.3147 127.109 28.6488C127.109 28.023 127.136 27.5878 127.191 27.3428H133.93ZM127.3 26.5268C127.818 24.5136 128.964 23.7247 130.165 23.7247C131.938 23.7247 132.266 25.5203 132.266 26.1459C132.266 26.3907 132.047 26.5268 131.529 26.5268H127.3ZM112.021 27.9686C112.021 29.737 112.021 32.7293 111.94 33.2462C111.885 33.5727 111.476 33.6816 111.039 33.6816H110.466C110.166 33.6816 110.057 33.7087 110.057 33.8992V34.3889C110.057 34.5792 110.139 34.6654 110.248 34.6654C110.494 34.6654 111.53 34.5839 112.895 34.5839C114.15 34.5839 115.268 34.6654 115.486 34.6654C115.65 34.6654 115.705 34.552 115.705 34.3616V33.8992C115.705 33.736 115.596 33.6816 115.405 33.6816H114.586C114.068 33.6816 113.986 33.4368 113.986 32.5662V26.6356C113.986 26.1459 114.286 25.6018 114.531 25.3025C115.295 24.4321 116.278 24.1599 117.069 24.1599C117.751 24.1599 118.324 24.4049 118.869 24.9218C119.661 25.6563 119.77 26.7444 119.77 28.2679V30.4715C119.77 31.3421 119.797 32.7838 119.77 33.1647C119.743 33.6271 119.197 33.6816 118.733 33.6816H118.106C117.942 33.6816 117.914 33.7631 117.914 33.8992V34.3616C117.914 34.5792 117.969 34.6654 118.16 34.6654C118.406 34.6654 119.388 34.5839 120.725 34.5839C122.28 34.5839 123.153 34.6654 123.344 34.6654C123.508 34.6654 123.562 34.552 123.562 34.3344V33.9264C123.562 33.736 123.48 33.6816 123.262 33.6816H122.798C122.225 33.6816 121.789 33.5999 121.789 33.2734C121.789 32.7566 121.734 31.0698 121.734 29.5464V27.9958C121.734 26.5268 121.789 25.1394 120.561 23.9968C119.797 23.2623 119.006 22.9086 117.86 22.9086C116.66 22.9086 115.077 23.5343 114.122 24.677H113.986V22.9358C113.986 21.5755 114.013 16.0531 114.068 15.5907C114.122 15.1282 114.013 14.9104 113.849 14.9104C113.631 14.9104 113.44 15.0193 113.222 15.1282L110.384 16.6244C110.139 16.7605 110.057 16.7876 110.057 16.8964V17.1413C110.057 17.2229 110.084 17.2502 110.248 17.3044L110.712 17.4678C111.694 17.7943 112.021 18.0934 112.021 19.7529V27.9686ZM105.255 28.4584C105.255 27.2069 105.282 25.8739 105.337 24.6225H108.857C109.02 24.6225 109.075 24.5408 109.102 24.4049L109.375 23.4527C109.429 23.3438 109.348 23.2078 109.184 23.2078H105.392L105.528 20.5418C105.528 20.3242 105.473 20.1338 105.255 20.1338C105.091 20.1338 104.955 20.1882 104.873 20.4059C104.518 21.3307 102.418 23.4254 101.763 23.8064C101.435 23.9967 101.272 24.0784 101.272 24.296C101.272 24.5136 101.435 24.6225 101.681 24.6225H103.345C103.318 25.7651 103.291 27.615 103.291 28.1047V28.7032C103.291 29.084 103.209 31.478 103.209 32.5934C103.209 33.6272 104.518 34.9102 105.855 34.9102C107.492 34.9102 108.611 34.0896 108.884 33.8175C108.966 33.736 109.02 33.6272 108.938 33.5183L108.802 33.2734C108.72 33.1647 108.611 33.1375 108.475 33.219C108.093 33.4638 107.301 33.5727 106.674 33.5727C106.183 33.5727 105.255 33.219 105.255 31.1787V28.4584ZM95.4604 34.9102C97.7796 34.9102 99.5803 33.5183 99.6075 31.3146C99.5803 29.2199 98.3252 28.404 96.3335 27.8326C94.9967 27.4517 93.7143 27.1524 93.7143 25.5746C93.7143 24.4049 94.7783 23.7791 95.815 23.7791C96.8792 23.7791 97.3975 24.3232 97.725 24.8401L98.6525 26.0915C98.7344 26.2276 98.789 26.2548 98.8982 26.2276L99.2256 26.1187C99.3619 26.0642 99.4165 25.9826 99.4165 25.8739L99.0074 23.9695C98.9801 23.8064 98.9253 23.6703 98.5162 23.4799C98.0251 23.2351 97.3158 22.9086 96.0061 22.9086C93.9598 22.9086 92.1865 24.3505 92.1865 26.2276C92.1865 28.3766 93.7962 29.2199 95.4058 29.6825C97.4521 30.2539 98.0522 30.9611 98.0522 32.1852C98.0522 33.4638 96.8519 34.0353 95.8969 34.0353C94.451 34.0353 94.069 33.3551 93.5234 32.3484L92.8414 31.0156C92.7866 30.8795 92.7047 30.825 92.5957 30.8524L92.2411 30.9339C92.1319 30.9611 92.0502 31.0156 92.0773 31.1515L92.5411 33.736C92.5684 33.872 92.5684 34.0353 92.7047 34.1168C93.0323 34.3616 94.1236 34.9102 95.4604 34.9102ZM89.1854 27.3428C89.6219 27.3428 89.9493 27.2885 89.9493 26.9076C89.9493 25.8466 89.0762 22.9086 85.9386 22.9086C84.5743 22.9086 83.2103 23.1534 82.0371 24.3505C80.5911 25.7922 80.3183 27.615 80.3183 28.6758C80.3183 30.5802 80.5638 31.5869 81.5186 32.9742C82.528 34.4433 84.247 34.9102 85.8023 34.9102C88.2304 34.9102 89.649 33.0286 90.1402 31.9404C90.2766 31.6413 90.2221 31.5595 90.1402 31.5324L89.7855 31.342C89.7038 31.3146 89.5946 31.3691 89.54 31.478C89.0762 32.3758 87.903 33.3279 86.2387 33.3279C84.0561 33.3279 82.3646 31.3147 82.3646 28.6488C82.3646 28.023 82.3917 27.5878 82.4463 27.3428H89.1854ZM82.5555 26.5268C83.0738 24.5136 84.2198 23.7247 85.4201 23.7247C87.1936 23.7247 87.521 25.5203 87.521 26.1459C87.521 26.3907 87.3027 26.5268 86.7844 26.5268H82.5555ZM65.6399 26.037C65.8308 25.357 68.4227 18.3926 68.5592 18.0391C68.6411 17.8215 68.7502 17.6309 68.8592 17.6309C68.9411 17.6309 68.9957 17.8215 69.0774 18.0119C69.2139 18.42 71.4238 25.2211 71.6695 26.037H65.6399Z" fill="#333333"/>
</svg>
